<?xml version="1.0" encoding="utf-8" standalone="no"?>
<!DOCTYPE svg PUBLIC "-//W3C//DTD SVG 1.1//EN"
  "http://www.w3.org/Graphics/SVG/1.1/DTD/svg11.dtd">
<svg xmlns:xlink="http://www.w3.org/1999/xlink" width="584.39952pt" height="419.828091pt" viewBox="0 0 584.39952 419.828091" xmlns="http://www.w3.org/2000/svg" version="1.1">
 <metadata>
  <rdf:RDF xmlns:dc="http://purl.org/dc/elements/1.1/" xmlns:cc="http://creativecommons.org/ns#" xmlns:rdf="http://www.w3.org/1999/02/22-rdf-syntax-ns#">
   <cc:Work>
    <dc:type rdf:resource="http://purl.org/dc/dcmitype/StillImage"/>
    <dc:date>2025-01-15T19:27:25.014900</dc:date>
    <dc:format>image/svg+xml</dc:format>
    <dc:creator>
     <cc:Agent>
      <dc:title>Matplotlib v3.10.0, https://matplotlib.org/</dc:title>
     </cc:Agent>
    </dc:creator>
   </cc:Work>
  </rdf:RDF>
 </metadata>
 <defs>
  <style type="text/css">*{stroke-linejoin: round; stroke-linecap: butt}</style>
 </defs>
 <g id="figure_1">
  <g id="patch_1">
   <path d="M 0 419.828091 
L 584.39952 419.828091 
L 584.39952 0 
L 0 0 
z
" style="fill: #ffffff"/>
  </g>
  <g id="axes_1">
   <g id="patch_2">
    <path d="M 44.379643 382.145609 
L 577.19952 382.145609 
L 577.19952 7.2 
L 44.379643 7.2 
z
" style="fill: #ffffff"/>
   </g>
   <g id="FillBetweenPolyCollection_1">
    <defs>
     <path id="mf7223b89c9" d="M 68.598728 -55.085068 
L 68.598728 -55.087084 
L 76.950137 -55.726533 
L 85.301546 -56.54949 
L 93.652955 -57.555965 
L 102.004363 -58.745967 
L 110.355772 -60.119498 
L 118.707181 -61.676561 
L 127.05859 -63.417159 
L 135.409998 -65.341291 
L 143.761407 -67.44896 
L 152.112816 -69.740166 
L 160.464224 -72.21491 
L 168.815633 -74.873192 
L 177.167042 -77.715013 
L 185.518451 -80.740372 
L 193.869859 -83.94927 
L 202.221268 -87.341708 
L 210.572677 -90.917686 
L 218.924086 -94.677203 
L 227.275494 -98.62026 
L 235.626903 -102.746857 
L 243.978312 -107.056995 
L 252.32972 -111.550673 
L 260.681129 -116.227891 
L 269.032538 -121.08865 
L 277.383947 -126.132949 
L 285.735355 -131.360789 
L 294.086764 -136.77217 
L 302.438173 -142.367091 
L 310.789582 -148.145554 
L 319.14099 -154.107557 
L 327.492399 -160.253101 
L 335.843808 -166.582186 
L 344.195216 -173.094813 
L 352.546625 -179.79098 
L 360.898034 -186.670688 
L 369.249443 -193.733938 
L 377.600851 -200.980729 
L 385.95226 -208.41106 
L 394.303669 -216.024934 
L 402.655078 -223.822348 
L 411.006486 -231.803304 
L 419.357895 -239.967801 
L 427.709304 -248.315839 
L 436.060712 -256.847419 
L 444.412121 -265.56254 
L 452.76353 -274.461202 
L 461.114939 -283.543406 
L 469.466347 -292.809151 
L 477.817756 -302.258437 
L 486.169165 -311.891265 
L 494.520574 -321.707635 
L 502.871982 -331.707546 
L 511.223391 -341.890998 
L 519.5748 -352.257992 
L 527.926209 -362.808527 
L 536.277617 -373.542604 
L 544.629026 -384.460223 
L 552.980435 -395.561383 
L 552.980435 -395.550199 
L 552.980435 -395.550199 
L 544.629026 -384.449136 
L 536.277617 -373.531614 
L 527.926209 -362.797635 
L 519.5748 -352.247198 
L 511.223391 -341.880303 
L 502.871982 -331.69695 
L 494.520574 -321.69714 
L 486.169165 -311.880873 
L 477.817756 -302.248147 
L 469.466347 -292.798964 
L 461.114939 -283.533324 
L 452.76353 -274.451226 
L 444.412121 -265.55267 
L 436.060712 -256.837657 
L 427.709304 -248.306186 
L 419.357895 -239.958258 
L 411.006486 -231.793872 
L 402.655078 -223.813029 
L 394.303669 -216.015728 
L 385.95226 -208.40197 
L 377.600851 -200.971754 
L 369.249443 -193.725081 
L 360.898034 -186.661951 
L 352.546625 -179.782364 
L 344.195216 -173.086319 
L 335.843808 -166.573816 
L 327.492399 -160.244857 
L 319.14099 -154.099441 
L 310.789582 -148.137567 
L 302.438173 -142.359236 
L 294.086764 -136.764448 
L 285.735355 -131.353204 
L 277.383947 -126.125502 
L 269.032538 -121.081344 
L 260.681129 -116.220728 
L 252.32972 -111.543656 
L 243.978312 -107.050128 
L 235.626903 -102.740143 
L 227.275494 -98.613701 
L 218.924086 -94.670804 
L 210.572677 -90.91145 
L 202.221268 -87.33564 
L 193.869859 -83.943375 
L 185.518451 -80.734653 
L 177.167042 -77.709477 
L 168.815633 -74.867845 
L 160.464224 -72.209759 
L 152.112816 -69.735219 
L 143.761407 -67.444224 
L 135.409998 -65.336777 
L 127.05859 -63.412876 
L 118.707181 -61.672525 
L 110.355772 -60.115723 
L 102.004363 -58.742473 
L 93.652955 -57.552776 
L 85.301546 -56.546638 
L 76.950137 -55.724065 
L 68.598728 -55.085068 
z
" style="stroke: #32cd32; stroke-opacity: 0.3"/>
    </defs>
    <g clip-path="url(#pefbab91ac9)">
     <use xlink:href="#mf7223b89c9" x="0" y="419.828091" style="fill: #32cd32; fill-opacity: 0.3; stroke: #32cd32; stroke-opacity: 0.3"/>
    </g>
   </g>
   <g id="PathCollection_1">
    <defs>
     <path id="mcae140cbb4" d="M 0 2.95804 
C 0.784481 2.95804 1.536938 2.646362 2.09165 2.09165 
C 2.646362 1.536938 2.95804 0.784481 2.95804 0 
C 2.95804 -0.784481 2.646362 -1.536938 2.09165 -2.09165 
C 1.536938 -2.646362 0.784481 -2.95804 0 -2.95804 
C -0.784481 -2.95804 -1.536938 -2.646362 -2.09165 -2.09165 
C -2.646362 -1.536938 -2.95804 -0.784481 -2.95804 0 
C -2.95804 0.784481 -2.646362 1.536938 -2.09165 2.09165 
C -1.536938 2.646362 -0.784481 2.95804 0 2.95804 
z
" style="stroke: #32cd32"/>
    </defs>
    <g clip-path="url(#pefbab91ac9)">
     <use xlink:href="#mcae140cbb4" x="68.598728" y="364.736015" style="fill: #32cd32; stroke: #32cd32"/>
     <use xlink:href="#mcae140cbb4" x="76.950137" y="364.185503" style="fill: #32cd32; stroke: #32cd32"/>
     <use xlink:href="#mcae140cbb4" x="85.301546" y="363.268372" style="fill: #32cd32; stroke: #32cd32"/>
     <use xlink:href="#mcae140cbb4" x="93.652955" y="362.350956" style="fill: #32cd32; stroke: #32cd32"/>
     <use xlink:href="#mcae140cbb4" x="102.004363" y="361.066909" style="fill: #32cd32; stroke: #32cd32"/>
     <use xlink:href="#mcae140cbb4" x="110.355772" y="359.78259" style="fill: #32cd32; stroke: #32cd32"/>
     <use xlink:href="#mcae140cbb4" x="118.707181" y="358.131624" style="fill: #32cd32; stroke: #32cd32"/>
     <use xlink:href="#mcae140cbb4" x="127.05859" y="356.480405" style="fill: #32cd32; stroke: #32cd32"/>
     <use xlink:href="#mcae140cbb4" x="135.409998" y="354.462518" style="fill: #32cd32; stroke: #32cd32"/>
     <use xlink:href="#mcae140cbb4" x="143.761407" y="352.444401" style="fill: #32cd32; stroke: #32cd32"/>
     <use xlink:href="#mcae140cbb4" x="152.112816" y="350.059591" style="fill: #32cd32; stroke: #32cd32"/>
     <use xlink:href="#mcae140cbb4" x="160.464224" y="347.674579" style="fill: #32cd32; stroke: #32cd32"/>
     <use xlink:href="#mcae140cbb4" x="168.815633" y="344.922843" style="fill: #32cd32; stroke: #32cd32"/>
     <use xlink:href="#mcae140cbb4" x="177.167042" y="342.170937" style="fill: #32cd32; stroke: #32cd32"/>
     <use xlink:href="#mcae140cbb4" x="185.518451" y="339.052273" style="fill: #32cd32; stroke: #32cd32"/>
     <use xlink:href="#mcae140cbb4" x="193.869859" y="335.933477" style="fill: #32cd32; stroke: #32cd32"/>
     <use xlink:href="#mcae140cbb4" x="202.221268" y="332.447883" style="fill: #32cd32; stroke: #32cd32"/>
     <use xlink:href="#mcae140cbb4" x="210.572677" y="328.962198" style="fill: #32cd32; stroke: #32cd32"/>
     <use xlink:href="#mcae140cbb4" x="218.924086" y="325.109671" style="fill: #32cd32; stroke: #32cd32"/>
     <use xlink:href="#mcae140cbb4" x="227.275494" y="321.2571" style="fill: #32cd32; stroke: #32cd32"/>
     <use xlink:href="#mcae140cbb4" x="235.626903" y="317.037638" style="fill: #32cd32; stroke: #32cd32"/>
     <use xlink:href="#mcae140cbb4" x="243.978312" y="312.818183" style="fill: #32cd32; stroke: #32cd32"/>
     <use xlink:href="#mcae140cbb4" x="252.32972" y="308.231784" style="fill: #32cd32; stroke: #32cd32"/>
     <use xlink:href="#mcae140cbb4" x="260.681129" y="303.645447" style="fill: #32cd32; stroke: #32cd32"/>
     <use xlink:href="#mcae140cbb4" x="269.032538" y="298.692108" style="fill: #32cd32; stroke: #32cd32"/>
     <use xlink:href="#mcae140cbb4" x="277.383947" y="293.738892" style="fill: #32cd32; stroke: #32cd32"/>
     <use xlink:href="#mcae140cbb4" x="285.735355" y="288.418611" style="fill: #32cd32; stroke: #32cd32"/>
     <use xlink:href="#mcae140cbb4" x="294.086764" y="283.098519" style="fill: #32cd32; stroke: #32cd32"/>
     <use xlink:href="#mcae140cbb4" x="302.438173" y="277.411294" style="fill: #32cd32; stroke: #32cd32"/>
     <use xlink:href="#mcae140cbb4" x="310.789582" y="271.724327" style="fill: #32cd32; stroke: #32cd32"/>
     <use xlink:href="#mcae140cbb4" x="319.14099" y="265.670155" style="fill: #32cd32; stroke: #32cd32"/>
     <use xlink:href="#mcae140cbb4" x="327.492399" y="259.616315" style="fill: #32cd32; stroke: #32cd32"/>
     <use xlink:href="#mcae140cbb4" x="335.843808" y="253.195194" style="fill: #32cd32; stroke: #32cd32"/>
     <use xlink:href="#mcae140cbb4" x="344.195216" y="246.774485" style="fill: #32cd32; stroke: #32cd32"/>
     <use xlink:href="#mcae140cbb4" x="352.546625" y="239.986413" style="fill: #32cd32; stroke: #32cd32"/>
     <use xlink:href="#mcae140cbb4" x="360.898034" y="233.198836" style="fill: #32cd32; stroke: #32cd32"/>
     <use xlink:href="#mcae140cbb4" x="369.249443" y="226.043811" style="fill: #32cd32; stroke: #32cd32"/>
     <use xlink:href="#mcae140cbb4" x="377.600851" y="218.889369" style="fill: #32cd32; stroke: #32cd32"/>
     <use xlink:href="#mcae140cbb4" x="385.95226" y="211.367387" style="fill: #32cd32; stroke: #32cd32"/>
     <use xlink:href="#mcae140cbb4" x="394.303669" y="203.846082" style="fill: #32cd32; stroke: #32cd32"/>
     <use xlink:href="#mcae140cbb4" x="402.655078" y="195.957142" style="fill: #32cd32; stroke: #32cd32"/>
     <use xlink:href="#mcae140cbb4" x="411.006486" y="188.068976" style="fill: #32cd32; stroke: #32cd32"/>
     <use xlink:href="#mcae140cbb4" x="419.357895" y="179.813076" style="fill: #32cd32; stroke: #32cd32"/>
     <use xlink:href="#mcae140cbb4" x="427.709304" y="171.558052" style="fill: #32cd32; stroke: #32cd32"/>
     <use xlink:href="#mcae140cbb4" x="436.060712" y="162.935188" style="fill: #32cd32; stroke: #32cd32"/>
     <use xlink:href="#mcae140cbb4" x="444.412121" y="154.313308" style="fill: #32cd32; stroke: #32cd32"/>
     <use xlink:href="#mcae140cbb4" x="452.76353" y="145.323479" style="fill: #32cd32; stroke: #32cd32"/>
     <use xlink:href="#mcae140cbb4" x="461.114939" y="136.334746" style="fill: #32cd32; stroke: #32cd32"/>
     <use xlink:href="#mcae140cbb4" x="469.466347" y="126.97795" style="fill: #32cd32; stroke: #32cd32"/>
     <use xlink:href="#mcae140cbb4" x="477.817756" y="117.622365" style="fill: #32cd32; stroke: #32cd32"/>
     <use xlink:href="#mcae140cbb4" x="486.169165" y="107.898599" style="fill: #32cd32; stroke: #32cd32"/>
     <use xlink:href="#mcae140cbb4" x="494.520574" y="98.176165" style="fill: #32cd32; stroke: #32cd32"/>
     <use xlink:href="#mcae140cbb4" x="502.871982" y="88.085426" style="fill: #32cd32; stroke: #32cd32"/>
     <use xlink:href="#mcae140cbb4" x="511.223391" y="77.996146" style="fill: #32cd32; stroke: #32cd32"/>
     <use xlink:href="#mcae140cbb4" x="519.5748" y="67.538433" style="fill: #32cd32; stroke: #32cd32"/>
     <use xlink:href="#mcae140cbb4" x="527.926209" y="57.082308" style="fill: #32cd32; stroke: #32cd32"/>
     <use xlink:href="#mcae140cbb4" x="536.277617" y="46.257618" style="fill: #32cd32; stroke: #32cd32"/>
     <use xlink:href="#mcae140cbb4" x="544.629026" y="35.434652" style="fill: #32cd32; stroke: #32cd32"/>
     <use xlink:href="#mcae140cbb4" x="552.980435" y="24.242982" style="fill: #32cd32; stroke: #32cd32"/>
    </g>
   </g>
   <g id="FillBetweenPolyCollection_2">
    <defs>
     <path id="m7faecd7634" d="M 68.598728 -54.725465 
L 68.598728 -54.725465 
L 76.950137 -54.909069 
L 85.301546 -55.092673 
L 93.652955 -55.276277 
L 102.004363 -55.459881 
L 110.355772 -55.643485 
L 118.707181 -55.827088 
L 127.05859 -56.010691 
L 135.409998 -56.194294 
L 143.761407 -56.377897 
L 152.112816 -56.5615 
L 160.464224 -56.745102 
L 168.815633 -56.928705 
L 177.167042 -57.112307 
L 185.518451 -57.295908 
L 193.869859 -57.47951 
L 202.221268 -57.663111 
L 210.572677 -57.846713 
L 218.924086 -58.030314 
L 227.275494 -58.213915 
L 235.626903 -58.397515 
L 243.978312 -58.581116 
L 252.32972 -58.764716 
L 260.681129 -58.948316 
L 269.032538 -59.131916 
L 277.383947 -59.315516 
L 285.735355 -59.499115 
L 294.086764 -59.682714 
L 302.438173 -59.866314 
L 310.789582 -60.049912 
L 319.14099 -60.233511 
L 327.492399 -60.41711 
L 335.843808 -60.600708 
L 344.195216 -60.784306 
L 352.546625 -60.967904 
L 360.898034 -61.151502 
L 369.249443 -61.335099 
L 377.600851 -61.518697 
L 385.95226 -61.702294 
L 394.303669 -61.885891 
L 402.655078 -62.069487 
L 411.006486 -62.253084 
L 419.357895 -62.43668 
L 427.709304 -62.620277 
L 436.060712 -62.803872 
L 444.412121 -62.987468 
L 452.76353 -63.171064 
L 461.114939 -63.354659 
L 469.466347 -63.538254 
L 477.817756 -63.721849 
L 486.169165 -63.905444 
L 494.520574 -64.089039 
L 502.871982 -64.272633 
L 511.223391 -64.456227 
L 519.5748 -64.639821 
L 527.926209 -64.823415 
L 536.277617 -65.007009 
L 544.629026 -65.190602 
L 552.980435 -65.374195 
L 552.980435 -65.374195 
L 552.980435 -65.374195 
L 544.629026 -65.190602 
L 536.277617 -65.007009 
L 527.926209 -64.823415 
L 519.5748 -64.639821 
L 511.223391 -64.456227 
L 502.871982 -64.272633 
L 494.520574 -64.089039 
L 486.169165 -63.905444 
L 477.817756 -63.721849 
L 469.466347 -63.538254 
L 461.114939 -63.354659 
L 452.76353 -63.171064 
L 444.412121 -62.987468 
L 436.060712 -62.803872 
L 427.709304 -62.620277 
L 419.357895 -62.43668 
L 411.006486 -62.253084 
L 402.655078 -62.069487 
L 394.303669 -61.885891 
L 385.95226 -61.702294 
L 377.600851 -61.518697 
L 369.249443 -61.335099 
L 360.898034 -61.151502 
L 352.546625 -60.967904 
L 344.195216 -60.784306 
L 335.843808 -60.600708 
L 327.492399 -60.41711 
L 319.14099 -60.233511 
L 310.789582 -60.049912 
L 302.438173 -59.866314 
L 294.086764 -59.682714 
L 285.735355 -59.499115 
L 277.383947 -59.315516 
L 269.032538 -59.131916 
L 260.681129 -58.948316 
L 252.32972 -58.764716 
L 243.978312 -58.581116 
L 235.626903 -58.397515 
L 227.275494 -58.213915 
L 218.924086 -58.030314 
L 210.572677 -57.846713 
L 202.221268 -57.663111 
L 193.869859 -57.47951 
L 185.518451 -57.295908 
L 177.167042 -57.112307 
L 168.815633 -56.928705 
L 160.464224 -56.745102 
L 152.112816 -56.5615 
L 143.761407 -56.377897 
L 135.409998 -56.194294 
L 127.05859 -56.010691 
L 118.707181 -55.827088 
L 110.355772 -55.643485 
L 102.004363 -55.459881 
L 93.652955 -55.276277 
L 85.301546 -55.092673 
L 76.950137 -54.909069 
L 68.598728 -54.725465 
z
" style="stroke: #1e90ff; stroke-opacity: 0.3"/>
    </defs>
    <g clip-path="url(#pefbab91ac9)">
     <use xlink:href="#m7faecd7634" x="0" y="419.828091" style="fill: #1e90ff; fill-opacity: 0.3; stroke: #1e90ff; stroke-opacity: 0.3"/>
    </g>
   </g>
   <g id="PathCollection_2">
    <defs>
     <path id="m0bb53b92ce" d="M 0 -2.95804 
L -2.95804 2.95804 
L 2.95804 2.95804 
z
" style="stroke: #1e90ff"/>
    </defs>
    <g clip-path="url(#pefbab91ac9)">
     <use xlink:href="#m0bb53b92ce" x="68.598728" y="365.102627" style="fill: #1e90ff; stroke: #1e90ff"/>
     <use xlink:href="#m0bb53b92ce" x="76.950137" y="364.919022" style="fill: #1e90ff; stroke: #1e90ff"/>
     <use xlink:href="#m0bb53b92ce" x="85.301546" y="364.735418" style="fill: #1e90ff; stroke: #1e90ff"/>
     <use xlink:href="#m0bb53b92ce" x="93.652955" y="364.551814" style="fill: #1e90ff; stroke: #1e90ff"/>
     <use xlink:href="#m0bb53b92ce" x="102.004363" y="364.36821" style="fill: #1e90ff; stroke: #1e90ff"/>
     <use xlink:href="#m0bb53b92ce" x="110.355772" y="364.184607" style="fill: #1e90ff; stroke: #1e90ff"/>
     <use xlink:href="#m0bb53b92ce" x="118.707181" y="364.001003" style="fill: #1e90ff; stroke: #1e90ff"/>
     <use xlink:href="#m0bb53b92ce" x="127.05859" y="363.8174" style="fill: #1e90ff; stroke: #1e90ff"/>
     <use xlink:href="#m0bb53b92ce" x="135.409998" y="363.633797" style="fill: #1e90ff; stroke: #1e90ff"/>
     <use xlink:href="#m0bb53b92ce" x="143.761407" y="363.450194" style="fill: #1e90ff; stroke: #1e90ff"/>
     <use xlink:href="#m0bb53b92ce" x="152.112816" y="363.266592" style="fill: #1e90ff; stroke: #1e90ff"/>
     <use xlink:href="#m0bb53b92ce" x="160.464224" y="363.082989" style="fill: #1e90ff; stroke: #1e90ff"/>
     <use xlink:href="#m0bb53b92ce" x="168.815633" y="362.899387" style="fill: #1e90ff; stroke: #1e90ff"/>
     <use xlink:href="#m0bb53b92ce" x="177.167042" y="362.715785" style="fill: #1e90ff; stroke: #1e90ff"/>
     <use xlink:href="#m0bb53b92ce" x="185.518451" y="362.532183" style="fill: #1e90ff; stroke: #1e90ff"/>
     <use xlink:href="#m0bb53b92ce" x="193.869859" y="362.348581" style="fill: #1e90ff; stroke: #1e90ff"/>
     <use xlink:href="#m0bb53b92ce" x="202.221268" y="362.16498" style="fill: #1e90ff; stroke: #1e90ff"/>
     <use xlink:href="#m0bb53b92ce" x="210.572677" y="361.981379" style="fill: #1e90ff; stroke: #1e90ff"/>
     <use xlink:href="#m0bb53b92ce" x="218.924086" y="361.797778" style="fill: #1e90ff; stroke: #1e90ff"/>
     <use xlink:href="#m0bb53b92ce" x="227.275494" y="361.614177" style="fill: #1e90ff; stroke: #1e90ff"/>
     <use xlink:href="#m0bb53b92ce" x="235.626903" y="361.430576" style="fill: #1e90ff; stroke: #1e90ff"/>
     <use xlink:href="#m0bb53b92ce" x="243.978312" y="361.246976" style="fill: #1e90ff; stroke: #1e90ff"/>
     <use xlink:href="#m0bb53b92ce" x="252.32972" y="361.063375" style="fill: #1e90ff; stroke: #1e90ff"/>
     <use xlink:href="#m0bb53b92ce" x="260.681129" y="360.879775" style="fill: #1e90ff; stroke: #1e90ff"/>
     <use xlink:href="#m0bb53b92ce" x="269.032538" y="360.696175" style="fill: #1e90ff; stroke: #1e90ff"/>
     <use xlink:href="#m0bb53b92ce" x="277.383947" y="360.512576" style="fill: #1e90ff; stroke: #1e90ff"/>
     <use xlink:href="#m0bb53b92ce" x="285.735355" y="360.328976" style="fill: #1e90ff; stroke: #1e90ff"/>
     <use xlink:href="#m0bb53b92ce" x="294.086764" y="360.145377" style="fill: #1e90ff; stroke: #1e90ff"/>
     <use xlink:href="#m0bb53b92ce" x="302.438173" y="359.961778" style="fill: #1e90ff; stroke: #1e90ff"/>
     <use xlink:href="#m0bb53b92ce" x="310.789582" y="359.778179" style="fill: #1e90ff; stroke: #1e90ff"/>
     <use xlink:href="#m0bb53b92ce" x="319.14099" y="359.59458" style="fill: #1e90ff; stroke: #1e90ff"/>
     <use xlink:href="#m0bb53b92ce" x="327.492399" y="359.410982" style="fill: #1e90ff; stroke: #1e90ff"/>
     <use xlink:href="#m0bb53b92ce" x="335.843808" y="359.227383" style="fill: #1e90ff; stroke: #1e90ff"/>
     <use xlink:href="#m0bb53b92ce" x="344.195216" y="359.043785" style="fill: #1e90ff; stroke: #1e90ff"/>
     <use xlink:href="#m0bb53b92ce" x="352.546625" y="358.860187" style="fill: #1e90ff; stroke: #1e90ff"/>
     <use xlink:href="#m0bb53b92ce" x="360.898034" y="358.67659" style="fill: #1e90ff; stroke: #1e90ff"/>
     <use xlink:href="#m0bb53b92ce" x="369.249443" y="358.492992" style="fill: #1e90ff; stroke: #1e90ff"/>
     <use xlink:href="#m0bb53b92ce" x="377.600851" y="358.309395" style="fill: #1e90ff; stroke: #1e90ff"/>
     <use xlink:href="#m0bb53b92ce" x="385.95226" y="358.125798" style="fill: #1e90ff; stroke: #1e90ff"/>
     <use xlink:href="#m0bb53b92ce" x="394.303669" y="357.942201" style="fill: #1e90ff; stroke: #1e90ff"/>
     <use xlink:href="#m0bb53b92ce" x="402.655078" y="357.758604" style="fill: #1e90ff; stroke: #1e90ff"/>
     <use xlink:href="#m0bb53b92ce" x="411.006486" y="357.575007" style="fill: #1e90ff; stroke: #1e90ff"/>
     <use xlink:href="#m0bb53b92ce" x="419.357895" y="357.391411" style="fill: #1e90ff; stroke: #1e90ff"/>
     <use xlink:href="#m0bb53b92ce" x="427.709304" y="357.207815" style="fill: #1e90ff; stroke: #1e90ff"/>
     <use xlink:href="#m0bb53b92ce" x="436.060712" y="357.024219" style="fill: #1e90ff; stroke: #1e90ff"/>
     <use xlink:href="#m0bb53b92ce" x="444.412121" y="356.840623" style="fill: #1e90ff; stroke: #1e90ff"/>
     <use xlink:href="#m0bb53b92ce" x="452.76353" y="356.657028" style="fill: #1e90ff; stroke: #1e90ff"/>
     <use xlink:href="#m0bb53b92ce" x="461.114939" y="356.473432" style="fill: #1e90ff; stroke: #1e90ff"/>
     <use xlink:href="#m0bb53b92ce" x="469.466347" y="356.289837" style="fill: #1e90ff; stroke: #1e90ff"/>
     <use xlink:href="#m0bb53b92ce" x="477.817756" y="356.106242" style="fill: #1e90ff; stroke: #1e90ff"/>
     <use xlink:href="#m0bb53b92ce" x="486.169165" y="355.922647" style="fill: #1e90ff; stroke: #1e90ff"/>
     <use xlink:href="#m0bb53b92ce" x="494.520574" y="355.739053" style="fill: #1e90ff; stroke: #1e90ff"/>
     <use xlink:href="#m0bb53b92ce" x="502.871982" y="355.555458" style="fill: #1e90ff; stroke: #1e90ff"/>
     <use xlink:href="#m0bb53b92ce" x="511.223391" y="355.371864" style="fill: #1e90ff; stroke: #1e90ff"/>
     <use xlink:href="#m0bb53b92ce" x="519.5748" y="355.18827" style="fill: #1e90ff; stroke: #1e90ff"/>
     <use xlink:href="#m0bb53b92ce" x="527.926209" y="355.004676" style="fill: #1e90ff; stroke: #1e90ff"/>
     <use xlink:href="#m0bb53b92ce" x="536.277617" y="354.821083" style="fill: #1e90ff; stroke: #1e90ff"/>
     <use xlink:href="#m0bb53b92ce" x="544.629026" y="354.637489" style="fill: #1e90ff; stroke: #1e90ff"/>
     <use xlink:href="#m0bb53b92ce" x="552.980435" y="354.453896" style="fill: #1e90ff; stroke: #1e90ff"/>
    </g>
   </g>
   <g id="matplotlib.axis_1">
    <g id="xtick_1">
     <g id="line2d_1">
      <defs>
       <path id="m7bd28f4cdd" d="M 0 0 
L 0 3.5 
" style="stroke: #000000; stroke-width: 0.8"/>
      </defs>
      <g>
       <use xlink:href="#m7bd28f4cdd" x="51.895911" y="382.145609" style="stroke: #000000; stroke-width: 0.8"/>
      </g>
     </g>
     <g id="text_1">
      <!-- $\mathdefault{0}$ -->
      <g transform="translate(49.156177 396.755955) scale(0.11 -0.11)">
       <defs>
        <path id="CMR17-30" d="M 2688 2025 
C 2688 2416 2682 3080 2413 3591 
C 2176 4039 1798 4198 1466 4198 
C 1158 4198 768 4058 525 3597 
C 269 3118 243 2524 243 2025 
C 243 1661 250 1106 448 619 
C 723 -39 1216 -128 1466 -128 
C 1760 -128 2208 -7 2470 600 
C 2662 1042 2688 1559 2688 2025 
z
M 1466 -26 
C 1056 -26 813 325 723 812 
C 653 1188 653 1738 653 2096 
C 653 2588 653 2997 736 3387 
C 858 3929 1216 4096 1466 4096 
C 1728 4096 2067 3923 2189 3400 
C 2272 3036 2278 2607 2278 2096 
C 2278 1680 2278 1169 2202 792 
C 2067 95 1690 -26 1466 -26 
z
" transform="scale(0.015625)"/>
       </defs>
       <use xlink:href="#CMR17-30" transform="scale(0.996264)"/>
      </g>
     </g>
    </g>
    <g id="xtick_2">
     <g id="line2d_2">
      <g>
       <use xlink:href="#m7bd28f4cdd" x="135.409998" y="382.145609" style="stroke: #000000; stroke-width: 0.8"/>
      </g>
     </g>
     <g id="text_2">
      <!-- $\mathdefault{10}$ -->
      <g transform="translate(129.930531 396.755955) scale(0.11 -0.11)">
       <defs>
        <path id="CMR17-31" d="M 1702 4058 
C 1702 4192 1696 4192 1606 4192 
C 1357 3916 979 3827 621 3827 
C 602 3827 570 3827 563 3808 
C 557 3795 557 3782 557 3648 
C 755 3648 1088 3686 1344 3839 
L 1344 461 
C 1344 236 1331 160 781 160 
L 589 160 
L 589 0 
C 896 0 1216 0 1523 0 
C 1830 0 2150 0 2458 0 
L 2458 160 
L 2266 160 
C 1715 160 1702 230 1702 458 
L 1702 4058 
z
" transform="scale(0.015625)"/>
       </defs>
       <use xlink:href="#CMR17-31" transform="scale(0.996264)"/>
       <use xlink:href="#CMR17-30" transform="translate(45.690477 0) scale(0.996264)"/>
      </g>
     </g>
    </g>
    <g id="xtick_3">
     <g id="line2d_3">
      <g>
       <use xlink:href="#m7bd28f4cdd" x="218.924086" y="382.145609" style="stroke: #000000; stroke-width: 0.8"/>
      </g>
     </g>
     <g id="text_3">
      <!-- $\mathdefault{20}$ -->
      <g transform="translate(213.444618 396.755955) scale(0.11 -0.11)">
       <defs>
        <path id="CMR17-32" d="M 2669 989 
L 2554 989 
C 2490 536 2438 459 2413 420 
C 2381 369 1920 369 1830 369 
L 602 369 
C 832 619 1280 1072 1824 1597 
C 2214 1967 2669 2402 2669 3035 
C 2669 3790 2067 4224 1395 4224 
C 691 4224 262 3604 262 3030 
C 262 2780 448 2748 525 2748 
C 589 2748 781 2787 781 3010 
C 781 3207 614 3264 525 3264 
C 486 3264 448 3258 422 3245 
C 544 3790 915 4058 1306 4058 
C 1862 4058 2227 3617 2227 3035 
C 2227 2479 1901 2000 1536 1584 
L 262 146 
L 262 0 
L 2515 0 
L 2669 989 
z
" transform="scale(0.015625)"/>
       </defs>
       <use xlink:href="#CMR17-32" transform="scale(0.996264)"/>
       <use xlink:href="#CMR17-30" transform="translate(45.690477 0) scale(0.996264)"/>
      </g>
     </g>
    </g>
    <g id="xtick_4">
     <g id="line2d_4">
      <g>
       <use xlink:href="#m7bd28f4cdd" x="302.438173" y="382.145609" style="stroke: #000000; stroke-width: 0.8"/>
      </g>
     </g>
     <g id="text_4">
      <!-- $\mathdefault{30}$ -->
      <g transform="translate(296.958706 396.755955) scale(0.11 -0.11)">
       <defs>
        <path id="CMR17-33" d="M 1414 2157 
C 1984 2157 2234 1662 2234 1090 
C 2234 320 1824 25 1453 25 
C 1114 25 563 194 390 693 
C 422 680 454 680 486 680 
C 640 680 755 782 755 948 
C 755 1133 614 1216 486 1216 
C 378 1216 211 1165 211 926 
C 211 335 787 -128 1466 -128 
C 2176 -128 2720 430 2720 1085 
C 2720 1707 2208 2157 1600 2227 
C 2086 2328 2554 2756 2554 3329 
C 2554 3820 2048 4179 1472 4179 
C 890 4179 378 3829 378 3329 
C 378 3110 544 3072 627 3072 
C 762 3072 877 3155 877 3321 
C 877 3486 762 3569 627 3569 
C 602 3569 570 3569 544 3557 
C 730 3959 1235 4032 1459 4032 
C 1683 4032 2106 3925 2106 3320 
C 2106 3143 2080 2828 1862 2550 
C 1670 2304 1453 2304 1242 2284 
C 1210 2284 1062 2269 1037 2269 
C 992 2263 966 2257 966 2208 
C 966 2163 973 2157 1101 2157 
L 1414 2157 
z
" transform="scale(0.015625)"/>
       </defs>
       <use xlink:href="#CMR17-33" transform="scale(0.996264)"/>
       <use xlink:href="#CMR17-30" transform="translate(45.690477 0) scale(0.996264)"/>
      </g>
     </g>
    </g>
    <g id="xtick_5">
     <g id="line2d_5">
      <g>
       <use xlink:href="#m7bd28f4cdd" x="385.95226" y="382.145609" style="stroke: #000000; stroke-width: 0.8"/>
      </g>
     </g>
     <g id="text_5">
      <!-- $\mathdefault{40}$ -->
      <g transform="translate(380.472793 396.755955) scale(0.11 -0.11)">
       <defs>
        <path id="CMR17-34" d="M 2150 4122 
C 2150 4256 2144 4256 2029 4256 
L 128 1254 
L 128 1088 
L 1779 1088 
L 1779 457 
C 1779 224 1766 160 1318 160 
L 1197 160 
L 1197 0 
C 1402 0 1747 0 1965 0 
C 2182 0 2528 0 2733 0 
L 2733 160 
L 2611 160 
C 2163 160 2150 224 2150 457 
L 2150 1088 
L 2803 1088 
L 2803 1254 
L 2150 1254 
L 2150 4122 
z
M 1798 3703 
L 1798 1254 
L 256 1254 
L 1798 3703 
z
" transform="scale(0.015625)"/>
       </defs>
       <use xlink:href="#CMR17-34" transform="scale(0.996264)"/>
       <use xlink:href="#CMR17-30" transform="translate(45.690477 0) scale(0.996264)"/>
      </g>
     </g>
    </g>
    <g id="xtick_6">
     <g id="line2d_6">
      <g>
       <use xlink:href="#m7bd28f4cdd" x="469.466347" y="382.145609" style="stroke: #000000; stroke-width: 0.8"/>
      </g>
     </g>
     <g id="text_6">
      <!-- $\mathdefault{50}$ -->
      <g transform="translate(463.98688 396.755955) scale(0.11 -0.11)">
       <defs>
        <path id="CMR17-35" d="M 730 3692 
C 794 3666 1056 3584 1325 3584 
C 1920 3584 2246 3911 2432 4100 
C 2432 4157 2432 4192 2394 4192 
C 2387 4192 2374 4192 2323 4163 
C 2099 4058 1837 3973 1517 3973 
C 1325 3973 1037 3999 723 4139 
C 653 4171 640 4171 634 4171 
C 602 4171 595 4164 595 4037 
L 595 2203 
C 595 2089 595 2057 659 2057 
C 691 2057 704 2070 736 2114 
C 941 2401 1222 2522 1542 2522 
C 1766 2522 2246 2382 2246 1289 
C 2246 1085 2246 715 2054 421 
C 1894 159 1645 25 1370 25 
C 947 25 518 320 403 814 
C 429 807 480 795 506 795 
C 589 795 749 840 749 1038 
C 749 1210 627 1280 506 1280 
C 358 1280 262 1190 262 1011 
C 262 454 704 -128 1382 -128 
C 2042 -128 2669 440 2669 1264 
C 2669 2030 2170 2624 1549 2624 
C 1222 2624 947 2503 730 2274 
L 730 3692 
z
" transform="scale(0.015625)"/>
       </defs>
       <use xlink:href="#CMR17-35" transform="scale(0.996264)"/>
       <use xlink:href="#CMR17-30" transform="translate(45.690477 0) scale(0.996264)"/>
      </g>
     </g>
    </g>
    <g id="xtick_7">
     <g id="line2d_7">
      <g>
       <use xlink:href="#m7bd28f4cdd" x="552.980435" y="382.145609" style="stroke: #000000; stroke-width: 0.8"/>
      </g>
     </g>
     <g id="text_7">
      <!-- $\mathdefault{60}$ -->
      <g transform="translate(547.500967 396.755955) scale(0.11 -0.11)">
       <defs>
        <path id="CMR17-36" d="M 678 2176 
C 678 3690 1395 4032 1811 4032 
C 1946 4032 2272 4009 2400 3776 
C 2298 3776 2106 3776 2106 3553 
C 2106 3381 2246 3323 2336 3323 
C 2394 3323 2566 3348 2566 3560 
C 2566 3954 2246 4179 1805 4179 
C 1043 4179 243 3390 243 1984 
C 243 253 966 -128 1478 -128 
C 2099 -128 2688 427 2688 1283 
C 2688 2081 2170 2662 1517 2662 
C 1126 2662 838 2407 678 1960 
L 678 2176 
z
M 1478 25 
C 691 25 691 1200 691 1436 
C 691 1896 909 2560 1504 2560 
C 1613 2560 1926 2560 2138 2120 
C 2253 1870 2253 1609 2253 1289 
C 2253 944 2253 690 2118 434 
C 1978 171 1773 25 1478 25 
z
" transform="scale(0.015625)"/>
       </defs>
       <use xlink:href="#CMR17-36" transform="scale(0.996264)"/>
       <use xlink:href="#CMR17-30" transform="translate(45.690477 0) scale(0.996264)"/>
      </g>
     </g>
    </g>
    <g id="text_8">
     <!-- N -->
     <g transform="translate(306.679985 410.497197) scale(0.11 -0.11)">
      <defs>
       <path id="CMR17-4e" d="M 1312 4250 
C 1267 4320 1261 4320 1139 4320 
L 326 4320 
L 326 4160 
L 448 4160 
C 704 4160 819 4129 838 4122 
L 838 610 
C 838 451 838 153 326 153 
L 326 -13 
C 474 0 742 0 902 0 
C 1062 0 1331 0 1478 -13 
L 1478 153 
C 966 153 966 451 966 610 
L 966 4033 
C 1011 3995 1011 3982 1056 3919 
L 3430 76 
C 3475 0 3494 0 3526 0 
C 3590 0 3590 19 3590 139 
L 3590 3705 
C 3590 3863 3590 4160 4102 4160 
L 4102 4326 
C 3955 4320 3686 4320 3526 4320 
C 3366 4320 3098 4320 2950 4326 
L 2950 4160 
C 3462 4160 3462 3862 3462 3703 
L 3462 763 
L 1312 4250 
z
" transform="scale(0.015625)"/>
      </defs>
      <use xlink:href="#CMR17-4e" transform="scale(0.996264)"/>
     </g>
    </g>
   </g>
   <g id="matplotlib.axis_2">
    <g id="ytick_1">
     <g id="line2d_8">
      <defs>
       <path id="ma0609ad831" d="M 0 0 
L -3.5 0 
" style="stroke: #000000; stroke-width: 0.8"/>
      </defs>
      <g>
       <use xlink:href="#ma0609ad831" x="44.379643" y="365.469836" style="stroke: #000000; stroke-width: 0.8"/>
      </g>
     </g>
     <g id="text_9">
      <!-- $\mathdefault{0}$ -->
      <g transform="translate(31.900176 369.275009) scale(0.11 -0.11)">
       <use xlink:href="#CMR17-30" transform="scale(0.996264)"/>
      </g>
     </g>
    </g>
    <g id="ytick_2">
     <g id="line2d_9">
      <g>
       <use xlink:href="#ma0609ad831" x="44.379643" y="318.861103" style="stroke: #000000; stroke-width: 0.8"/>
      </g>
     </g>
     <g id="text_10">
      <!-- $\mathdefault{25}$ -->
      <g transform="translate(26.420709 322.666276) scale(0.11 -0.11)">
       <use xlink:href="#CMR17-32" transform="scale(0.996264)"/>
       <use xlink:href="#CMR17-35" transform="translate(45.690477 0) scale(0.996264)"/>
      </g>
     </g>
    </g>
    <g id="ytick_3">
     <g id="line2d_10">
      <g>
       <use xlink:href="#ma0609ad831" x="44.379643" y="272.252369" style="stroke: #000000; stroke-width: 0.8"/>
      </g>
     </g>
     <g id="text_11">
      <!-- $\mathdefault{50}$ -->
      <g transform="translate(26.420709 276.057543) scale(0.11 -0.11)">
       <use xlink:href="#CMR17-35" transform="scale(0.996264)"/>
       <use xlink:href="#CMR17-30" transform="translate(45.690477 0) scale(0.996264)"/>
      </g>
     </g>
    </g>
    <g id="ytick_4">
     <g id="line2d_11">
      <g>
       <use xlink:href="#ma0609ad831" x="44.379643" y="225.643636" style="stroke: #000000; stroke-width: 0.8"/>
      </g>
     </g>
     <g id="text_12">
      <!-- $\mathdefault{75}$ -->
      <g transform="translate(26.420709 229.448809) scale(0.11 -0.11)">
       <defs>
        <path id="CMR17-37" d="M 2886 3941 
L 2886 4081 
L 1382 4081 
C 634 4081 621 4165 595 4288 
L 480 4288 
L 294 3094 
L 410 3094 
C 429 3215 474 3540 550 3661 
C 589 3712 1062 3712 1171 3712 
L 2579 3712 
L 1869 2661 
C 1395 1954 1069 999 1069 165 
C 1069 89 1069 -128 1299 -128 
C 1530 -128 1530 89 1530 171 
L 1530 465 
C 1530 1508 1709 2196 2003 2636 
L 2886 3941 
z
" transform="scale(0.015625)"/>
       </defs>
       <use xlink:href="#CMR17-37" transform="scale(0.996264)"/>
       <use xlink:href="#CMR17-35" transform="translate(45.690477 0) scale(0.996264)"/>
      </g>
     </g>
    </g>
    <g id="ytick_5">
     <g id="line2d_12">
      <g>
       <use xlink:href="#ma0609ad831" x="44.379643" y="179.034903" style="stroke: #000000; stroke-width: 0.8"/>
      </g>
     </g>
     <g id="text_13">
      <!-- $\mathdefault{100}$ -->
      <g transform="translate(20.941241 182.840076) scale(0.11 -0.11)">
       <use xlink:href="#CMR17-31" transform="scale(0.996264)"/>
       <use xlink:href="#CMR17-30" transform="translate(45.690477 0) scale(0.996264)"/>
       <use xlink:href="#CMR17-30" transform="translate(91.380954 0) scale(0.996264)"/>
      </g>
     </g>
    </g>
    <g id="ytick_6">
     <g id="line2d_13">
      <g>
       <use xlink:href="#ma0609ad831" x="44.379643" y="132.426169" style="stroke: #000000; stroke-width: 0.8"/>
      </g>
     </g>
     <g id="text_14">
      <!-- $\mathdefault{125}$ -->
      <g transform="translate(20.941241 136.231343) scale(0.11 -0.11)">
       <use xlink:href="#CMR17-31" transform="scale(0.996264)"/>
       <use xlink:href="#CMR17-32" transform="translate(45.690477 0) scale(0.996264)"/>
       <use xlink:href="#CMR17-35" transform="translate(91.380954 0) scale(0.996264)"/>
      </g>
     </g>
    </g>
    <g id="ytick_7">
     <g id="line2d_14">
      <g>
       <use xlink:href="#ma0609ad831" x="44.379643" y="85.817436" style="stroke: #000000; stroke-width: 0.8"/>
      </g>
     </g>
     <g id="text_15">
      <!-- $\mathdefault{150}$ -->
      <g transform="translate(20.941241 89.622609) scale(0.11 -0.11)">
       <use xlink:href="#CMR17-31" transform="scale(0.996264)"/>
       <use xlink:href="#CMR17-35" transform="translate(45.690477 0) scale(0.996264)"/>
       <use xlink:href="#CMR17-30" transform="translate(91.380954 0) scale(0.996264)"/>
      </g>
     </g>
    </g>
    <g id="ytick_8">
     <g id="line2d_15">
      <g>
       <use xlink:href="#ma0609ad831" x="44.379643" y="39.208703" style="stroke: #000000; stroke-width: 0.8"/>
      </g>
     </g>
     <g id="text_16">
      <!-- $\mathdefault{175}$ -->
      <g transform="translate(20.941241 43.013876) scale(0.11 -0.11)">
       <use xlink:href="#CMR17-31" transform="scale(0.996264)"/>
       <use xlink:href="#CMR17-37" transform="translate(45.690477 0) scale(0.996264)"/>
       <use xlink:href="#CMR17-35" transform="translate(91.380954 0) scale(0.996264)"/>
      </g>
     </g>
    </g>
    <g id="text_17">
     <!-- Slope over short time of 0.1 -->
     <g transform="translate(14.810347 260.94388) rotate(-90) scale(0.11 -0.11)">
      <defs>
       <path id="CMR17-53" d="M 2803 4290 
C 2803 4404 2797 4411 2758 4411 
C 2720 4411 2707 4385 2682 4328 
L 2490 3907 
C 2246 4257 1875 4416 1472 4416 
C 819 4416 294 3901 294 3253 
C 294 3056 339 2776 557 2510 
C 794 2218 1018 2167 1530 2033 
C 1722 1982 2042 1899 2106 1874 
C 2470 1722 2662 1341 2662 985 
C 2662 527 2336 38 1779 38 
C 1094 38 454 419 410 1311 
C 403 1413 397 1419 352 1419 
C 301 1419 294 1413 294 1285 
L 294 -1 
C 294 -115 301 -122 339 -122 
C 384 -122 397 -90 486 108 
C 493 127 493 140 614 381 
C 934 -39 1472 -128 1779 -128 
C 2477 -128 2970 451 2970 1124 
C 2970 1454 2848 1708 2778 1823 
C 2509 2230 2221 2306 1914 2382 
C 1869 2402 1856 2402 1498 2490 
C 1152 2579 1005 2624 845 2796 
C 666 2992 602 3196 602 3399 
C 602 3812 934 4263 1478 4263 
C 2157 4263 2579 3786 2675 2993 
C 2694 2878 2701 2872 2746 2872 
C 2803 2872 2803 2891 2803 2999 
L 2803 4290 
z
" transform="scale(0.015625)"/>
       <path id="CMR17-6c" d="M 979 4396 
L 218 4326 
L 218 4160 
C 595 4160 653 4122 653 3817 
L 653 426 
C 653 184 627 153 218 153 
L 218 -13 
C 371 0 653 0 813 0 
C 979 0 1261 0 1414 -13 
L 1414 153 
C 1005 153 979 178 979 426 
L 979 4396 
z
" transform="scale(0.015625)"/>
       <path id="CMR17-6f" d="M 2758 1356 
C 2758 2176 2163 2816 1466 2816 
C 768 2816 173 2176 173 1356 
C 173 551 768 -64 1466 -64 
C 2163 -64 2758 551 2758 1356 
z
M 1466 51 
C 1165 51 909 230 762 480 
C 602 767 582 1126 582 1408 
C 582 1677 595 2010 762 2298 
C 890 2509 1139 2714 1466 2714 
C 1754 2714 1997 2554 2150 2330 
C 2349 2029 2349 1607 2349 1408 
C 2349 1158 2336 775 2163 467 
C 1984 173 1709 51 1466 51 
z
" transform="scale(0.015625)"/>
       <path id="CMR17-70" d="M 1408 -1063 
C 998 -1063 973 -1037 973 -789 
L 973 402 
C 1158 134 1427 -38 1766 -38 
C 2406 -38 3053 523 3053 1388 
C 3053 2191 2496 2802 1837 2802 
C 1453 2802 1139 2592 960 2338 
L 960 2802 
L 198 2732 
L 198 2567 
C 576 2567 634 2528 634 2223 
L 634 -789 
C 634 -1031 608 -1063 198 -1063 
L 198 -1228 
C 352 -1216 634 -1216 800 -1216 
C 966 -1216 1254 -1216 1408 -1228 
L 1408 -1063 
z
M 973 2012 
C 973 2102 973 2235 1222 2471 
C 1254 2497 1472 2688 1792 2688 
C 2259 2688 2643 2108 2643 1382 
C 2643 656 2234 64 1728 64 
C 1498 64 1248 172 1056 472 
C 973 612 973 650 973 752 
L 973 2012 
z
" transform="scale(0.015625)"/>
       <path id="CMR17-65" d="M 2438 1472 
C 2464 1498 2464 1511 2464 1576 
C 2464 2238 2118 2816 1389 2816 
C 710 2816 173 2169 173 1383 
C 173 551 781 -64 1459 -64 
C 2176 -64 2458 607 2458 740 
C 2458 784 2419 784 2406 784 
C 2362 784 2355 771 2330 696 
C 2189 265 1837 51 1504 51 
C 1229 51 954 203 781 480 
C 582 803 582 1176 582 1472 
L 2438 1472 
z
M 589 1568 
C 634 2505 1126 2714 1382 2714 
C 1818 2714 2112 2297 2118 1568 
L 589 1568 
z
" transform="scale(0.015625)"/>
       <path id="CMR17-76" d="M 2502 2163 
C 2560 2304 2662 2560 3034 2560 
L 3034 2726 
C 2912 2726 2752 2726 2630 2726 
C 2496 2726 2285 2726 2157 2732 
L 2157 2566 
C 2317 2553 2406 2477 2406 2311 
C 2406 2253 2406 2240 2368 2151 
L 1664 377 
L 902 2286 
C 864 2369 864 2381 864 2407 
C 864 2560 1075 2560 1171 2560 
L 1171 2732 
C 1018 2726 736 2726 576 2726 
C 403 2726 205 2726 64 2732 
L 64 2560 
C 307 2560 442 2560 518 2362 
L 1446 44 
C 1485 -51 1491 -64 1549 -64 
C 1606 -64 1613 -51 1651 44 
L 2502 2163 
z
" transform="scale(0.015625)"/>
       <path id="CMR17-72" d="M 960 1497 
C 960 2112 1222 2688 1702 2688 
C 1747 2688 1792 2682 1837 2662 
C 1837 2662 1696 2617 1696 2452 
C 1696 2298 1818 2234 1914 2234 
C 1990 2234 2131 2279 2131 2458 
C 2131 2663 1926 2790 1709 2790 
C 1222 2790 1011 2317 947 2093 
L 941 2093 
L 941 2790 
L 198 2720 
L 198 2554 
C 576 2554 634 2515 634 2208 
L 634 428 
C 634 184 608 153 198 153 
L 198 -13 
C 352 0 646 0 813 0 
C 998 0 1325 0 1498 -13 
L 1498 153 
C 1037 153 960 153 960 440 
L 960 1497 
z
" transform="scale(0.015625)"/>
       <path id="CMR17-73" d="M 1978 2697 
C 1978 2813 1971 2819 1933 2819 
C 1907 2819 1901 2813 1824 2717 
C 1805 2691 1747 2626 1728 2601 
C 1523 2819 1235 2819 1126 2819 
C 416 2819 160 2447 160 2076 
C 160 1498 813 1365 998 1325 
C 1402 1243 1542 1217 1677 1101 
C 1760 1025 1901 884 1901 654 
C 1901 384 1747 38 1158 38 
C 602 38 403 460 288 1021 
C 269 1110 269 1117 218 1117 
C 166 1117 160 1110 160 983 
L 160 63 
C 160 -51 166 -58 205 -58 
C 237 -58 243 -51 275 0 
C 314 57 410 211 448 276 
C 576 103 800 -64 1158 -64 
C 1792 -64 2131 283 2131 784 
C 2131 1112 1958 1285 1875 1362 
C 1683 1561 1459 1606 1190 1657 
C 838 1735 390 1825 390 2217 
C 390 2383 480 2737 1126 2737 
C 1811 2737 1850 2094 1862 1888 
C 1869 1856 1901 1849 1920 1849 
C 1978 1849 1978 1869 1978 1978 
L 1978 2697 
z
" transform="scale(0.015625)"/>
       <path id="CMR17-68" d="M 2656 1933 
C 2656 2259 2592 2790 1837 2790 
C 1312 2790 1056 2368 979 2157 
L 973 2157 
L 973 4396 
L 211 4326 
L 211 4160 
C 589 4160 646 4122 646 3817 
L 646 426 
C 646 184 621 153 211 153 
L 211 -13 
C 365 0 646 0 813 0 
C 979 0 1267 0 1421 -13 
L 1421 153 
C 1011 153 986 178 986 428 
L 986 1658 
C 986 2247 1344 2688 1792 2688 
C 2266 2688 2317 2266 2317 1958 
L 2317 428 
C 2317 184 2291 153 1882 153 
L 1882 -13 
C 2035 0 2317 0 2483 0 
C 2650 0 2938 0 3091 -13 
L 3091 153 
C 2682 153 2656 178 2656 428 
L 2656 1933 
z
" transform="scale(0.015625)"/>
       <path id="CMR17-74" d="M 966 2560 
L 1862 2560 
L 1862 2725 
L 966 2725 
L 966 3904 
L 851 3904 
C 838 3245 614 2668 70 2668 
L 70 2560 
L 627 2560 
L 627 771 
C 627 650 627 -64 1370 -64 
C 1747 -64 1965 306 1965 777 
L 1965 1140 
L 1850 1140 
L 1850 783 
C 1850 344 1677 51 1408 51 
C 1222 51 966 178 966 758 
L 966 2560 
z
" transform="scale(0.015625)"/>
       <path id="CMR17-69" d="M 992 3909 
C 992 4049 877 4170 730 4170 
C 589 4170 467 4056 467 3909 
C 467 3769 582 3648 730 3648 
C 870 3648 992 3763 992 3909 
z
M 243 2706 
L 243 2541 
C 602 2541 653 2502 653 2197 
L 653 427 
C 653 184 627 153 218 153 
L 218 -13 
C 371 0 646 0 806 0 
C 960 0 1222 0 1370 -13 
L 1370 153 
C 992 153 979 191 979 420 
L 979 2776 
L 243 2706 
z
" transform="scale(0.015625)"/>
       <path id="CMR17-6d" d="M 4326 1933 
C 4326 2252 4269 2790 3507 2790 
C 3072 2790 2771 2496 2656 2151 
L 2650 2151 
C 2573 2676 2195 2790 1837 2790 
C 1331 2790 1069 2400 973 2144 
L 966 2144 
L 966 2790 
L 211 2720 
L 211 2554 
C 589 2554 646 2515 646 2208 
L 646 428 
C 646 184 621 153 211 153 
L 211 -13 
C 365 0 646 0 813 0 
C 979 0 1267 0 1421 -13 
L 1421 153 
C 1011 153 986 178 986 428 
L 986 1658 
C 986 2247 1344 2688 1792 2688 
C 2266 2688 2317 2266 2317 1958 
L 2317 428 
C 2317 184 2291 153 1882 153 
L 1882 -13 
C 2035 0 2317 0 2483 0 
C 2650 0 2938 0 3091 -13 
L 3091 153 
C 2682 153 2656 178 2656 428 
L 2656 1658 
C 2656 2247 3014 2688 3462 2688 
C 3936 2688 3987 2266 3987 1958 
L 3987 428 
C 3987 184 3962 153 3552 153 
L 3552 -13 
C 3706 0 3987 0 4154 0 
C 4320 0 4608 0 4762 -13 
L 4762 153 
C 4352 153 4326 178 4326 428 
L 4326 1933 
z
" transform="scale(0.015625)"/>
       <path id="CMR17-66" d="M 979 2560 
L 1709 2560 
L 1709 2725 
L 966 2725 
L 966 3494 
C 966 4022 1235 4352 1510 4352 
C 1594 4352 1690 4327 1754 4282 
C 1702 4269 1568 4225 1568 4067 
C 1568 3901 1696 3850 1786 3850 
C 1875 3850 2003 3901 2003 4067 
C 2003 4308 1773 4454 1517 4454 
C 1152 4454 653 4156 653 3481 
L 653 2725 
L 141 2725 
L 141 2560 
L 653 2560 
L 653 427 
C 653 184 627 153 218 153 
L 218 -13 
C 371 0 666 0 832 0 
C 1018 0 1344 0 1517 -13 
L 1517 153 
C 1056 153 979 153 979 439 
L 979 2560 
z
" transform="scale(0.015625)"/>
       <path id="CMR17-2e" d="M 1062 261 
C 1062 420 934 522 800 522 
C 672 522 538 420 538 261 
C 538 102 666 0 800 0 
C 928 0 1062 102 1062 261 
z
" transform="scale(0.015625)"/>
      </defs>
      <use xlink:href="#CMR17-53" transform="scale(0.996264)"/>
      <use xlink:href="#CMR17-6c" transform="translate(50.89537 0) scale(0.996264)"/>
      <use xlink:href="#CMR17-6f" transform="translate(75.766428 0) scale(0.996264)"/>
      <use xlink:href="#CMR17-70" transform="translate(121.456905 0) scale(0.996264)"/>
      <use xlink:href="#CMR17-65" transform="translate(174.954714 0) scale(0.996264)"/>
      <use xlink:href="#CMR17-6f" transform="translate(245.516341 0) scale(0.996264)"/>
      <use xlink:href="#CMR17-76" transform="translate(288.604364 0) scale(0.996264)"/>
      <use xlink:href="#CMR17-65" transform="translate(334.294826 0) scale(0.996264)"/>
      <use xlink:href="#CMR17-72" transform="translate(374.780486 0) scale(0.996264)"/>
      <use xlink:href="#CMR17-73" transform="translate(440.13722 0) scale(0.996264)"/>
      <use xlink:href="#CMR17-68" transform="translate(475.938558 0) scale(0.996264)"/>
      <use xlink:href="#CMR17-6f" transform="translate(526.833928 0) scale(0.996264)"/>
      <use xlink:href="#CMR17-72" transform="translate(572.524405 0) scale(0.996264)"/>
      <use xlink:href="#CMR17-74" transform="translate(607.805173 0) scale(0.996264)"/>
      <use xlink:href="#CMR17-74" transform="translate(673.161907 0) scale(0.996264)"/>
      <use xlink:href="#CMR17-69" transform="translate(708.442675 0) scale(0.996264)"/>
      <use xlink:href="#CMR17-6d" transform="translate(733.313733 0) scale(0.996264)"/>
      <use xlink:href="#CMR17-65" transform="translate(810.233323 0) scale(0.996264)"/>
      <use xlink:href="#CMR17-6f" transform="translate(880.79495 0) scale(0.996264)"/>
      <use xlink:href="#CMR17-66" transform="translate(926.485427 0) scale(0.996264)"/>
      <use xlink:href="#CMR17-30" transform="translate(984.034906 0) scale(0.996264)"/>
      <use xlink:href="#CMR17-2e" transform="translate(1029.725383 0) scale(0.996264)"/>
      <use xlink:href="#CMR17-31" transform="translate(1054.596441 0) scale(0.996264)"/>
     </g>
    </g>
   </g>
   <g id="line2d_16">
    <path d="M 68.598728 364.742015 
L 76.950137 364.102792 
L 85.301546 363.280027 
L 93.652955 362.273721 
L 102.004363 361.083872 
L 110.355772 359.710481 
L 118.707181 358.153548 
L 127.05859 356.413074 
L 135.409998 354.489057 
L 143.761407 352.381499 
L 152.112816 350.090399 
L 160.464224 347.615757 
L 168.815633 344.957573 
L 177.167042 342.115847 
L 185.518451 339.090579 
L 193.869859 335.881769 
L 202.221268 332.489417 
L 210.572677 328.913524 
L 218.924086 325.154088 
L 227.275494 321.211111 
L 235.626903 317.084591 
L 243.978312 312.77453 
L 252.32972 308.280927 
L 260.681129 303.603782 
L 269.032538 298.743095 
L 277.383947 293.698866 
L 285.735355 288.471095 
L 294.086764 283.059782 
L 302.438173 277.464928 
L 310.789582 271.686531 
L 319.14099 265.724593 
L 327.492399 259.579112 
L 335.843808 253.25009 
L 344.195216 246.737526 
L 352.546625 240.04142 
L 360.898034 233.161772 
L 369.249443 226.098582 
L 377.600851 218.85185 
L 385.95226 211.421576 
L 394.303669 203.807761 
L 402.655078 196.010403 
L 411.006486 188.029504 
L 419.357895 179.865062 
L 427.709304 171.517079 
L 436.060712 162.985554 
L 444.412121 154.270487 
L 452.76353 145.371878 
L 461.114939 136.289727 
L 469.466347 127.024034 
L 477.817756 117.574799 
L 486.169165 107.942022 
L 494.520574 98.125704 
L 502.871982 88.125843 
L 511.223391 77.942441 
L 519.5748 67.575497 
L 527.926209 57.02501 
L 536.277617 46.290982 
L 544.629026 35.373412 
L 552.980435 24.2723 
" clip-path="url(#pefbab91ac9)" style="fill: none; stroke: #32cd32; stroke-opacity: 0.6; stroke-width: 3; stroke-linecap: square"/>
   </g>
   <g id="line2d_17">
    <path d="M 68.598728 365.102627 
L 76.950137 364.919022 
L 85.301546 364.735418 
L 93.652955 364.551814 
L 102.004363 364.36821 
L 110.355772 364.184607 
L 118.707181 364.001003 
L 127.05859 363.8174 
L 135.409998 363.633797 
L 143.761407 363.450194 
L 152.112816 363.266592 
L 160.464224 363.082989 
L 168.815633 362.899387 
L 177.167042 362.715785 
L 185.518451 362.532183 
L 193.869859 362.348581 
L 202.221268 362.16498 
L 210.572677 361.981379 
L 218.924086 361.797778 
L 227.275494 361.614177 
L 235.626903 361.430576 
L 243.978312 361.246976 
L 252.32972 361.063375 
L 260.681129 360.879775 
L 269.032538 360.696175 
L 277.383947 360.512576 
L 285.735355 360.328976 
L 294.086764 360.145377 
L 302.438173 359.961778 
L 310.789582 359.778179 
L 319.14099 359.59458 
L 327.492399 359.410982 
L 335.843808 359.227383 
L 344.195216 359.043785 
L 352.546625 358.860187 
L 360.898034 358.67659 
L 369.249443 358.492992 
L 377.600851 358.309395 
L 385.95226 358.125798 
L 394.303669 357.942201 
L 402.655078 357.758604 
L 411.006486 357.575007 
L 419.357895 357.391411 
L 427.709304 357.207815 
L 436.060712 357.024219 
L 444.412121 356.840623 
L 452.76353 356.657028 
L 461.114939 356.473432 
L 469.466347 356.289837 
L 477.817756 356.106242 
L 486.169165 355.922647 
L 494.520574 355.739053 
L 502.871982 355.555458 
L 511.223391 355.371864 
L 519.5748 355.18827 
L 527.926209 355.004676 
L 536.277617 354.821083 
L 544.629026 354.637489 
L 552.980435 354.453896 
" clip-path="url(#pefbab91ac9)" style="fill: none; stroke: #1e90ff; stroke-opacity: 0.6; stroke-width: 3; stroke-linecap: square"/>
   </g>
   <g id="patch_3">
    <path d="M 44.379643 382.145609 
L 44.379643 7.2 
" style="fill: none; stroke: #000000; stroke-width: 0.8; stroke-linejoin: miter; stroke-linecap: square"/>
   </g>
   <g id="patch_4">
    <path d="M 577.19952 382.145609 
L 577.19952 7.2 
" style="fill: none; stroke: #000000; stroke-width: 0.8; stroke-linejoin: miter; stroke-linecap: square"/>
   </g>
   <g id="patch_5">
    <path d="M 44.379643 382.145609 
L 577.19952 382.145609 
" style="fill: none; stroke: #000000; stroke-width: 0.8; stroke-linejoin: miter; stroke-linecap: square"/>
   </g>
   <g id="patch_6">
    <path d="M 44.379643 7.2 
L 577.19952 7.2 
" style="fill: none; stroke: #000000; stroke-width: 0.8; stroke-linejoin: miter; stroke-linecap: square"/>
   </g>
   <g id="legend_1">
    <g id="patch_7">
     <path d="M 52.079643 77.323579 
L 177.435106 77.323579 
Q 179.635106 77.323579 179.635106 75.123579 
L 179.635106 14.9 
Q 179.635106 12.7 177.435106 12.7 
L 52.079643 12.7 
Q 49.879643 12.7 49.879643 14.9 
L 49.879643 75.123579 
Q 49.879643 77.323579 52.079643 77.323579 
z
" style="fill: #ffffff; opacity: 0.8; stroke: #cccccc; stroke-linejoin: miter"/>
    </g>
    <g id="line2d_18">
     <path d="M 54.279643 20.95 
L 65.279643 20.95 
L 76.279643 20.95 
" style="fill: none; stroke: #32cd32; stroke-opacity: 0.6; stroke-width: 3; stroke-linecap: square"/>
    </g>
    <g id="text_18">
     <!-- quadratic_linear fit -->
     <g transform="translate(85.079643 24.8) scale(0.11 -0.11)">
      <defs>
       <path id="CMR17-71" d="M 2630 2802 
L 2528 2802 
L 2336 2172 
C 2189 2509 1920 2802 1491 2802 
C 838 2802 211 2223 211 1383 
C 211 548 800 -38 1440 -38 
C 1933 -38 2208 338 2291 478 
L 2291 -789 
C 2291 -1031 2266 -1063 1856 -1063 
L 1856 -1228 
C 2010 -1216 2291 -1216 2458 -1216 
C 2624 -1216 2912 -1216 3066 -1228 
L 3066 -1063 
C 2656 -1063 2630 -1037 2630 -789 
L 2630 2802 
z
M 2304 886 
C 2304 612 2074 357 2054 338 
C 1856 115 1626 64 1472 64 
C 992 64 621 669 621 1375 
C 621 2121 1043 2688 1536 2688 
C 2048 2688 2304 2108 2304 1777 
L 2304 886 
z
" transform="scale(0.015625)"/>
       <path id="CMR17-75" d="M 1882 2693 
L 1882 2528 
C 2259 2528 2317 2489 2317 2186 
L 2317 1032 
C 2317 500 2029 38 1555 38 
C 1030 38 986 348 986 678 
L 986 2763 
L 211 2693 
L 211 2528 
C 467 2528 640 2528 646 2274 
L 646 1058 
C 646 633 646 361 813 183 
C 896 101 1056 -64 1517 -64 
C 2061 -64 2272 377 2323 506 
L 2330 506 
L 2330 -63 
L 3091 -63 
L 3091 128 
C 2714 128 2656 166 2656 473 
L 2656 2763 
L 1882 2693 
z
" transform="scale(0.015625)"/>
       <path id="CMR17-61" d="M 2304 1653 
C 2304 2072 2304 2294 2035 2543 
C 1798 2752 1523 2816 1306 2816 
C 800 2816 435 2407 435 1971 
C 435 1728 627 1728 666 1728 
C 749 1728 896 1778 896 1954 
C 896 2112 774 2181 666 2181 
C 640 2181 608 2174 589 2168 
C 723 2592 1069 2714 1293 2714 
C 1613 2714 1965 2429 1965 1885 
L 1965 1600 
C 1587 1600 1133 1549 774 1357 
C 371 1133 256 813 256 570 
C 256 77 832 -64 1171 -64 
C 1523 -64 1850 139 1990 511 
C 2003 233 2182 -18 2464 -18 
C 2598 -18 2938 70 2938 567 
L 2938 920 
L 2822 920 
L 2822 562 
C 2822 178 2650 128 2566 128 
C 2304 128 2304 458 2304 738 
L 2304 1653 
z
M 1965 870 
C 1965 317 1568 38 1216 38 
C 896 38 646 275 646 570 
C 646 761 730 1100 1101 1305 
C 1408 1478 1760 1504 1965 1504 
L 1965 870 
z
" transform="scale(0.015625)"/>
       <path id="CMR17-64" d="M 1869 4326 
L 1869 4160 
C 2246 4160 2304 4122 2304 3820 
L 2304 2345 
C 2278 2377 2016 2790 1498 2790 
C 845 2790 211 2208 211 1364 
C 211 525 806 -64 1434 -64 
C 1978 -64 2259 337 2291 380 
L 2291 -63 
L 3066 -63 
L 3066 128 
C 2688 128 2630 166 2630 473 
L 2630 4396 
L 1869 4326 
z
M 2291 755 
C 2291 563 2176 390 2029 262 
C 1811 70 1594 38 1472 38 
C 1286 38 621 134 621 1356 
C 621 2612 1363 2688 1530 2688 
C 1824 2688 2061 2522 2208 2291 
C 2291 2157 2291 2138 2291 2023 
L 2291 755 
z
" transform="scale(0.015625)"/>
       <path id="CMR17-63" d="M 2234 2240 
C 2112 2240 1933 2240 1933 2017 
C 1933 1838 2080 1787 2163 1787 
C 2208 1787 2394 1807 2394 2024 
C 2394 2467 1958 2803 1466 2803 
C 787 2803 211 2178 211 1363 
C 211 516 813 -64 1466 -64 
C 2259 -64 2458 677 2458 748 
C 2458 774 2451 793 2406 793 
C 2362 793 2355 787 2330 703 
C 2163 180 1798 51 1523 51 
C 1114 51 621 427 621 1369 
C 621 2338 1094 2688 1472 2688 
C 1722 2688 2093 2573 2234 2240 
z
" transform="scale(0.015625)"/>
       <path id="CMR17-6e" d="M 2656 1933 
C 2656 2259 2592 2790 1837 2790 
C 1331 2790 1069 2400 973 2144 
L 966 2144 
L 966 2790 
L 211 2720 
L 211 2554 
C 589 2554 646 2515 646 2208 
L 646 428 
C 646 184 621 153 211 153 
L 211 -13 
C 365 0 646 0 813 0 
C 979 0 1267 0 1421 -13 
L 1421 153 
C 1011 153 986 178 986 428 
L 986 1658 
C 986 2247 1344 2688 1792 2688 
C 2266 2688 2317 2266 2317 1958 
L 2317 428 
C 2317 184 2291 153 1882 153 
L 1882 -13 
C 2035 0 2317 0 2483 0 
C 2650 0 2938 0 3091 -13 
L 3091 153 
C 2682 153 2656 178 2656 428 
L 2656 1933 
z
" transform="scale(0.015625)"/>
       <path id="CMR17-c" d="M 2554 2764 
C 2400 2764 1926 2764 1805 2739 
C 1766 2725 1754 2725 1677 2725 
L 947 2725 
L 947 3469 
C 947 4073 1434 4352 1818 4352 
C 1939 4352 2214 4320 2355 4101 
C 2291 4101 2086 4101 2086 3878 
C 2086 3725 2189 3648 2317 3648 
C 2432 3648 2547 3712 2547 3885 
C 2547 4205 2240 4454 1843 4454 
C 1338 4454 634 4168 634 3469 
L 634 2725 
L 122 2725 
L 122 2560 
L 634 2560 
L 634 427 
C 634 184 608 153 198 153 
L 198 -13 
C 352 0 634 0 794 0 
C 960 0 1242 0 1395 -13 
L 1395 153 
C 986 153 960 178 960 427 
L 960 2560 
L 1901 2560 
C 2176 2560 2227 2502 2227 2222 
L 2227 427 
C 2227 184 2202 153 1792 153 
L 1792 -13 
C 1946 0 2227 0 2387 0 
C 2554 0 2835 0 2989 -13 
L 2989 153 
C 2579 153 2554 178 2554 427 
L 2554 2764 
z
" transform="scale(0.015625)"/>
      </defs>
      <use xlink:href="#CMR17-71" transform="scale(0.996264)"/>
      <use xlink:href="#CMR17-75" transform="translate(48.292916 0) scale(0.996264)"/>
      <use xlink:href="#CMR17-61" transform="translate(99.188286 0) scale(0.996264)"/>
      <use xlink:href="#CMR17-64" transform="translate(144.878763 0) scale(0.996264)"/>
      <use xlink:href="#CMR17-72" transform="translate(195.774133 0) scale(0.996264)"/>
      <use xlink:href="#CMR17-61" transform="translate(231.0549 0) scale(0.996264)"/>
      <use xlink:href="#CMR17-74" transform="translate(276.745377 0) scale(0.996264)"/>
      <use xlink:href="#CMR17-69" transform="translate(312.026145 0) scale(0.996264)"/>
      <use xlink:href="#CMR17-63" transform="translate(336.897204 0) scale(0.996264)"/>
      <use xlink:href="#CMR17-6c" transform="translate(410.280084 0) scale(0.996264)"/>
      <use xlink:href="#CMR17-69" transform="translate(435.151142 0) scale(0.996264)"/>
      <use xlink:href="#CMR17-6e" transform="translate(460.022201 0) scale(0.996264)"/>
      <use xlink:href="#CMR17-65" transform="translate(510.91757 0) scale(0.996264)"/>
      <use xlink:href="#CMR17-61" transform="translate(551.403231 0) scale(0.996264)"/>
      <use xlink:href="#CMR17-72" transform="translate(597.093708 0) scale(0.996264)"/>
      <use xlink:href="#CMR17-c" transform="translate(662.450442 0) scale(0.996264)"/>
      <use xlink:href="#CMR17-74" transform="translate(712.192666 0) scale(0.996264)"/>
      <path d="M 382.865493 0 
L 410.280084 0 
L 410.280084 0.3985 
L 382.865493 0.3985 
L 382.865493 0 
z
"/>
     </g>
    </g>
    <g id="PathCollection_3">
     <g>
      <use xlink:href="#mcae140cbb4" x="65.279643" y="37.243395" style="fill: #32cd32; stroke: #32cd32"/>
     </g>
    </g>
    <g id="text_19">
     <!-- superradiant state -->
     <g transform="translate(85.079643 40.130895) scale(0.11 -0.11)">
      <use xlink:href="#CMR17-73" transform="scale(0.996264)"/>
      <use xlink:href="#CMR17-75" transform="translate(35.801338 0) scale(0.996264)"/>
      <use xlink:href="#CMR17-70" transform="translate(86.696707 0) scale(0.996264)"/>
      <use xlink:href="#CMR17-65" transform="translate(140.194516 0) scale(0.996264)"/>
      <use xlink:href="#CMR17-72" transform="translate(180.680176 0) scale(0.996264)"/>
      <use xlink:href="#CMR17-72" transform="translate(215.960944 0) scale(0.996264)"/>
      <use xlink:href="#CMR17-61" transform="translate(251.241712 0) scale(0.996264)"/>
      <use xlink:href="#CMR17-64" transform="translate(296.932189 0) scale(0.996264)"/>
      <use xlink:href="#CMR17-69" transform="translate(347.827559 0) scale(0.996264)"/>
      <use xlink:href="#CMR17-61" transform="translate(372.698617 0) scale(0.996264)"/>
      <use xlink:href="#CMR17-6e" transform="translate(418.389094 0) scale(0.996264)"/>
      <use xlink:href="#CMR17-74" transform="translate(466.68201 0) scale(0.996264)"/>
      <use xlink:href="#CMR17-73" transform="translate(532.038744 0) scale(0.996264)"/>
      <use xlink:href="#CMR17-74" transform="translate(567.840082 0) scale(0.996264)"/>
      <use xlink:href="#CMR17-61" transform="translate(603.12085 0) scale(0.996264)"/>
      <use xlink:href="#CMR17-74" transform="translate(648.811327 0) scale(0.996264)"/>
      <use xlink:href="#CMR17-65" transform="translate(684.092095 0) scale(0.996264)"/>
     </g>
    </g>
    <g id="line2d_19">
     <path d="M 54.279643 51.611789 
L 65.279643 51.611789 
L 76.279643 51.611789 
" style="fill: none; stroke: #1e90ff; stroke-opacity: 0.6; stroke-width: 3; stroke-linecap: square"/>
    </g>
    <g id="text_20">
     <!-- quadratic_linear fit -->
     <g transform="translate(85.079643 55.461789) scale(0.11 -0.11)">
      <use xlink:href="#CMR17-71" transform="scale(0.996264)"/>
      <use xlink:href="#CMR17-75" transform="translate(48.292916 0) scale(0.996264)"/>
      <use xlink:href="#CMR17-61" transform="translate(99.188286 0) scale(0.996264)"/>
      <use xlink:href="#CMR17-64" transform="translate(144.878763 0) scale(0.996264)"/>
      <use xlink:href="#CMR17-72" transform="translate(195.774133 0) scale(0.996264)"/>
      <use xlink:href="#CMR17-61" transform="translate(231.0549 0) scale(0.996264)"/>
      <use xlink:href="#CMR17-74" transform="translate(276.745377 0) scale(0.996264)"/>
      <use xlink:href="#CMR17-69" transform="translate(312.026145 0) scale(0.996264)"/>
      <use xlink:href="#CMR17-63" transform="translate(336.897204 0) scale(0.996264)"/>
      <use xlink:href="#CMR17-6c" transform="translate(410.280084 0) scale(0.996264)"/>
      <use xlink:href="#CMR17-69" transform="translate(435.151142 0) scale(0.996264)"/>
      <use xlink:href="#CMR17-6e" transform="translate(460.022201 0) scale(0.996264)"/>
      <use xlink:href="#CMR17-65" transform="translate(510.91757 0) scale(0.996264)"/>
      <use xlink:href="#CMR17-61" transform="translate(551.403231 0) scale(0.996264)"/>
      <use xlink:href="#CMR17-72" transform="translate(597.093708 0) scale(0.996264)"/>
      <use xlink:href="#CMR17-c" transform="translate(662.450442 0) scale(0.996264)"/>
      <use xlink:href="#CMR17-74" transform="translate(712.192666 0) scale(0.996264)"/>
      <path d="M 382.865493 0 
L 410.280084 0 
L 410.280084 0.3985 
L 382.865493 0.3985 
L 382.865493 0 
z
"/>
     </g>
    </g>
    <g id="PathCollection_4">
     <g>
      <use xlink:href="#m0bb53b92ce" x="65.279643" y="67.905184" style="fill: #1e90ff; stroke: #1e90ff"/>
     </g>
    </g>
    <g id="text_21">
     <!-- excited state -->
     <g transform="translate(85.079643 70.792684) scale(0.11 -0.11)">
      <defs>
       <path id="CMR17-78" d="M 1664 1477 
C 1856 1726 2074 2006 2253 2216 
C 2464 2458 2707 2560 2989 2560 
L 2989 2726 
C 2880 2726 2656 2726 2541 2726 
C 2368 2726 2170 2726 2022 2732 
L 2022 2566 
C 2112 2553 2163 2489 2163 2400 
C 2163 2285 2099 2215 2067 2171 
L 1594 1573 
L 1030 2306 
C 973 2376 973 2388 973 2420 
C 973 2497 1037 2560 1146 2560 
L 1146 2732 
C 992 2726 717 2726 557 2726 
C 384 2726 179 2726 38 2732 
L 38 2560 
C 384 2560 461 2534 614 2343 
L 1350 1395 
C 1363 1382 1395 1344 1395 1325 
C 1395 1299 838 619 768 530 
C 480 185 179 160 6 160 
L 6 0 
C 115 0 339 0 454 0 
C 582 0 864 0 979 -6 
L 979 160 
C 941 166 838 179 838 325 
C 838 440 890 510 947 586 
L 1478 1236 
L 2035 512 
C 2086 442 2163 346 2163 301 
C 2163 211 2086 160 1984 160 
L 1984 -6 
C 2138 0 2413 0 2573 0 
C 2746 0 2950 0 3091 -6 
L 3091 160 
C 2771 160 2675 172 2522 370 
L 1664 1477 
z
" transform="scale(0.015625)"/>
      </defs>
      <use xlink:href="#CMR17-65" transform="scale(0.996264)"/>
      <use xlink:href="#CMR17-78" transform="translate(40.48566 0) scale(0.996264)"/>
      <use xlink:href="#CMR17-63" transform="translate(88.778576 0) scale(0.996264)"/>
      <use xlink:href="#CMR17-69" transform="translate(129.264237 0) scale(0.996264)"/>
      <use xlink:href="#CMR17-74" transform="translate(154.135295 0) scale(0.996264)"/>
      <use xlink:href="#CMR17-65" transform="translate(189.416063 0) scale(0.996264)"/>
      <use xlink:href="#CMR17-64" transform="translate(229.901724 0) scale(0.996264)"/>
      <use xlink:href="#CMR17-73" transform="translate(310.87306 0) scale(0.996264)"/>
      <use xlink:href="#CMR17-74" transform="translate(346.674397 0) scale(0.996264)"/>
      <use xlink:href="#CMR17-61" transform="translate(381.955165 0) scale(0.996264)"/>
      <use xlink:href="#CMR17-74" transform="translate(427.645642 0) scale(0.996264)"/>
      <use xlink:href="#CMR17-65" transform="translate(462.92641 0) scale(0.996264)"/>
     </g>
    </g>
   </g>
  </g>
 </g>
 <defs>
  <clipPath id="pefbab91ac9">
   <rect x="44.379643" y="7.2" width="532.819877" height="374.945609"/>
  </clipPath>
 </defs>
</svg>
