<?xml version="1.0" encoding="utf-8" standalone="no"?>
<!DOCTYPE svg PUBLIC "-//W3C//DTD SVG 1.1//EN"
  "http://www.w3.org/Graphics/SVG/1.1/DTD/svg11.dtd">
<svg xmlns:xlink="http://www.w3.org/1999/xlink" width="584.39952pt" height="224.63568pt" viewBox="0 0 584.39952 224.63568" xmlns="http://www.w3.org/2000/svg" version="1.1">
 <metadata>
  <rdf:RDF xmlns:dc="http://purl.org/dc/elements/1.1/" xmlns:cc="http://creativecommons.org/ns#" xmlns:rdf="http://www.w3.org/1999/02/22-rdf-syntax-ns#">
   <cc:Work>
    <dc:type rdf:resource="http://purl.org/dc/dcmitype/StillImage"/>
    <dc:date>2025-01-16T17:51:17.233472</dc:date>
    <dc:format>image/svg+xml</dc:format>
    <dc:creator>
     <cc:Agent>
      <dc:title>Matplotlib v3.10.0, https://matplotlib.org/</dc:title>
     </cc:Agent>
    </dc:creator>
   </cc:Work>
  </rdf:RDF>
 </metadata>
 <defs>
  <style type="text/css">*{stroke-linejoin: round; stroke-linecap: butt}</style>
 </defs>
 <g id="figure_1">
  <g id="patch_1">
   <path d="M 0 224.63568 
L 584.39952 224.63568 
L 584.39952 -0 
L 0 -0 
z
" style="fill: #ffffff"/>
  </g>
  <g id="axes_1">
   <g id="patch_2">
    <path d="M 44.379643 186.953197 
L 577.19952 186.953197 
L 577.19952 7.2 
L 44.379643 7.2 
z
" style="fill: #ffffff"/>
   </g>
   <g id="FillBetweenPolyCollection_1">
    <defs>
     <path id="mec8f54fca7" d="M 68.598728 -46.025481 
L 68.598728 -46.026447 
L 72.703658 -46.333006 
L 76.808588 -46.727541 
L 80.913518 -47.210057 
L 85.018447 -47.780557 
L 89.123377 -48.439043 
L 93.228307 -49.185517 
L 97.333236 -50.01998 
L 101.438166 -50.942431 
L 105.543096 -51.952871 
L 109.648026 -53.051302 
L 113.752955 -54.237722 
L 117.857885 -55.512133 
L 121.962815 -56.874534 
L 126.067744 -58.324925 
L 130.172674 -59.863308 
L 134.277604 -61.489681 
L 138.382534 -63.204046 
L 142.487463 -65.006401 
L 146.592393 -66.896748 
L 150.697323 -68.875085 
L 154.802252 -70.941414 
L 158.907182 -73.095735 
L 163.012112 -75.338046 
L 167.117042 -77.66835 
L 171.221971 -80.086644 
L 175.326901 -82.59293 
L 179.431831 -85.187208 
L 183.53676 -87.869477 
L 187.64169 -90.639738 
L 191.74662 -93.49799 
L 195.85155 -96.444234 
L 199.956479 -99.478469 
L 204.061409 -102.600697 
L 208.166339 -105.810916 
L 212.271268 -109.109126 
L 216.376198 -112.495328 
L 220.481128 -115.969523 
L 224.586058 -119.531708 
L 228.690987 -123.181886 
L 232.795917 -126.920055 
L 236.900847 -130.746216 
L 241.005776 -134.660369 
L 245.110706 -138.662514 
L 249.215636 -142.75265 
L 253.320566 -146.930779 
L 257.425495 -151.196899 
L 261.530425 -155.551011 
L 265.635355 -159.993115 
L 269.740284 -164.52321 
L 273.845214 -169.141298 
L 277.950144 -173.847377 
L 282.055074 -178.641448 
L 286.160003 -183.523511 
L 290.264933 -188.493566 
L 294.369863 -193.551613 
L 298.474792 -198.697652 
L 302.579722 -203.931683 
L 306.684652 -209.253705 
L 306.684652 -209.248344 
L 306.684652 -209.248344 
L 302.579722 -203.926367 
L 298.474792 -198.692383 
L 294.369863 -193.546391 
L 290.264933 -188.488391 
L 286.160003 -183.518384 
L 282.055074 -178.636369 
L 277.950144 -173.842346 
L 273.845214 -169.136315 
L 269.740284 -164.518277 
L 265.635355 -159.988231 
L 261.530425 -155.546177 
L 257.425495 -151.192116 
L 253.320566 -146.926047 
L 249.215636 -142.74797 
L 245.110706 -138.657886 
L 241.005776 -134.655794 
L 236.900847 -130.741695 
L 232.795917 -126.915587 
L 228.690987 -123.177473 
L 224.586058 -119.52735 
L 220.481128 -115.96522 
L 216.376198 -112.491083 
L 212.271268 -109.104937 
L 208.166339 -105.806785 
L 204.061409 -102.596625 
L 199.956479 -99.474457 
L 195.85155 -96.440282 
L 191.74662 -93.494099 
L 187.64169 -90.635909 
L 183.53676 -87.865711 
L 179.431831 -85.183506 
L 175.326901 -82.589294 
L 171.221971 -80.083074 
L 167.117042 -77.664847 
L 163.012112 -75.334613 
L 158.907182 -73.092371 
L 154.802252 -70.938122 
L 150.697323 -68.871866 
L 146.592393 -66.893603 
L 142.487463 -65.003333 
L 138.382534 -63.201056 
L 134.277604 -61.486772 
L 130.172674 -59.860481 
L 126.067744 -58.322184 
L 121.962815 -56.87188 
L 117.857885 -55.509569 
L 113.752955 -54.235252 
L 109.648026 -53.04893 
L 105.543096 -51.950601 
L 101.438166 -50.940266 
L 97.333236 -50.017927 
L 93.228307 -49.183582 
L 89.123377 -48.437234 
L 85.018447 -47.778882 
L 80.913518 -47.208528 
L 76.808588 -46.726174 
L 72.703658 -46.331823 
L 68.598728 -46.025481 
z
" style="stroke: #32cd32; stroke-opacity: 0.3"/>
    </defs>
    <g clip-path="url(#p602a46244e)">
     <use xlink:href="#mec8f54fca7" x="0" y="224.63568" style="fill: #32cd32; fill-opacity: 0.3; stroke: #32cd32; stroke-opacity: 0.3"/>
    </g>
   </g>
   <g id="PathCollection_1">
    <defs>
     <path id="m21afa21d00" d="M 0 2.236068 
C 0.593012 2.236068 1.161816 2.000462 1.581139 1.581139 
C 2.000462 1.161816 2.236068 0.593012 2.236068 0 
C 2.236068 -0.593012 2.000462 -1.161816 1.581139 -1.581139 
C 1.161816 -2.000462 0.593012 -2.236068 0 -2.236068 
C -0.593012 -2.236068 -1.161816 -2.000462 -1.581139 -1.581139 
C -2.000462 -1.161816 -2.236068 -0.593012 -2.236068 0 
C -2.236068 0.593012 -2.000462 1.161816 -1.581139 1.581139 
C -1.161816 2.000462 -0.593012 2.236068 0 2.236068 
z
" style="stroke: #32cd32; stroke-opacity: 0.7"/>
    </defs>
    <g clip-path="url(#p602a46244e)">
     <use xlink:href="#m21afa21d00" x="68.598728" y="178.60684" style="fill: #32cd32; fill-opacity: 0.7; stroke: #32cd32; stroke-opacity: 0.7"/>
     <use xlink:href="#m21afa21d00" x="72.703658" y="178.342918" style="fill: #32cd32; fill-opacity: 0.7; stroke: #32cd32; stroke-opacity: 0.7"/>
     <use xlink:href="#m21afa21d00" x="76.808588" y="177.903235" style="fill: #32cd32; fill-opacity: 0.7; stroke: #32cd32; stroke-opacity: 0.7"/>
     <use xlink:href="#m21afa21d00" x="80.913518" y="177.463415" style="fill: #32cd32; fill-opacity: 0.7; stroke: #32cd32; stroke-opacity: 0.7"/>
     <use xlink:href="#m21afa21d00" x="85.018447" y="176.847828" style="fill: #32cd32; fill-opacity: 0.7; stroke: #32cd32; stroke-opacity: 0.7"/>
     <use xlink:href="#m21afa21d00" x="89.123377" y="176.232111" style="fill: #32cd32; fill-opacity: 0.7; stroke: #32cd32; stroke-opacity: 0.7"/>
     <use xlink:href="#m21afa21d00" x="93.228307" y="175.440619" style="fill: #32cd32; fill-opacity: 0.7; stroke: #32cd32; stroke-opacity: 0.7"/>
     <use xlink:href="#m21afa21d00" x="97.333236" y="174.649006" style="fill: #32cd32; fill-opacity: 0.7; stroke: #32cd32; stroke-opacity: 0.7"/>
     <use xlink:href="#m21afa21d00" x="101.438166" y="173.681608" style="fill: #32cd32; fill-opacity: 0.7; stroke: #32cd32; stroke-opacity: 0.7"/>
     <use xlink:href="#m21afa21d00" x="105.543096" y="172.7141" style="fill: #32cd32; fill-opacity: 0.7; stroke: #32cd32; stroke-opacity: 0.7"/>
     <use xlink:href="#m21afa21d00" x="109.648026" y="171.570795" style="fill: #32cd32; fill-opacity: 0.7; stroke: #32cd32; stroke-opacity: 0.7"/>
     <use xlink:href="#m21afa21d00" x="113.752955" y="170.427393" style="fill: #32cd32; fill-opacity: 0.7; stroke: #32cd32; stroke-opacity: 0.7"/>
     <use xlink:href="#m21afa21d00" x="117.857885" y="169.108179" style="fill: #32cd32; fill-opacity: 0.7; stroke: #32cd32; stroke-opacity: 0.7"/>
     <use xlink:href="#m21afa21d00" x="121.962815" y="167.788884" style="fill: #32cd32; fill-opacity: 0.7; stroke: #32cd32; stroke-opacity: 0.7"/>
     <use xlink:href="#m21afa21d00" x="126.067744" y="166.293761" style="fill: #32cd32; fill-opacity: 0.7; stroke: #32cd32; stroke-opacity: 0.7"/>
     <use xlink:href="#m21afa21d00" x="130.172674" y="164.798575" style="fill: #32cd32; fill-opacity: 0.7; stroke: #32cd32; stroke-opacity: 0.7"/>
     <use xlink:href="#m21afa21d00" x="134.277604" y="163.127541" style="fill: #32cd32; fill-opacity: 0.7; stroke: #32cd32; stroke-opacity: 0.7"/>
     <use xlink:href="#m21afa21d00" x="138.382534" y="161.456464" style="fill: #32cd32; fill-opacity: 0.7; stroke: #32cd32; stroke-opacity: 0.7"/>
     <use xlink:href="#m21afa21d00" x="142.487463" y="159.609519" style="fill: #32cd32; fill-opacity: 0.7; stroke: #32cd32; stroke-opacity: 0.7"/>
     <use xlink:href="#m21afa21d00" x="146.592393" y="157.762552" style="fill: #32cd32; fill-opacity: 0.7; stroke: #32cd32; stroke-opacity: 0.7"/>
     <use xlink:href="#m21afa21d00" x="150.697323" y="155.739694" style="fill: #32cd32; fill-opacity: 0.7; stroke: #32cd32; stroke-opacity: 0.7"/>
     <use xlink:href="#m21afa21d00" x="154.802252" y="153.716839" style="fill: #32cd32; fill-opacity: 0.7; stroke: #32cd32; stroke-opacity: 0.7"/>
     <use xlink:href="#m21afa21d00" x="158.907182" y="151.518067" style="fill: #32cd32; fill-opacity: 0.7; stroke: #32cd32; stroke-opacity: 0.7"/>
     <use xlink:href="#m21afa21d00" x="163.012112" y="149.319325" style="fill: #32cd32; fill-opacity: 0.7; stroke: #32cd32; stroke-opacity: 0.7"/>
     <use xlink:href="#m21afa21d00" x="167.117042" y="146.944638" style="fill: #32cd32; fill-opacity: 0.7; stroke: #32cd32; stroke-opacity: 0.7"/>
     <use xlink:href="#m21afa21d00" x="171.221971" y="144.57001" style="fill: #32cd32; fill-opacity: 0.7; stroke: #32cd32; stroke-opacity: 0.7"/>
     <use xlink:href="#m21afa21d00" x="175.326901" y="142.019407" style="fill: #32cd32; fill-opacity: 0.7; stroke: #32cd32; stroke-opacity: 0.7"/>
     <use xlink:href="#m21afa21d00" x="179.431831" y="139.468894" style="fill: #32cd32; fill-opacity: 0.7; stroke: #32cd32; stroke-opacity: 0.7"/>
     <use xlink:href="#m21afa21d00" x="183.53676" y="136.742373" style="fill: #32cd32; fill-opacity: 0.7; stroke: #32cd32; stroke-opacity: 0.7"/>
     <use xlink:href="#m21afa21d00" x="187.64169" y="134.015976" style="fill: #32cd32; fill-opacity: 0.7; stroke: #32cd32; stroke-opacity: 0.7"/>
     <use xlink:href="#m21afa21d00" x="191.74662" y="131.113537" style="fill: #32cd32; fill-opacity: 0.7; stroke: #32cd32; stroke-opacity: 0.7"/>
     <use xlink:href="#m21afa21d00" x="195.85155" y="128.211258" style="fill: #32cd32; fill-opacity: 0.7; stroke: #32cd32; stroke-opacity: 0.7"/>
     <use xlink:href="#m21afa21d00" x="199.956479" y="125.132899" style="fill: #32cd32; fill-opacity: 0.7; stroke: #32cd32; stroke-opacity: 0.7"/>
     <use xlink:href="#m21afa21d00" x="204.061409" y="122.054738" style="fill: #32cd32; fill-opacity: 0.7; stroke: #32cd32; stroke-opacity: 0.7"/>
     <use xlink:href="#m21afa21d00" x="208.166339" y="118.800459" style="fill: #32cd32; fill-opacity: 0.7; stroke: #32cd32; stroke-opacity: 0.7"/>
     <use xlink:href="#m21afa21d00" x="212.271268" y="115.546417" style="fill: #32cd32; fill-opacity: 0.7; stroke: #32cd32; stroke-opacity: 0.7"/>
     <use xlink:href="#m21afa21d00" x="216.376198" y="112.116216" style="fill: #32cd32; fill-opacity: 0.7; stroke: #32cd32; stroke-opacity: 0.7"/>
     <use xlink:href="#m21afa21d00" x="220.481128" y="108.686295" style="fill: #32cd32; fill-opacity: 0.7; stroke: #32cd32; stroke-opacity: 0.7"/>
     <use xlink:href="#m21afa21d00" x="224.586058" y="105.080172" style="fill: #32cd32; fill-opacity: 0.7; stroke: #32cd32; stroke-opacity: 0.7"/>
     <use xlink:href="#m21afa21d00" x="228.690987" y="101.474372" style="fill: #32cd32; fill-opacity: 0.7; stroke: #32cd32; stroke-opacity: 0.7"/>
     <use xlink:href="#m21afa21d00" x="232.795917" y="97.692325" style="fill: #32cd32; fill-opacity: 0.7; stroke: #32cd32; stroke-opacity: 0.7"/>
     <use xlink:href="#m21afa21d00" x="236.900847" y="93.910648" style="fill: #32cd32; fill-opacity: 0.7; stroke: #32cd32; stroke-opacity: 0.7"/>
     <use xlink:href="#m21afa21d00" x="241.005776" y="89.952675" style="fill: #32cd32; fill-opacity: 0.7; stroke: #32cd32; stroke-opacity: 0.7"/>
     <use xlink:href="#m21afa21d00" x="245.110706" y="85.995123" style="fill: #32cd32; fill-opacity: 0.7; stroke: #32cd32; stroke-opacity: 0.7"/>
     <use xlink:href="#m21afa21d00" x="249.215636" y="81.861224" style="fill: #32cd32; fill-opacity: 0.7; stroke: #32cd32; stroke-opacity: 0.7"/>
     <use xlink:href="#m21afa21d00" x="253.320566" y="77.727796" style="fill: #32cd32; fill-opacity: 0.7; stroke: #32cd32; stroke-opacity: 0.7"/>
     <use xlink:href="#m21afa21d00" x="257.425495" y="73.41797" style="fill: #32cd32; fill-opacity: 0.7; stroke: #32cd32; stroke-opacity: 0.7"/>
     <use xlink:href="#m21afa21d00" x="261.530425" y="69.108669" style="fill: #32cd32; fill-opacity: 0.7; stroke: #32cd32; stroke-opacity: 0.7"/>
     <use xlink:href="#m21afa21d00" x="265.635355" y="64.622914" style="fill: #32cd32; fill-opacity: 0.7; stroke: #32cd32; stroke-opacity: 0.7"/>
     <use xlink:href="#m21afa21d00" x="269.740284" y="60.13774" style="fill: #32cd32; fill-opacity: 0.7; stroke: #32cd32; stroke-opacity: 0.7"/>
     <use xlink:href="#m21afa21d00" x="273.845214" y="55.476056" style="fill: #32cd32; fill-opacity: 0.7; stroke: #32cd32; stroke-opacity: 0.7"/>
     <use xlink:href="#m21afa21d00" x="277.950144" y="50.81501" style="fill: #32cd32; fill-opacity: 0.7; stroke: #32cd32; stroke-opacity: 0.7"/>
     <use xlink:href="#m21afa21d00" x="282.055074" y="45.977395" style="fill: #32cd32; fill-opacity: 0.7; stroke: #32cd32; stroke-opacity: 0.7"/>
     <use xlink:href="#m21afa21d00" x="286.160003" y="41.140479" style="fill: #32cd32; fill-opacity: 0.7; stroke: #32cd32; stroke-opacity: 0.7"/>
     <use xlink:href="#m21afa21d00" x="290.264933" y="36.126932" style="fill: #32cd32; fill-opacity: 0.7; stroke: #32cd32; stroke-opacity: 0.7"/>
     <use xlink:href="#m21afa21d00" x="294.369863" y="31.114147" style="fill: #32cd32; fill-opacity: 0.7; stroke: #32cd32; stroke-opacity: 0.7"/>
     <use xlink:href="#m21afa21d00" x="298.474792" y="25.924667" style="fill: #32cd32; fill-opacity: 0.7; stroke: #32cd32; stroke-opacity: 0.7"/>
     <use xlink:href="#m21afa21d00" x="302.579722" y="20.736014" style="fill: #32cd32; fill-opacity: 0.7; stroke: #32cd32; stroke-opacity: 0.7"/>
     <use xlink:href="#m21afa21d00" x="306.684652" y="15.3706" style="fill: #32cd32; fill-opacity: 0.7; stroke: #32cd32; stroke-opacity: 0.7"/>
    </g>
   </g>
   <g id="FillBetweenPolyCollection_2">
    <defs>
     <path id="mb78313e397" d="M 68.598728 -45.853083 
L 68.598728 -45.853083 
L 72.703658 -45.941105 
L 76.808588 -46.029127 
L 80.913518 -46.117148 
L 85.018447 -46.20517 
L 89.123377 -46.293192 
L 93.228307 -46.381213 
L 97.333236 -46.469235 
L 101.438166 -46.557256 
L 105.543096 -46.645277 
L 109.648026 -46.733299 
L 113.752955 -46.82132 
L 117.857885 -46.909341 
L 121.962815 -46.997362 
L 126.067744 -47.085382 
L 130.172674 -47.173403 
L 134.277604 -47.261424 
L 138.382534 -47.349444 
L 142.487463 -47.437465 
L 146.592393 -47.525485 
L 150.697323 -47.613505 
L 154.802252 -47.701526 
L 158.907182 -47.789546 
L 163.012112 -47.877566 
L 167.117042 -47.965585 
L 171.221971 -48.053605 
L 175.326901 -48.141625 
L 179.431831 -48.229644 
L 183.53676 -48.317664 
L 187.64169 -48.405683 
L 191.74662 -48.493703 
L 195.85155 -48.581722 
L 199.956479 -48.669741 
L 204.061409 -48.75776 
L 208.166339 -48.845779 
L 212.271268 -48.933798 
L 216.376198 -49.021817 
L 220.481128 -49.109835 
L 224.586058 -49.197854 
L 228.690987 -49.285872 
L 232.795917 -49.373891 
L 236.900847 -49.461909 
L 241.005776 -49.549927 
L 245.110706 -49.637945 
L 249.215636 -49.725963 
L 253.320566 -49.813981 
L 257.425495 -49.901999 
L 261.530425 -49.990017 
L 265.635355 -50.078034 
L 269.740284 -50.166052 
L 273.845214 -50.254069 
L 277.950144 -50.342087 
L 282.055074 -50.430104 
L 286.160003 -50.518121 
L 290.264933 -50.606138 
L 294.369863 -50.694155 
L 298.474792 -50.782172 
L 302.579722 -50.870189 
L 306.684652 -50.958205 
L 310.789582 -51.046222 
L 314.894511 -51.134238 
L 318.999441 -51.222255 
L 323.104371 -51.310271 
L 327.2093 -51.398287 
L 331.31423 -51.486303 
L 335.41916 -51.57432 
L 339.52409 -51.662335 
L 343.629019 -51.750351 
L 347.733949 -51.838367 
L 351.838879 -51.926383 
L 355.943808 -52.014398 
L 360.048738 -52.102414 
L 364.153668 -52.190429 
L 368.258598 -52.278444 
L 372.363527 -52.36646 
L 376.468457 -52.454475 
L 380.573387 -52.54249 
L 384.678316 -52.630505 
L 388.783246 -52.718519 
L 392.888176 -52.806534 
L 396.993106 -52.894549 
L 401.098035 -52.982563 
L 405.202965 -53.070578 
L 409.307895 -53.158592 
L 413.412824 -53.246606 
L 417.517754 -53.33462 
L 421.622684 -53.422634 
L 425.727614 -53.510648 
L 429.832543 -53.598662 
L 433.937473 -53.686676 
L 438.042403 -53.77469 
L 442.147332 -53.862703 
L 446.252262 -53.950717 
L 450.357192 -54.03873 
L 454.462122 -54.126744 
L 458.567051 -54.214757 
L 462.671981 -54.30277 
L 466.776911 -54.390783 
L 470.88184 -54.478796 
L 474.98677 -54.566809 
L 479.0917 -54.654821 
L 483.19663 -54.742834 
L 487.301559 -54.830847 
L 491.406489 -54.918859 
L 495.511419 -55.006872 
L 499.616348 -55.094884 
L 503.721278 -55.182896 
L 507.826208 -55.270908 
L 511.931138 -55.35892 
L 516.036067 -55.446932 
L 520.140997 -55.534944 
L 524.245927 -55.622955 
L 528.350856 -55.710967 
L 532.455786 -55.798979 
L 536.560716 -55.88699 
L 540.665646 -55.975001 
L 544.770575 -56.063013 
L 548.875505 -56.151024 
L 552.980435 -56.239035 
L 552.980435 -56.239035 
L 552.980435 -56.239035 
L 548.875505 -56.151024 
L 544.770575 -56.063013 
L 540.665646 -55.975001 
L 536.560716 -55.88699 
L 532.455786 -55.798979 
L 528.350856 -55.710967 
L 524.245927 -55.622955 
L 520.140997 -55.534944 
L 516.036067 -55.446932 
L 511.931138 -55.35892 
L 507.826208 -55.270908 
L 503.721278 -55.182896 
L 499.616348 -55.094884 
L 495.511419 -55.006872 
L 491.406489 -54.918859 
L 487.301559 -54.830847 
L 483.19663 -54.742834 
L 479.0917 -54.654821 
L 474.98677 -54.566809 
L 470.88184 -54.478796 
L 466.776911 -54.390783 
L 462.671981 -54.30277 
L 458.567051 -54.214757 
L 454.462122 -54.126744 
L 450.357192 -54.03873 
L 446.252262 -53.950717 
L 442.147332 -53.862703 
L 438.042403 -53.77469 
L 433.937473 -53.686676 
L 429.832543 -53.598662 
L 425.727614 -53.510648 
L 421.622684 -53.422634 
L 417.517754 -53.33462 
L 413.412824 -53.246606 
L 409.307895 -53.158592 
L 405.202965 -53.070578 
L 401.098035 -52.982563 
L 396.993106 -52.894549 
L 392.888176 -52.806534 
L 388.783246 -52.718519 
L 384.678316 -52.630505 
L 380.573387 -52.54249 
L 376.468457 -52.454475 
L 372.363527 -52.36646 
L 368.258598 -52.278444 
L 364.153668 -52.190429 
L 360.048738 -52.102414 
L 355.943808 -52.014398 
L 351.838879 -51.926383 
L 347.733949 -51.838367 
L 343.629019 -51.750351 
L 339.52409 -51.662335 
L 335.41916 -51.57432 
L 331.31423 -51.486303 
L 327.2093 -51.398287 
L 323.104371 -51.310271 
L 318.999441 -51.222255 
L 314.894511 -51.134238 
L 310.789582 -51.046222 
L 306.684652 -50.958205 
L 302.579722 -50.870189 
L 298.474792 -50.782172 
L 294.369863 -50.694155 
L 290.264933 -50.606138 
L 286.160003 -50.518121 
L 282.055074 -50.430104 
L 277.950144 -50.342087 
L 273.845214 -50.254069 
L 269.740284 -50.166052 
L 265.635355 -50.078034 
L 261.530425 -49.990017 
L 257.425495 -49.901999 
L 253.320566 -49.813981 
L 249.215636 -49.725963 
L 245.110706 -49.637945 
L 241.005776 -49.549927 
L 236.900847 -49.461909 
L 232.795917 -49.373891 
L 228.690987 -49.285872 
L 224.586058 -49.197854 
L 220.481128 -49.109835 
L 216.376198 -49.021817 
L 212.271268 -48.933798 
L 208.166339 -48.845779 
L 204.061409 -48.75776 
L 199.956479 -48.669741 
L 195.85155 -48.581722 
L 191.74662 -48.493703 
L 187.64169 -48.405683 
L 183.53676 -48.317664 
L 179.431831 -48.229644 
L 175.326901 -48.141625 
L 171.221971 -48.053605 
L 167.117042 -47.965585 
L 163.012112 -47.877566 
L 158.907182 -47.789546 
L 154.802252 -47.701526 
L 150.697323 -47.613505 
L 146.592393 -47.525485 
L 142.487463 -47.437465 
L 138.382534 -47.349444 
L 134.277604 -47.261424 
L 130.172674 -47.173403 
L 126.067744 -47.085382 
L 121.962815 -46.997362 
L 117.857885 -46.909341 
L 113.752955 -46.82132 
L 109.648026 -46.733299 
L 105.543096 -46.645277 
L 101.438166 -46.557256 
L 97.333236 -46.469235 
L 93.228307 -46.381213 
L 89.123377 -46.293192 
L 85.018447 -46.20517 
L 80.913518 -46.117148 
L 76.808588 -46.029127 
L 72.703658 -45.941105 
L 68.598728 -45.853083 
z
" style="stroke: #1e90ff; stroke-opacity: 0.3"/>
    </defs>
    <g clip-path="url(#p602a46244e)">
     <use xlink:href="#mb78313e397" x="0" y="224.63568" style="fill: #1e90ff; fill-opacity: 0.3; stroke: #1e90ff; stroke-opacity: 0.3"/>
    </g>
   </g>
   <g id="PathCollection_2">
    <defs>
     <path id="m8e888a4297" d="M 0 -2.236068 
L -2.236068 2.236068 
L 2.236068 2.236068 
z
" style="stroke: #1e90ff; stroke-opacity: 0.7"/>
    </defs>
    <g clip-path="url(#p602a46244e)">
     <use xlink:href="#m8e888a4297" x="68.598728" y="178.782597" style="fill: #1e90ff; fill-opacity: 0.7; stroke: #1e90ff; stroke-opacity: 0.7"/>
     <use xlink:href="#m8e888a4297" x="72.703658" y="178.694575" style="fill: #1e90ff; fill-opacity: 0.7; stroke: #1e90ff; stroke-opacity: 0.7"/>
     <use xlink:href="#m8e888a4297" x="76.808588" y="178.606553" style="fill: #1e90ff; fill-opacity: 0.7; stroke: #1e90ff; stroke-opacity: 0.7"/>
     <use xlink:href="#m8e888a4297" x="80.913518" y="178.518532" style="fill: #1e90ff; fill-opacity: 0.7; stroke: #1e90ff; stroke-opacity: 0.7"/>
     <use xlink:href="#m8e888a4297" x="85.018447" y="178.43051" style="fill: #1e90ff; fill-opacity: 0.7; stroke: #1e90ff; stroke-opacity: 0.7"/>
     <use xlink:href="#m8e888a4297" x="89.123377" y="178.342488" style="fill: #1e90ff; fill-opacity: 0.7; stroke: #1e90ff; stroke-opacity: 0.7"/>
     <use xlink:href="#m8e888a4297" x="93.228307" y="178.254467" style="fill: #1e90ff; fill-opacity: 0.7; stroke: #1e90ff; stroke-opacity: 0.7"/>
     <use xlink:href="#m8e888a4297" x="97.333236" y="178.166445" style="fill: #1e90ff; fill-opacity: 0.7; stroke: #1e90ff; stroke-opacity: 0.7"/>
     <use xlink:href="#m8e888a4297" x="101.438166" y="178.078424" style="fill: #1e90ff; fill-opacity: 0.7; stroke: #1e90ff; stroke-opacity: 0.7"/>
     <use xlink:href="#m8e888a4297" x="105.543096" y="177.990403" style="fill: #1e90ff; fill-opacity: 0.7; stroke: #1e90ff; stroke-opacity: 0.7"/>
     <use xlink:href="#m8e888a4297" x="109.648026" y="177.902381" style="fill: #1e90ff; fill-opacity: 0.7; stroke: #1e90ff; stroke-opacity: 0.7"/>
     <use xlink:href="#m8e888a4297" x="113.752955" y="177.81436" style="fill: #1e90ff; fill-opacity: 0.7; stroke: #1e90ff; stroke-opacity: 0.7"/>
     <use xlink:href="#m8e888a4297" x="117.857885" y="177.726339" style="fill: #1e90ff; fill-opacity: 0.7; stroke: #1e90ff; stroke-opacity: 0.7"/>
     <use xlink:href="#m8e888a4297" x="121.962815" y="177.638318" style="fill: #1e90ff; fill-opacity: 0.7; stroke: #1e90ff; stroke-opacity: 0.7"/>
     <use xlink:href="#m8e888a4297" x="126.067744" y="177.550298" style="fill: #1e90ff; fill-opacity: 0.7; stroke: #1e90ff; stroke-opacity: 0.7"/>
     <use xlink:href="#m8e888a4297" x="130.172674" y="177.462277" style="fill: #1e90ff; fill-opacity: 0.7; stroke: #1e90ff; stroke-opacity: 0.7"/>
     <use xlink:href="#m8e888a4297" x="134.277604" y="177.374256" style="fill: #1e90ff; fill-opacity: 0.7; stroke: #1e90ff; stroke-opacity: 0.7"/>
     <use xlink:href="#m8e888a4297" x="138.382534" y="177.286236" style="fill: #1e90ff; fill-opacity: 0.7; stroke: #1e90ff; stroke-opacity: 0.7"/>
     <use xlink:href="#m8e888a4297" x="142.487463" y="177.198215" style="fill: #1e90ff; fill-opacity: 0.7; stroke: #1e90ff; stroke-opacity: 0.7"/>
     <use xlink:href="#m8e888a4297" x="146.592393" y="177.110195" style="fill: #1e90ff; fill-opacity: 0.7; stroke: #1e90ff; stroke-opacity: 0.7"/>
     <use xlink:href="#m8e888a4297" x="150.697323" y="177.022175" style="fill: #1e90ff; fill-opacity: 0.7; stroke: #1e90ff; stroke-opacity: 0.7"/>
     <use xlink:href="#m8e888a4297" x="154.802252" y="176.934154" style="fill: #1e90ff; fill-opacity: 0.7; stroke: #1e90ff; stroke-opacity: 0.7"/>
     <use xlink:href="#m8e888a4297" x="158.907182" y="176.846134" style="fill: #1e90ff; fill-opacity: 0.7; stroke: #1e90ff; stroke-opacity: 0.7"/>
     <use xlink:href="#m8e888a4297" x="163.012112" y="176.758114" style="fill: #1e90ff; fill-opacity: 0.7; stroke: #1e90ff; stroke-opacity: 0.7"/>
     <use xlink:href="#m8e888a4297" x="167.117042" y="176.670095" style="fill: #1e90ff; fill-opacity: 0.7; stroke: #1e90ff; stroke-opacity: 0.7"/>
     <use xlink:href="#m8e888a4297" x="171.221971" y="176.582075" style="fill: #1e90ff; fill-opacity: 0.7; stroke: #1e90ff; stroke-opacity: 0.7"/>
     <use xlink:href="#m8e888a4297" x="175.326901" y="176.494055" style="fill: #1e90ff; fill-opacity: 0.7; stroke: #1e90ff; stroke-opacity: 0.7"/>
     <use xlink:href="#m8e888a4297" x="179.431831" y="176.406036" style="fill: #1e90ff; fill-opacity: 0.7; stroke: #1e90ff; stroke-opacity: 0.7"/>
     <use xlink:href="#m8e888a4297" x="183.53676" y="176.318016" style="fill: #1e90ff; fill-opacity: 0.7; stroke: #1e90ff; stroke-opacity: 0.7"/>
     <use xlink:href="#m8e888a4297" x="187.64169" y="176.229997" style="fill: #1e90ff; fill-opacity: 0.7; stroke: #1e90ff; stroke-opacity: 0.7"/>
     <use xlink:href="#m8e888a4297" x="191.74662" y="176.141977" style="fill: #1e90ff; fill-opacity: 0.7; stroke: #1e90ff; stroke-opacity: 0.7"/>
     <use xlink:href="#m8e888a4297" x="195.85155" y="176.053958" style="fill: #1e90ff; fill-opacity: 0.7; stroke: #1e90ff; stroke-opacity: 0.7"/>
     <use xlink:href="#m8e888a4297" x="199.956479" y="175.965939" style="fill: #1e90ff; fill-opacity: 0.7; stroke: #1e90ff; stroke-opacity: 0.7"/>
     <use xlink:href="#m8e888a4297" x="204.061409" y="175.87792" style="fill: #1e90ff; fill-opacity: 0.7; stroke: #1e90ff; stroke-opacity: 0.7"/>
     <use xlink:href="#m8e888a4297" x="208.166339" y="175.789901" style="fill: #1e90ff; fill-opacity: 0.7; stroke: #1e90ff; stroke-opacity: 0.7"/>
     <use xlink:href="#m8e888a4297" x="212.271268" y="175.701882" style="fill: #1e90ff; fill-opacity: 0.7; stroke: #1e90ff; stroke-opacity: 0.7"/>
     <use xlink:href="#m8e888a4297" x="216.376198" y="175.613863" style="fill: #1e90ff; fill-opacity: 0.7; stroke: #1e90ff; stroke-opacity: 0.7"/>
     <use xlink:href="#m8e888a4297" x="220.481128" y="175.525845" style="fill: #1e90ff; fill-opacity: 0.7; stroke: #1e90ff; stroke-opacity: 0.7"/>
     <use xlink:href="#m8e888a4297" x="224.586058" y="175.437826" style="fill: #1e90ff; fill-opacity: 0.7; stroke: #1e90ff; stroke-opacity: 0.7"/>
     <use xlink:href="#m8e888a4297" x="228.690987" y="175.349808" style="fill: #1e90ff; fill-opacity: 0.7; stroke: #1e90ff; stroke-opacity: 0.7"/>
     <use xlink:href="#m8e888a4297" x="232.795917" y="175.261789" style="fill: #1e90ff; fill-opacity: 0.7; stroke: #1e90ff; stroke-opacity: 0.7"/>
     <use xlink:href="#m8e888a4297" x="236.900847" y="175.173771" style="fill: #1e90ff; fill-opacity: 0.7; stroke: #1e90ff; stroke-opacity: 0.7"/>
     <use xlink:href="#m8e888a4297" x="241.005776" y="175.085753" style="fill: #1e90ff; fill-opacity: 0.7; stroke: #1e90ff; stroke-opacity: 0.7"/>
     <use xlink:href="#m8e888a4297" x="245.110706" y="174.997735" style="fill: #1e90ff; fill-opacity: 0.7; stroke: #1e90ff; stroke-opacity: 0.7"/>
     <use xlink:href="#m8e888a4297" x="249.215636" y="174.909717" style="fill: #1e90ff; fill-opacity: 0.7; stroke: #1e90ff; stroke-opacity: 0.7"/>
     <use xlink:href="#m8e888a4297" x="253.320566" y="174.821699" style="fill: #1e90ff; fill-opacity: 0.7; stroke: #1e90ff; stroke-opacity: 0.7"/>
     <use xlink:href="#m8e888a4297" x="257.425495" y="174.733681" style="fill: #1e90ff; fill-opacity: 0.7; stroke: #1e90ff; stroke-opacity: 0.7"/>
     <use xlink:href="#m8e888a4297" x="261.530425" y="174.645663" style="fill: #1e90ff; fill-opacity: 0.7; stroke: #1e90ff; stroke-opacity: 0.7"/>
     <use xlink:href="#m8e888a4297" x="265.635355" y="174.557646" style="fill: #1e90ff; fill-opacity: 0.7; stroke: #1e90ff; stroke-opacity: 0.7"/>
     <use xlink:href="#m8e888a4297" x="269.740284" y="174.469628" style="fill: #1e90ff; fill-opacity: 0.7; stroke: #1e90ff; stroke-opacity: 0.7"/>
     <use xlink:href="#m8e888a4297" x="273.845214" y="174.381611" style="fill: #1e90ff; fill-opacity: 0.7; stroke: #1e90ff; stroke-opacity: 0.7"/>
     <use xlink:href="#m8e888a4297" x="277.950144" y="174.293593" style="fill: #1e90ff; fill-opacity: 0.7; stroke: #1e90ff; stroke-opacity: 0.7"/>
     <use xlink:href="#m8e888a4297" x="282.055074" y="174.205576" style="fill: #1e90ff; fill-opacity: 0.7; stroke: #1e90ff; stroke-opacity: 0.7"/>
     <use xlink:href="#m8e888a4297" x="286.160003" y="174.117559" style="fill: #1e90ff; fill-opacity: 0.7; stroke: #1e90ff; stroke-opacity: 0.7"/>
     <use xlink:href="#m8e888a4297" x="290.264933" y="174.029542" style="fill: #1e90ff; fill-opacity: 0.7; stroke: #1e90ff; stroke-opacity: 0.7"/>
     <use xlink:href="#m8e888a4297" x="294.369863" y="173.941525" style="fill: #1e90ff; fill-opacity: 0.7; stroke: #1e90ff; stroke-opacity: 0.7"/>
     <use xlink:href="#m8e888a4297" x="298.474792" y="173.853508" style="fill: #1e90ff; fill-opacity: 0.7; stroke: #1e90ff; stroke-opacity: 0.7"/>
     <use xlink:href="#m8e888a4297" x="302.579722" y="173.765491" style="fill: #1e90ff; fill-opacity: 0.7; stroke: #1e90ff; stroke-opacity: 0.7"/>
     <use xlink:href="#m8e888a4297" x="306.684652" y="173.677475" style="fill: #1e90ff; fill-opacity: 0.7; stroke: #1e90ff; stroke-opacity: 0.7"/>
     <use xlink:href="#m8e888a4297" x="310.789582" y="173.589458" style="fill: #1e90ff; fill-opacity: 0.7; stroke: #1e90ff; stroke-opacity: 0.7"/>
     <use xlink:href="#m8e888a4297" x="314.894511" y="173.501442" style="fill: #1e90ff; fill-opacity: 0.7; stroke: #1e90ff; stroke-opacity: 0.7"/>
     <use xlink:href="#m8e888a4297" x="318.999441" y="173.413425" style="fill: #1e90ff; fill-opacity: 0.7; stroke: #1e90ff; stroke-opacity: 0.7"/>
     <use xlink:href="#m8e888a4297" x="323.104371" y="173.325409" style="fill: #1e90ff; fill-opacity: 0.7; stroke: #1e90ff; stroke-opacity: 0.7"/>
     <use xlink:href="#m8e888a4297" x="327.2093" y="173.237393" style="fill: #1e90ff; fill-opacity: 0.7; stroke: #1e90ff; stroke-opacity: 0.7"/>
     <use xlink:href="#m8e888a4297" x="331.31423" y="173.149377" style="fill: #1e90ff; fill-opacity: 0.7; stroke: #1e90ff; stroke-opacity: 0.7"/>
     <use xlink:href="#m8e888a4297" x="335.41916" y="173.06136" style="fill: #1e90ff; fill-opacity: 0.7; stroke: #1e90ff; stroke-opacity: 0.7"/>
     <use xlink:href="#m8e888a4297" x="339.52409" y="172.973345" style="fill: #1e90ff; fill-opacity: 0.7; stroke: #1e90ff; stroke-opacity: 0.7"/>
     <use xlink:href="#m8e888a4297" x="343.629019" y="172.885329" style="fill: #1e90ff; fill-opacity: 0.7; stroke: #1e90ff; stroke-opacity: 0.7"/>
     <use xlink:href="#m8e888a4297" x="347.733949" y="172.797313" style="fill: #1e90ff; fill-opacity: 0.7; stroke: #1e90ff; stroke-opacity: 0.7"/>
     <use xlink:href="#m8e888a4297" x="351.838879" y="172.709297" style="fill: #1e90ff; fill-opacity: 0.7; stroke: #1e90ff; stroke-opacity: 0.7"/>
     <use xlink:href="#m8e888a4297" x="355.943808" y="172.621282" style="fill: #1e90ff; fill-opacity: 0.7; stroke: #1e90ff; stroke-opacity: 0.7"/>
     <use xlink:href="#m8e888a4297" x="360.048738" y="172.533266" style="fill: #1e90ff; fill-opacity: 0.7; stroke: #1e90ff; stroke-opacity: 0.7"/>
     <use xlink:href="#m8e888a4297" x="364.153668" y="172.445251" style="fill: #1e90ff; fill-opacity: 0.7; stroke: #1e90ff; stroke-opacity: 0.7"/>
     <use xlink:href="#m8e888a4297" x="368.258598" y="172.357236" style="fill: #1e90ff; fill-opacity: 0.7; stroke: #1e90ff; stroke-opacity: 0.7"/>
     <use xlink:href="#m8e888a4297" x="372.363527" y="172.26922" style="fill: #1e90ff; fill-opacity: 0.7; stroke: #1e90ff; stroke-opacity: 0.7"/>
     <use xlink:href="#m8e888a4297" x="376.468457" y="172.181205" style="fill: #1e90ff; fill-opacity: 0.7; stroke: #1e90ff; stroke-opacity: 0.7"/>
     <use xlink:href="#m8e888a4297" x="380.573387" y="172.09319" style="fill: #1e90ff; fill-opacity: 0.7; stroke: #1e90ff; stroke-opacity: 0.7"/>
     <use xlink:href="#m8e888a4297" x="384.678316" y="172.005175" style="fill: #1e90ff; fill-opacity: 0.7; stroke: #1e90ff; stroke-opacity: 0.7"/>
     <use xlink:href="#m8e888a4297" x="388.783246" y="171.917161" style="fill: #1e90ff; fill-opacity: 0.7; stroke: #1e90ff; stroke-opacity: 0.7"/>
     <use xlink:href="#m8e888a4297" x="392.888176" y="171.829146" style="fill: #1e90ff; fill-opacity: 0.7; stroke: #1e90ff; stroke-opacity: 0.7"/>
     <use xlink:href="#m8e888a4297" x="396.993106" y="171.741131" style="fill: #1e90ff; fill-opacity: 0.7; stroke: #1e90ff; stroke-opacity: 0.7"/>
     <use xlink:href="#m8e888a4297" x="401.098035" y="171.653117" style="fill: #1e90ff; fill-opacity: 0.7; stroke: #1e90ff; stroke-opacity: 0.7"/>
     <use xlink:href="#m8e888a4297" x="405.202965" y="171.565102" style="fill: #1e90ff; fill-opacity: 0.7; stroke: #1e90ff; stroke-opacity: 0.7"/>
     <use xlink:href="#m8e888a4297" x="409.307895" y="171.477088" style="fill: #1e90ff; fill-opacity: 0.7; stroke: #1e90ff; stroke-opacity: 0.7"/>
     <use xlink:href="#m8e888a4297" x="413.412824" y="171.389074" style="fill: #1e90ff; fill-opacity: 0.7; stroke: #1e90ff; stroke-opacity: 0.7"/>
     <use xlink:href="#m8e888a4297" x="417.517754" y="171.30106" style="fill: #1e90ff; fill-opacity: 0.7; stroke: #1e90ff; stroke-opacity: 0.7"/>
     <use xlink:href="#m8e888a4297" x="421.622684" y="171.213046" style="fill: #1e90ff; fill-opacity: 0.7; stroke: #1e90ff; stroke-opacity: 0.7"/>
     <use xlink:href="#m8e888a4297" x="425.727614" y="171.125032" style="fill: #1e90ff; fill-opacity: 0.7; stroke: #1e90ff; stroke-opacity: 0.7"/>
     <use xlink:href="#m8e888a4297" x="429.832543" y="171.037018" style="fill: #1e90ff; fill-opacity: 0.7; stroke: #1e90ff; stroke-opacity: 0.7"/>
     <use xlink:href="#m8e888a4297" x="433.937473" y="170.949004" style="fill: #1e90ff; fill-opacity: 0.7; stroke: #1e90ff; stroke-opacity: 0.7"/>
     <use xlink:href="#m8e888a4297" x="438.042403" y="170.86099" style="fill: #1e90ff; fill-opacity: 0.7; stroke: #1e90ff; stroke-opacity: 0.7"/>
     <use xlink:href="#m8e888a4297" x="442.147332" y="170.772977" style="fill: #1e90ff; fill-opacity: 0.7; stroke: #1e90ff; stroke-opacity: 0.7"/>
     <use xlink:href="#m8e888a4297" x="446.252262" y="170.684963" style="fill: #1e90ff; fill-opacity: 0.7; stroke: #1e90ff; stroke-opacity: 0.7"/>
     <use xlink:href="#m8e888a4297" x="450.357192" y="170.59695" style="fill: #1e90ff; fill-opacity: 0.7; stroke: #1e90ff; stroke-opacity: 0.7"/>
     <use xlink:href="#m8e888a4297" x="454.462122" y="170.508936" style="fill: #1e90ff; fill-opacity: 0.7; stroke: #1e90ff; stroke-opacity: 0.7"/>
     <use xlink:href="#m8e888a4297" x="458.567051" y="170.420923" style="fill: #1e90ff; fill-opacity: 0.7; stroke: #1e90ff; stroke-opacity: 0.7"/>
     <use xlink:href="#m8e888a4297" x="462.671981" y="170.33291" style="fill: #1e90ff; fill-opacity: 0.7; stroke: #1e90ff; stroke-opacity: 0.7"/>
     <use xlink:href="#m8e888a4297" x="466.776911" y="170.244897" style="fill: #1e90ff; fill-opacity: 0.7; stroke: #1e90ff; stroke-opacity: 0.7"/>
     <use xlink:href="#m8e888a4297" x="470.88184" y="170.156884" style="fill: #1e90ff; fill-opacity: 0.7; stroke: #1e90ff; stroke-opacity: 0.7"/>
     <use xlink:href="#m8e888a4297" x="474.98677" y="170.068871" style="fill: #1e90ff; fill-opacity: 0.7; stroke: #1e90ff; stroke-opacity: 0.7"/>
     <use xlink:href="#m8e888a4297" x="479.0917" y="169.980859" style="fill: #1e90ff; fill-opacity: 0.7; stroke: #1e90ff; stroke-opacity: 0.7"/>
     <use xlink:href="#m8e888a4297" x="483.19663" y="169.892846" style="fill: #1e90ff; fill-opacity: 0.7; stroke: #1e90ff; stroke-opacity: 0.7"/>
     <use xlink:href="#m8e888a4297" x="487.301559" y="169.804833" style="fill: #1e90ff; fill-opacity: 0.7; stroke: #1e90ff; stroke-opacity: 0.7"/>
     <use xlink:href="#m8e888a4297" x="491.406489" y="169.716821" style="fill: #1e90ff; fill-opacity: 0.7; stroke: #1e90ff; stroke-opacity: 0.7"/>
     <use xlink:href="#m8e888a4297" x="495.511419" y="169.628808" style="fill: #1e90ff; fill-opacity: 0.7; stroke: #1e90ff; stroke-opacity: 0.7"/>
     <use xlink:href="#m8e888a4297" x="499.616348" y="169.540796" style="fill: #1e90ff; fill-opacity: 0.7; stroke: #1e90ff; stroke-opacity: 0.7"/>
     <use xlink:href="#m8e888a4297" x="503.721278" y="169.452784" style="fill: #1e90ff; fill-opacity: 0.7; stroke: #1e90ff; stroke-opacity: 0.7"/>
     <use xlink:href="#m8e888a4297" x="507.826208" y="169.364772" style="fill: #1e90ff; fill-opacity: 0.7; stroke: #1e90ff; stroke-opacity: 0.7"/>
     <use xlink:href="#m8e888a4297" x="511.931138" y="169.27676" style="fill: #1e90ff; fill-opacity: 0.7; stroke: #1e90ff; stroke-opacity: 0.7"/>
     <use xlink:href="#m8e888a4297" x="516.036067" y="169.188748" style="fill: #1e90ff; fill-opacity: 0.7; stroke: #1e90ff; stroke-opacity: 0.7"/>
     <use xlink:href="#m8e888a4297" x="520.140997" y="169.100736" style="fill: #1e90ff; fill-opacity: 0.7; stroke: #1e90ff; stroke-opacity: 0.7"/>
     <use xlink:href="#m8e888a4297" x="524.245927" y="169.012725" style="fill: #1e90ff; fill-opacity: 0.7; stroke: #1e90ff; stroke-opacity: 0.7"/>
     <use xlink:href="#m8e888a4297" x="528.350856" y="168.924713" style="fill: #1e90ff; fill-opacity: 0.7; stroke: #1e90ff; stroke-opacity: 0.7"/>
     <use xlink:href="#m8e888a4297" x="532.455786" y="168.836701" style="fill: #1e90ff; fill-opacity: 0.7; stroke: #1e90ff; stroke-opacity: 0.7"/>
     <use xlink:href="#m8e888a4297" x="536.560716" y="168.74869" style="fill: #1e90ff; fill-opacity: 0.7; stroke: #1e90ff; stroke-opacity: 0.7"/>
     <use xlink:href="#m8e888a4297" x="540.665646" y="168.660679" style="fill: #1e90ff; fill-opacity: 0.7; stroke: #1e90ff; stroke-opacity: 0.7"/>
     <use xlink:href="#m8e888a4297" x="544.770575" y="168.572667" style="fill: #1e90ff; fill-opacity: 0.7; stroke: #1e90ff; stroke-opacity: 0.7"/>
     <use xlink:href="#m8e888a4297" x="548.875505" y="168.484656" style="fill: #1e90ff; fill-opacity: 0.7; stroke: #1e90ff; stroke-opacity: 0.7"/>
     <use xlink:href="#m8e888a4297" x="552.980435" y="168.396645" style="fill: #1e90ff; fill-opacity: 0.7; stroke: #1e90ff; stroke-opacity: 0.7"/>
    </g>
   </g>
   <g id="matplotlib.axis_1">
    <g id="xtick_1">
     <g id="line2d_1">
      <defs>
       <path id="m5771b2a8c9" d="M 0 0 
L 0 3.5 
" style="stroke: #000000; stroke-width: 0.8"/>
      </defs>
      <g>
       <use xlink:href="#m5771b2a8c9" x="60.388869" y="186.953197" style="stroke: #000000; stroke-width: 0.8"/>
      </g>
     </g>
     <g id="text_1">
      <!-- $\mathdefault{0}$ -->
      <g transform="translate(57.649135 201.563544) scale(0.11 -0.11)">
       <defs>
        <path id="CMR17-30" d="M 2688 2025 
C 2688 2416 2682 3080 2413 3591 
C 2176 4039 1798 4198 1466 4198 
C 1158 4198 768 4058 525 3597 
C 269 3118 243 2524 243 2025 
C 243 1661 250 1106 448 619 
C 723 -39 1216 -128 1466 -128 
C 1760 -128 2208 -7 2470 600 
C 2662 1042 2688 1559 2688 2025 
z
M 1466 -26 
C 1056 -26 813 325 723 812 
C 653 1188 653 1738 653 2096 
C 653 2588 653 2997 736 3387 
C 858 3929 1216 4096 1466 4096 
C 1728 4096 2067 3923 2189 3400 
C 2272 3036 2278 2607 2278 2096 
C 2278 1680 2278 1169 2202 792 
C 2067 95 1690 -26 1466 -26 
z
" transform="scale(0.015625)"/>
       </defs>
       <use xlink:href="#CMR17-30" transform="scale(0.996264)"/>
      </g>
     </g>
    </g>
    <g id="xtick_2">
     <g id="line2d_2">
      <g>
       <use xlink:href="#m5771b2a8c9" x="142.487463" y="186.953197" style="stroke: #000000; stroke-width: 0.8"/>
      </g>
     </g>
     <g id="text_2">
      <!-- $\mathdefault{20}$ -->
      <g transform="translate(137.007996 201.563544) scale(0.11 -0.11)">
       <defs>
        <path id="CMR17-32" d="M 2669 989 
L 2554 989 
C 2490 536 2438 459 2413 420 
C 2381 369 1920 369 1830 369 
L 602 369 
C 832 619 1280 1072 1824 1597 
C 2214 1967 2669 2402 2669 3035 
C 2669 3790 2067 4224 1395 4224 
C 691 4224 262 3604 262 3030 
C 262 2780 448 2748 525 2748 
C 589 2748 781 2787 781 3010 
C 781 3207 614 3264 525 3264 
C 486 3264 448 3258 422 3245 
C 544 3790 915 4058 1306 4058 
C 1862 4058 2227 3617 2227 3035 
C 2227 2479 1901 2000 1536 1584 
L 262 146 
L 262 0 
L 2515 0 
L 2669 989 
z
" transform="scale(0.015625)"/>
       </defs>
       <use xlink:href="#CMR17-32" transform="scale(0.996264)"/>
       <use xlink:href="#CMR17-30" transform="translate(45.690477 0) scale(0.996264)"/>
      </g>
     </g>
    </g>
    <g id="xtick_3">
     <g id="line2d_3">
      <g>
       <use xlink:href="#m5771b2a8c9" x="224.586058" y="186.953197" style="stroke: #000000; stroke-width: 0.8"/>
      </g>
     </g>
     <g id="text_3">
      <!-- $\mathdefault{40}$ -->
      <g transform="translate(219.10659 201.563544) scale(0.11 -0.11)">
       <defs>
        <path id="CMR17-34" d="M 2150 4122 
C 2150 4256 2144 4256 2029 4256 
L 128 1254 
L 128 1088 
L 1779 1088 
L 1779 457 
C 1779 224 1766 160 1318 160 
L 1197 160 
L 1197 0 
C 1402 0 1747 0 1965 0 
C 2182 0 2528 0 2733 0 
L 2733 160 
L 2611 160 
C 2163 160 2150 224 2150 457 
L 2150 1088 
L 2803 1088 
L 2803 1254 
L 2150 1254 
L 2150 4122 
z
M 1798 3703 
L 1798 1254 
L 256 1254 
L 1798 3703 
z
" transform="scale(0.015625)"/>
       </defs>
       <use xlink:href="#CMR17-34" transform="scale(0.996264)"/>
       <use xlink:href="#CMR17-30" transform="translate(45.690477 0) scale(0.996264)"/>
      </g>
     </g>
    </g>
    <g id="xtick_4">
     <g id="line2d_4">
      <g>
       <use xlink:href="#m5771b2a8c9" x="306.684652" y="186.953197" style="stroke: #000000; stroke-width: 0.8"/>
      </g>
     </g>
     <g id="text_4">
      <!-- $\mathdefault{60}$ -->
      <g transform="translate(301.205185 201.563544) scale(0.11 -0.11)">
       <defs>
        <path id="CMR17-36" d="M 678 2176 
C 678 3690 1395 4032 1811 4032 
C 1946 4032 2272 4009 2400 3776 
C 2298 3776 2106 3776 2106 3553 
C 2106 3381 2246 3323 2336 3323 
C 2394 3323 2566 3348 2566 3560 
C 2566 3954 2246 4179 1805 4179 
C 1043 4179 243 3390 243 1984 
C 243 253 966 -128 1478 -128 
C 2099 -128 2688 427 2688 1283 
C 2688 2081 2170 2662 1517 2662 
C 1126 2662 838 2407 678 1960 
L 678 2176 
z
M 1478 25 
C 691 25 691 1200 691 1436 
C 691 1896 909 2560 1504 2560 
C 1613 2560 1926 2560 2138 2120 
C 2253 1870 2253 1609 2253 1289 
C 2253 944 2253 690 2118 434 
C 1978 171 1773 25 1478 25 
z
" transform="scale(0.015625)"/>
       </defs>
       <use xlink:href="#CMR17-36" transform="scale(0.996264)"/>
       <use xlink:href="#CMR17-30" transform="translate(45.690477 0) scale(0.996264)"/>
      </g>
     </g>
    </g>
    <g id="xtick_5">
     <g id="line2d_5">
      <g>
       <use xlink:href="#m5771b2a8c9" x="388.783246" y="186.953197" style="stroke: #000000; stroke-width: 0.8"/>
      </g>
     </g>
     <g id="text_5">
      <!-- $\mathdefault{80}$ -->
      <g transform="translate(383.303779 201.563544) scale(0.11 -0.11)">
       <defs>
        <path id="CMR17-38" d="M 1741 2264 
C 2144 2467 2554 2773 2554 3263 
C 2554 3841 1990 4179 1472 4179 
C 890 4179 378 3759 378 3180 
C 378 3021 416 2747 666 2505 
C 730 2442 998 2251 1171 2130 
C 883 1983 211 1634 211 934 
C 211 279 838 -128 1459 -128 
C 2144 -128 2720 362 2720 1010 
C 2720 1590 2330 1857 2074 2029 
L 1741 2264 
z
M 902 2822 
C 851 2854 595 3051 595 3351 
C 595 3739 998 4032 1459 4032 
C 1965 4032 2336 3676 2336 3262 
C 2336 2669 1670 2331 1638 2331 
C 1632 2331 1626 2331 1574 2370 
L 902 2822 
z
M 2080 1519 
C 2176 1449 2483 1240 2483 851 
C 2483 381 2010 25 1472 25 
C 890 25 448 438 448 940 
C 448 1443 838 1862 1280 2060 
L 2080 1519 
z
" transform="scale(0.015625)"/>
       </defs>
       <use xlink:href="#CMR17-38" transform="scale(0.996264)"/>
       <use xlink:href="#CMR17-30" transform="translate(45.690477 0) scale(0.996264)"/>
      </g>
     </g>
    </g>
    <g id="xtick_6">
     <g id="line2d_6">
      <g>
       <use xlink:href="#m5771b2a8c9" x="470.88184" y="186.953197" style="stroke: #000000; stroke-width: 0.8"/>
      </g>
     </g>
     <g id="text_6">
      <!-- $\mathdefault{100}$ -->
      <g transform="translate(462.66264 201.563544) scale(0.11 -0.11)">
       <defs>
        <path id="CMR17-31" d="M 1702 4058 
C 1702 4192 1696 4192 1606 4192 
C 1357 3916 979 3827 621 3827 
C 602 3827 570 3827 563 3808 
C 557 3795 557 3782 557 3648 
C 755 3648 1088 3686 1344 3839 
L 1344 461 
C 1344 236 1331 160 781 160 
L 589 160 
L 589 0 
C 896 0 1216 0 1523 0 
C 1830 0 2150 0 2458 0 
L 2458 160 
L 2266 160 
C 1715 160 1702 230 1702 458 
L 1702 4058 
z
" transform="scale(0.015625)"/>
       </defs>
       <use xlink:href="#CMR17-31" transform="scale(0.996264)"/>
       <use xlink:href="#CMR17-30" transform="translate(45.690477 0) scale(0.996264)"/>
       <use xlink:href="#CMR17-30" transform="translate(91.380954 0) scale(0.996264)"/>
      </g>
     </g>
    </g>
    <g id="xtick_7">
     <g id="line2d_7">
      <g>
       <use xlink:href="#m5771b2a8c9" x="552.980435" y="186.953197" style="stroke: #000000; stroke-width: 0.8"/>
      </g>
     </g>
     <g id="text_7">
      <!-- $\mathdefault{120}$ -->
      <g transform="translate(544.761234 201.563544) scale(0.11 -0.11)">
       <use xlink:href="#CMR17-31" transform="scale(0.996264)"/>
       <use xlink:href="#CMR17-32" transform="translate(45.690477 0) scale(0.996264)"/>
       <use xlink:href="#CMR17-30" transform="translate(91.380954 0) scale(0.996264)"/>
      </g>
     </g>
    </g>
    <g id="text_8">
     <!-- N -->
     <g transform="translate(306.679985 215.304785) scale(0.11 -0.11)">
      <defs>
       <path id="CMR17-4e" d="M 1312 4250 
C 1267 4320 1261 4320 1139 4320 
L 326 4320 
L 326 4160 
L 448 4160 
C 704 4160 819 4129 838 4122 
L 838 610 
C 838 451 838 153 326 153 
L 326 -13 
C 474 0 742 0 902 0 
C 1062 0 1331 0 1478 -13 
L 1478 153 
C 966 153 966 451 966 610 
L 966 4033 
C 1011 3995 1011 3982 1056 3919 
L 3430 76 
C 3475 0 3494 0 3526 0 
C 3590 0 3590 19 3590 139 
L 3590 3705 
C 3590 3863 3590 4160 4102 4160 
L 4102 4326 
C 3955 4320 3686 4320 3526 4320 
C 3366 4320 3098 4320 2950 4326 
L 2950 4160 
C 3462 4160 3462 3862 3462 3703 
L 3462 763 
L 1312 4250 
z
" transform="scale(0.015625)"/>
      </defs>
      <use xlink:href="#CMR17-4e" transform="scale(0.996264)"/>
     </g>
    </g>
   </g>
   <g id="matplotlib.axis_2">
    <g id="ytick_1">
     <g id="line2d_8">
      <defs>
       <path id="m2e30cb3fea" d="M 0 0 
L -3.5 0 
" style="stroke: #000000; stroke-width: 0.8"/>
      </defs>
      <g>
       <use xlink:href="#m2e30cb3fea" x="44.379643" y="178.958642" style="stroke: #000000; stroke-width: 0.8"/>
      </g>
     </g>
     <g id="text_9">
      <!-- $\mathdefault{0}$ -->
      <g transform="translate(31.900176 182.763815) scale(0.11 -0.11)">
       <use xlink:href="#CMR17-30" transform="scale(0.996264)"/>
      </g>
     </g>
    </g>
    <g id="ytick_2">
     <g id="line2d_9">
      <g>
       <use xlink:href="#m2e30cb3fea" x="44.379643" y="134.269126" style="stroke: #000000; stroke-width: 0.8"/>
      </g>
     </g>
     <g id="text_10">
      <!-- $\mathdefault{50}$ -->
      <g transform="translate(26.420709 138.074299) scale(0.11 -0.11)">
       <defs>
        <path id="CMR17-35" d="M 730 3692 
C 794 3666 1056 3584 1325 3584 
C 1920 3584 2246 3911 2432 4100 
C 2432 4157 2432 4192 2394 4192 
C 2387 4192 2374 4192 2323 4163 
C 2099 4058 1837 3973 1517 3973 
C 1325 3973 1037 3999 723 4139 
C 653 4171 640 4171 634 4171 
C 602 4171 595 4164 595 4037 
L 595 2203 
C 595 2089 595 2057 659 2057 
C 691 2057 704 2070 736 2114 
C 941 2401 1222 2522 1542 2522 
C 1766 2522 2246 2382 2246 1289 
C 2246 1085 2246 715 2054 421 
C 1894 159 1645 25 1370 25 
C 947 25 518 320 403 814 
C 429 807 480 795 506 795 
C 589 795 749 840 749 1038 
C 749 1210 627 1280 506 1280 
C 358 1280 262 1190 262 1011 
C 262 454 704 -128 1382 -128 
C 2042 -128 2669 440 2669 1264 
C 2669 2030 2170 2624 1549 2624 
C 1222 2624 947 2503 730 2274 
L 730 3692 
z
" transform="scale(0.015625)"/>
       </defs>
       <use xlink:href="#CMR17-35" transform="scale(0.996264)"/>
       <use xlink:href="#CMR17-30" transform="translate(45.690477 0) scale(0.996264)"/>
      </g>
     </g>
    </g>
    <g id="ytick_3">
     <g id="line2d_10">
      <g>
       <use xlink:href="#m2e30cb3fea" x="44.379643" y="89.57961" style="stroke: #000000; stroke-width: 0.8"/>
      </g>
     </g>
     <g id="text_11">
      <!-- $\mathdefault{100}$ -->
      <g transform="translate(20.941241 93.384784) scale(0.11 -0.11)">
       <use xlink:href="#CMR17-31" transform="scale(0.996264)"/>
       <use xlink:href="#CMR17-30" transform="translate(45.690477 0) scale(0.996264)"/>
       <use xlink:href="#CMR17-30" transform="translate(91.380954 0) scale(0.996264)"/>
      </g>
     </g>
    </g>
    <g id="ytick_4">
     <g id="line2d_11">
      <g>
       <use xlink:href="#m2e30cb3fea" x="44.379643" y="44.890095" style="stroke: #000000; stroke-width: 0.8"/>
      </g>
     </g>
     <g id="text_12">
      <!-- $\mathdefault{150}$ -->
      <g transform="translate(20.941241 48.695268) scale(0.11 -0.11)">
       <use xlink:href="#CMR17-31" transform="scale(0.996264)"/>
       <use xlink:href="#CMR17-35" transform="translate(45.690477 0) scale(0.996264)"/>
       <use xlink:href="#CMR17-30" transform="translate(91.380954 0) scale(0.996264)"/>
      </g>
     </g>
    </g>
    <g id="text_13">
     <!-- initial gradient -->
     <g transform="translate(14.810347 132.556122) rotate(-90) scale(0.11 -0.11)">
      <defs>
       <path id="CMR17-69" d="M 992 3909 
C 992 4049 877 4170 730 4170 
C 589 4170 467 4056 467 3909 
C 467 3769 582 3648 730 3648 
C 870 3648 992 3763 992 3909 
z
M 243 2706 
L 243 2541 
C 602 2541 653 2502 653 2197 
L 653 427 
C 653 184 627 153 218 153 
L 218 -13 
C 371 0 646 0 806 0 
C 960 0 1222 0 1370 -13 
L 1370 153 
C 992 153 979 191 979 420 
L 979 2776 
L 243 2706 
z
" transform="scale(0.015625)"/>
       <path id="CMR17-6e" d="M 2656 1933 
C 2656 2259 2592 2790 1837 2790 
C 1331 2790 1069 2400 973 2144 
L 966 2144 
L 966 2790 
L 211 2720 
L 211 2554 
C 589 2554 646 2515 646 2208 
L 646 428 
C 646 184 621 153 211 153 
L 211 -13 
C 365 0 646 0 813 0 
C 979 0 1267 0 1421 -13 
L 1421 153 
C 1011 153 986 178 986 428 
L 986 1658 
C 986 2247 1344 2688 1792 2688 
C 2266 2688 2317 2266 2317 1958 
L 2317 428 
C 2317 184 2291 153 1882 153 
L 1882 -13 
C 2035 0 2317 0 2483 0 
C 2650 0 2938 0 3091 -13 
L 3091 153 
C 2682 153 2656 178 2656 428 
L 2656 1933 
z
" transform="scale(0.015625)"/>
       <path id="CMR17-74" d="M 966 2560 
L 1862 2560 
L 1862 2725 
L 966 2725 
L 966 3904 
L 851 3904 
C 838 3245 614 2668 70 2668 
L 70 2560 
L 627 2560 
L 627 771 
C 627 650 627 -64 1370 -64 
C 1747 -64 1965 306 1965 777 
L 1965 1140 
L 1850 1140 
L 1850 783 
C 1850 344 1677 51 1408 51 
C 1222 51 966 178 966 758 
L 966 2560 
z
" transform="scale(0.015625)"/>
       <path id="CMR17-61" d="M 2304 1653 
C 2304 2072 2304 2294 2035 2543 
C 1798 2752 1523 2816 1306 2816 
C 800 2816 435 2407 435 1971 
C 435 1728 627 1728 666 1728 
C 749 1728 896 1778 896 1954 
C 896 2112 774 2181 666 2181 
C 640 2181 608 2174 589 2168 
C 723 2592 1069 2714 1293 2714 
C 1613 2714 1965 2429 1965 1885 
L 1965 1600 
C 1587 1600 1133 1549 774 1357 
C 371 1133 256 813 256 570 
C 256 77 832 -64 1171 -64 
C 1523 -64 1850 139 1990 511 
C 2003 233 2182 -18 2464 -18 
C 2598 -18 2938 70 2938 567 
L 2938 920 
L 2822 920 
L 2822 562 
C 2822 178 2650 128 2566 128 
C 2304 128 2304 458 2304 738 
L 2304 1653 
z
M 1965 870 
C 1965 317 1568 38 1216 38 
C 896 38 646 275 646 570 
C 646 761 730 1100 1101 1305 
C 1408 1478 1760 1504 1965 1504 
L 1965 870 
z
" transform="scale(0.015625)"/>
       <path id="CMR17-6c" d="M 979 4396 
L 218 4326 
L 218 4160 
C 595 4160 653 4122 653 3817 
L 653 426 
C 653 184 627 153 218 153 
L 218 -13 
C 371 0 653 0 813 0 
C 979 0 1261 0 1414 -13 
L 1414 153 
C 1005 153 979 178 979 426 
L 979 4396 
z
" transform="scale(0.015625)"/>
       <path id="CMR17-67" d="M 710 1164 
C 832 1068 1043 960 1299 960 
C 1805 960 2240 1357 2240 1888 
C 2240 2054 2189 2310 1997 2509 
C 2176 2692 2438 2752 2586 2752 
C 2611 2752 2650 2752 2682 2734 
C 2656 2728 2598 2703 2598 2605 
C 2598 2527 2656 2471 2739 2471 
C 2835 2471 2886 2533 2886 2614 
C 2886 2731 2790 2854 2586 2854 
C 2330 2854 2106 2738 1926 2580 
C 1734 2753 1504 2816 1299 2816 
C 794 2816 358 2419 358 1888 
C 358 1522 570 1292 634 1228 
C 442 1004 442 743 442 711 
C 442 545 506 302 723 168 
C 390 85 128 -169 128 -486 
C 128 -943 736 -1280 1466 -1280 
C 2170 -1280 2803 -956 2803 -479 
C 2803 384 1856 384 1363 384 
C 1216 384 954 384 922 391 
C 723 423 589 602 589 826 
C 589 883 589 1024 710 1164 
z
M 1299 1068 
C 736 1068 736 1760 736 1889 
C 736 2016 736 2708 1299 2708 
C 1862 2708 1862 2016 1862 1889 
C 1862 1760 1862 1068 1299 1068 
z
M 1466 -1171 
C 826 -1171 384 -835 384 -486 
C 384 -289 493 -105 634 -4 
C 794 104 858 104 1293 104 
C 1818 104 2547 104 2547 -486 
C 2547 -835 2106 -1171 1466 -1171 
z
" transform="scale(0.015625)"/>
       <path id="CMR17-72" d="M 960 1497 
C 960 2112 1222 2688 1702 2688 
C 1747 2688 1792 2682 1837 2662 
C 1837 2662 1696 2617 1696 2452 
C 1696 2298 1818 2234 1914 2234 
C 1990 2234 2131 2279 2131 2458 
C 2131 2663 1926 2790 1709 2790 
C 1222 2790 1011 2317 947 2093 
L 941 2093 
L 941 2790 
L 198 2720 
L 198 2554 
C 576 2554 634 2515 634 2208 
L 634 428 
C 634 184 608 153 198 153 
L 198 -13 
C 352 0 646 0 813 0 
C 998 0 1325 0 1498 -13 
L 1498 153 
C 1037 153 960 153 960 440 
L 960 1497 
z
" transform="scale(0.015625)"/>
       <path id="CMR17-64" d="M 1869 4326 
L 1869 4160 
C 2246 4160 2304 4122 2304 3820 
L 2304 2345 
C 2278 2377 2016 2790 1498 2790 
C 845 2790 211 2208 211 1364 
C 211 525 806 -64 1434 -64 
C 1978 -64 2259 337 2291 380 
L 2291 -63 
L 3066 -63 
L 3066 128 
C 2688 128 2630 166 2630 473 
L 2630 4396 
L 1869 4326 
z
M 2291 755 
C 2291 563 2176 390 2029 262 
C 1811 70 1594 38 1472 38 
C 1286 38 621 134 621 1356 
C 621 2612 1363 2688 1530 2688 
C 1824 2688 2061 2522 2208 2291 
C 2291 2157 2291 2138 2291 2023 
L 2291 755 
z
" transform="scale(0.015625)"/>
       <path id="CMR17-65" d="M 2438 1472 
C 2464 1498 2464 1511 2464 1576 
C 2464 2238 2118 2816 1389 2816 
C 710 2816 173 2169 173 1383 
C 173 551 781 -64 1459 -64 
C 2176 -64 2458 607 2458 740 
C 2458 784 2419 784 2406 784 
C 2362 784 2355 771 2330 696 
C 2189 265 1837 51 1504 51 
C 1229 51 954 203 781 480 
C 582 803 582 1176 582 1472 
L 2438 1472 
z
M 589 1568 
C 634 2505 1126 2714 1382 2714 
C 1818 2714 2112 2297 2118 1568 
L 589 1568 
z
" transform="scale(0.015625)"/>
      </defs>
      <use xlink:href="#CMR17-69" transform="scale(0.996264)"/>
      <use xlink:href="#CMR17-6e" transform="translate(24.871058 0) scale(0.996264)"/>
      <use xlink:href="#CMR17-69" transform="translate(75.766428 0) scale(0.996264)"/>
      <use xlink:href="#CMR17-74" transform="translate(100.637487 0) scale(0.996264)"/>
      <use xlink:href="#CMR17-69" transform="translate(135.918255 0) scale(0.996264)"/>
      <use xlink:href="#CMR17-61" transform="translate(160.789313 0) scale(0.996264)"/>
      <use xlink:href="#CMR17-6c" transform="translate(206.47979 0) scale(0.996264)"/>
      <use xlink:href="#CMR17-67" transform="translate(261.426815 0) scale(0.996264)"/>
      <use xlink:href="#CMR17-72" transform="translate(307.117292 0) scale(0.996264)"/>
      <use xlink:href="#CMR17-61" transform="translate(342.39806 0) scale(0.996264)"/>
      <use xlink:href="#CMR17-64" transform="translate(388.088537 0) scale(0.996264)"/>
      <use xlink:href="#CMR17-69" transform="translate(438.983907 0) scale(0.996264)"/>
      <use xlink:href="#CMR17-65" transform="translate(463.854965 0) scale(0.996264)"/>
      <use xlink:href="#CMR17-6e" transform="translate(504.340626 0) scale(0.996264)"/>
      <use xlink:href="#CMR17-74" transform="translate(552.633542 0) scale(0.996264)"/>
     </g>
    </g>
   </g>
   <g id="line2d_12">
    <path d="M 68.598728 178.609716 
L 72.703658 178.303266 
L 76.808588 177.908823 
L 80.913518 177.426388 
L 85.018447 176.855961 
L 89.123377 176.197541 
L 93.228307 175.45113 
L 97.333236 174.616727 
L 101.438166 173.694332 
L 105.543096 172.683944 
L 109.648026 171.585564 
L 113.752955 170.399193 
L 117.857885 169.124829 
L 121.962815 167.762473 
L 126.067744 166.312125 
L 130.172674 164.773785 
L 134.277604 163.147453 
L 138.382534 161.433129 
L 142.487463 159.630813 
L 146.592393 157.740505 
L 150.697323 155.762204 
L 154.802252 153.695912 
L 158.907182 151.541627 
L 163.012112 149.29935 
L 167.117042 146.969082 
L 171.221971 144.550821 
L 175.326901 142.044568 
L 179.431831 139.450323 
L 183.53676 136.768086 
L 187.64169 133.997857 
L 191.74662 131.139636 
L 195.85155 128.193422 
L 199.956479 125.159217 
L 204.061409 122.037019 
L 208.166339 118.82683 
L 212.271268 115.528648 
L 216.376198 112.142474 
L 220.481128 108.668309 
L 224.586058 105.106151 
L 228.690987 101.456001 
L 232.795917 97.717859 
L 236.900847 93.891725 
L 241.005776 89.977598 
L 245.110706 85.97548 
L 249.215636 81.88537 
L 253.320566 77.707267 
L 257.425495 73.441173 
L 261.530425 69.087086 
L 265.635355 64.645007 
L 269.740284 60.114936 
L 273.845214 55.496873 
L 277.950144 50.790818 
L 282.055074 45.996771 
L 286.160003 41.114732 
L 290.264933 36.144701 
L 294.369863 31.086678 
L 298.474792 25.940662 
L 302.579722 20.706655 
L 306.684652 15.384655 
" clip-path="url(#p602a46244e)" style="fill: none; stroke: #000000; stroke-opacity: 0.6; stroke-linecap: square"/>
   </g>
   <g id="line2d_13">
    <path d="M 68.598728 178.782597 
L 72.703658 178.694575 
L 76.808588 178.606553 
L 80.913518 178.518532 
L 85.018447 178.43051 
L 89.123377 178.342488 
L 93.228307 178.254467 
L 97.333236 178.166445 
L 101.438166 178.078424 
L 105.543096 177.990403 
L 109.648026 177.902381 
L 113.752955 177.81436 
L 117.857885 177.726339 
L 121.962815 177.638318 
L 126.067744 177.550298 
L 130.172674 177.462277 
L 134.277604 177.374256 
L 138.382534 177.286236 
L 142.487463 177.198215 
L 146.592393 177.110195 
L 150.697323 177.022175 
L 154.802252 176.934154 
L 158.907182 176.846134 
L 163.012112 176.758114 
L 167.117042 176.670095 
L 171.221971 176.582075 
L 175.326901 176.494055 
L 179.431831 176.406036 
L 183.53676 176.318016 
L 187.64169 176.229997 
L 191.74662 176.141977 
L 195.85155 176.053958 
L 199.956479 175.965939 
L 204.061409 175.87792 
L 208.166339 175.789901 
L 212.271268 175.701882 
L 216.376198 175.613863 
L 220.481128 175.525845 
L 224.586058 175.437826 
L 228.690987 175.349808 
L 232.795917 175.261789 
L 236.900847 175.173771 
L 241.005776 175.085753 
L 245.110706 174.997735 
L 249.215636 174.909717 
L 253.320566 174.821699 
L 257.425495 174.733681 
L 261.530425 174.645663 
L 265.635355 174.557646 
L 269.740284 174.469628 
L 273.845214 174.381611 
L 277.950144 174.293593 
L 282.055074 174.205576 
L 286.160003 174.117559 
L 290.264933 174.029542 
L 294.369863 173.941525 
L 298.474792 173.853508 
L 302.579722 173.765491 
L 306.684652 173.677475 
L 310.789582 173.589458 
L 314.894511 173.501442 
L 318.999441 173.413425 
L 323.104371 173.325409 
L 327.2093 173.237393 
L 331.31423 173.149377 
L 335.41916 173.06136 
L 339.52409 172.973345 
L 343.629019 172.885329 
L 347.733949 172.797313 
L 351.838879 172.709297 
L 355.943808 172.621282 
L 360.048738 172.533266 
L 364.153668 172.445251 
L 368.258598 172.357236 
L 372.363527 172.26922 
L 376.468457 172.181205 
L 380.573387 172.09319 
L 384.678316 172.005175 
L 388.783246 171.917161 
L 392.888176 171.829146 
L 396.993106 171.741131 
L 401.098035 171.653117 
L 405.202965 171.565102 
L 409.307895 171.477088 
L 413.412824 171.389074 
L 417.517754 171.30106 
L 421.622684 171.213046 
L 425.727614 171.125032 
L 429.832543 171.037018 
L 433.937473 170.949004 
L 438.042403 170.86099 
L 442.147332 170.772977 
L 446.252262 170.684963 
L 450.357192 170.59695 
L 454.462122 170.508936 
L 458.567051 170.420923 
L 462.671981 170.33291 
L 466.776911 170.244897 
L 470.88184 170.156884 
L 474.98677 170.068871 
L 479.0917 169.980859 
L 483.19663 169.892846 
L 487.301559 169.804833 
L 491.406489 169.716821 
L 495.511419 169.628808 
L 499.616348 169.540796 
L 503.721278 169.452784 
L 507.826208 169.364772 
L 511.931138 169.27676 
L 516.036067 169.188748 
L 520.140997 169.100736 
L 524.245927 169.012725 
L 528.350856 168.924713 
L 532.455786 168.836701 
L 536.560716 168.74869 
L 540.665646 168.660679 
L 544.770575 168.572667 
L 548.875505 168.484656 
L 552.980435 168.396645 
" clip-path="url(#p602a46244e)" style="fill: none; stroke: #000000; stroke-opacity: 0.6; stroke-linecap: square"/>
   </g>
   <g id="patch_3">
    <path d="M 44.379643 186.953197 
L 44.379643 7.2 
" style="fill: none; stroke: #000000; stroke-width: 0.8; stroke-linejoin: miter; stroke-linecap: square"/>
   </g>
   <g id="patch_4">
    <path d="M 577.19952 186.953197 
L 577.19952 7.2 
" style="fill: none; stroke: #000000; stroke-width: 0.8; stroke-linejoin: miter; stroke-linecap: square"/>
   </g>
   <g id="patch_5">
    <path d="M 44.379643 186.953197 
L 577.19952 186.953197 
" style="fill: none; stroke: #000000; stroke-width: 0.8; stroke-linejoin: miter; stroke-linecap: square"/>
   </g>
   <g id="patch_6">
    <path d="M 44.379643 7.2 
L 577.19952 7.2 
" style="fill: none; stroke: #000000; stroke-width: 0.8; stroke-linejoin: miter; stroke-linecap: square"/>
   </g>
   <g id="legend_1">
    <g id="patch_7">
     <path d="M 444.144057 77.323579 
L 569.49952 77.323579 
Q 571.69952 77.323579 571.69952 75.123579 
L 571.69952 14.9 
Q 571.69952 12.7 569.49952 12.7 
L 444.144057 12.7 
Q 441.944057 12.7 441.944057 14.9 
L 441.944057 75.123579 
Q 441.944057 77.323579 444.144057 77.323579 
z
" style="fill: #ffffff; opacity: 0.8; stroke: #cccccc; stroke-linejoin: miter"/>
    </g>
    <g id="line2d_14">
     <path d="M 446.344057 20.95 
L 457.344057 20.95 
L 468.344057 20.95 
" style="fill: none; stroke: #000000; stroke-opacity: 0.6; stroke-linecap: square"/>
    </g>
    <g id="text_14">
     <!-- quadratic_linear fit -->
     <g transform="translate(477.144057 24.8) scale(0.11 -0.11)">
      <defs>
       <path id="CMR17-71" d="M 2630 2802 
L 2528 2802 
L 2336 2172 
C 2189 2509 1920 2802 1491 2802 
C 838 2802 211 2223 211 1383 
C 211 548 800 -38 1440 -38 
C 1933 -38 2208 338 2291 478 
L 2291 -789 
C 2291 -1031 2266 -1063 1856 -1063 
L 1856 -1228 
C 2010 -1216 2291 -1216 2458 -1216 
C 2624 -1216 2912 -1216 3066 -1228 
L 3066 -1063 
C 2656 -1063 2630 -1037 2630 -789 
L 2630 2802 
z
M 2304 886 
C 2304 612 2074 357 2054 338 
C 1856 115 1626 64 1472 64 
C 992 64 621 669 621 1375 
C 621 2121 1043 2688 1536 2688 
C 2048 2688 2304 2108 2304 1777 
L 2304 886 
z
" transform="scale(0.015625)"/>
       <path id="CMR17-75" d="M 1882 2693 
L 1882 2528 
C 2259 2528 2317 2489 2317 2186 
L 2317 1032 
C 2317 500 2029 38 1555 38 
C 1030 38 986 348 986 678 
L 986 2763 
L 211 2693 
L 211 2528 
C 467 2528 640 2528 646 2274 
L 646 1058 
C 646 633 646 361 813 183 
C 896 101 1056 -64 1517 -64 
C 2061 -64 2272 377 2323 506 
L 2330 506 
L 2330 -63 
L 3091 -63 
L 3091 128 
C 2714 128 2656 166 2656 473 
L 2656 2763 
L 1882 2693 
z
" transform="scale(0.015625)"/>
       <path id="CMR17-63" d="M 2234 2240 
C 2112 2240 1933 2240 1933 2017 
C 1933 1838 2080 1787 2163 1787 
C 2208 1787 2394 1807 2394 2024 
C 2394 2467 1958 2803 1466 2803 
C 787 2803 211 2178 211 1363 
C 211 516 813 -64 1466 -64 
C 2259 -64 2458 677 2458 748 
C 2458 774 2451 793 2406 793 
C 2362 793 2355 787 2330 703 
C 2163 180 1798 51 1523 51 
C 1114 51 621 427 621 1369 
C 621 2338 1094 2688 1472 2688 
C 1722 2688 2093 2573 2234 2240 
z
" transform="scale(0.015625)"/>
       <path id="CMR17-c" d="M 2554 2764 
C 2400 2764 1926 2764 1805 2739 
C 1766 2725 1754 2725 1677 2725 
L 947 2725 
L 947 3469 
C 947 4073 1434 4352 1818 4352 
C 1939 4352 2214 4320 2355 4101 
C 2291 4101 2086 4101 2086 3878 
C 2086 3725 2189 3648 2317 3648 
C 2432 3648 2547 3712 2547 3885 
C 2547 4205 2240 4454 1843 4454 
C 1338 4454 634 4168 634 3469 
L 634 2725 
L 122 2725 
L 122 2560 
L 634 2560 
L 634 427 
C 634 184 608 153 198 153 
L 198 -13 
C 352 0 634 0 794 0 
C 960 0 1242 0 1395 -13 
L 1395 153 
C 986 153 960 178 960 427 
L 960 2560 
L 1901 2560 
C 2176 2560 2227 2502 2227 2222 
L 2227 427 
C 2227 184 2202 153 1792 153 
L 1792 -13 
C 1946 0 2227 0 2387 0 
C 2554 0 2835 0 2989 -13 
L 2989 153 
C 2579 153 2554 178 2554 427 
L 2554 2764 
z
" transform="scale(0.015625)"/>
      </defs>
      <use xlink:href="#CMR17-71" transform="scale(0.996264)"/>
      <use xlink:href="#CMR17-75" transform="translate(48.292916 0) scale(0.996264)"/>
      <use xlink:href="#CMR17-61" transform="translate(99.188286 0) scale(0.996264)"/>
      <use xlink:href="#CMR17-64" transform="translate(144.878763 0) scale(0.996264)"/>
      <use xlink:href="#CMR17-72" transform="translate(195.774133 0) scale(0.996264)"/>
      <use xlink:href="#CMR17-61" transform="translate(231.0549 0) scale(0.996264)"/>
      <use xlink:href="#CMR17-74" transform="translate(276.745377 0) scale(0.996264)"/>
      <use xlink:href="#CMR17-69" transform="translate(312.026145 0) scale(0.996264)"/>
      <use xlink:href="#CMR17-63" transform="translate(336.897204 0) scale(0.996264)"/>
      <use xlink:href="#CMR17-6c" transform="translate(410.280084 0) scale(0.996264)"/>
      <use xlink:href="#CMR17-69" transform="translate(435.151142 0) scale(0.996264)"/>
      <use xlink:href="#CMR17-6e" transform="translate(460.022201 0) scale(0.996264)"/>
      <use xlink:href="#CMR17-65" transform="translate(510.91757 0) scale(0.996264)"/>
      <use xlink:href="#CMR17-61" transform="translate(551.403231 0) scale(0.996264)"/>
      <use xlink:href="#CMR17-72" transform="translate(597.093708 0) scale(0.996264)"/>
      <use xlink:href="#CMR17-c" transform="translate(662.450442 0) scale(0.996264)"/>
      <use xlink:href="#CMR17-74" transform="translate(712.192666 0) scale(0.996264)"/>
      <path d="M 382.865493 0 
L 410.280084 0 
L 410.280084 0.3985 
L 382.865493 0.3985 
L 382.865493 0 
z
"/>
     </g>
    </g>
    <g id="PathCollection_3">
     <g>
      <use xlink:href="#m21afa21d00" x="457.344057" y="37.243395" style="fill: #32cd32; fill-opacity: 0.7; stroke: #32cd32; stroke-opacity: 0.7"/>
     </g>
    </g>
    <g id="text_15">
     <!-- superradiant state -->
     <g transform="translate(477.144057 40.130895) scale(0.11 -0.11)">
      <defs>
       <path id="CMR17-73" d="M 1978 2697 
C 1978 2813 1971 2819 1933 2819 
C 1907 2819 1901 2813 1824 2717 
C 1805 2691 1747 2626 1728 2601 
C 1523 2819 1235 2819 1126 2819 
C 416 2819 160 2447 160 2076 
C 160 1498 813 1365 998 1325 
C 1402 1243 1542 1217 1677 1101 
C 1760 1025 1901 884 1901 654 
C 1901 384 1747 38 1158 38 
C 602 38 403 460 288 1021 
C 269 1110 269 1117 218 1117 
C 166 1117 160 1110 160 983 
L 160 63 
C 160 -51 166 -58 205 -58 
C 237 -58 243 -51 275 0 
C 314 57 410 211 448 276 
C 576 103 800 -64 1158 -64 
C 1792 -64 2131 283 2131 784 
C 2131 1112 1958 1285 1875 1362 
C 1683 1561 1459 1606 1190 1657 
C 838 1735 390 1825 390 2217 
C 390 2383 480 2737 1126 2737 
C 1811 2737 1850 2094 1862 1888 
C 1869 1856 1901 1849 1920 1849 
C 1978 1849 1978 1869 1978 1978 
L 1978 2697 
z
" transform="scale(0.015625)"/>
       <path id="CMR17-70" d="M 1408 -1063 
C 998 -1063 973 -1037 973 -789 
L 973 402 
C 1158 134 1427 -38 1766 -38 
C 2406 -38 3053 523 3053 1388 
C 3053 2191 2496 2802 1837 2802 
C 1453 2802 1139 2592 960 2338 
L 960 2802 
L 198 2732 
L 198 2567 
C 576 2567 634 2528 634 2223 
L 634 -789 
C 634 -1031 608 -1063 198 -1063 
L 198 -1228 
C 352 -1216 634 -1216 800 -1216 
C 966 -1216 1254 -1216 1408 -1228 
L 1408 -1063 
z
M 973 2012 
C 973 2102 973 2235 1222 2471 
C 1254 2497 1472 2688 1792 2688 
C 2259 2688 2643 2108 2643 1382 
C 2643 656 2234 64 1728 64 
C 1498 64 1248 172 1056 472 
C 973 612 973 650 973 752 
L 973 2012 
z
" transform="scale(0.015625)"/>
      </defs>
      <use xlink:href="#CMR17-73" transform="scale(0.996264)"/>
      <use xlink:href="#CMR17-75" transform="translate(35.801338 0) scale(0.996264)"/>
      <use xlink:href="#CMR17-70" transform="translate(86.696707 0) scale(0.996264)"/>
      <use xlink:href="#CMR17-65" transform="translate(140.194516 0) scale(0.996264)"/>
      <use xlink:href="#CMR17-72" transform="translate(180.680176 0) scale(0.996264)"/>
      <use xlink:href="#CMR17-72" transform="translate(215.960944 0) scale(0.996264)"/>
      <use xlink:href="#CMR17-61" transform="translate(251.241712 0) scale(0.996264)"/>
      <use xlink:href="#CMR17-64" transform="translate(296.932189 0) scale(0.996264)"/>
      <use xlink:href="#CMR17-69" transform="translate(347.827559 0) scale(0.996264)"/>
      <use xlink:href="#CMR17-61" transform="translate(372.698617 0) scale(0.996264)"/>
      <use xlink:href="#CMR17-6e" transform="translate(418.389094 0) scale(0.996264)"/>
      <use xlink:href="#CMR17-74" transform="translate(466.68201 0) scale(0.996264)"/>
      <use xlink:href="#CMR17-73" transform="translate(532.038744 0) scale(0.996264)"/>
      <use xlink:href="#CMR17-74" transform="translate(567.840082 0) scale(0.996264)"/>
      <use xlink:href="#CMR17-61" transform="translate(603.12085 0) scale(0.996264)"/>
      <use xlink:href="#CMR17-74" transform="translate(648.811327 0) scale(0.996264)"/>
      <use xlink:href="#CMR17-65" transform="translate(684.092095 0) scale(0.996264)"/>
     </g>
    </g>
    <g id="line2d_15">
     <path d="M 446.344057 51.611789 
L 457.344057 51.611789 
L 468.344057 51.611789 
" style="fill: none; stroke: #000000; stroke-opacity: 0.6; stroke-linecap: square"/>
    </g>
    <g id="text_16">
     <!-- quadratic_linear fit -->
     <g transform="translate(477.144057 55.461789) scale(0.11 -0.11)">
      <use xlink:href="#CMR17-71" transform="scale(0.996264)"/>
      <use xlink:href="#CMR17-75" transform="translate(48.292916 0) scale(0.996264)"/>
      <use xlink:href="#CMR17-61" transform="translate(99.188286 0) scale(0.996264)"/>
      <use xlink:href="#CMR17-64" transform="translate(144.878763 0) scale(0.996264)"/>
      <use xlink:href="#CMR17-72" transform="translate(195.774133 0) scale(0.996264)"/>
      <use xlink:href="#CMR17-61" transform="translate(231.0549 0) scale(0.996264)"/>
      <use xlink:href="#CMR17-74" transform="translate(276.745377 0) scale(0.996264)"/>
      <use xlink:href="#CMR17-69" transform="translate(312.026145 0) scale(0.996264)"/>
      <use xlink:href="#CMR17-63" transform="translate(336.897204 0) scale(0.996264)"/>
      <use xlink:href="#CMR17-6c" transform="translate(410.280084 0) scale(0.996264)"/>
      <use xlink:href="#CMR17-69" transform="translate(435.151142 0) scale(0.996264)"/>
      <use xlink:href="#CMR17-6e" transform="translate(460.022201 0) scale(0.996264)"/>
      <use xlink:href="#CMR17-65" transform="translate(510.91757 0) scale(0.996264)"/>
      <use xlink:href="#CMR17-61" transform="translate(551.403231 0) scale(0.996264)"/>
      <use xlink:href="#CMR17-72" transform="translate(597.093708 0) scale(0.996264)"/>
      <use xlink:href="#CMR17-c" transform="translate(662.450442 0) scale(0.996264)"/>
      <use xlink:href="#CMR17-74" transform="translate(712.192666 0) scale(0.996264)"/>
      <path d="M 382.865493 0 
L 410.280084 0 
L 410.280084 0.3985 
L 382.865493 0.3985 
L 382.865493 0 
z
"/>
     </g>
    </g>
    <g id="PathCollection_4">
     <g>
      <use xlink:href="#m8e888a4297" x="457.344057" y="67.905184" style="fill: #1e90ff; fill-opacity: 0.7; stroke: #1e90ff; stroke-opacity: 0.7"/>
     </g>
    </g>
    <g id="text_17">
     <!-- excited state -->
     <g transform="translate(477.144057 70.792684) scale(0.11 -0.11)">
      <defs>
       <path id="CMR17-78" d="M 1664 1477 
C 1856 1726 2074 2006 2253 2216 
C 2464 2458 2707 2560 2989 2560 
L 2989 2726 
C 2880 2726 2656 2726 2541 2726 
C 2368 2726 2170 2726 2022 2732 
L 2022 2566 
C 2112 2553 2163 2489 2163 2400 
C 2163 2285 2099 2215 2067 2171 
L 1594 1573 
L 1030 2306 
C 973 2376 973 2388 973 2420 
C 973 2497 1037 2560 1146 2560 
L 1146 2732 
C 992 2726 717 2726 557 2726 
C 384 2726 179 2726 38 2732 
L 38 2560 
C 384 2560 461 2534 614 2343 
L 1350 1395 
C 1363 1382 1395 1344 1395 1325 
C 1395 1299 838 619 768 530 
C 480 185 179 160 6 160 
L 6 0 
C 115 0 339 0 454 0 
C 582 0 864 0 979 -6 
L 979 160 
C 941 166 838 179 838 325 
C 838 440 890 510 947 586 
L 1478 1236 
L 2035 512 
C 2086 442 2163 346 2163 301 
C 2163 211 2086 160 1984 160 
L 1984 -6 
C 2138 0 2413 0 2573 0 
C 2746 0 2950 0 3091 -6 
L 3091 160 
C 2771 160 2675 172 2522 370 
L 1664 1477 
z
" transform="scale(0.015625)"/>
      </defs>
      <use xlink:href="#CMR17-65" transform="scale(0.996264)"/>
      <use xlink:href="#CMR17-78" transform="translate(40.48566 0) scale(0.996264)"/>
      <use xlink:href="#CMR17-63" transform="translate(88.778576 0) scale(0.996264)"/>
      <use xlink:href="#CMR17-69" transform="translate(129.264237 0) scale(0.996264)"/>
      <use xlink:href="#CMR17-74" transform="translate(154.135295 0) scale(0.996264)"/>
      <use xlink:href="#CMR17-65" transform="translate(189.416063 0) scale(0.996264)"/>
      <use xlink:href="#CMR17-64" transform="translate(229.901724 0) scale(0.996264)"/>
      <use xlink:href="#CMR17-73" transform="translate(310.87306 0) scale(0.996264)"/>
      <use xlink:href="#CMR17-74" transform="translate(346.674397 0) scale(0.996264)"/>
      <use xlink:href="#CMR17-61" transform="translate(381.955165 0) scale(0.996264)"/>
      <use xlink:href="#CMR17-74" transform="translate(427.645642 0) scale(0.996264)"/>
      <use xlink:href="#CMR17-65" transform="translate(462.92641 0) scale(0.996264)"/>
     </g>
    </g>
   </g>
  </g>
 </g>
 <defs>
  <clipPath id="p602a46244e">
   <rect x="44.379643" y="7.2" width="532.819877" height="179.753197"/>
  </clipPath>
 </defs>
</svg>
