<?xml version="1.0" encoding="utf-8" standalone="no"?>
<!DOCTYPE svg PUBLIC "-//W3C//DTD SVG 1.1//EN"
  "http://www.w3.org/Graphics/SVG/1.1/DTD/svg11.dtd">
<svg xmlns:xlink="http://www.w3.org/1999/xlink" width="584.39952pt" height="419.828091pt" viewBox="0 0 584.39952 419.828091" xmlns="http://www.w3.org/2000/svg" version="1.1">
 <metadata>
  <rdf:RDF xmlns:dc="http://purl.org/dc/elements/1.1/" xmlns:cc="http://creativecommons.org/ns#" xmlns:rdf="http://www.w3.org/1999/02/22-rdf-syntax-ns#">
   <cc:Work>
    <dc:type rdf:resource="http://purl.org/dc/dcmitype/StillImage"/>
    <dc:date>2025-01-15T19:27:23.582075</dc:date>
    <dc:format>image/svg+xml</dc:format>
    <dc:creator>
     <cc:Agent>
      <dc:title>Matplotlib v3.10.0, https://matplotlib.org/</dc:title>
     </cc:Agent>
    </dc:creator>
   </cc:Work>
  </rdf:RDF>
 </metadata>
 <defs>
  <style type="text/css">*{stroke-linejoin: round; stroke-linecap: butt}</style>
 </defs>
 <g id="figure_1">
  <g id="patch_1">
   <path d="M 0 419.828091 
L 584.39952 419.828091 
L 584.39952 0 
L 0 0 
z
" style="fill: #ffffff"/>
  </g>
  <g id="axes_1">
   <g id="patch_2">
    <path d="M 38.900176 382.145609 
L 577.19952 382.145609 
L 577.19952 7.2 
L 38.900176 7.2 
z
" style="fill: #ffffff"/>
   </g>
   <g id="FillBetweenPolyCollection_1">
    <defs>
     <path id="m971826c9e8" d="M 63.368328 -57.003817 
L 63.368328 -57.030945 
L 71.805622 -62.868086 
L 80.242915 -68.705226 
L 88.680209 -74.542367 
L 97.117503 -80.379508 
L 105.554797 -86.216649 
L 113.992091 -92.053789 
L 122.429384 -97.89093 
L 130.866678 -103.728071 
L 139.303972 -109.565212 
L 147.741266 -115.402352 
L 156.17856 -121.239493 
L 164.615853 -127.076634 
L 173.053147 -132.913775 
L 181.490441 -138.750916 
L 189.927735 -144.588056 
L 198.365029 -150.425197 
L 206.802322 -156.262338 
L 215.239616 -162.099479 
L 223.67691 -167.936619 
L 232.114204 -173.77376 
L 240.551498 -179.610901 
L 248.988791 -185.448042 
L 257.426085 -191.285182 
L 265.863379 -197.122323 
L 274.300673 -202.959464 
L 282.737967 -208.796605 
L 291.17526 -214.633745 
L 299.612554 -220.470886 
L 308.049848 -226.308027 
L 316.487142 -232.145168 
L 324.924436 -237.982309 
L 333.361729 -243.819449 
L 341.799023 -249.65659 
L 350.236317 -255.493731 
L 358.673611 -261.330872 
L 367.110904 -267.168012 
L 375.548198 -273.005153 
L 383.985492 -278.842294 
L 392.422786 -284.679435 
L 400.86008 -290.516575 
L 409.297373 -296.353716 
L 417.734667 -302.190857 
L 426.171961 -308.027998 
L 434.609255 -313.865138 
L 443.046549 -319.702279 
L 451.483842 -325.53942 
L 459.921136 -331.376561 
L 468.35843 -337.213702 
L 476.795724 -343.050842 
L 485.233018 -348.887983 
L 493.670311 -354.725124 
L 502.107605 -360.562265 
L 510.544899 -366.399405 
L 518.982193 -372.236546 
L 527.419487 -378.073687 
L 535.85678 -383.910828 
L 544.294074 -389.747968 
L 552.731368 -395.585109 
L 552.731368 -394.771283 
L 552.731368 -394.771283 
L 544.294074 -388.947706 
L 535.85678 -383.124129 
L 527.419487 -377.300552 
L 518.982193 -371.476975 
L 510.544899 -365.653398 
L 502.107605 -359.829821 
L 493.670311 -354.006244 
L 485.233018 -348.182667 
L 476.795724 -342.35909 
L 468.35843 -336.535513 
L 459.921136 -330.711936 
L 451.483842 -324.888359 
L 443.046549 -319.064782 
L 434.609255 -313.241205 
L 426.171961 -307.417628 
L 417.734667 -301.594051 
L 409.297373 -295.770474 
L 400.86008 -289.946897 
L 392.422786 -284.12332 
L 383.985492 -278.299743 
L 375.548198 -272.476166 
L 367.110904 -266.652589 
L 358.673611 -260.829012 
L 350.236317 -255.005435 
L 341.799023 -249.181858 
L 333.361729 -243.358281 
L 324.924436 -237.534704 
L 316.487142 -231.711127 
L 308.049848 -225.88755 
L 299.612554 -220.063973 
L 291.17526 -214.240396 
L 282.737967 -208.416819 
L 274.300673 -202.593242 
L 265.863379 -196.769665 
L 257.426085 -190.946088 
L 248.988791 -185.122511 
L 240.551498 -179.298934 
L 232.114204 -173.475357 
L 223.67691 -167.65178 
L 215.239616 -161.828203 
L 206.802322 -156.004626 
L 198.365029 -150.181049 
L 189.927735 -144.357472 
L 181.490441 -138.533895 
L 173.053147 -132.710318 
L 164.615853 -126.886741 
L 156.17856 -121.063164 
L 147.741266 -115.239587 
L 139.303972 -109.41601 
L 130.866678 -103.592433 
L 122.429384 -97.768856 
L 113.992091 -91.945279 
L 105.554797 -86.121702 
L 97.117503 -80.298125 
L 88.680209 -74.474548 
L 80.242915 -68.650971 
L 71.805622 -62.827394 
L 63.368328 -57.003817 
z
" style="stroke: #32cd32; stroke-opacity: 0.3"/>
    </defs>
    <g clip-path="url(#p412c0d9b77)">
     <use xlink:href="#m971826c9e8" x="0" y="419.828091" style="fill: #32cd32; fill-opacity: 0.3; stroke: #32cd32; stroke-opacity: 0.3"/>
    </g>
   </g>
   <g id="PathCollection_1">
    <defs>
     <path id="mc93a5a1a7f" d="M 0 2.95804 
C 0.784481 2.95804 1.536938 2.646362 2.09165 2.09165 
C 2.646362 1.536938 2.95804 0.784481 2.95804 0 
C 2.95804 -0.784481 2.646362 -1.536938 2.09165 -2.09165 
C 1.536938 -2.646362 0.784481 -2.95804 0 -2.95804 
C -0.784481 -2.95804 -1.536938 -2.646362 -2.09165 -2.09165 
C -2.646362 -1.536938 -2.95804 -0.784481 -2.95804 0 
C -2.95804 0.784481 -2.646362 1.536938 -2.09165 2.09165 
C -1.536938 2.646362 -0.784481 2.95804 0 2.95804 
z
" style="stroke: #32cd32"/>
    </defs>
    <g clip-path="url(#p412c0d9b77)">
     <use xlink:href="#mc93a5a1a7f" x="63.368328" y="362.151477" style="fill: #32cd32; stroke: #32cd32"/>
     <use xlink:href="#mc93a5a1a7f" x="71.805622" y="356.791482" style="fill: #32cd32; stroke: #32cd32"/>
     <use xlink:href="#mc93a5a1a7f" x="80.242915" y="348.202998" style="fill: #32cd32; stroke: #32cd32"/>
     <use xlink:href="#mc93a5a1a7f" x="88.680209" y="342.393246" style="fill: #32cd32; stroke: #32cd32"/>
     <use xlink:href="#mc93a5a1a7f" x="97.117503" y="336.280159" style="fill: #32cd32; stroke: #32cd32"/>
     <use xlink:href="#mc93a5a1a7f" x="105.554797" y="332.397848" style="fill: #32cd32; stroke: #32cd32"/>
     <use xlink:href="#mc93a5a1a7f" x="113.992091" y="324.861251" style="fill: #32cd32; stroke: #32cd32"/>
     <use xlink:href="#mc93a5a1a7f" x="122.429384" y="317.303463" style="fill: #32cd32; stroke: #32cd32"/>
     <use xlink:href="#mc93a5a1a7f" x="130.866678" y="314.117226" style="fill: #32cd32; stroke: #32cd32"/>
     <use xlink:href="#mc93a5a1a7f" x="139.303972" y="311.403369" style="fill: #32cd32; stroke: #32cd32"/>
     <use xlink:href="#mc93a5a1a7f" x="147.741266" y="302.098893" style="fill: #32cd32; stroke: #32cd32"/>
     <use xlink:href="#mc93a5a1a7f" x="156.17856" y="295.412933" style="fill: #32cd32; stroke: #32cd32"/>
     <use xlink:href="#mc93a5a1a7f" x="164.615853" y="292.96999" style="fill: #32cd32; stroke: #32cd32"/>
     <use xlink:href="#mc93a5a1a7f" x="173.053147" y="286.193514" style="fill: #32cd32; stroke: #32cd32"/>
     <use xlink:href="#mc93a5a1a7f" x="181.490441" y="278.791838" style="fill: #32cd32; stroke: #32cd32"/>
     <use xlink:href="#mc93a5a1a7f" x="189.927735" y="273.593206" style="fill: #32cd32; stroke: #32cd32"/>
     <use xlink:href="#mc93a5a1a7f" x="198.365029" y="267.012102" style="fill: #32cd32; stroke: #32cd32"/>
     <use xlink:href="#mc93a5a1a7f" x="206.802322" y="262.010016" style="fill: #32cd32; stroke: #32cd32"/>
     <use xlink:href="#mc93a5a1a7f" x="215.239616" y="259.302499" style="fill: #32cd32; stroke: #32cd32"/>
     <use xlink:href="#mc93a5a1a7f" x="223.67691" y="249.762332" style="fill: #32cd32; stroke: #32cd32"/>
     <use xlink:href="#mc93a5a1a7f" x="232.114204" y="241.36723" style="fill: #32cd32; stroke: #32cd32"/>
     <use xlink:href="#mc93a5a1a7f" x="240.551498" y="239.280129" style="fill: #32cd32; stroke: #32cd32"/>
     <use xlink:href="#mc93a5a1a7f" x="248.988791" y="236.547583" style="fill: #32cd32; stroke: #32cd32"/>
     <use xlink:href="#mc93a5a1a7f" x="257.426085" y="229.195475" style="fill: #32cd32; stroke: #32cd32"/>
     <use xlink:href="#mc93a5a1a7f" x="265.863379" y="221.015606" style="fill: #32cd32; stroke: #32cd32"/>
     <use xlink:href="#mc93a5a1a7f" x="274.300673" y="214.874163" style="fill: #32cd32; stroke: #32cd32"/>
     <use xlink:href="#mc93a5a1a7f" x="282.737967" y="210.795248" style="fill: #32cd32; stroke: #32cd32"/>
     <use xlink:href="#mc93a5a1a7f" x="291.17526" y="205.565781" style="fill: #32cd32; stroke: #32cd32"/>
     <use xlink:href="#mc93a5a1a7f" x="299.612554" y="199.989373" style="fill: #32cd32; stroke: #32cd32"/>
     <use xlink:href="#mc93a5a1a7f" x="308.049848" y="191.362529" style="fill: #32cd32; stroke: #32cd32"/>
     <use xlink:href="#mc93a5a1a7f" x="316.487142" y="185.445925" style="fill: #32cd32; stroke: #32cd32"/>
     <use xlink:href="#mc93a5a1a7f" x="324.924436" y="180.826268" style="fill: #32cd32; stroke: #32cd32"/>
     <use xlink:href="#mc93a5a1a7f" x="333.361729" y="176.86414" style="fill: #32cd32; stroke: #32cd32"/>
     <use xlink:href="#mc93a5a1a7f" x="341.799023" y="170.92646" style="fill: #32cd32; stroke: #32cd32"/>
     <use xlink:href="#mc93a5a1a7f" x="350.236317" y="164.033239" style="fill: #32cd32; stroke: #32cd32"/>
     <use xlink:href="#mc93a5a1a7f" x="358.673611" y="157.55826" style="fill: #32cd32; stroke: #32cd32"/>
     <use xlink:href="#mc93a5a1a7f" x="367.110904" y="152.385898" style="fill: #32cd32; stroke: #32cd32"/>
     <use xlink:href="#mc93a5a1a7f" x="375.548198" y="148.710615" style="fill: #32cd32; stroke: #32cd32"/>
     <use xlink:href="#mc93a5a1a7f" x="383.985492" y="143.318966" style="fill: #32cd32; stroke: #32cd32"/>
     <use xlink:href="#mc93a5a1a7f" x="392.422786" y="133.391837" style="fill: #32cd32; stroke: #32cd32"/>
     <use xlink:href="#mc93a5a1a7f" x="400.86008" y="129.544424" style="fill: #32cd32; stroke: #32cd32"/>
     <use xlink:href="#mc93a5a1a7f" x="409.297373" y="124.22236" style="fill: #32cd32; stroke: #32cd32"/>
     <use xlink:href="#mc93a5a1a7f" x="417.734667" y="118.087327" style="fill: #32cd32; stroke: #32cd32"/>
     <use xlink:href="#mc93a5a1a7f" x="426.171961" y="113.241603" style="fill: #32cd32; stroke: #32cd32"/>
     <use xlink:href="#mc93a5a1a7f" x="434.609255" y="107.552614" style="fill: #32cd32; stroke: #32cd32"/>
     <use xlink:href="#mc93a5a1a7f" x="443.046549" y="101.620188" style="fill: #32cd32; stroke: #32cd32"/>
     <use xlink:href="#mc93a5a1a7f" x="451.483842" y="94.979931" style="fill: #32cd32; stroke: #32cd32"/>
     <use xlink:href="#mc93a5a1a7f" x="459.921136" y="90.132602" style="fill: #32cd32; stroke: #32cd32"/>
     <use xlink:href="#mc93a5a1a7f" x="468.35843" y="83.642546" style="fill: #32cd32; stroke: #32cd32"/>
     <use xlink:href="#mc93a5a1a7f" x="476.795724" y="77.080603" style="fill: #32cd32; stroke: #32cd32"/>
     <use xlink:href="#mc93a5a1a7f" x="485.233018" y="72.815482" style="fill: #32cd32; stroke: #32cd32"/>
     <use xlink:href="#mc93a5a1a7f" x="493.670311" y="67.283604" style="fill: #32cd32; stroke: #32cd32"/>
     <use xlink:href="#mc93a5a1a7f" x="502.107605" y="57.658873" style="fill: #32cd32; stroke: #32cd32"/>
     <use xlink:href="#mc93a5a1a7f" x="510.544899" y="54.690632" style="fill: #32cd32; stroke: #32cd32"/>
     <use xlink:href="#mc93a5a1a7f" x="518.982193" y="49.820949" style="fill: #32cd32; stroke: #32cd32"/>
     <use xlink:href="#mc93a5a1a7f" x="527.419487" y="42.51226" style="fill: #32cd32; stroke: #32cd32"/>
     <use xlink:href="#mc93a5a1a7f" x="535.85678" y="37.125082" style="fill: #32cd32; stroke: #32cd32"/>
     <use xlink:href="#mc93a5a1a7f" x="544.294074" y="32.081866" style="fill: #32cd32; stroke: #32cd32"/>
     <use xlink:href="#mc93a5a1a7f" x="552.731368" y="25.243036" style="fill: #32cd32; stroke: #32cd32"/>
    </g>
   </g>
   <g id="FillBetweenPolyCollection_2">
    <defs>
     <path id="mc1b0b05986" d="M 63.368328 -56.109657 
L 63.368328 -56.173284 
L 71.805622 -61.581595 
L 80.242915 -66.989905 
L 88.680209 -72.398216 
L 97.117503 -77.806526 
L 105.554797 -83.214837 
L 113.992091 -88.623147 
L 122.429384 -94.031458 
L 130.866678 -99.439768 
L 139.303972 -104.848079 
L 147.741266 -110.256389 
L 156.17856 -115.6647 
L 164.615853 -121.07301 
L 173.053147 -126.481321 
L 181.490441 -131.889631 
L 189.927735 -137.297942 
L 198.365029 -142.706252 
L 206.802322 -148.114563 
L 215.239616 -153.522873 
L 223.67691 -158.931184 
L 232.114204 -164.339494 
L 240.551498 -169.747805 
L 248.988791 -175.156115 
L 257.426085 -180.564426 
L 265.863379 -185.972736 
L 274.300673 -191.381046 
L 282.737967 -196.789357 
L 291.17526 -202.197667 
L 299.612554 -207.605978 
L 308.049848 -213.014288 
L 316.487142 -218.422599 
L 324.924436 -223.830909 
L 333.361729 -229.23922 
L 341.799023 -234.64753 
L 350.236317 -240.055841 
L 358.673611 -245.464151 
L 367.110904 -250.872462 
L 375.548198 -256.280772 
L 383.985492 -261.689083 
L 392.422786 -267.097393 
L 400.86008 -272.505704 
L 409.297373 -277.914014 
L 417.734667 -283.322325 
L 426.171961 -288.730635 
L 434.609255 -294.138946 
L 443.046549 -299.547256 
L 451.483842 -304.955567 
L 459.921136 -310.363877 
L 468.35843 -315.772188 
L 476.795724 -321.180498 
L 485.233018 -326.588809 
L 493.670311 -331.997119 
L 502.107605 -337.40543 
L 510.544899 -342.81374 
L 518.982193 -348.222051 
L 527.419487 -353.630361 
L 535.85678 -359.038672 
L 544.294074 -364.446982 
L 552.731368 -369.855293 
L 552.731368 -367.946464 
L 552.731368 -367.946464 
L 544.294074 -362.569967 
L 535.85678 -357.19347 
L 527.419487 -351.816974 
L 518.982193 -346.440477 
L 510.544899 -341.06398 
L 502.107605 -335.687484 
L 493.670311 -330.310987 
L 485.233018 -324.93449 
L 476.795724 -319.557994 
L 468.35843 -314.181497 
L 459.921136 -308.805 
L 451.483842 -303.428504 
L 443.046549 -298.052007 
L 434.609255 -292.67551 
L 426.171961 -287.299014 
L 417.734667 -281.922517 
L 409.297373 -276.54602 
L 400.86008 -271.169524 
L 392.422786 -265.793027 
L 383.985492 -260.41653 
L 375.548198 -255.040034 
L 367.110904 -249.663537 
L 358.673611 -244.28704 
L 350.236317 -238.910544 
L 341.799023 -233.534047 
L 333.361729 -228.15755 
L 324.924436 -222.781053 
L 316.487142 -217.404557 
L 308.049848 -212.02806 
L 299.612554 -206.651563 
L 291.17526 -201.275067 
L 282.737967 -195.89857 
L 274.300673 -190.522073 
L 265.863379 -185.145577 
L 257.426085 -179.76908 
L 248.988791 -174.392583 
L 240.551498 -169.016087 
L 232.114204 -163.63959 
L 223.67691 -158.263093 
L 215.239616 -152.886597 
L 206.802322 -147.5101 
L 198.365029 -142.133603 
L 189.927735 -136.757107 
L 181.490441 -131.38061 
L 173.053147 -126.004113 
L 164.615853 -120.627617 
L 156.17856 -115.25112 
L 147.741266 -109.874623 
L 139.303972 -104.498127 
L 130.866678 -99.12163 
L 122.429384 -93.745133 
L 113.992091 -88.368637 
L 105.554797 -82.99214 
L 97.117503 -77.615643 
L 88.680209 -72.239147 
L 80.242915 -66.86265 
L 71.805622 -61.486153 
L 63.368328 -56.109657 
z
" style="stroke: #1e90ff; stroke-opacity: 0.3"/>
    </defs>
    <g clip-path="url(#p412c0d9b77)">
     <use xlink:href="#mc1b0b05986" x="0" y="419.828091" style="fill: #1e90ff; fill-opacity: 0.3; stroke: #1e90ff; stroke-opacity: 0.3"/>
    </g>
   </g>
   <g id="PathCollection_2">
    <defs>
     <path id="m62427b37b5" d="M 0 -2.95804 
L -2.95804 2.95804 
L 2.95804 2.95804 
z
" style="stroke: #1e90ff"/>
    </defs>
    <g clip-path="url(#p412c0d9b77)">
     <use xlink:href="#m62427b37b5" x="63.368328" y="365.102627" style="fill: #1e90ff; stroke: #1e90ff"/>
     <use xlink:href="#m62427b37b5" x="71.805622" y="351.450092" style="fill: #1e90ff; stroke: #1e90ff"/>
     <use xlink:href="#m62427b37b5" x="80.242915" y="352.770879" style="fill: #1e90ff; stroke: #1e90ff"/>
     <use xlink:href="#m62427b37b5" x="88.680209" y="349.095952" style="fill: #1e90ff; stroke: #1e90ff"/>
     <use xlink:href="#m62427b37b5" x="97.117503" y="332.162067" style="fill: #1e90ff; stroke: #1e90ff"/>
     <use xlink:href="#m62427b37b5" x="105.554797" y="332.602111" style="fill: #1e90ff; stroke: #1e90ff"/>
     <use xlink:href="#m62427b37b5" x="113.992091" y="323.310969" style="fill: #1e90ff; stroke: #1e90ff"/>
     <use xlink:href="#m62427b37b5" x="122.429384" y="322.002845" style="fill: #1e90ff; stroke: #1e90ff"/>
     <use xlink:href="#m62427b37b5" x="130.866678" y="318.540267" style="fill: #1e90ff; stroke: #1e90ff"/>
     <use xlink:href="#m62427b37b5" x="139.303972" y="313.793648" style="fill: #1e90ff; stroke: #1e90ff"/>
     <use xlink:href="#m62427b37b5" x="147.741266" y="305.941873" style="fill: #1e90ff; stroke: #1e90ff"/>
     <use xlink:href="#m62427b37b5" x="156.17856" y="304.555425" style="fill: #1e90ff; stroke: #1e90ff"/>
     <use xlink:href="#m62427b37b5" x="164.615853" y="290.624212" style="fill: #1e90ff; stroke: #1e90ff"/>
     <use xlink:href="#m62427b37b5" x="173.053147" y="291.753937" style="fill: #1e90ff; stroke: #1e90ff"/>
     <use xlink:href="#m62427b37b5" x="181.490441" y="290.640088" style="fill: #1e90ff; stroke: #1e90ff"/>
     <use xlink:href="#m62427b37b5" x="189.927735" y="272.906158" style="fill: #1e90ff; stroke: #1e90ff"/>
     <use xlink:href="#m62427b37b5" x="198.365029" y="277.116605" style="fill: #1e90ff; stroke: #1e90ff"/>
     <use xlink:href="#m62427b37b5" x="206.802322" y="267.828273" style="fill: #1e90ff; stroke: #1e90ff"/>
     <use xlink:href="#m62427b37b5" x="215.239616" y="263.911398" style="fill: #1e90ff; stroke: #1e90ff"/>
     <use xlink:href="#m62427b37b5" x="223.67691" y="253.479002" style="fill: #1e90ff; stroke: #1e90ff"/>
     <use xlink:href="#m62427b37b5" x="232.114204" y="256.784796" style="fill: #1e90ff; stroke: #1e90ff"/>
     <use xlink:href="#m62427b37b5" x="240.551498" y="242.148545" style="fill: #1e90ff; stroke: #1e90ff"/>
     <use xlink:href="#m62427b37b5" x="248.988791" y="245.549162" style="fill: #1e90ff; stroke: #1e90ff"/>
     <use xlink:href="#m62427b37b5" x="257.426085" y="237.720382" style="fill: #1e90ff; stroke: #1e90ff"/>
     <use xlink:href="#m62427b37b5" x="265.863379" y="227.043689" style="fill: #1e90ff; stroke: #1e90ff"/>
     <use xlink:href="#m62427b37b5" x="274.300673" y="222.116213" style="fill: #1e90ff; stroke: #1e90ff"/>
     <use xlink:href="#m62427b37b5" x="282.737967" y="223.061812" style="fill: #1e90ff; stroke: #1e90ff"/>
     <use xlink:href="#m62427b37b5" x="291.17526" y="219.584987" style="fill: #1e90ff; stroke: #1e90ff"/>
     <use xlink:href="#m62427b37b5" x="299.612554" y="211.602651" style="fill: #1e90ff; stroke: #1e90ff"/>
     <use xlink:href="#m62427b37b5" x="308.049848" y="206.906756" style="fill: #1e90ff; stroke: #1e90ff"/>
     <use xlink:href="#m62427b37b5" x="316.487142" y="197.713916" style="fill: #1e90ff; stroke: #1e90ff"/>
     <use xlink:href="#m62427b37b5" x="324.924436" y="194.944599" style="fill: #1e90ff; stroke: #1e90ff"/>
     <use xlink:href="#m62427b37b5" x="333.361729" y="190.131097" style="fill: #1e90ff; stroke: #1e90ff"/>
     <use xlink:href="#m62427b37b5" x="341.799023" y="191.562643" style="fill: #1e90ff; stroke: #1e90ff"/>
     <use xlink:href="#m62427b37b5" x="350.236317" y="177.359673" style="fill: #1e90ff; stroke: #1e90ff"/>
     <use xlink:href="#m62427b37b5" x="358.673611" y="176.141357" style="fill: #1e90ff; stroke: #1e90ff"/>
     <use xlink:href="#m62427b37b5" x="367.110904" y="170.127698" style="fill: #1e90ff; stroke: #1e90ff"/>
     <use xlink:href="#m62427b37b5" x="375.548198" y="163.771202" style="fill: #1e90ff; stroke: #1e90ff"/>
     <use xlink:href="#m62427b37b5" x="383.985492" y="160.812263" style="fill: #1e90ff; stroke: #1e90ff"/>
     <use xlink:href="#m62427b37b5" x="392.422786" y="150.639848" style="fill: #1e90ff; stroke: #1e90ff"/>
     <use xlink:href="#m62427b37b5" x="400.86008" y="150.514673" style="fill: #1e90ff; stroke: #1e90ff"/>
     <use xlink:href="#m62427b37b5" x="409.297373" y="146.438456" style="fill: #1e90ff; stroke: #1e90ff"/>
     <use xlink:href="#m62427b37b5" x="417.734667" y="138.245132" style="fill: #1e90ff; stroke: #1e90ff"/>
     <use xlink:href="#m62427b37b5" x="426.171961" y="139.879892" style="fill: #1e90ff; stroke: #1e90ff"/>
     <use xlink:href="#m62427b37b5" x="434.609255" y="125.521146" style="fill: #1e90ff; stroke: #1e90ff"/>
     <use xlink:href="#m62427b37b5" x="443.046549" y="125.045726" style="fill: #1e90ff; stroke: #1e90ff"/>
     <use xlink:href="#m62427b37b5" x="451.483842" y="116.182924" style="fill: #1e90ff; stroke: #1e90ff"/>
     <use xlink:href="#m62427b37b5" x="459.921136" y="110.519992" style="fill: #1e90ff; stroke: #1e90ff"/>
     <use xlink:href="#m62427b37b5" x="468.35843" y="106.383949" style="fill: #1e90ff; stroke: #1e90ff"/>
     <use xlink:href="#m62427b37b5" x="476.795724" y="104.908198" style="fill: #1e90ff; stroke: #1e90ff"/>
     <use xlink:href="#m62427b37b5" x="485.233018" y="92.749296" style="fill: #1e90ff; stroke: #1e90ff"/>
     <use xlink:href="#m62427b37b5" x="493.670311" y="87.775687" style="fill: #1e90ff; stroke: #1e90ff"/>
     <use xlink:href="#m62427b37b5" x="502.107605" y="88.785395" style="fill: #1e90ff; stroke: #1e90ff"/>
     <use xlink:href="#m62427b37b5" x="510.544899" y="77.658642" style="fill: #1e90ff; stroke: #1e90ff"/>
     <use xlink:href="#m62427b37b5" x="518.982193" y="78.50977" style="fill: #1e90ff; stroke: #1e90ff"/>
     <use xlink:href="#m62427b37b5" x="527.419487" y="65.942373" style="fill: #1e90ff; stroke: #1e90ff"/>
     <use xlink:href="#m62427b37b5" x="535.85678" y="57.869387" style="fill: #1e90ff; stroke: #1e90ff"/>
     <use xlink:href="#m62427b37b5" x="544.294074" y="63.487132" style="fill: #1e90ff; stroke: #1e90ff"/>
     <use xlink:href="#m62427b37b5" x="552.731368" y="45.718637" style="fill: #1e90ff; stroke: #1e90ff"/>
    </g>
   </g>
   <g id="matplotlib.axis_1">
    <g id="xtick_1">
     <g id="line2d_1">
      <defs>
       <path id="m3c3c6ff41b" d="M 0 0 
L 0 3.5 
" style="stroke: #000000; stroke-width: 0.8"/>
      </defs>
      <g>
       <use xlink:href="#m3c3c6ff41b" x="46.49374" y="382.145609" style="stroke: #000000; stroke-width: 0.8"/>
      </g>
     </g>
     <g id="text_1">
      <!-- $\mathdefault{0}$ -->
      <g transform="translate(43.754007 396.755955) scale(0.11 -0.11)">
       <defs>
        <path id="CMR17-30" d="M 2688 2025 
C 2688 2416 2682 3080 2413 3591 
C 2176 4039 1798 4198 1466 4198 
C 1158 4198 768 4058 525 3597 
C 269 3118 243 2524 243 2025 
C 243 1661 250 1106 448 619 
C 723 -39 1216 -128 1466 -128 
C 1760 -128 2208 -7 2470 600 
C 2662 1042 2688 1559 2688 2025 
z
M 1466 -26 
C 1056 -26 813 325 723 812 
C 653 1188 653 1738 653 2096 
C 653 2588 653 2997 736 3387 
C 858 3929 1216 4096 1466 4096 
C 1728 4096 2067 3923 2189 3400 
C 2272 3036 2278 2607 2278 2096 
C 2278 1680 2278 1169 2202 792 
C 2067 95 1690 -26 1466 -26 
z
" transform="scale(0.015625)"/>
       </defs>
       <use xlink:href="#CMR17-30" transform="scale(0.996264)"/>
      </g>
     </g>
    </g>
    <g id="xtick_2">
     <g id="line2d_2">
      <g>
       <use xlink:href="#m3c3c6ff41b" x="130.866678" y="382.145609" style="stroke: #000000; stroke-width: 0.8"/>
      </g>
     </g>
     <g id="text_2">
      <!-- $\mathdefault{10}$ -->
      <g transform="translate(125.387211 396.755955) scale(0.11 -0.11)">
       <defs>
        <path id="CMR17-31" d="M 1702 4058 
C 1702 4192 1696 4192 1606 4192 
C 1357 3916 979 3827 621 3827 
C 602 3827 570 3827 563 3808 
C 557 3795 557 3782 557 3648 
C 755 3648 1088 3686 1344 3839 
L 1344 461 
C 1344 236 1331 160 781 160 
L 589 160 
L 589 0 
C 896 0 1216 0 1523 0 
C 1830 0 2150 0 2458 0 
L 2458 160 
L 2266 160 
C 1715 160 1702 230 1702 458 
L 1702 4058 
z
" transform="scale(0.015625)"/>
       </defs>
       <use xlink:href="#CMR17-31" transform="scale(0.996264)"/>
       <use xlink:href="#CMR17-30" transform="translate(45.690477 0) scale(0.996264)"/>
      </g>
     </g>
    </g>
    <g id="xtick_3">
     <g id="line2d_3">
      <g>
       <use xlink:href="#m3c3c6ff41b" x="215.239616" y="382.145609" style="stroke: #000000; stroke-width: 0.8"/>
      </g>
     </g>
     <g id="text_3">
      <!-- $\mathdefault{20}$ -->
      <g transform="translate(209.760149 396.755955) scale(0.11 -0.11)">
       <defs>
        <path id="CMR17-32" d="M 2669 989 
L 2554 989 
C 2490 536 2438 459 2413 420 
C 2381 369 1920 369 1830 369 
L 602 369 
C 832 619 1280 1072 1824 1597 
C 2214 1967 2669 2402 2669 3035 
C 2669 3790 2067 4224 1395 4224 
C 691 4224 262 3604 262 3030 
C 262 2780 448 2748 525 2748 
C 589 2748 781 2787 781 3010 
C 781 3207 614 3264 525 3264 
C 486 3264 448 3258 422 3245 
C 544 3790 915 4058 1306 4058 
C 1862 4058 2227 3617 2227 3035 
C 2227 2479 1901 2000 1536 1584 
L 262 146 
L 262 0 
L 2515 0 
L 2669 989 
z
" transform="scale(0.015625)"/>
       </defs>
       <use xlink:href="#CMR17-32" transform="scale(0.996264)"/>
       <use xlink:href="#CMR17-30" transform="translate(45.690477 0) scale(0.996264)"/>
      </g>
     </g>
    </g>
    <g id="xtick_4">
     <g id="line2d_4">
      <g>
       <use xlink:href="#m3c3c6ff41b" x="299.612554" y="382.145609" style="stroke: #000000; stroke-width: 0.8"/>
      </g>
     </g>
     <g id="text_4">
      <!-- $\mathdefault{30}$ -->
      <g transform="translate(294.133087 396.755955) scale(0.11 -0.11)">
       <defs>
        <path id="CMR17-33" d="M 1414 2157 
C 1984 2157 2234 1662 2234 1090 
C 2234 320 1824 25 1453 25 
C 1114 25 563 194 390 693 
C 422 680 454 680 486 680 
C 640 680 755 782 755 948 
C 755 1133 614 1216 486 1216 
C 378 1216 211 1165 211 926 
C 211 335 787 -128 1466 -128 
C 2176 -128 2720 430 2720 1085 
C 2720 1707 2208 2157 1600 2227 
C 2086 2328 2554 2756 2554 3329 
C 2554 3820 2048 4179 1472 4179 
C 890 4179 378 3829 378 3329 
C 378 3110 544 3072 627 3072 
C 762 3072 877 3155 877 3321 
C 877 3486 762 3569 627 3569 
C 602 3569 570 3569 544 3557 
C 730 3959 1235 4032 1459 4032 
C 1683 4032 2106 3925 2106 3320 
C 2106 3143 2080 2828 1862 2550 
C 1670 2304 1453 2304 1242 2284 
C 1210 2284 1062 2269 1037 2269 
C 992 2263 966 2257 966 2208 
C 966 2163 973 2157 1101 2157 
L 1414 2157 
z
" transform="scale(0.015625)"/>
       </defs>
       <use xlink:href="#CMR17-33" transform="scale(0.996264)"/>
       <use xlink:href="#CMR17-30" transform="translate(45.690477 0) scale(0.996264)"/>
      </g>
     </g>
    </g>
    <g id="xtick_5">
     <g id="line2d_5">
      <g>
       <use xlink:href="#m3c3c6ff41b" x="383.985492" y="382.145609" style="stroke: #000000; stroke-width: 0.8"/>
      </g>
     </g>
     <g id="text_5">
      <!-- $\mathdefault{40}$ -->
      <g transform="translate(378.506025 396.755955) scale(0.11 -0.11)">
       <defs>
        <path id="CMR17-34" d="M 2150 4122 
C 2150 4256 2144 4256 2029 4256 
L 128 1254 
L 128 1088 
L 1779 1088 
L 1779 457 
C 1779 224 1766 160 1318 160 
L 1197 160 
L 1197 0 
C 1402 0 1747 0 1965 0 
C 2182 0 2528 0 2733 0 
L 2733 160 
L 2611 160 
C 2163 160 2150 224 2150 457 
L 2150 1088 
L 2803 1088 
L 2803 1254 
L 2150 1254 
L 2150 4122 
z
M 1798 3703 
L 1798 1254 
L 256 1254 
L 1798 3703 
z
" transform="scale(0.015625)"/>
       </defs>
       <use xlink:href="#CMR17-34" transform="scale(0.996264)"/>
       <use xlink:href="#CMR17-30" transform="translate(45.690477 0) scale(0.996264)"/>
      </g>
     </g>
    </g>
    <g id="xtick_6">
     <g id="line2d_6">
      <g>
       <use xlink:href="#m3c3c6ff41b" x="468.35843" y="382.145609" style="stroke: #000000; stroke-width: 0.8"/>
      </g>
     </g>
     <g id="text_6">
      <!-- $\mathdefault{50}$ -->
      <g transform="translate(462.878963 396.755955) scale(0.11 -0.11)">
       <defs>
        <path id="CMR17-35" d="M 730 3692 
C 794 3666 1056 3584 1325 3584 
C 1920 3584 2246 3911 2432 4100 
C 2432 4157 2432 4192 2394 4192 
C 2387 4192 2374 4192 2323 4163 
C 2099 4058 1837 3973 1517 3973 
C 1325 3973 1037 3999 723 4139 
C 653 4171 640 4171 634 4171 
C 602 4171 595 4164 595 4037 
L 595 2203 
C 595 2089 595 2057 659 2057 
C 691 2057 704 2070 736 2114 
C 941 2401 1222 2522 1542 2522 
C 1766 2522 2246 2382 2246 1289 
C 2246 1085 2246 715 2054 421 
C 1894 159 1645 25 1370 25 
C 947 25 518 320 403 814 
C 429 807 480 795 506 795 
C 589 795 749 840 749 1038 
C 749 1210 627 1280 506 1280 
C 358 1280 262 1190 262 1011 
C 262 454 704 -128 1382 -128 
C 2042 -128 2669 440 2669 1264 
C 2669 2030 2170 2624 1549 2624 
C 1222 2624 947 2503 730 2274 
L 730 3692 
z
" transform="scale(0.015625)"/>
       </defs>
       <use xlink:href="#CMR17-35" transform="scale(0.996264)"/>
       <use xlink:href="#CMR17-30" transform="translate(45.690477 0) scale(0.996264)"/>
      </g>
     </g>
    </g>
    <g id="xtick_7">
     <g id="line2d_7">
      <g>
       <use xlink:href="#m3c3c6ff41b" x="552.731368" y="382.145609" style="stroke: #000000; stroke-width: 0.8"/>
      </g>
     </g>
     <g id="text_7">
      <!-- $\mathdefault{60}$ -->
      <g transform="translate(547.251901 396.755955) scale(0.11 -0.11)">
       <defs>
        <path id="CMR17-36" d="M 678 2176 
C 678 3690 1395 4032 1811 4032 
C 1946 4032 2272 4009 2400 3776 
C 2298 3776 2106 3776 2106 3553 
C 2106 3381 2246 3323 2336 3323 
C 2394 3323 2566 3348 2566 3560 
C 2566 3954 2246 4179 1805 4179 
C 1043 4179 243 3390 243 1984 
C 243 253 966 -128 1478 -128 
C 2099 -128 2688 427 2688 1283 
C 2688 2081 2170 2662 1517 2662 
C 1126 2662 838 2407 678 1960 
L 678 2176 
z
M 1478 25 
C 691 25 691 1200 691 1436 
C 691 1896 909 2560 1504 2560 
C 1613 2560 1926 2560 2138 2120 
C 2253 1870 2253 1609 2253 1289 
C 2253 944 2253 690 2118 434 
C 1978 171 1773 25 1478 25 
z
" transform="scale(0.015625)"/>
       </defs>
       <use xlink:href="#CMR17-36" transform="scale(0.996264)"/>
       <use xlink:href="#CMR17-30" transform="translate(45.690477 0) scale(0.996264)"/>
      </g>
     </g>
    </g>
    <g id="text_8">
     <!-- N -->
     <g transform="translate(303.940251 410.497197) scale(0.11 -0.11)">
      <defs>
       <path id="CMR17-4e" d="M 1312 4250 
C 1267 4320 1261 4320 1139 4320 
L 326 4320 
L 326 4160 
L 448 4160 
C 704 4160 819 4129 838 4122 
L 838 610 
C 838 451 838 153 326 153 
L 326 -13 
C 474 0 742 0 902 0 
C 1062 0 1331 0 1478 -13 
L 1478 153 
C 966 153 966 451 966 610 
L 966 4033 
C 1011 3995 1011 3982 1056 3919 
L 3430 76 
C 3475 0 3494 0 3526 0 
C 3590 0 3590 19 3590 139 
L 3590 3705 
C 3590 3863 3590 4160 4102 4160 
L 4102 4326 
C 3955 4320 3686 4320 3526 4320 
C 3366 4320 3098 4320 2950 4326 
L 2950 4160 
C 3462 4160 3462 3862 3462 3703 
L 3462 763 
L 1312 4250 
z
" transform="scale(0.015625)"/>
      </defs>
      <use xlink:href="#CMR17-4e" transform="scale(0.996264)"/>
     </g>
    </g>
   </g>
   <g id="matplotlib.axis_2">
    <g id="ytick_1">
     <g id="line2d_8">
      <defs>
       <path id="mff1fef0113" d="M 0 0 
L -3.5 0 
" style="stroke: #000000; stroke-width: 0.8"/>
      </defs>
      <g>
       <use xlink:href="#mff1fef0113" x="38.900176" y="374.471428" style="stroke: #000000; stroke-width: 0.8"/>
      </g>
     </g>
     <g id="text_9">
      <!-- $\mathdefault{0}$ -->
      <g transform="translate(26.420709 378.276602) scale(0.11 -0.11)">
       <use xlink:href="#CMR17-30" transform="scale(0.996264)"/>
      </g>
     </g>
    </g>
    <g id="ytick_2">
     <g id="line2d_9">
      <g>
       <use xlink:href="#mff1fef0113" x="38.900176" y="331.105789" style="stroke: #000000; stroke-width: 0.8"/>
      </g>
     </g>
     <g id="text_10">
      <!-- $\mathdefault{5}$ -->
      <g transform="translate(26.420709 334.910963) scale(0.11 -0.11)">
       <use xlink:href="#CMR17-35" transform="scale(0.996264)"/>
      </g>
     </g>
    </g>
    <g id="ytick_3">
     <g id="line2d_10">
      <g>
       <use xlink:href="#mff1fef0113" x="38.900176" y="287.740151" style="stroke: #000000; stroke-width: 0.8"/>
      </g>
     </g>
     <g id="text_11">
      <!-- $\mathdefault{10}$ -->
      <g transform="translate(20.941241 291.545324) scale(0.11 -0.11)">
       <use xlink:href="#CMR17-31" transform="scale(0.996264)"/>
       <use xlink:href="#CMR17-30" transform="translate(45.690477 0) scale(0.996264)"/>
      </g>
     </g>
    </g>
    <g id="ytick_4">
     <g id="line2d_11">
      <g>
       <use xlink:href="#mff1fef0113" x="38.900176" y="244.374512" style="stroke: #000000; stroke-width: 0.8"/>
      </g>
     </g>
     <g id="text_12">
      <!-- $\mathdefault{15}$ -->
      <g transform="translate(20.941241 248.179685) scale(0.11 -0.11)">
       <use xlink:href="#CMR17-31" transform="scale(0.996264)"/>
       <use xlink:href="#CMR17-35" transform="translate(45.690477 0) scale(0.996264)"/>
      </g>
     </g>
    </g>
    <g id="ytick_5">
     <g id="line2d_12">
      <g>
       <use xlink:href="#mff1fef0113" x="38.900176" y="201.008873" style="stroke: #000000; stroke-width: 0.8"/>
      </g>
     </g>
     <g id="text_13">
      <!-- $\mathdefault{20}$ -->
      <g transform="translate(20.941241 204.814047) scale(0.11 -0.11)">
       <use xlink:href="#CMR17-32" transform="scale(0.996264)"/>
       <use xlink:href="#CMR17-30" transform="translate(45.690477 0) scale(0.996264)"/>
      </g>
     </g>
    </g>
    <g id="ytick_6">
     <g id="line2d_13">
      <g>
       <use xlink:href="#mff1fef0113" x="38.900176" y="157.643235" style="stroke: #000000; stroke-width: 0.8"/>
      </g>
     </g>
     <g id="text_14">
      <!-- $\mathdefault{25}$ -->
      <g transform="translate(20.941241 161.448408) scale(0.11 -0.11)">
       <use xlink:href="#CMR17-32" transform="scale(0.996264)"/>
       <use xlink:href="#CMR17-35" transform="translate(45.690477 0) scale(0.996264)"/>
      </g>
     </g>
    </g>
    <g id="ytick_7">
     <g id="line2d_14">
      <g>
       <use xlink:href="#mff1fef0113" x="38.900176" y="114.277596" style="stroke: #000000; stroke-width: 0.8"/>
      </g>
     </g>
     <g id="text_15">
      <!-- $\mathdefault{30}$ -->
      <g transform="translate(20.941241 118.082769) scale(0.11 -0.11)">
       <use xlink:href="#CMR17-33" transform="scale(0.996264)"/>
       <use xlink:href="#CMR17-30" transform="translate(45.690477 0) scale(0.996264)"/>
      </g>
     </g>
    </g>
    <g id="ytick_8">
     <g id="line2d_15">
      <g>
       <use xlink:href="#mff1fef0113" x="38.900176" y="70.911957" style="stroke: #000000; stroke-width: 0.8"/>
      </g>
     </g>
     <g id="text_16">
      <!-- $\mathdefault{35}$ -->
      <g transform="translate(20.941241 74.717131) scale(0.11 -0.11)">
       <use xlink:href="#CMR17-33" transform="scale(0.996264)"/>
       <use xlink:href="#CMR17-35" transform="translate(45.690477 0) scale(0.996264)"/>
      </g>
     </g>
    </g>
    <g id="ytick_9">
     <g id="line2d_16">
      <g>
       <use xlink:href="#mff1fef0113" x="38.900176" y="27.546319" style="stroke: #000000; stroke-width: 0.8"/>
      </g>
     </g>
     <g id="text_17">
      <!-- $\mathdefault{40}$ -->
      <g transform="translate(20.941241 31.351492) scale(0.11 -0.11)">
       <use xlink:href="#CMR17-34" transform="scale(0.996264)"/>
       <use xlink:href="#CMR17-30" transform="translate(45.690477 0) scale(0.996264)"/>
      </g>
     </g>
    </g>
    <g id="text_18">
     <!-- Average photon expectation value after first bump -->
     <g transform="translate(14.810347 316.058193) rotate(-90) scale(0.11 -0.11)">
      <defs>
       <path id="CMR17-41" d="M 2323 4378 
C 2291 4461 2278 4480 2214 4480 
C 2150 4480 2138 4461 2106 4378 
L 749 566 
C 627 223 371 153 147 153 
L 147 -13 
C 262 0 518 0 640 0 
C 800 0 1056 0 1210 -13 
L 1210 153 
C 909 153 864 361 864 439 
C 864 497 877 530 890 569 
L 1229 1536 
L 2906 1536 
L 3290 442 
C 3322 365 3322 352 3322 327 
C 3322 153 3046 153 2925 153 
L 2925 0 
C 3110 0 3443 0 3642 0 
C 3808 0 4128 0 4282 -13 
L 4282 153 
C 3942 153 3827 153 3744 387 
L 2323 4378 
z
M 2067 3893 
L 2848 1702 
L 1286 1702 
L 2067 3893 
z
" transform="scale(0.015625)"/>
       <path id="CMR17-76" d="M 2502 2163 
C 2560 2304 2662 2560 3034 2560 
L 3034 2726 
C 2912 2726 2752 2726 2630 2726 
C 2496 2726 2285 2726 2157 2732 
L 2157 2566 
C 2317 2553 2406 2477 2406 2311 
C 2406 2253 2406 2240 2368 2151 
L 1664 377 
L 902 2286 
C 864 2369 864 2381 864 2407 
C 864 2560 1075 2560 1171 2560 
L 1171 2732 
C 1018 2726 736 2726 576 2726 
C 403 2726 205 2726 64 2732 
L 64 2560 
C 307 2560 442 2560 518 2362 
L 1446 44 
C 1485 -51 1491 -64 1549 -64 
C 1606 -64 1613 -51 1651 44 
L 2502 2163 
z
" transform="scale(0.015625)"/>
       <path id="CMR17-65" d="M 2438 1472 
C 2464 1498 2464 1511 2464 1576 
C 2464 2238 2118 2816 1389 2816 
C 710 2816 173 2169 173 1383 
C 173 551 781 -64 1459 -64 
C 2176 -64 2458 607 2458 740 
C 2458 784 2419 784 2406 784 
C 2362 784 2355 771 2330 696 
C 2189 265 1837 51 1504 51 
C 1229 51 954 203 781 480 
C 582 803 582 1176 582 1472 
L 2438 1472 
z
M 589 1568 
C 634 2505 1126 2714 1382 2714 
C 1818 2714 2112 2297 2118 1568 
L 589 1568 
z
" transform="scale(0.015625)"/>
       <path id="CMR17-72" d="M 960 1497 
C 960 2112 1222 2688 1702 2688 
C 1747 2688 1792 2682 1837 2662 
C 1837 2662 1696 2617 1696 2452 
C 1696 2298 1818 2234 1914 2234 
C 1990 2234 2131 2279 2131 2458 
C 2131 2663 1926 2790 1709 2790 
C 1222 2790 1011 2317 947 2093 
L 941 2093 
L 941 2790 
L 198 2720 
L 198 2554 
C 576 2554 634 2515 634 2208 
L 634 428 
C 634 184 608 153 198 153 
L 198 -13 
C 352 0 646 0 813 0 
C 998 0 1325 0 1498 -13 
L 1498 153 
C 1037 153 960 153 960 440 
L 960 1497 
z
" transform="scale(0.015625)"/>
       <path id="CMR17-61" d="M 2304 1653 
C 2304 2072 2304 2294 2035 2543 
C 1798 2752 1523 2816 1306 2816 
C 800 2816 435 2407 435 1971 
C 435 1728 627 1728 666 1728 
C 749 1728 896 1778 896 1954 
C 896 2112 774 2181 666 2181 
C 640 2181 608 2174 589 2168 
C 723 2592 1069 2714 1293 2714 
C 1613 2714 1965 2429 1965 1885 
L 1965 1600 
C 1587 1600 1133 1549 774 1357 
C 371 1133 256 813 256 570 
C 256 77 832 -64 1171 -64 
C 1523 -64 1850 139 1990 511 
C 2003 233 2182 -18 2464 -18 
C 2598 -18 2938 70 2938 567 
L 2938 920 
L 2822 920 
L 2822 562 
C 2822 178 2650 128 2566 128 
C 2304 128 2304 458 2304 738 
L 2304 1653 
z
M 1965 870 
C 1965 317 1568 38 1216 38 
C 896 38 646 275 646 570 
C 646 761 730 1100 1101 1305 
C 1408 1478 1760 1504 1965 1504 
L 1965 870 
z
" transform="scale(0.015625)"/>
       <path id="CMR17-67" d="M 710 1164 
C 832 1068 1043 960 1299 960 
C 1805 960 2240 1357 2240 1888 
C 2240 2054 2189 2310 1997 2509 
C 2176 2692 2438 2752 2586 2752 
C 2611 2752 2650 2752 2682 2734 
C 2656 2728 2598 2703 2598 2605 
C 2598 2527 2656 2471 2739 2471 
C 2835 2471 2886 2533 2886 2614 
C 2886 2731 2790 2854 2586 2854 
C 2330 2854 2106 2738 1926 2580 
C 1734 2753 1504 2816 1299 2816 
C 794 2816 358 2419 358 1888 
C 358 1522 570 1292 634 1228 
C 442 1004 442 743 442 711 
C 442 545 506 302 723 168 
C 390 85 128 -169 128 -486 
C 128 -943 736 -1280 1466 -1280 
C 2170 -1280 2803 -956 2803 -479 
C 2803 384 1856 384 1363 384 
C 1216 384 954 384 922 391 
C 723 423 589 602 589 826 
C 589 883 589 1024 710 1164 
z
M 1299 1068 
C 736 1068 736 1760 736 1889 
C 736 2016 736 2708 1299 2708 
C 1862 2708 1862 2016 1862 1889 
C 1862 1760 1862 1068 1299 1068 
z
M 1466 -1171 
C 826 -1171 384 -835 384 -486 
C 384 -289 493 -105 634 -4 
C 794 104 858 104 1293 104 
C 1818 104 2547 104 2547 -486 
C 2547 -835 2106 -1171 1466 -1171 
z
" transform="scale(0.015625)"/>
       <path id="CMR17-70" d="M 1408 -1063 
C 998 -1063 973 -1037 973 -789 
L 973 402 
C 1158 134 1427 -38 1766 -38 
C 2406 -38 3053 523 3053 1388 
C 3053 2191 2496 2802 1837 2802 
C 1453 2802 1139 2592 960 2338 
L 960 2802 
L 198 2732 
L 198 2567 
C 576 2567 634 2528 634 2223 
L 634 -789 
C 634 -1031 608 -1063 198 -1063 
L 198 -1228 
C 352 -1216 634 -1216 800 -1216 
C 966 -1216 1254 -1216 1408 -1228 
L 1408 -1063 
z
M 973 2012 
C 973 2102 973 2235 1222 2471 
C 1254 2497 1472 2688 1792 2688 
C 2259 2688 2643 2108 2643 1382 
C 2643 656 2234 64 1728 64 
C 1498 64 1248 172 1056 472 
C 973 612 973 650 973 752 
L 973 2012 
z
" transform="scale(0.015625)"/>
       <path id="CMR17-68" d="M 2656 1933 
C 2656 2259 2592 2790 1837 2790 
C 1312 2790 1056 2368 979 2157 
L 973 2157 
L 973 4396 
L 211 4326 
L 211 4160 
C 589 4160 646 4122 646 3817 
L 646 426 
C 646 184 621 153 211 153 
L 211 -13 
C 365 0 646 0 813 0 
C 979 0 1267 0 1421 -13 
L 1421 153 
C 1011 153 986 178 986 428 
L 986 1658 
C 986 2247 1344 2688 1792 2688 
C 2266 2688 2317 2266 2317 1958 
L 2317 428 
C 2317 184 2291 153 1882 153 
L 1882 -13 
C 2035 0 2317 0 2483 0 
C 2650 0 2938 0 3091 -13 
L 3091 153 
C 2682 153 2656 178 2656 428 
L 2656 1933 
z
" transform="scale(0.015625)"/>
       <path id="CMR17-6f" d="M 2758 1356 
C 2758 2176 2163 2816 1466 2816 
C 768 2816 173 2176 173 1356 
C 173 551 768 -64 1466 -64 
C 2163 -64 2758 551 2758 1356 
z
M 1466 51 
C 1165 51 909 230 762 480 
C 602 767 582 1126 582 1408 
C 582 1677 595 2010 762 2298 
C 890 2509 1139 2714 1466 2714 
C 1754 2714 1997 2554 2150 2330 
C 2349 2029 2349 1607 2349 1408 
C 2349 1158 2336 775 2163 467 
C 1984 173 1709 51 1466 51 
z
" transform="scale(0.015625)"/>
       <path id="CMR17-74" d="M 966 2560 
L 1862 2560 
L 1862 2725 
L 966 2725 
L 966 3904 
L 851 3904 
C 838 3245 614 2668 70 2668 
L 70 2560 
L 627 2560 
L 627 771 
C 627 650 627 -64 1370 -64 
C 1747 -64 1965 306 1965 777 
L 1965 1140 
L 1850 1140 
L 1850 783 
C 1850 344 1677 51 1408 51 
C 1222 51 966 178 966 758 
L 966 2560 
z
" transform="scale(0.015625)"/>
       <path id="CMR17-6e" d="M 2656 1933 
C 2656 2259 2592 2790 1837 2790 
C 1331 2790 1069 2400 973 2144 
L 966 2144 
L 966 2790 
L 211 2720 
L 211 2554 
C 589 2554 646 2515 646 2208 
L 646 428 
C 646 184 621 153 211 153 
L 211 -13 
C 365 0 646 0 813 0 
C 979 0 1267 0 1421 -13 
L 1421 153 
C 1011 153 986 178 986 428 
L 986 1658 
C 986 2247 1344 2688 1792 2688 
C 2266 2688 2317 2266 2317 1958 
L 2317 428 
C 2317 184 2291 153 1882 153 
L 1882 -13 
C 2035 0 2317 0 2483 0 
C 2650 0 2938 0 3091 -13 
L 3091 153 
C 2682 153 2656 178 2656 428 
L 2656 1933 
z
" transform="scale(0.015625)"/>
       <path id="CMR17-78" d="M 1664 1477 
C 1856 1726 2074 2006 2253 2216 
C 2464 2458 2707 2560 2989 2560 
L 2989 2726 
C 2880 2726 2656 2726 2541 2726 
C 2368 2726 2170 2726 2022 2732 
L 2022 2566 
C 2112 2553 2163 2489 2163 2400 
C 2163 2285 2099 2215 2067 2171 
L 1594 1573 
L 1030 2306 
C 973 2376 973 2388 973 2420 
C 973 2497 1037 2560 1146 2560 
L 1146 2732 
C 992 2726 717 2726 557 2726 
C 384 2726 179 2726 38 2732 
L 38 2560 
C 384 2560 461 2534 614 2343 
L 1350 1395 
C 1363 1382 1395 1344 1395 1325 
C 1395 1299 838 619 768 530 
C 480 185 179 160 6 160 
L 6 0 
C 115 0 339 0 454 0 
C 582 0 864 0 979 -6 
L 979 160 
C 941 166 838 179 838 325 
C 838 440 890 510 947 586 
L 1478 1236 
L 2035 512 
C 2086 442 2163 346 2163 301 
C 2163 211 2086 160 1984 160 
L 1984 -6 
C 2138 0 2413 0 2573 0 
C 2746 0 2950 0 3091 -6 
L 3091 160 
C 2771 160 2675 172 2522 370 
L 1664 1477 
z
" transform="scale(0.015625)"/>
       <path id="CMR17-63" d="M 2234 2240 
C 2112 2240 1933 2240 1933 2017 
C 1933 1838 2080 1787 2163 1787 
C 2208 1787 2394 1807 2394 2024 
C 2394 2467 1958 2803 1466 2803 
C 787 2803 211 2178 211 1363 
C 211 516 813 -64 1466 -64 
C 2259 -64 2458 677 2458 748 
C 2458 774 2451 793 2406 793 
C 2362 793 2355 787 2330 703 
C 2163 180 1798 51 1523 51 
C 1114 51 621 427 621 1369 
C 621 2338 1094 2688 1472 2688 
C 1722 2688 2093 2573 2234 2240 
z
" transform="scale(0.015625)"/>
       <path id="CMR17-69" d="M 992 3909 
C 992 4049 877 4170 730 4170 
C 589 4170 467 4056 467 3909 
C 467 3769 582 3648 730 3648 
C 870 3648 992 3763 992 3909 
z
M 243 2706 
L 243 2541 
C 602 2541 653 2502 653 2197 
L 653 427 
C 653 184 627 153 218 153 
L 218 -13 
C 371 0 646 0 806 0 
C 960 0 1222 0 1370 -13 
L 1370 153 
C 992 153 979 191 979 420 
L 979 2776 
L 243 2706 
z
" transform="scale(0.015625)"/>
       <path id="CMR17-6c" d="M 979 4396 
L 218 4326 
L 218 4160 
C 595 4160 653 4122 653 3817 
L 653 426 
C 653 184 627 153 218 153 
L 218 -13 
C 371 0 653 0 813 0 
C 979 0 1261 0 1414 -13 
L 1414 153 
C 1005 153 979 178 979 426 
L 979 4396 
z
" transform="scale(0.015625)"/>
       <path id="CMR17-75" d="M 1882 2693 
L 1882 2528 
C 2259 2528 2317 2489 2317 2186 
L 2317 1032 
C 2317 500 2029 38 1555 38 
C 1030 38 986 348 986 678 
L 986 2763 
L 211 2693 
L 211 2528 
C 467 2528 640 2528 646 2274 
L 646 1058 
C 646 633 646 361 813 183 
C 896 101 1056 -64 1517 -64 
C 2061 -64 2272 377 2323 506 
L 2330 506 
L 2330 -63 
L 3091 -63 
L 3091 128 
C 2714 128 2656 166 2656 473 
L 2656 2763 
L 1882 2693 
z
" transform="scale(0.015625)"/>
       <path id="CMR17-66" d="M 979 2560 
L 1709 2560 
L 1709 2725 
L 966 2725 
L 966 3494 
C 966 4022 1235 4352 1510 4352 
C 1594 4352 1690 4327 1754 4282 
C 1702 4269 1568 4225 1568 4067 
C 1568 3901 1696 3850 1786 3850 
C 1875 3850 2003 3901 2003 4067 
C 2003 4308 1773 4454 1517 4454 
C 1152 4454 653 4156 653 3481 
L 653 2725 
L 141 2725 
L 141 2560 
L 653 2560 
L 653 427 
C 653 184 627 153 218 153 
L 218 -13 
C 371 0 666 0 832 0 
C 1018 0 1344 0 1517 -13 
L 1517 153 
C 1056 153 979 153 979 439 
L 979 2560 
z
" transform="scale(0.015625)"/>
       <path id="CMR17-c" d="M 2554 2764 
C 2400 2764 1926 2764 1805 2739 
C 1766 2725 1754 2725 1677 2725 
L 947 2725 
L 947 3469 
C 947 4073 1434 4352 1818 4352 
C 1939 4352 2214 4320 2355 4101 
C 2291 4101 2086 4101 2086 3878 
C 2086 3725 2189 3648 2317 3648 
C 2432 3648 2547 3712 2547 3885 
C 2547 4205 2240 4454 1843 4454 
C 1338 4454 634 4168 634 3469 
L 634 2725 
L 122 2725 
L 122 2560 
L 634 2560 
L 634 427 
C 634 184 608 153 198 153 
L 198 -13 
C 352 0 634 0 794 0 
C 960 0 1242 0 1395 -13 
L 1395 153 
C 986 153 960 178 960 427 
L 960 2560 
L 1901 2560 
C 2176 2560 2227 2502 2227 2222 
L 2227 427 
C 2227 184 2202 153 1792 153 
L 1792 -13 
C 1946 0 2227 0 2387 0 
C 2554 0 2835 0 2989 -13 
L 2989 153 
C 2579 153 2554 178 2554 427 
L 2554 2764 
z
" transform="scale(0.015625)"/>
       <path id="CMR17-73" d="M 1978 2697 
C 1978 2813 1971 2819 1933 2819 
C 1907 2819 1901 2813 1824 2717 
C 1805 2691 1747 2626 1728 2601 
C 1523 2819 1235 2819 1126 2819 
C 416 2819 160 2447 160 2076 
C 160 1498 813 1365 998 1325 
C 1402 1243 1542 1217 1677 1101 
C 1760 1025 1901 884 1901 654 
C 1901 384 1747 38 1158 38 
C 602 38 403 460 288 1021 
C 269 1110 269 1117 218 1117 
C 166 1117 160 1110 160 983 
L 160 63 
C 160 -51 166 -58 205 -58 
C 237 -58 243 -51 275 0 
C 314 57 410 211 448 276 
C 576 103 800 -64 1158 -64 
C 1792 -64 2131 283 2131 784 
C 2131 1112 1958 1285 1875 1362 
C 1683 1561 1459 1606 1190 1657 
C 838 1735 390 1825 390 2217 
C 390 2383 480 2737 1126 2737 
C 1811 2737 1850 2094 1862 1888 
C 1869 1856 1901 1849 1920 1849 
C 1978 1849 1978 1869 1978 1978 
L 1978 2697 
z
" transform="scale(0.015625)"/>
       <path id="CMR17-62" d="M 960 4396 
L 198 4326 
L 198 4160 
C 576 4160 634 4122 634 3817 
L 634 -13 
L 749 -13 
L 934 441 
C 1120 141 1395 -64 1766 -64 
C 2406 -64 3053 500 3053 1370 
C 3053 2188 2477 2790 1830 2790 
C 1434 2790 1152 2579 960 2330 
L 960 4396 
z
M 973 2004 
C 973 2118 973 2138 1062 2272 
C 1312 2657 1670 2688 1792 2688 
C 1984 2688 2643 2585 2643 1376 
C 2643 108 1888 38 1734 38 
C 1536 38 1248 114 1043 486 
C 973 608 973 621 973 735 
L 973 2004 
z
" transform="scale(0.015625)"/>
       <path id="CMR17-6d" d="M 4326 1933 
C 4326 2252 4269 2790 3507 2790 
C 3072 2790 2771 2496 2656 2151 
L 2650 2151 
C 2573 2676 2195 2790 1837 2790 
C 1331 2790 1069 2400 973 2144 
L 966 2144 
L 966 2790 
L 211 2720 
L 211 2554 
C 589 2554 646 2515 646 2208 
L 646 428 
C 646 184 621 153 211 153 
L 211 -13 
C 365 0 646 0 813 0 
C 979 0 1267 0 1421 -13 
L 1421 153 
C 1011 153 986 178 986 428 
L 986 1658 
C 986 2247 1344 2688 1792 2688 
C 2266 2688 2317 2266 2317 1958 
L 2317 428 
C 2317 184 2291 153 1882 153 
L 1882 -13 
C 2035 0 2317 0 2483 0 
C 2650 0 2938 0 3091 -13 
L 3091 153 
C 2682 153 2656 178 2656 428 
L 2656 1658 
C 2656 2247 3014 2688 3462 2688 
C 3936 2688 3987 2266 3987 1958 
L 3987 428 
C 3987 184 3962 153 3552 153 
L 3552 -13 
C 3706 0 3987 0 4154 0 
C 4320 0 4608 0 4762 -13 
L 4762 153 
C 4352 153 4326 178 4326 428 
L 4326 1933 
z
" transform="scale(0.015625)"/>
      </defs>
      <use xlink:href="#CMR17-41" transform="scale(0.996264)"/>
      <use xlink:href="#CMR17-76" transform="translate(69.07243 0) scale(0.996264)"/>
      <use xlink:href="#CMR17-65" transform="translate(114.762892 0) scale(0.996264)"/>
      <use xlink:href="#CMR17-72" transform="translate(155.248552 0) scale(0.996264)"/>
      <use xlink:href="#CMR17-61" transform="translate(190.52932 0) scale(0.996264)"/>
      <use xlink:href="#CMR17-67" transform="translate(236.219797 0) scale(0.996264)"/>
      <use xlink:href="#CMR17-65" transform="translate(281.910274 0) scale(0.996264)"/>
      <use xlink:href="#CMR17-70" transform="translate(352.471901 0) scale(0.996264)"/>
      <use xlink:href="#CMR17-68" transform="translate(403.367271 0) scale(0.996264)"/>
      <use xlink:href="#CMR17-6f" transform="translate(454.262641 0) scale(0.996264)"/>
      <use xlink:href="#CMR17-74" transform="translate(499.953118 0) scale(0.996264)"/>
      <use xlink:href="#CMR17-6f" transform="translate(535.233886 0) scale(0.996264)"/>
      <use xlink:href="#CMR17-6e" transform="translate(580.924363 0) scale(0.996264)"/>
      <use xlink:href="#CMR17-65" transform="translate(661.895699 0) scale(0.996264)"/>
      <use xlink:href="#CMR17-78" transform="translate(702.381359 0) scale(0.996264)"/>
      <use xlink:href="#CMR17-70" transform="translate(750.674275 0) scale(0.996264)"/>
      <use xlink:href="#CMR17-65" transform="translate(804.172084 0) scale(0.996264)"/>
      <use xlink:href="#CMR17-63" transform="translate(844.657744 0) scale(0.996264)"/>
      <use xlink:href="#CMR17-74" transform="translate(885.143404 0) scale(0.996264)"/>
      <use xlink:href="#CMR17-61" transform="translate(920.424172 0) scale(0.996264)"/>
      <use xlink:href="#CMR17-74" transform="translate(966.114649 0) scale(0.996264)"/>
      <use xlink:href="#CMR17-69" transform="translate(1001.395417 0) scale(0.996264)"/>
      <use xlink:href="#CMR17-6f" transform="translate(1026.266476 0) scale(0.996264)"/>
      <use xlink:href="#CMR17-6e" transform="translate(1071.956953 0) scale(0.996264)"/>
      <use xlink:href="#CMR17-76" transform="translate(1152.928289 0) scale(0.996264)"/>
      <use xlink:href="#CMR17-61" transform="translate(1196.016388 0) scale(0.996264)"/>
      <use xlink:href="#CMR17-6c" transform="translate(1241.706865 0) scale(0.996264)"/>
      <use xlink:href="#CMR17-75" transform="translate(1266.577924 0) scale(0.996264)"/>
      <use xlink:href="#CMR17-65" transform="translate(1317.473294 0) scale(0.996264)"/>
      <use xlink:href="#CMR17-61" transform="translate(1388.03492 0) scale(0.996264)"/>
      <use xlink:href="#CMR17-66" transform="translate(1433.725397 0) scale(0.996264)"/>
      <use xlink:href="#CMR17-74" transform="translate(1461.19891 0) scale(0.996264)"/>
      <use xlink:href="#CMR17-65" transform="translate(1496.479678 0) scale(0.996264)"/>
      <use xlink:href="#CMR17-72" transform="translate(1536.965338 0) scale(0.996264)"/>
      <use xlink:href="#CMR17-c" transform="translate(1602.322072 0) scale(0.996264)"/>
      <use xlink:href="#CMR17-72" transform="translate(1652.064296 0) scale(0.996264)"/>
      <use xlink:href="#CMR17-73" transform="translate(1687.345063 0) scale(0.996264)"/>
      <use xlink:href="#CMR17-74" transform="translate(1723.146401 0) scale(0.996264)"/>
      <use xlink:href="#CMR17-62" transform="translate(1788.503135 0) scale(0.996264)"/>
      <use xlink:href="#CMR17-75" transform="translate(1839.398505 0) scale(0.996264)"/>
      <use xlink:href="#CMR17-6d" transform="translate(1890.293875 0) scale(0.996264)"/>
      <use xlink:href="#CMR17-70" transform="translate(1967.213465 0) scale(0.996264)"/>
     </g>
    </g>
   </g>
   <g id="line2d_17">
    <path d="M 63.368328 362.81071 
L 71.805622 356.980352 
L 80.242915 351.149993 
L 88.680209 345.319634 
L 97.117503 339.489275 
L 105.554797 333.658916 
L 113.992091 327.828557 
L 122.429384 321.998198 
L 130.866678 316.167839 
L 139.303972 310.33748 
L 147.741266 304.507122 
L 156.17856 298.676763 
L 164.615853 292.846404 
L 173.053147 287.016045 
L 181.490441 281.185686 
L 189.927735 275.355327 
L 198.365029 269.524968 
L 206.802322 263.694609 
L 215.239616 257.864251 
L 223.67691 252.033892 
L 232.114204 246.203533 
L 240.551498 240.373174 
L 248.988791 234.542815 
L 257.426085 228.712456 
L 265.863379 222.882097 
L 274.300673 217.051738 
L 282.737967 211.221379 
L 291.17526 205.391021 
L 299.612554 199.560662 
L 308.049848 193.730303 
L 316.487142 187.899944 
L 324.924436 182.069585 
L 333.361729 176.239226 
L 341.799023 170.408867 
L 350.236317 164.578508 
L 358.673611 158.74815 
L 367.110904 152.917791 
L 375.548198 147.087432 
L 383.985492 141.257073 
L 392.422786 135.426714 
L 400.86008 129.596355 
L 409.297373 123.765996 
L 417.734667 117.935637 
L 426.171961 112.105278 
L 434.609255 106.27492 
L 443.046549 100.444561 
L 451.483842 94.614202 
L 459.921136 88.783843 
L 468.35843 82.953484 
L 476.795724 77.123125 
L 485.233018 71.292766 
L 493.670311 65.462407 
L 502.107605 59.632048 
L 510.544899 53.80169 
L 518.982193 47.971331 
L 527.419487 42.140972 
L 535.85678 36.310613 
L 544.294074 30.480254 
L 552.731368 24.649895 
" clip-path="url(#p412c0d9b77)" style="fill: none; stroke: #32cd32; stroke-opacity: 0.6; stroke-width: 3; stroke-linecap: square"/>
   </g>
   <g id="line2d_18">
    <path d="M 63.368328 363.686621 
L 71.805622 358.294217 
L 80.242915 352.901814 
L 88.680209 347.50941 
L 97.117503 342.117007 
L 105.554797 336.724603 
L 113.992091 331.3322 
L 122.429384 325.939796 
L 130.866678 320.547392 
L 139.303972 315.154989 
L 147.741266 309.762585 
L 156.17856 304.370182 
L 164.615853 298.977778 
L 173.053147 293.585374 
L 181.490441 288.192971 
L 189.927735 282.800567 
L 198.365029 277.408164 
L 206.802322 272.01576 
L 215.239616 266.623357 
L 223.67691 261.230953 
L 232.114204 255.838549 
L 240.551498 250.446146 
L 248.988791 245.053742 
L 257.426085 239.661339 
L 265.863379 234.268935 
L 274.300673 228.876531 
L 282.737967 223.484128 
L 291.17526 218.091724 
L 299.612554 212.699321 
L 308.049848 207.306917 
L 316.487142 201.914514 
L 324.924436 196.52211 
L 333.361729 191.129706 
L 341.799023 185.737303 
L 350.236317 180.344899 
L 358.673611 174.952496 
L 367.110904 169.560092 
L 375.548198 164.167688 
L 383.985492 158.775285 
L 392.422786 153.382881 
L 400.86008 147.990478 
L 409.297373 142.598074 
L 417.734667 137.205671 
L 426.171961 131.813267 
L 434.609255 126.420863 
L 443.046549 121.02846 
L 451.483842 115.636056 
L 459.921136 110.243653 
L 468.35843 104.851249 
L 476.795724 99.458845 
L 485.233018 94.066442 
L 493.670311 88.674038 
L 502.107605 83.281635 
L 510.544899 77.889231 
L 518.982193 72.496828 
L 527.419487 67.104424 
L 535.85678 61.71202 
L 544.294074 56.319617 
L 552.731368 50.927213 
" clip-path="url(#p412c0d9b77)" style="fill: none; stroke: #1e90ff; stroke-opacity: 0.6; stroke-width: 3; stroke-linecap: square"/>
   </g>
   <g id="patch_3">
    <path d="M 38.900176 382.145609 
L 38.900176 7.2 
" style="fill: none; stroke: #000000; stroke-width: 0.8; stroke-linejoin: miter; stroke-linecap: square"/>
   </g>
   <g id="patch_4">
    <path d="M 577.19952 382.145609 
L 577.19952 7.2 
" style="fill: none; stroke: #000000; stroke-width: 0.8; stroke-linejoin: miter; stroke-linecap: square"/>
   </g>
   <g id="patch_5">
    <path d="M 38.900176 382.145609 
L 577.19952 382.145609 
" style="fill: none; stroke: #000000; stroke-width: 0.8; stroke-linejoin: miter; stroke-linecap: square"/>
   </g>
   <g id="patch_6">
    <path d="M 38.900176 7.2 
L 577.19952 7.2 
" style="fill: none; stroke: #000000; stroke-width: 0.8; stroke-linejoin: miter; stroke-linecap: square"/>
   </g>
   <g id="legend_1">
    <g id="patch_7">
     <path d="M 46.600176 77.323579 
L 169.04544 77.323579 
Q 171.24544 77.323579 171.24544 75.123579 
L 171.24544 14.9 
Q 171.24544 12.7 169.04544 12.7 
L 46.600176 12.7 
Q 44.400176 12.7 44.400176 14.9 
L 44.400176 75.123579 
Q 44.400176 77.323579 46.600176 77.323579 
z
" style="fill: #ffffff; opacity: 0.8; stroke: #cccccc; stroke-linejoin: miter"/>
    </g>
    <g id="line2d_19">
     <path d="M 48.800176 20.95 
L 59.800176 20.95 
L 70.800176 20.95 
" style="fill: none; stroke: #32cd32; stroke-opacity: 0.6; stroke-width: 3; stroke-linecap: square"/>
    </g>
    <g id="text_19">
     <!-- linear fit -->
     <g transform="translate(79.600176 24.8) scale(0.11 -0.11)">
      <use xlink:href="#CMR17-6c" transform="scale(0.996264)"/>
      <use xlink:href="#CMR17-69" transform="translate(24.871058 0) scale(0.996264)"/>
      <use xlink:href="#CMR17-6e" transform="translate(49.742117 0) scale(0.996264)"/>
      <use xlink:href="#CMR17-65" transform="translate(100.637487 0) scale(0.996264)"/>
      <use xlink:href="#CMR17-61" transform="translate(141.123147 0) scale(0.996264)"/>
      <use xlink:href="#CMR17-72" transform="translate(186.813624 0) scale(0.996264)"/>
      <use xlink:href="#CMR17-c" transform="translate(252.170358 0) scale(0.996264)"/>
      <use xlink:href="#CMR17-74" transform="translate(301.912582 0) scale(0.996264)"/>
     </g>
    </g>
    <g id="PathCollection_3">
     <g>
      <use xlink:href="#mc93a5a1a7f" x="59.800176" y="37.243395" style="fill: #32cd32; stroke: #32cd32"/>
     </g>
    </g>
    <g id="text_20">
     <!-- superradiant state -->
     <g transform="translate(79.600176 40.130895) scale(0.11 -0.11)">
      <defs>
       <path id="CMR17-64" d="M 1869 4326 
L 1869 4160 
C 2246 4160 2304 4122 2304 3820 
L 2304 2345 
C 2278 2377 2016 2790 1498 2790 
C 845 2790 211 2208 211 1364 
C 211 525 806 -64 1434 -64 
C 1978 -64 2259 337 2291 380 
L 2291 -63 
L 3066 -63 
L 3066 128 
C 2688 128 2630 166 2630 473 
L 2630 4396 
L 1869 4326 
z
M 2291 755 
C 2291 563 2176 390 2029 262 
C 1811 70 1594 38 1472 38 
C 1286 38 621 134 621 1356 
C 621 2612 1363 2688 1530 2688 
C 1824 2688 2061 2522 2208 2291 
C 2291 2157 2291 2138 2291 2023 
L 2291 755 
z
" transform="scale(0.015625)"/>
      </defs>
      <use xlink:href="#CMR17-73" transform="scale(0.996264)"/>
      <use xlink:href="#CMR17-75" transform="translate(35.801338 0) scale(0.996264)"/>
      <use xlink:href="#CMR17-70" transform="translate(86.696707 0) scale(0.996264)"/>
      <use xlink:href="#CMR17-65" transform="translate(140.194516 0) scale(0.996264)"/>
      <use xlink:href="#CMR17-72" transform="translate(180.680176 0) scale(0.996264)"/>
      <use xlink:href="#CMR17-72" transform="translate(215.960944 0) scale(0.996264)"/>
      <use xlink:href="#CMR17-61" transform="translate(251.241712 0) scale(0.996264)"/>
      <use xlink:href="#CMR17-64" transform="translate(296.932189 0) scale(0.996264)"/>
      <use xlink:href="#CMR17-69" transform="translate(347.827559 0) scale(0.996264)"/>
      <use xlink:href="#CMR17-61" transform="translate(372.698617 0) scale(0.996264)"/>
      <use xlink:href="#CMR17-6e" transform="translate(418.389094 0) scale(0.996264)"/>
      <use xlink:href="#CMR17-74" transform="translate(466.68201 0) scale(0.996264)"/>
      <use xlink:href="#CMR17-73" transform="translate(532.038744 0) scale(0.996264)"/>
      <use xlink:href="#CMR17-74" transform="translate(567.840082 0) scale(0.996264)"/>
      <use xlink:href="#CMR17-61" transform="translate(603.12085 0) scale(0.996264)"/>
      <use xlink:href="#CMR17-74" transform="translate(648.811327 0) scale(0.996264)"/>
      <use xlink:href="#CMR17-65" transform="translate(684.092095 0) scale(0.996264)"/>
     </g>
    </g>
    <g id="line2d_20">
     <path d="M 48.800176 51.611789 
L 59.800176 51.611789 
L 70.800176 51.611789 
" style="fill: none; stroke: #1e90ff; stroke-opacity: 0.6; stroke-width: 3; stroke-linecap: square"/>
    </g>
    <g id="text_21">
     <!-- linear fit -->
     <g transform="translate(79.600176 55.461789) scale(0.11 -0.11)">
      <use xlink:href="#CMR17-6c" transform="scale(0.996264)"/>
      <use xlink:href="#CMR17-69" transform="translate(24.871058 0) scale(0.996264)"/>
      <use xlink:href="#CMR17-6e" transform="translate(49.742117 0) scale(0.996264)"/>
      <use xlink:href="#CMR17-65" transform="translate(100.637487 0) scale(0.996264)"/>
      <use xlink:href="#CMR17-61" transform="translate(141.123147 0) scale(0.996264)"/>
      <use xlink:href="#CMR17-72" transform="translate(186.813624 0) scale(0.996264)"/>
      <use xlink:href="#CMR17-c" transform="translate(252.170358 0) scale(0.996264)"/>
      <use xlink:href="#CMR17-74" transform="translate(301.912582 0) scale(0.996264)"/>
     </g>
    </g>
    <g id="PathCollection_4">
     <g>
      <use xlink:href="#m62427b37b5" x="59.800176" y="67.905184" style="fill: #1e90ff; stroke: #1e90ff"/>
     </g>
    </g>
    <g id="text_22">
     <!-- excited state -->
     <g transform="translate(79.600176 70.792684) scale(0.11 -0.11)">
      <use xlink:href="#CMR17-65" transform="scale(0.996264)"/>
      <use xlink:href="#CMR17-78" transform="translate(40.48566 0) scale(0.996264)"/>
      <use xlink:href="#CMR17-63" transform="translate(88.778576 0) scale(0.996264)"/>
      <use xlink:href="#CMR17-69" transform="translate(129.264237 0) scale(0.996264)"/>
      <use xlink:href="#CMR17-74" transform="translate(154.135295 0) scale(0.996264)"/>
      <use xlink:href="#CMR17-65" transform="translate(189.416063 0) scale(0.996264)"/>
      <use xlink:href="#CMR17-64" transform="translate(229.901724 0) scale(0.996264)"/>
      <use xlink:href="#CMR17-73" transform="translate(310.87306 0) scale(0.996264)"/>
      <use xlink:href="#CMR17-74" transform="translate(346.674397 0) scale(0.996264)"/>
      <use xlink:href="#CMR17-61" transform="translate(381.955165 0) scale(0.996264)"/>
      <use xlink:href="#CMR17-74" transform="translate(427.645642 0) scale(0.996264)"/>
      <use xlink:href="#CMR17-65" transform="translate(462.92641 0) scale(0.996264)"/>
     </g>
    </g>
   </g>
  </g>
 </g>
 <defs>
  <clipPath id="p412c0d9b77">
   <rect x="38.900176" y="7.2" width="538.299344" height="374.945609"/>
  </clipPath>
 </defs>
</svg>
