<?xml version="1.0" encoding="utf-8" standalone="no"?>
<!DOCTYPE svg PUBLIC "-//W3C//DTD SVG 1.1//EN"
  "http://www.w3.org/Graphics/SVG/1.1/DTD/svg11.dtd">
<svg xmlns:xlink="http://www.w3.org/1999/xlink" width="584.39952pt" height="151.115386pt" viewBox="0 0 584.39952 151.115386" xmlns="http://www.w3.org/2000/svg" version="1.1">
 <metadata>
  <rdf:RDF xmlns:dc="http://purl.org/dc/elements/1.1/" xmlns:cc="http://creativecommons.org/ns#" xmlns:rdf="http://www.w3.org/1999/02/22-rdf-syntax-ns#">
   <cc:Work>
    <dc:type rdf:resource="http://purl.org/dc/dcmitype/StillImage"/>
    <dc:date>2025-01-16T18:31:51.865127</dc:date>
    <dc:format>image/svg+xml</dc:format>
    <dc:creator>
     <cc:Agent>
      <dc:title>Matplotlib v3.10.0, https://matplotlib.org/</dc:title>
     </cc:Agent>
    </dc:creator>
   </cc:Work>
  </rdf:RDF>
 </metadata>
 <defs>
  <style type="text/css">*{stroke-linejoin: round; stroke-linecap: butt}</style>
 </defs>
 <g id="figure_1">
  <g id="patch_1">
   <path d="M 0 151.115386 
L 584.39952 151.115386 
L 584.39952 0 
L 0 0 
z
" style="fill: #ffffff"/>
  </g>
  <g id="axes_1">
   <g id="patch_2">
    <path d="M 44.379643 113.432903 
L 577.19952 113.432903 
L 577.19952 7.2 
L 44.379643 7.2 
z
" style="fill: #ffffff"/>
   </g>
   <g id="FillBetweenPolyCollection_1">
    <defs>
     <path id="m7d08d1ddf3" d="M 68.598728 -42.613137 
L 68.598728 -42.613708 
L 76.950137 -42.794883 
L 85.301546 -43.02805 
L 93.652955 -43.313213 
L 102.004363 -43.650375 
L 110.355772 -44.039536 
L 118.707181 -44.480697 
L 127.05859 -44.973858 
L 135.409998 -45.519021 
L 143.761407 -46.116184 
L 152.112816 -46.765349 
L 160.464224 -47.466515 
L 168.815633 -48.219683 
L 177.167042 -49.024853 
L 185.518451 -49.882024 
L 193.869859 -50.791198 
L 202.221268 -51.752373 
L 210.572677 -52.765551 
L 218.924086 -53.83073 
L 227.275494 -54.947912 
L 235.626903 -56.117096 
L 243.978312 -57.338282 
L 252.32972 -58.611471 
L 260.681129 -59.936662 
L 269.032538 -61.313855 
L 277.383947 -62.74305 
L 285.735355 -64.224248 
L 294.086764 -65.757448 
L 302.438173 -67.342651 
L 310.789582 -68.979856 
L 319.14099 -70.669063 
L 327.492399 -72.410273 
L 335.843808 -74.203486 
L 344.195216 -76.048701 
L 352.546625 -77.945918 
L 360.898034 -79.895138 
L 369.249443 -81.89636 
L 377.600851 -83.949585 
L 385.95226 -86.054812 
L 394.303669 -88.212042 
L 402.655078 -90.421274 
L 411.006486 -92.682509 
L 419.357895 -94.995746 
L 427.709304 -97.360986 
L 436.060712 -99.778229 
L 444.412121 -102.247474 
L 452.76353 -104.768722 
L 461.114939 -107.341972 
L 469.466347 -109.967225 
L 477.817756 -112.64448 
L 486.169165 -115.373738 
L 494.520574 -118.154998 
L 502.871982 -120.988262 
L 511.223391 -123.873527 
L 519.5748 -126.810796 
L 527.926209 -129.800067 
L 536.277617 -132.84134 
L 544.629026 -135.934616 
L 552.980435 -139.079895 
L 552.980435 -139.076726 
L 552.980435 -139.076726 
L 544.629026 -135.931475 
L 536.277617 -132.838226 
L 527.926209 -129.79698 
L 519.5748 -126.807737 
L 511.223391 -123.870497 
L 502.871982 -120.98526 
L 494.520574 -118.152025 
L 486.169165 -115.370793 
L 477.817756 -112.641565 
L 469.466347 -109.964339 
L 461.114939 -107.339115 
L 452.76353 -104.765895 
L 444.412121 -102.244678 
L 436.060712 -99.775463 
L 427.709304 -97.358251 
L 419.357895 -94.993043 
L 411.006486 -92.679837 
L 402.655078 -90.418634 
L 394.303669 -88.209434 
L 385.95226 -86.052236 
L 377.600851 -83.947042 
L 369.249443 -81.893851 
L 360.898034 -79.892662 
L 352.546625 -77.943477 
L 344.195216 -76.046294 
L 335.843808 -74.201114 
L 327.492399 -72.407938 
L 319.14099 -70.666764 
L 310.789582 -68.977593 
L 302.438173 -67.340425 
L 294.086764 -65.755261 
L 285.735355 -64.222099 
L 277.383947 -62.74094 
L 269.032538 -61.311785 
L 260.681129 -59.934632 
L 252.32972 -58.609483 
L 243.978312 -57.336337 
L 235.626903 -56.115194 
L 227.275494 -54.946054 
L 218.924086 -53.828917 
L 210.572677 -52.763784 
L 202.221268 -51.750654 
L 193.869859 -50.789527 
L 185.518451 -49.880404 
L 177.167042 -49.023284 
L 168.815633 -48.218168 
L 160.464224 -47.465056 
L 152.112816 -46.763947 
L 143.761407 -46.114842 
L 135.409998 -45.517742 
L 127.05859 -44.972645 
L 118.707181 -44.479553 
L 110.355772 -44.038467 
L 102.004363 -43.649385 
L 93.652955 -43.31231 
L 85.301546 -43.027242 
L 76.950137 -42.794183 
L 68.598728 -42.613137 
z
" style="stroke: #32cd32; stroke-opacity: 0.3"/>
    </defs>
    <g clip-path="url(#p3d38845a62)">
     <use xlink:href="#m7d08d1ddf3" x="0" y="151.115386" style="fill: #32cd32; fill-opacity: 0.3; stroke: #32cd32; stroke-opacity: 0.3"/>
    </g>
   </g>
   <g id="PathCollection_1">
    <defs>
     <path id="md004b49735" d="M 0 2.236068 
C 0.593012 2.236068 1.161816 2.000462 1.581139 1.581139 
C 2.000462 1.161816 2.236068 0.593012 2.236068 0 
C 2.236068 -0.593012 2.000462 -1.161816 1.581139 -1.581139 
C 1.161816 -2.000462 0.593012 -2.236068 0 -2.236068 
C -0.593012 -2.236068 -1.161816 -2.000462 -1.581139 -1.581139 
C -2.000462 -1.161816 -2.236068 -0.593012 -2.236068 0 
C -2.236068 0.593012 -2.000462 1.161816 -1.581139 1.581139 
C -1.161816 2.000462 -0.593012 2.236068 0 2.236068 
z
" style="stroke: #32cd32; stroke-opacity: 0.7"/>
    </defs>
    <g clip-path="url(#p3d38845a62)">
     <use xlink:href="#md004b49735" x="68.598728" y="108.500263" style="fill: #32cd32; fill-opacity: 0.7; stroke: #32cd32; stroke-opacity: 0.7"/>
     <use xlink:href="#md004b49735" x="76.950137" y="108.344287" style="fill: #32cd32; fill-opacity: 0.7; stroke: #32cd32; stroke-opacity: 0.7"/>
     <use xlink:href="#md004b49735" x="85.301546" y="108.084437" style="fill: #32cd32; fill-opacity: 0.7; stroke: #32cd32; stroke-opacity: 0.7"/>
     <use xlink:href="#md004b49735" x="93.652955" y="107.824507" style="fill: #32cd32; fill-opacity: 0.7; stroke: #32cd32; stroke-opacity: 0.7"/>
     <use xlink:href="#md004b49735" x="102.004363" y="107.460699" style="fill: #32cd32; fill-opacity: 0.7; stroke: #32cd32; stroke-opacity: 0.7"/>
     <use xlink:href="#md004b49735" x="110.355772" y="107.096815" style="fill: #32cd32; fill-opacity: 0.7; stroke: #32cd32; stroke-opacity: 0.7"/>
     <use xlink:href="#md004b49735" x="118.707181" y="106.629049" style="fill: #32cd32; fill-opacity: 0.7; stroke: #32cd32; stroke-opacity: 0.7"/>
     <use xlink:href="#md004b49735" x="127.05859" y="106.161211" style="fill: #32cd32; fill-opacity: 0.7; stroke: #32cd32; stroke-opacity: 0.7"/>
     <use xlink:href="#md004b49735" x="135.409998" y="105.589485" style="fill: #32cd32; fill-opacity: 0.7; stroke: #32cd32; stroke-opacity: 0.7"/>
     <use xlink:href="#md004b49735" x="143.761407" y="105.017694" style="fill: #32cd32; fill-opacity: 0.7; stroke: #32cd32; stroke-opacity: 0.7"/>
     <use xlink:href="#md004b49735" x="152.112816" y="104.342009" style="fill: #32cd32; fill-opacity: 0.7; stroke: #32cd32; stroke-opacity: 0.7"/>
     <use xlink:href="#md004b49735" x="160.464224" y="103.666266" style="fill: #32cd32; fill-opacity: 0.7; stroke: #32cd32; stroke-opacity: 0.7"/>
     <use xlink:href="#md004b49735" x="168.815633" y="102.88662" style="fill: #32cd32; fill-opacity: 0.7; stroke: #32cd32; stroke-opacity: 0.7"/>
     <use xlink:href="#md004b49735" x="177.167042" y="102.106926" style="fill: #32cd32; fill-opacity: 0.7; stroke: #32cd32; stroke-opacity: 0.7"/>
     <use xlink:href="#md004b49735" x="185.518451" y="101.223318" style="fill: #32cd32; fill-opacity: 0.7; stroke: #32cd32; stroke-opacity: 0.7"/>
     <use xlink:href="#md004b49735" x="193.869859" y="100.339673" style="fill: #32cd32; fill-opacity: 0.7; stroke: #32cd32; stroke-opacity: 0.7"/>
     <use xlink:href="#md004b49735" x="202.221268" y="99.352104" style="fill: #32cd32; fill-opacity: 0.7; stroke: #32cd32; stroke-opacity: 0.7"/>
     <use xlink:href="#md004b49735" x="210.572677" y="98.364509" style="fill: #32cd32; fill-opacity: 0.7; stroke: #32cd32; stroke-opacity: 0.7"/>
     <use xlink:href="#md004b49735" x="218.924086" y="97.272977" style="fill: #32cd32; fill-opacity: 0.7; stroke: #32cd32; stroke-opacity: 0.7"/>
     <use xlink:href="#md004b49735" x="227.275494" y="96.181433" style="fill: #32cd32; fill-opacity: 0.7; stroke: #32cd32; stroke-opacity: 0.7"/>
     <use xlink:href="#md004b49735" x="235.626903" y="94.985937" style="fill: #32cd32; fill-opacity: 0.7; stroke: #32cd32; stroke-opacity: 0.7"/>
     <use xlink:href="#md004b49735" x="243.978312" y="93.790444" style="fill: #32cd32; fill-opacity: 0.7; stroke: #32cd32; stroke-opacity: 0.7"/>
     <use xlink:href="#md004b49735" x="252.32972" y="92.490985" style="fill: #32cd32; fill-opacity: 0.7; stroke: #32cd32; stroke-opacity: 0.7"/>
     <use xlink:href="#md004b49735" x="260.681129" y="91.191543" style="fill: #32cd32; fill-opacity: 0.7; stroke: #32cd32; stroke-opacity: 0.7"/>
     <use xlink:href="#md004b49735" x="269.032538" y="89.78812" style="fill: #32cd32; fill-opacity: 0.7; stroke: #32cd32; stroke-opacity: 0.7"/>
     <use xlink:href="#md004b49735" x="277.383947" y="88.384731" style="fill: #32cd32; fill-opacity: 0.7; stroke: #32cd32; stroke-opacity: 0.7"/>
     <use xlink:href="#md004b49735" x="285.735355" y="86.877342" style="fill: #32cd32; fill-opacity: 0.7; stroke: #32cd32; stroke-opacity: 0.7"/>
     <use xlink:href="#md004b49735" x="294.086764" y="85.370006" style="fill: #32cd32; fill-opacity: 0.7; stroke: #32cd32; stroke-opacity: 0.7"/>
     <use xlink:href="#md004b49735" x="302.438173" y="83.758651" style="fill: #32cd32; fill-opacity: 0.7; stroke: #32cd32; stroke-opacity: 0.7"/>
     <use xlink:href="#md004b49735" x="310.789582" y="82.14737" style="fill: #32cd32; fill-opacity: 0.7; stroke: #32cd32; stroke-opacity: 0.7"/>
     <use xlink:href="#md004b49735" x="319.14099" y="80.432048" style="fill: #32cd32; fill-opacity: 0.7; stroke: #32cd32; stroke-opacity: 0.7"/>
     <use xlink:href="#md004b49735" x="327.492399" y="78.716821" style="fill: #32cd32; fill-opacity: 0.7; stroke: #32cd32; stroke-opacity: 0.7"/>
     <use xlink:href="#md004b49735" x="335.843808" y="76.897532" style="fill: #32cd32; fill-opacity: 0.7; stroke: #32cd32; stroke-opacity: 0.7"/>
     <use xlink:href="#md004b49735" x="344.195216" y="75.07836" style="fill: #32cd32; fill-opacity: 0.7; stroke: #32cd32; stroke-opacity: 0.7"/>
     <use xlink:href="#md004b49735" x="352.546625" y="73.155103" style="fill: #32cd32; fill-opacity: 0.7; stroke: #32cd32; stroke-opacity: 0.7"/>
     <use xlink:href="#md004b49735" x="360.898034" y="71.231987" style="fill: #32cd32; fill-opacity: 0.7; stroke: #32cd32; stroke-opacity: 0.7"/>
     <use xlink:href="#md004b49735" x="369.249443" y="69.204762" style="fill: #32cd32; fill-opacity: 0.7; stroke: #32cd32; stroke-opacity: 0.7"/>
     <use xlink:href="#md004b49735" x="377.600851" y="67.177702" style="fill: #32cd32; fill-opacity: 0.7; stroke: #32cd32; stroke-opacity: 0.7"/>
     <use xlink:href="#md004b49735" x="385.95226" y="65.046508" style="fill: #32cd32; fill-opacity: 0.7; stroke: #32cd32; stroke-opacity: 0.7"/>
     <use xlink:href="#md004b49735" x="394.303669" y="62.915505" style="fill: #32cd32; fill-opacity: 0.7; stroke: #32cd32; stroke-opacity: 0.7"/>
     <use xlink:href="#md004b49735" x="402.655078" y="60.680341" style="fill: #32cd32; fill-opacity: 0.7; stroke: #32cd32; stroke-opacity: 0.7"/>
     <use xlink:href="#md004b49735" x="411.006486" y="58.445397" style="fill: #32cd32; fill-opacity: 0.7; stroke: #32cd32; stroke-opacity: 0.7"/>
     <use xlink:href="#md004b49735" x="419.357895" y="56.106262" style="fill: #32cd32; fill-opacity: 0.7; stroke: #32cd32; stroke-opacity: 0.7"/>
     <use xlink:href="#md004b49735" x="427.709304" y="53.767376" style="fill: #32cd32; fill-opacity: 0.7; stroke: #32cd32; stroke-opacity: 0.7"/>
     <use xlink:href="#md004b49735" x="436.060712" y="51.32427" style="fill: #32cd32; fill-opacity: 0.7; stroke: #32cd32; stroke-opacity: 0.7"/>
     <use xlink:href="#md004b49735" x="444.412121" y="48.881442" style="fill: #32cd32; fill-opacity: 0.7; stroke: #32cd32; stroke-opacity: 0.7"/>
     <use xlink:href="#md004b49735" x="452.76353" y="46.334365" style="fill: #32cd32; fill-opacity: 0.7; stroke: #32cd32; stroke-opacity: 0.7"/>
     <use xlink:href="#md004b49735" x="461.114939" y="43.787597" style="fill: #32cd32; fill-opacity: 0.7; stroke: #32cd32; stroke-opacity: 0.7"/>
     <use xlink:href="#md004b49735" x="469.466347" y="41.136547" style="fill: #32cd32; fill-opacity: 0.7; stroke: #32cd32; stroke-opacity: 0.7"/>
     <use xlink:href="#md004b49735" x="477.817756" y="38.48584" style="fill: #32cd32; fill-opacity: 0.7; stroke: #32cd32; stroke-opacity: 0.7"/>
     <use xlink:href="#md004b49735" x="486.169165" y="35.730817" style="fill: #32cd32; fill-opacity: 0.7; stroke: #32cd32; stroke-opacity: 0.7"/>
     <use xlink:href="#md004b49735" x="494.520574" y="32.976171" style="fill: #32cd32; fill-opacity: 0.7; stroke: #32cd32; stroke-opacity: 0.7"/>
     <use xlink:href="#md004b49735" x="502.871982" y="30.117174" style="fill: #32cd32; fill-opacity: 0.7; stroke: #32cd32; stroke-opacity: 0.7"/>
     <use xlink:href="#md004b49735" x="511.223391" y="27.25859" style="fill: #32cd32; fill-opacity: 0.7; stroke: #32cd32; stroke-opacity: 0.7"/>
     <use xlink:href="#md004b49735" x="519.5748" y="24.295618" style="fill: #32cd32; fill-opacity: 0.7; stroke: #32cd32; stroke-opacity: 0.7"/>
     <use xlink:href="#md004b49735" x="527.926209" y="21.333096" style="fill: #32cd32; fill-opacity: 0.7; stroke: #32cd32; stroke-opacity: 0.7"/>
     <use xlink:href="#md004b49735" x="536.277617" y="18.266149" style="fill: #32cd32; fill-opacity: 0.7; stroke: #32cd32; stroke-opacity: 0.7"/>
     <use xlink:href="#md004b49735" x="544.629026" y="15.199691" style="fill: #32cd32; fill-opacity: 0.7; stroke: #32cd32; stroke-opacity: 0.7"/>
     <use xlink:href="#md004b49735" x="552.980435" y="12.028768" style="fill: #32cd32; fill-opacity: 0.7; stroke: #32cd32; stroke-opacity: 0.7"/>
    </g>
   </g>
   <g id="FillBetweenPolyCollection_2">
    <defs>
     <path id="m69d2a8d639" d="M 68.598728 -42.511251 
L 68.598728 -42.511251 
L 76.950137 -42.563271 
L 85.301546 -42.615292 
L 93.652955 -42.667312 
L 102.004363 -42.719332 
L 110.355772 -42.771353 
L 118.707181 -42.823373 
L 127.05859 -42.875393 
L 135.409998 -42.927413 
L 143.761407 -42.979433 
L 152.112816 -43.031453 
L 160.464224 -43.083473 
L 168.815633 -43.135492 
L 177.167042 -43.187512 
L 185.518451 -43.239532 
L 193.869859 -43.291551 
L 202.221268 -43.343571 
L 210.572677 -43.395591 
L 218.924086 -43.44761 
L 227.275494 -43.499629 
L 235.626903 -43.551649 
L 243.978312 -43.603668 
L 252.32972 -43.655687 
L 260.681129 -43.707707 
L 269.032538 -43.759726 
L 277.383947 -43.811745 
L 285.735355 -43.863764 
L 294.086764 -43.915783 
L 302.438173 -43.967802 
L 310.789582 -44.019821 
L 319.14099 -44.071839 
L 327.492399 -44.123858 
L 335.843808 -44.175877 
L 344.195216 -44.227895 
L 352.546625 -44.279914 
L 360.898034 -44.331933 
L 369.249443 -44.383951 
L 377.600851 -44.435969 
L 385.95226 -44.487988 
L 394.303669 -44.540006 
L 402.655078 -44.592024 
L 411.006486 -44.644043 
L 419.357895 -44.696061 
L 427.709304 -44.748079 
L 436.060712 -44.800097 
L 444.412121 -44.852115 
L 452.76353 -44.904133 
L 461.114939 -44.956151 
L 469.466347 -45.008168 
L 477.817756 -45.060186 
L 486.169165 -45.112204 
L 494.520574 -45.164221 
L 502.871982 -45.216239 
L 511.223391 -45.268257 
L 519.5748 -45.320274 
L 527.926209 -45.372292 
L 536.277617 -45.424309 
L 544.629026 -45.476326 
L 552.980435 -45.528343 
L 552.980435 -45.528343 
L 552.980435 -45.528343 
L 544.629026 -45.476326 
L 536.277617 -45.424309 
L 527.926209 -45.372292 
L 519.5748 -45.320274 
L 511.223391 -45.268257 
L 502.871982 -45.216239 
L 494.520574 -45.164221 
L 486.169165 -45.112204 
L 477.817756 -45.060186 
L 469.466347 -45.008168 
L 461.114939 -44.956151 
L 452.76353 -44.904133 
L 444.412121 -44.852115 
L 436.060712 -44.800097 
L 427.709304 -44.748079 
L 419.357895 -44.696061 
L 411.006486 -44.644043 
L 402.655078 -44.592024 
L 394.303669 -44.540006 
L 385.95226 -44.487988 
L 377.600851 -44.435969 
L 369.249443 -44.383951 
L 360.898034 -44.331933 
L 352.546625 -44.279914 
L 344.195216 -44.227895 
L 335.843808 -44.175877 
L 327.492399 -44.123858 
L 319.14099 -44.071839 
L 310.789582 -44.019821 
L 302.438173 -43.967802 
L 294.086764 -43.915783 
L 285.735355 -43.863764 
L 277.383947 -43.811745 
L 269.032538 -43.759726 
L 260.681129 -43.707707 
L 252.32972 -43.655687 
L 243.978312 -43.603668 
L 235.626903 -43.551649 
L 227.275494 -43.499629 
L 218.924086 -43.44761 
L 210.572677 -43.395591 
L 202.221268 -43.343571 
L 193.869859 -43.291551 
L 185.518451 -43.239532 
L 177.167042 -43.187512 
L 168.815633 -43.135492 
L 160.464224 -43.083473 
L 152.112816 -43.031453 
L 143.761407 -42.979433 
L 135.409998 -42.927413 
L 127.05859 -42.875393 
L 118.707181 -42.823373 
L 110.355772 -42.771353 
L 102.004363 -42.719332 
L 93.652955 -42.667312 
L 85.301546 -42.615292 
L 76.950137 -42.563271 
L 68.598728 -42.511251 
z
" style="stroke: #1e90ff; stroke-opacity: 0.3"/>
    </defs>
    <g clip-path="url(#p3d38845a62)">
     <use xlink:href="#m69d2a8d639" x="0" y="151.115386" style="fill: #1e90ff; fill-opacity: 0.3; stroke: #1e90ff; stroke-opacity: 0.3"/>
    </g>
   </g>
   <g id="PathCollection_2">
    <defs>
     <path id="m2340ccae6c" d="M 0 -2.236068 
L -2.236068 2.236068 
L 2.236068 2.236068 
z
" style="stroke: #1e90ff; stroke-opacity: 0.7"/>
    </defs>
    <g clip-path="url(#p3d38845a62)">
     <use xlink:href="#m2340ccae6c" x="68.598728" y="108.604135" style="fill: #1e90ff; fill-opacity: 0.7; stroke: #1e90ff; stroke-opacity: 0.7"/>
     <use xlink:href="#m2340ccae6c" x="76.950137" y="108.552114" style="fill: #1e90ff; fill-opacity: 0.7; stroke: #1e90ff; stroke-opacity: 0.7"/>
     <use xlink:href="#m2340ccae6c" x="85.301546" y="108.500094" style="fill: #1e90ff; fill-opacity: 0.7; stroke: #1e90ff; stroke-opacity: 0.7"/>
     <use xlink:href="#m2340ccae6c" x="93.652955" y="108.448074" style="fill: #1e90ff; fill-opacity: 0.7; stroke: #1e90ff; stroke-opacity: 0.7"/>
     <use xlink:href="#m2340ccae6c" x="102.004363" y="108.396053" style="fill: #1e90ff; fill-opacity: 0.7; stroke: #1e90ff; stroke-opacity: 0.7"/>
     <use xlink:href="#m2340ccae6c" x="110.355772" y="108.344033" style="fill: #1e90ff; fill-opacity: 0.7; stroke: #1e90ff; stroke-opacity: 0.7"/>
     <use xlink:href="#m2340ccae6c" x="118.707181" y="108.292013" style="fill: #1e90ff; fill-opacity: 0.7; stroke: #1e90ff; stroke-opacity: 0.7"/>
     <use xlink:href="#m2340ccae6c" x="127.05859" y="108.239993" style="fill: #1e90ff; fill-opacity: 0.7; stroke: #1e90ff; stroke-opacity: 0.7"/>
     <use xlink:href="#m2340ccae6c" x="135.409998" y="108.187973" style="fill: #1e90ff; fill-opacity: 0.7; stroke: #1e90ff; stroke-opacity: 0.7"/>
     <use xlink:href="#m2340ccae6c" x="143.761407" y="108.135953" style="fill: #1e90ff; fill-opacity: 0.7; stroke: #1e90ff; stroke-opacity: 0.7"/>
     <use xlink:href="#m2340ccae6c" x="152.112816" y="108.083933" style="fill: #1e90ff; fill-opacity: 0.7; stroke: #1e90ff; stroke-opacity: 0.7"/>
     <use xlink:href="#m2340ccae6c" x="160.464224" y="108.031913" style="fill: #1e90ff; fill-opacity: 0.7; stroke: #1e90ff; stroke-opacity: 0.7"/>
     <use xlink:href="#m2340ccae6c" x="168.815633" y="107.979893" style="fill: #1e90ff; fill-opacity: 0.7; stroke: #1e90ff; stroke-opacity: 0.7"/>
     <use xlink:href="#m2340ccae6c" x="177.167042" y="107.927874" style="fill: #1e90ff; fill-opacity: 0.7; stroke: #1e90ff; stroke-opacity: 0.7"/>
     <use xlink:href="#m2340ccae6c" x="185.518451" y="107.875854" style="fill: #1e90ff; fill-opacity: 0.7; stroke: #1e90ff; stroke-opacity: 0.7"/>
     <use xlink:href="#m2340ccae6c" x="193.869859" y="107.823834" style="fill: #1e90ff; fill-opacity: 0.7; stroke: #1e90ff; stroke-opacity: 0.7"/>
     <use xlink:href="#m2340ccae6c" x="202.221268" y="107.771815" style="fill: #1e90ff; fill-opacity: 0.7; stroke: #1e90ff; stroke-opacity: 0.7"/>
     <use xlink:href="#m2340ccae6c" x="210.572677" y="107.719795" style="fill: #1e90ff; fill-opacity: 0.7; stroke: #1e90ff; stroke-opacity: 0.7"/>
     <use xlink:href="#m2340ccae6c" x="218.924086" y="107.667776" style="fill: #1e90ff; fill-opacity: 0.7; stroke: #1e90ff; stroke-opacity: 0.7"/>
     <use xlink:href="#m2340ccae6c" x="227.275494" y="107.615756" style="fill: #1e90ff; fill-opacity: 0.7; stroke: #1e90ff; stroke-opacity: 0.7"/>
     <use xlink:href="#m2340ccae6c" x="235.626903" y="107.563737" style="fill: #1e90ff; fill-opacity: 0.7; stroke: #1e90ff; stroke-opacity: 0.7"/>
     <use xlink:href="#m2340ccae6c" x="243.978312" y="107.511718" style="fill: #1e90ff; fill-opacity: 0.7; stroke: #1e90ff; stroke-opacity: 0.7"/>
     <use xlink:href="#m2340ccae6c" x="252.32972" y="107.459698" style="fill: #1e90ff; fill-opacity: 0.7; stroke: #1e90ff; stroke-opacity: 0.7"/>
     <use xlink:href="#m2340ccae6c" x="260.681129" y="107.407679" style="fill: #1e90ff; fill-opacity: 0.7; stroke: #1e90ff; stroke-opacity: 0.7"/>
     <use xlink:href="#m2340ccae6c" x="269.032538" y="107.35566" style="fill: #1e90ff; fill-opacity: 0.7; stroke: #1e90ff; stroke-opacity: 0.7"/>
     <use xlink:href="#m2340ccae6c" x="277.383947" y="107.303641" style="fill: #1e90ff; fill-opacity: 0.7; stroke: #1e90ff; stroke-opacity: 0.7"/>
     <use xlink:href="#m2340ccae6c" x="285.735355" y="107.251622" style="fill: #1e90ff; fill-opacity: 0.7; stroke: #1e90ff; stroke-opacity: 0.7"/>
     <use xlink:href="#m2340ccae6c" x="294.086764" y="107.199603" style="fill: #1e90ff; fill-opacity: 0.7; stroke: #1e90ff; stroke-opacity: 0.7"/>
     <use xlink:href="#m2340ccae6c" x="302.438173" y="107.147584" style="fill: #1e90ff; fill-opacity: 0.7; stroke: #1e90ff; stroke-opacity: 0.7"/>
     <use xlink:href="#m2340ccae6c" x="310.789582" y="107.095565" style="fill: #1e90ff; fill-opacity: 0.7; stroke: #1e90ff; stroke-opacity: 0.7"/>
     <use xlink:href="#m2340ccae6c" x="319.14099" y="107.043546" style="fill: #1e90ff; fill-opacity: 0.7; stroke: #1e90ff; stroke-opacity: 0.7"/>
     <use xlink:href="#m2340ccae6c" x="327.492399" y="106.991528" style="fill: #1e90ff; fill-opacity: 0.7; stroke: #1e90ff; stroke-opacity: 0.7"/>
     <use xlink:href="#m2340ccae6c" x="335.843808" y="106.939509" style="fill: #1e90ff; fill-opacity: 0.7; stroke: #1e90ff; stroke-opacity: 0.7"/>
     <use xlink:href="#m2340ccae6c" x="344.195216" y="106.88749" style="fill: #1e90ff; fill-opacity: 0.7; stroke: #1e90ff; stroke-opacity: 0.7"/>
     <use xlink:href="#m2340ccae6c" x="352.546625" y="106.835472" style="fill: #1e90ff; fill-opacity: 0.7; stroke: #1e90ff; stroke-opacity: 0.7"/>
     <use xlink:href="#m2340ccae6c" x="360.898034" y="106.783453" style="fill: #1e90ff; fill-opacity: 0.7; stroke: #1e90ff; stroke-opacity: 0.7"/>
     <use xlink:href="#m2340ccae6c" x="369.249443" y="106.731435" style="fill: #1e90ff; fill-opacity: 0.7; stroke: #1e90ff; stroke-opacity: 0.7"/>
     <use xlink:href="#m2340ccae6c" x="377.600851" y="106.679416" style="fill: #1e90ff; fill-opacity: 0.7; stroke: #1e90ff; stroke-opacity: 0.7"/>
     <use xlink:href="#m2340ccae6c" x="385.95226" y="106.627398" style="fill: #1e90ff; fill-opacity: 0.7; stroke: #1e90ff; stroke-opacity: 0.7"/>
     <use xlink:href="#m2340ccae6c" x="394.303669" y="106.575379" style="fill: #1e90ff; fill-opacity: 0.7; stroke: #1e90ff; stroke-opacity: 0.7"/>
     <use xlink:href="#m2340ccae6c" x="402.655078" y="106.523361" style="fill: #1e90ff; fill-opacity: 0.7; stroke: #1e90ff; stroke-opacity: 0.7"/>
     <use xlink:href="#m2340ccae6c" x="411.006486" y="106.471343" style="fill: #1e90ff; fill-opacity: 0.7; stroke: #1e90ff; stroke-opacity: 0.7"/>
     <use xlink:href="#m2340ccae6c" x="419.357895" y="106.419325" style="fill: #1e90ff; fill-opacity: 0.7; stroke: #1e90ff; stroke-opacity: 0.7"/>
     <use xlink:href="#m2340ccae6c" x="427.709304" y="106.367307" style="fill: #1e90ff; fill-opacity: 0.7; stroke: #1e90ff; stroke-opacity: 0.7"/>
     <use xlink:href="#m2340ccae6c" x="436.060712" y="106.315289" style="fill: #1e90ff; fill-opacity: 0.7; stroke: #1e90ff; stroke-opacity: 0.7"/>
     <use xlink:href="#m2340ccae6c" x="444.412121" y="106.263271" style="fill: #1e90ff; fill-opacity: 0.7; stroke: #1e90ff; stroke-opacity: 0.7"/>
     <use xlink:href="#m2340ccae6c" x="452.76353" y="106.211253" style="fill: #1e90ff; fill-opacity: 0.7; stroke: #1e90ff; stroke-opacity: 0.7"/>
     <use xlink:href="#m2340ccae6c" x="461.114939" y="106.159235" style="fill: #1e90ff; fill-opacity: 0.7; stroke: #1e90ff; stroke-opacity: 0.7"/>
     <use xlink:href="#m2340ccae6c" x="469.466347" y="106.107217" style="fill: #1e90ff; fill-opacity: 0.7; stroke: #1e90ff; stroke-opacity: 0.7"/>
     <use xlink:href="#m2340ccae6c" x="477.817756" y="106.055199" style="fill: #1e90ff; fill-opacity: 0.7; stroke: #1e90ff; stroke-opacity: 0.7"/>
     <use xlink:href="#m2340ccae6c" x="486.169165" y="106.003182" style="fill: #1e90ff; fill-opacity: 0.7; stroke: #1e90ff; stroke-opacity: 0.7"/>
     <use xlink:href="#m2340ccae6c" x="494.520574" y="105.951164" style="fill: #1e90ff; fill-opacity: 0.7; stroke: #1e90ff; stroke-opacity: 0.7"/>
     <use xlink:href="#m2340ccae6c" x="502.871982" y="105.899147" style="fill: #1e90ff; fill-opacity: 0.7; stroke: #1e90ff; stroke-opacity: 0.7"/>
     <use xlink:href="#m2340ccae6c" x="511.223391" y="105.847129" style="fill: #1e90ff; fill-opacity: 0.7; stroke: #1e90ff; stroke-opacity: 0.7"/>
     <use xlink:href="#m2340ccae6c" x="519.5748" y="105.795112" style="fill: #1e90ff; fill-opacity: 0.7; stroke: #1e90ff; stroke-opacity: 0.7"/>
     <use xlink:href="#m2340ccae6c" x="527.926209" y="105.743094" style="fill: #1e90ff; fill-opacity: 0.7; stroke: #1e90ff; stroke-opacity: 0.7"/>
     <use xlink:href="#m2340ccae6c" x="536.277617" y="105.691077" style="fill: #1e90ff; fill-opacity: 0.7; stroke: #1e90ff; stroke-opacity: 0.7"/>
     <use xlink:href="#m2340ccae6c" x="544.629026" y="105.639059" style="fill: #1e90ff; fill-opacity: 0.7; stroke: #1e90ff; stroke-opacity: 0.7"/>
     <use xlink:href="#m2340ccae6c" x="552.980435" y="105.587042" style="fill: #1e90ff; fill-opacity: 0.7; stroke: #1e90ff; stroke-opacity: 0.7"/>
    </g>
   </g>
   <g id="matplotlib.axis_1">
    <g id="xtick_1">
     <g id="line2d_1">
      <defs>
       <path id="mdc734f868c" d="M 0 0 
L 0 3.5 
" style="stroke: #000000; stroke-width: 0.8"/>
      </defs>
      <g>
       <use xlink:href="#mdc734f868c" x="51.895911" y="113.432903" style="stroke: #000000; stroke-width: 0.8"/>
      </g>
     </g>
     <g id="text_1">
      <!-- $\mathdefault{0}$ -->
      <g transform="translate(49.156177 128.04325) scale(0.11 -0.11)">
       <defs>
        <path id="CMR17-30" d="M 2688 2025 
C 2688 2416 2682 3080 2413 3591 
C 2176 4039 1798 4198 1466 4198 
C 1158 4198 768 4058 525 3597 
C 269 3118 243 2524 243 2025 
C 243 1661 250 1106 448 619 
C 723 -39 1216 -128 1466 -128 
C 1760 -128 2208 -7 2470 600 
C 2662 1042 2688 1559 2688 2025 
z
M 1466 -26 
C 1056 -26 813 325 723 812 
C 653 1188 653 1738 653 2096 
C 653 2588 653 2997 736 3387 
C 858 3929 1216 4096 1466 4096 
C 1728 4096 2067 3923 2189 3400 
C 2272 3036 2278 2607 2278 2096 
C 2278 1680 2278 1169 2202 792 
C 2067 95 1690 -26 1466 -26 
z
" transform="scale(0.015625)"/>
       </defs>
       <use xlink:href="#CMR17-30" transform="scale(0.996264)"/>
      </g>
     </g>
    </g>
    <g id="xtick_2">
     <g id="line2d_2">
      <g>
       <use xlink:href="#mdc734f868c" x="135.409998" y="113.432903" style="stroke: #000000; stroke-width: 0.8"/>
      </g>
     </g>
     <g id="text_2">
      <!-- $\mathdefault{10}$ -->
      <g transform="translate(129.930531 128.04325) scale(0.11 -0.11)">
       <defs>
        <path id="CMR17-31" d="M 1702 4058 
C 1702 4192 1696 4192 1606 4192 
C 1357 3916 979 3827 621 3827 
C 602 3827 570 3827 563 3808 
C 557 3795 557 3782 557 3648 
C 755 3648 1088 3686 1344 3839 
L 1344 461 
C 1344 236 1331 160 781 160 
L 589 160 
L 589 0 
C 896 0 1216 0 1523 0 
C 1830 0 2150 0 2458 0 
L 2458 160 
L 2266 160 
C 1715 160 1702 230 1702 458 
L 1702 4058 
z
" transform="scale(0.015625)"/>
       </defs>
       <use xlink:href="#CMR17-31" transform="scale(0.996264)"/>
       <use xlink:href="#CMR17-30" transform="translate(45.690477 0) scale(0.996264)"/>
      </g>
     </g>
    </g>
    <g id="xtick_3">
     <g id="line2d_3">
      <g>
       <use xlink:href="#mdc734f868c" x="218.924086" y="113.432903" style="stroke: #000000; stroke-width: 0.8"/>
      </g>
     </g>
     <g id="text_3">
      <!-- $\mathdefault{20}$ -->
      <g transform="translate(213.444618 128.04325) scale(0.11 -0.11)">
       <defs>
        <path id="CMR17-32" d="M 2669 989 
L 2554 989 
C 2490 536 2438 459 2413 420 
C 2381 369 1920 369 1830 369 
L 602 369 
C 832 619 1280 1072 1824 1597 
C 2214 1967 2669 2402 2669 3035 
C 2669 3790 2067 4224 1395 4224 
C 691 4224 262 3604 262 3030 
C 262 2780 448 2748 525 2748 
C 589 2748 781 2787 781 3010 
C 781 3207 614 3264 525 3264 
C 486 3264 448 3258 422 3245 
C 544 3790 915 4058 1306 4058 
C 1862 4058 2227 3617 2227 3035 
C 2227 2479 1901 2000 1536 1584 
L 262 146 
L 262 0 
L 2515 0 
L 2669 989 
z
" transform="scale(0.015625)"/>
       </defs>
       <use xlink:href="#CMR17-32" transform="scale(0.996264)"/>
       <use xlink:href="#CMR17-30" transform="translate(45.690477 0) scale(0.996264)"/>
      </g>
     </g>
    </g>
    <g id="xtick_4">
     <g id="line2d_4">
      <g>
       <use xlink:href="#mdc734f868c" x="302.438173" y="113.432903" style="stroke: #000000; stroke-width: 0.8"/>
      </g>
     </g>
     <g id="text_4">
      <!-- $\mathdefault{30}$ -->
      <g transform="translate(296.958706 128.04325) scale(0.11 -0.11)">
       <defs>
        <path id="CMR17-33" d="M 1414 2157 
C 1984 2157 2234 1662 2234 1090 
C 2234 320 1824 25 1453 25 
C 1114 25 563 194 390 693 
C 422 680 454 680 486 680 
C 640 680 755 782 755 948 
C 755 1133 614 1216 486 1216 
C 378 1216 211 1165 211 926 
C 211 335 787 -128 1466 -128 
C 2176 -128 2720 430 2720 1085 
C 2720 1707 2208 2157 1600 2227 
C 2086 2328 2554 2756 2554 3329 
C 2554 3820 2048 4179 1472 4179 
C 890 4179 378 3829 378 3329 
C 378 3110 544 3072 627 3072 
C 762 3072 877 3155 877 3321 
C 877 3486 762 3569 627 3569 
C 602 3569 570 3569 544 3557 
C 730 3959 1235 4032 1459 4032 
C 1683 4032 2106 3925 2106 3320 
C 2106 3143 2080 2828 1862 2550 
C 1670 2304 1453 2304 1242 2284 
C 1210 2284 1062 2269 1037 2269 
C 992 2263 966 2257 966 2208 
C 966 2163 973 2157 1101 2157 
L 1414 2157 
z
" transform="scale(0.015625)"/>
       </defs>
       <use xlink:href="#CMR17-33" transform="scale(0.996264)"/>
       <use xlink:href="#CMR17-30" transform="translate(45.690477 0) scale(0.996264)"/>
      </g>
     </g>
    </g>
    <g id="xtick_5">
     <g id="line2d_5">
      <g>
       <use xlink:href="#mdc734f868c" x="385.95226" y="113.432903" style="stroke: #000000; stroke-width: 0.8"/>
      </g>
     </g>
     <g id="text_5">
      <!-- $\mathdefault{40}$ -->
      <g transform="translate(380.472793 128.04325) scale(0.11 -0.11)">
       <defs>
        <path id="CMR17-34" d="M 2150 4122 
C 2150 4256 2144 4256 2029 4256 
L 128 1254 
L 128 1088 
L 1779 1088 
L 1779 457 
C 1779 224 1766 160 1318 160 
L 1197 160 
L 1197 0 
C 1402 0 1747 0 1965 0 
C 2182 0 2528 0 2733 0 
L 2733 160 
L 2611 160 
C 2163 160 2150 224 2150 457 
L 2150 1088 
L 2803 1088 
L 2803 1254 
L 2150 1254 
L 2150 4122 
z
M 1798 3703 
L 1798 1254 
L 256 1254 
L 1798 3703 
z
" transform="scale(0.015625)"/>
       </defs>
       <use xlink:href="#CMR17-34" transform="scale(0.996264)"/>
       <use xlink:href="#CMR17-30" transform="translate(45.690477 0) scale(0.996264)"/>
      </g>
     </g>
    </g>
    <g id="xtick_6">
     <g id="line2d_6">
      <g>
       <use xlink:href="#mdc734f868c" x="469.466347" y="113.432903" style="stroke: #000000; stroke-width: 0.8"/>
      </g>
     </g>
     <g id="text_6">
      <!-- $\mathdefault{50}$ -->
      <g transform="translate(463.98688 128.04325) scale(0.11 -0.11)">
       <defs>
        <path id="CMR17-35" d="M 730 3692 
C 794 3666 1056 3584 1325 3584 
C 1920 3584 2246 3911 2432 4100 
C 2432 4157 2432 4192 2394 4192 
C 2387 4192 2374 4192 2323 4163 
C 2099 4058 1837 3973 1517 3973 
C 1325 3973 1037 3999 723 4139 
C 653 4171 640 4171 634 4171 
C 602 4171 595 4164 595 4037 
L 595 2203 
C 595 2089 595 2057 659 2057 
C 691 2057 704 2070 736 2114 
C 941 2401 1222 2522 1542 2522 
C 1766 2522 2246 2382 2246 1289 
C 2246 1085 2246 715 2054 421 
C 1894 159 1645 25 1370 25 
C 947 25 518 320 403 814 
C 429 807 480 795 506 795 
C 589 795 749 840 749 1038 
C 749 1210 627 1280 506 1280 
C 358 1280 262 1190 262 1011 
C 262 454 704 -128 1382 -128 
C 2042 -128 2669 440 2669 1264 
C 2669 2030 2170 2624 1549 2624 
C 1222 2624 947 2503 730 2274 
L 730 3692 
z
" transform="scale(0.015625)"/>
       </defs>
       <use xlink:href="#CMR17-35" transform="scale(0.996264)"/>
       <use xlink:href="#CMR17-30" transform="translate(45.690477 0) scale(0.996264)"/>
      </g>
     </g>
    </g>
    <g id="xtick_7">
     <g id="line2d_7">
      <g>
       <use xlink:href="#mdc734f868c" x="552.980435" y="113.432903" style="stroke: #000000; stroke-width: 0.8"/>
      </g>
     </g>
     <g id="text_7">
      <!-- $\mathdefault{60}$ -->
      <g transform="translate(547.500967 128.04325) scale(0.11 -0.11)">
       <defs>
        <path id="CMR17-36" d="M 678 2176 
C 678 3690 1395 4032 1811 4032 
C 1946 4032 2272 4009 2400 3776 
C 2298 3776 2106 3776 2106 3553 
C 2106 3381 2246 3323 2336 3323 
C 2394 3323 2566 3348 2566 3560 
C 2566 3954 2246 4179 1805 4179 
C 1043 4179 243 3390 243 1984 
C 243 253 966 -128 1478 -128 
C 2099 -128 2688 427 2688 1283 
C 2688 2081 2170 2662 1517 2662 
C 1126 2662 838 2407 678 1960 
L 678 2176 
z
M 1478 25 
C 691 25 691 1200 691 1436 
C 691 1896 909 2560 1504 2560 
C 1613 2560 1926 2560 2138 2120 
C 2253 1870 2253 1609 2253 1289 
C 2253 944 2253 690 2118 434 
C 1978 171 1773 25 1478 25 
z
" transform="scale(0.015625)"/>
       </defs>
       <use xlink:href="#CMR17-36" transform="scale(0.996264)"/>
       <use xlink:href="#CMR17-30" transform="translate(45.690477 0) scale(0.996264)"/>
      </g>
     </g>
    </g>
    <g id="text_8">
     <!-- N -->
     <g transform="translate(306.679985 141.784491) scale(0.11 -0.11)">
      <defs>
       <path id="CMR17-4e" d="M 1312 4250 
C 1267 4320 1261 4320 1139 4320 
L 326 4320 
L 326 4160 
L 448 4160 
C 704 4160 819 4129 838 4122 
L 838 610 
C 838 451 838 153 326 153 
L 326 -13 
C 474 0 742 0 902 0 
C 1062 0 1331 0 1478 -13 
L 1478 153 
C 966 153 966 451 966 610 
L 966 4033 
C 1011 3995 1011 3982 1056 3919 
L 3430 76 
C 3475 0 3494 0 3526 0 
C 3590 0 3590 19 3590 139 
L 3590 3705 
C 3590 3863 3590 4160 4102 4160 
L 4102 4326 
C 3955 4320 3686 4320 3526 4320 
C 3366 4320 3098 4320 2950 4326 
L 2950 4160 
C 3462 4160 3462 3862 3462 3703 
L 3462 763 
L 1312 4250 
z
" transform="scale(0.015625)"/>
      </defs>
      <use xlink:href="#CMR17-4e" transform="scale(0.996264)"/>
     </g>
    </g>
   </g>
   <g id="matplotlib.axis_2">
    <g id="ytick_1">
     <g id="line2d_8">
      <defs>
       <path id="m03f3979d6c" d="M 0 0 
L -3.5 0 
" style="stroke: #000000; stroke-width: 0.8"/>
      </defs>
      <g>
       <use xlink:href="#m03f3979d6c" x="44.379643" y="108.708176" style="stroke: #000000; stroke-width: 0.8"/>
      </g>
     </g>
     <g id="text_9">
      <!-- $\mathdefault{0}$ -->
      <g transform="translate(31.900176 112.513349) scale(0.11 -0.11)">
       <use xlink:href="#CMR17-30" transform="scale(0.996264)"/>
      </g>
     </g>
    </g>
    <g id="ytick_2">
     <g id="line2d_9">
      <g>
       <use xlink:href="#m03f3979d6c" x="44.379643" y="55.885783" style="stroke: #000000; stroke-width: 0.8"/>
      </g>
     </g>
     <g id="text_10">
      <!-- $\mathdefault{100}$ -->
      <g transform="translate(20.941241 59.690956) scale(0.11 -0.11)">
       <use xlink:href="#CMR17-31" transform="scale(0.996264)"/>
       <use xlink:href="#CMR17-30" transform="translate(45.690477 0) scale(0.996264)"/>
       <use xlink:href="#CMR17-30" transform="translate(91.380954 0) scale(0.996264)"/>
      </g>
     </g>
    </g>
    <g id="text_11">
     <!-- initial gradient -->
     <g transform="translate(14.810347 95.795975) rotate(-90) scale(0.11 -0.11)">
      <defs>
       <path id="CMR17-69" d="M 992 3909 
C 992 4049 877 4170 730 4170 
C 589 4170 467 4056 467 3909 
C 467 3769 582 3648 730 3648 
C 870 3648 992 3763 992 3909 
z
M 243 2706 
L 243 2541 
C 602 2541 653 2502 653 2197 
L 653 427 
C 653 184 627 153 218 153 
L 218 -13 
C 371 0 646 0 806 0 
C 960 0 1222 0 1370 -13 
L 1370 153 
C 992 153 979 191 979 420 
L 979 2776 
L 243 2706 
z
" transform="scale(0.015625)"/>
       <path id="CMR17-6e" d="M 2656 1933 
C 2656 2259 2592 2790 1837 2790 
C 1331 2790 1069 2400 973 2144 
L 966 2144 
L 966 2790 
L 211 2720 
L 211 2554 
C 589 2554 646 2515 646 2208 
L 646 428 
C 646 184 621 153 211 153 
L 211 -13 
C 365 0 646 0 813 0 
C 979 0 1267 0 1421 -13 
L 1421 153 
C 1011 153 986 178 986 428 
L 986 1658 
C 986 2247 1344 2688 1792 2688 
C 2266 2688 2317 2266 2317 1958 
L 2317 428 
C 2317 184 2291 153 1882 153 
L 1882 -13 
C 2035 0 2317 0 2483 0 
C 2650 0 2938 0 3091 -13 
L 3091 153 
C 2682 153 2656 178 2656 428 
L 2656 1933 
z
" transform="scale(0.015625)"/>
       <path id="CMR17-74" d="M 966 2560 
L 1862 2560 
L 1862 2725 
L 966 2725 
L 966 3904 
L 851 3904 
C 838 3245 614 2668 70 2668 
L 70 2560 
L 627 2560 
L 627 771 
C 627 650 627 -64 1370 -64 
C 1747 -64 1965 306 1965 777 
L 1965 1140 
L 1850 1140 
L 1850 783 
C 1850 344 1677 51 1408 51 
C 1222 51 966 178 966 758 
L 966 2560 
z
" transform="scale(0.015625)"/>
       <path id="CMR17-61" d="M 2304 1653 
C 2304 2072 2304 2294 2035 2543 
C 1798 2752 1523 2816 1306 2816 
C 800 2816 435 2407 435 1971 
C 435 1728 627 1728 666 1728 
C 749 1728 896 1778 896 1954 
C 896 2112 774 2181 666 2181 
C 640 2181 608 2174 589 2168 
C 723 2592 1069 2714 1293 2714 
C 1613 2714 1965 2429 1965 1885 
L 1965 1600 
C 1587 1600 1133 1549 774 1357 
C 371 1133 256 813 256 570 
C 256 77 832 -64 1171 -64 
C 1523 -64 1850 139 1990 511 
C 2003 233 2182 -18 2464 -18 
C 2598 -18 2938 70 2938 567 
L 2938 920 
L 2822 920 
L 2822 562 
C 2822 178 2650 128 2566 128 
C 2304 128 2304 458 2304 738 
L 2304 1653 
z
M 1965 870 
C 1965 317 1568 38 1216 38 
C 896 38 646 275 646 570 
C 646 761 730 1100 1101 1305 
C 1408 1478 1760 1504 1965 1504 
L 1965 870 
z
" transform="scale(0.015625)"/>
       <path id="CMR17-6c" d="M 979 4396 
L 218 4326 
L 218 4160 
C 595 4160 653 4122 653 3817 
L 653 426 
C 653 184 627 153 218 153 
L 218 -13 
C 371 0 653 0 813 0 
C 979 0 1261 0 1414 -13 
L 1414 153 
C 1005 153 979 178 979 426 
L 979 4396 
z
" transform="scale(0.015625)"/>
       <path id="CMR17-67" d="M 710 1164 
C 832 1068 1043 960 1299 960 
C 1805 960 2240 1357 2240 1888 
C 2240 2054 2189 2310 1997 2509 
C 2176 2692 2438 2752 2586 2752 
C 2611 2752 2650 2752 2682 2734 
C 2656 2728 2598 2703 2598 2605 
C 2598 2527 2656 2471 2739 2471 
C 2835 2471 2886 2533 2886 2614 
C 2886 2731 2790 2854 2586 2854 
C 2330 2854 2106 2738 1926 2580 
C 1734 2753 1504 2816 1299 2816 
C 794 2816 358 2419 358 1888 
C 358 1522 570 1292 634 1228 
C 442 1004 442 743 442 711 
C 442 545 506 302 723 168 
C 390 85 128 -169 128 -486 
C 128 -943 736 -1280 1466 -1280 
C 2170 -1280 2803 -956 2803 -479 
C 2803 384 1856 384 1363 384 
C 1216 384 954 384 922 391 
C 723 423 589 602 589 826 
C 589 883 589 1024 710 1164 
z
M 1299 1068 
C 736 1068 736 1760 736 1889 
C 736 2016 736 2708 1299 2708 
C 1862 2708 1862 2016 1862 1889 
C 1862 1760 1862 1068 1299 1068 
z
M 1466 -1171 
C 826 -1171 384 -835 384 -486 
C 384 -289 493 -105 634 -4 
C 794 104 858 104 1293 104 
C 1818 104 2547 104 2547 -486 
C 2547 -835 2106 -1171 1466 -1171 
z
" transform="scale(0.015625)"/>
       <path id="CMR17-72" d="M 960 1497 
C 960 2112 1222 2688 1702 2688 
C 1747 2688 1792 2682 1837 2662 
C 1837 2662 1696 2617 1696 2452 
C 1696 2298 1818 2234 1914 2234 
C 1990 2234 2131 2279 2131 2458 
C 2131 2663 1926 2790 1709 2790 
C 1222 2790 1011 2317 947 2093 
L 941 2093 
L 941 2790 
L 198 2720 
L 198 2554 
C 576 2554 634 2515 634 2208 
L 634 428 
C 634 184 608 153 198 153 
L 198 -13 
C 352 0 646 0 813 0 
C 998 0 1325 0 1498 -13 
L 1498 153 
C 1037 153 960 153 960 440 
L 960 1497 
z
" transform="scale(0.015625)"/>
       <path id="CMR17-64" d="M 1869 4326 
L 1869 4160 
C 2246 4160 2304 4122 2304 3820 
L 2304 2345 
C 2278 2377 2016 2790 1498 2790 
C 845 2790 211 2208 211 1364 
C 211 525 806 -64 1434 -64 
C 1978 -64 2259 337 2291 380 
L 2291 -63 
L 3066 -63 
L 3066 128 
C 2688 128 2630 166 2630 473 
L 2630 4396 
L 1869 4326 
z
M 2291 755 
C 2291 563 2176 390 2029 262 
C 1811 70 1594 38 1472 38 
C 1286 38 621 134 621 1356 
C 621 2612 1363 2688 1530 2688 
C 1824 2688 2061 2522 2208 2291 
C 2291 2157 2291 2138 2291 2023 
L 2291 755 
z
" transform="scale(0.015625)"/>
       <path id="CMR17-65" d="M 2438 1472 
C 2464 1498 2464 1511 2464 1576 
C 2464 2238 2118 2816 1389 2816 
C 710 2816 173 2169 173 1383 
C 173 551 781 -64 1459 -64 
C 2176 -64 2458 607 2458 740 
C 2458 784 2419 784 2406 784 
C 2362 784 2355 771 2330 696 
C 2189 265 1837 51 1504 51 
C 1229 51 954 203 781 480 
C 582 803 582 1176 582 1472 
L 2438 1472 
z
M 589 1568 
C 634 2505 1126 2714 1382 2714 
C 1818 2714 2112 2297 2118 1568 
L 589 1568 
z
" transform="scale(0.015625)"/>
      </defs>
      <use xlink:href="#CMR17-69" transform="scale(0.996264)"/>
      <use xlink:href="#CMR17-6e" transform="translate(24.871058 0) scale(0.996264)"/>
      <use xlink:href="#CMR17-69" transform="translate(75.766428 0) scale(0.996264)"/>
      <use xlink:href="#CMR17-74" transform="translate(100.637487 0) scale(0.996264)"/>
      <use xlink:href="#CMR17-69" transform="translate(135.918255 0) scale(0.996264)"/>
      <use xlink:href="#CMR17-61" transform="translate(160.789313 0) scale(0.996264)"/>
      <use xlink:href="#CMR17-6c" transform="translate(206.47979 0) scale(0.996264)"/>
      <use xlink:href="#CMR17-67" transform="translate(261.426815 0) scale(0.996264)"/>
      <use xlink:href="#CMR17-72" transform="translate(307.117292 0) scale(0.996264)"/>
      <use xlink:href="#CMR17-61" transform="translate(342.39806 0) scale(0.996264)"/>
      <use xlink:href="#CMR17-64" transform="translate(388.088537 0) scale(0.996264)"/>
      <use xlink:href="#CMR17-69" transform="translate(438.983907 0) scale(0.996264)"/>
      <use xlink:href="#CMR17-65" transform="translate(463.854965 0) scale(0.996264)"/>
      <use xlink:href="#CMR17-6e" transform="translate(504.340626 0) scale(0.996264)"/>
      <use xlink:href="#CMR17-74" transform="translate(552.633542 0) scale(0.996264)"/>
     </g>
    </g>
   </g>
   <g id="line2d_10">
    <path d="M 68.598728 108.501963 
L 76.950137 108.320853 
L 85.301546 108.08774 
L 93.652955 107.802624 
L 102.004363 107.465505 
L 110.355772 107.076384 
L 118.707181 106.63526 
L 127.05859 106.142134 
L 135.409998 105.597004 
L 143.761407 104.999872 
L 152.112816 104.350738 
L 160.464224 103.6496 
L 168.815633 102.89646 
L 177.167042 102.091317 
L 185.518451 101.234171 
L 193.869859 100.325023 
L 202.221268 99.363872 
L 210.572677 98.350718 
L 218.924086 97.285562 
L 227.275494 96.168402 
L 235.626903 94.999241 
L 243.978312 93.778076 
L 252.32972 92.504909 
L 260.681129 91.179738 
L 269.032538 89.802566 
L 277.383947 88.37339 
L 285.735355 86.892212 
L 294.086764 85.359031 
L 302.438173 83.773847 
L 310.789582 82.136661 
L 319.14099 80.447472 
L 327.492399 78.70628 
L 335.843808 76.913086 
L 344.195216 75.067888 
L 352.546625 73.170688 
L 360.898034 71.221486 
L 369.249443 69.22028 
L 377.600851 67.167072 
L 385.95226 65.061861 
L 394.303669 62.904648 
L 402.655078 60.695432 
L 411.006486 58.434213 
L 419.357895 56.120991 
L 427.709304 53.755767 
L 436.060712 51.33854 
L 444.412121 48.86931 
L 452.76353 46.348077 
L 461.114939 43.774842 
L 469.466347 41.149604 
L 477.817756 38.472363 
L 486.169165 35.74312 
L 494.520574 32.961874 
L 502.871982 30.128625 
L 511.223391 27.243373 
L 519.5748 24.306119 
L 527.926209 21.316862 
L 536.277617 18.275603 
L 544.629026 15.18234 
L 552.980435 12.037075 
" clip-path="url(#p3d38845a62)" style="fill: none; stroke: #000000; stroke-opacity: 0.6; stroke-linecap: square"/>
   </g>
   <g id="line2d_11">
    <path d="M 68.598728 108.604135 
L 76.950137 108.552114 
L 85.301546 108.500094 
L 93.652955 108.448074 
L 102.004363 108.396053 
L 110.355772 108.344033 
L 118.707181 108.292013 
L 127.05859 108.239993 
L 135.409998 108.187973 
L 143.761407 108.135953 
L 152.112816 108.083933 
L 160.464224 108.031913 
L 168.815633 107.979893 
L 177.167042 107.927874 
L 185.518451 107.875854 
L 193.869859 107.823834 
L 202.221268 107.771815 
L 210.572677 107.719795 
L 218.924086 107.667776 
L 227.275494 107.615756 
L 235.626903 107.563737 
L 243.978312 107.511718 
L 252.32972 107.459698 
L 260.681129 107.407679 
L 269.032538 107.35566 
L 277.383947 107.303641 
L 285.735355 107.251622 
L 294.086764 107.199603 
L 302.438173 107.147584 
L 310.789582 107.095565 
L 319.14099 107.043546 
L 327.492399 106.991528 
L 335.843808 106.939509 
L 344.195216 106.88749 
L 352.546625 106.835472 
L 360.898034 106.783453 
L 369.249443 106.731435 
L 377.600851 106.679416 
L 385.95226 106.627398 
L 394.303669 106.575379 
L 402.655078 106.523361 
L 411.006486 106.471343 
L 419.357895 106.419325 
L 427.709304 106.367307 
L 436.060712 106.315289 
L 444.412121 106.263271 
L 452.76353 106.211253 
L 461.114939 106.159235 
L 469.466347 106.107217 
L 477.817756 106.055199 
L 486.169165 106.003182 
L 494.520574 105.951164 
L 502.871982 105.899147 
L 511.223391 105.847129 
L 519.5748 105.795112 
L 527.926209 105.743094 
L 536.277617 105.691077 
L 544.629026 105.639059 
L 552.980435 105.587042 
" clip-path="url(#p3d38845a62)" style="fill: none; stroke: #000000; stroke-opacity: 0.6; stroke-linecap: square"/>
   </g>
   <g id="patch_3">
    <path d="M 44.379643 113.432903 
L 44.379643 7.2 
" style="fill: none; stroke: #000000; stroke-width: 0.8; stroke-linejoin: miter; stroke-linecap: square"/>
   </g>
   <g id="patch_4">
    <path d="M 577.19952 113.432903 
L 577.19952 7.2 
" style="fill: none; stroke: #000000; stroke-width: 0.8; stroke-linejoin: miter; stroke-linecap: square"/>
   </g>
   <g id="patch_5">
    <path d="M 44.379643 113.432903 
L 577.19952 113.432903 
" style="fill: none; stroke: #000000; stroke-width: 0.8; stroke-linejoin: miter; stroke-linecap: square"/>
   </g>
   <g id="patch_6">
    <path d="M 44.379643 7.2 
L 577.19952 7.2 
" style="fill: none; stroke: #000000; stroke-width: 0.8; stroke-linejoin: miter; stroke-linecap: square"/>
   </g>
   <g id="legend_1">
    <g id="patch_7">
     <path d="M 52.079643 77.323579 
L 177.435106 77.323579 
Q 179.635106 77.323579 179.635106 75.123579 
L 179.635106 14.9 
Q 179.635106 12.7 177.435106 12.7 
L 52.079643 12.7 
Q 49.879643 12.7 49.879643 14.9 
L 49.879643 75.123579 
Q 49.879643 77.323579 52.079643 77.323579 
z
" style="fill: #ffffff; opacity: 0.8; stroke: #cccccc; stroke-linejoin: miter"/>
    </g>
    <g id="line2d_12">
     <path d="M 54.279643 20.95 
L 65.279643 20.95 
L 76.279643 20.95 
" style="fill: none; stroke: #000000; stroke-opacity: 0.6; stroke-linecap: square"/>
    </g>
    <g id="text_12">
     <!-- quadratic_linear fit -->
     <g transform="translate(85.079643 24.8) scale(0.11 -0.11)">
      <defs>
       <path id="CMR17-71" d="M 2630 2802 
L 2528 2802 
L 2336 2172 
C 2189 2509 1920 2802 1491 2802 
C 838 2802 211 2223 211 1383 
C 211 548 800 -38 1440 -38 
C 1933 -38 2208 338 2291 478 
L 2291 -789 
C 2291 -1031 2266 -1063 1856 -1063 
L 1856 -1228 
C 2010 -1216 2291 -1216 2458 -1216 
C 2624 -1216 2912 -1216 3066 -1228 
L 3066 -1063 
C 2656 -1063 2630 -1037 2630 -789 
L 2630 2802 
z
M 2304 886 
C 2304 612 2074 357 2054 338 
C 1856 115 1626 64 1472 64 
C 992 64 621 669 621 1375 
C 621 2121 1043 2688 1536 2688 
C 2048 2688 2304 2108 2304 1777 
L 2304 886 
z
" transform="scale(0.015625)"/>
       <path id="CMR17-75" d="M 1882 2693 
L 1882 2528 
C 2259 2528 2317 2489 2317 2186 
L 2317 1032 
C 2317 500 2029 38 1555 38 
C 1030 38 986 348 986 678 
L 986 2763 
L 211 2693 
L 211 2528 
C 467 2528 640 2528 646 2274 
L 646 1058 
C 646 633 646 361 813 183 
C 896 101 1056 -64 1517 -64 
C 2061 -64 2272 377 2323 506 
L 2330 506 
L 2330 -63 
L 3091 -63 
L 3091 128 
C 2714 128 2656 166 2656 473 
L 2656 2763 
L 1882 2693 
z
" transform="scale(0.015625)"/>
       <path id="CMR17-63" d="M 2234 2240 
C 2112 2240 1933 2240 1933 2017 
C 1933 1838 2080 1787 2163 1787 
C 2208 1787 2394 1807 2394 2024 
C 2394 2467 1958 2803 1466 2803 
C 787 2803 211 2178 211 1363 
C 211 516 813 -64 1466 -64 
C 2259 -64 2458 677 2458 748 
C 2458 774 2451 793 2406 793 
C 2362 793 2355 787 2330 703 
C 2163 180 1798 51 1523 51 
C 1114 51 621 427 621 1369 
C 621 2338 1094 2688 1472 2688 
C 1722 2688 2093 2573 2234 2240 
z
" transform="scale(0.015625)"/>
       <path id="CMR17-c" d="M 2554 2764 
C 2400 2764 1926 2764 1805 2739 
C 1766 2725 1754 2725 1677 2725 
L 947 2725 
L 947 3469 
C 947 4073 1434 4352 1818 4352 
C 1939 4352 2214 4320 2355 4101 
C 2291 4101 2086 4101 2086 3878 
C 2086 3725 2189 3648 2317 3648 
C 2432 3648 2547 3712 2547 3885 
C 2547 4205 2240 4454 1843 4454 
C 1338 4454 634 4168 634 3469 
L 634 2725 
L 122 2725 
L 122 2560 
L 634 2560 
L 634 427 
C 634 184 608 153 198 153 
L 198 -13 
C 352 0 634 0 794 0 
C 960 0 1242 0 1395 -13 
L 1395 153 
C 986 153 960 178 960 427 
L 960 2560 
L 1901 2560 
C 2176 2560 2227 2502 2227 2222 
L 2227 427 
C 2227 184 2202 153 1792 153 
L 1792 -13 
C 1946 0 2227 0 2387 0 
C 2554 0 2835 0 2989 -13 
L 2989 153 
C 2579 153 2554 178 2554 427 
L 2554 2764 
z
" transform="scale(0.015625)"/>
      </defs>
      <use xlink:href="#CMR17-71" transform="scale(0.996264)"/>
      <use xlink:href="#CMR17-75" transform="translate(48.292916 0) scale(0.996264)"/>
      <use xlink:href="#CMR17-61" transform="translate(99.188286 0) scale(0.996264)"/>
      <use xlink:href="#CMR17-64" transform="translate(144.878763 0) scale(0.996264)"/>
      <use xlink:href="#CMR17-72" transform="translate(195.774133 0) scale(0.996264)"/>
      <use xlink:href="#CMR17-61" transform="translate(231.0549 0) scale(0.996264)"/>
      <use xlink:href="#CMR17-74" transform="translate(276.745377 0) scale(0.996264)"/>
      <use xlink:href="#CMR17-69" transform="translate(312.026145 0) scale(0.996264)"/>
      <use xlink:href="#CMR17-63" transform="translate(336.897204 0) scale(0.996264)"/>
      <use xlink:href="#CMR17-6c" transform="translate(410.280084 0) scale(0.996264)"/>
      <use xlink:href="#CMR17-69" transform="translate(435.151142 0) scale(0.996264)"/>
      <use xlink:href="#CMR17-6e" transform="translate(460.022201 0) scale(0.996264)"/>
      <use xlink:href="#CMR17-65" transform="translate(510.91757 0) scale(0.996264)"/>
      <use xlink:href="#CMR17-61" transform="translate(551.403231 0) scale(0.996264)"/>
      <use xlink:href="#CMR17-72" transform="translate(597.093708 0) scale(0.996264)"/>
      <use xlink:href="#CMR17-c" transform="translate(662.450442 0) scale(0.996264)"/>
      <use xlink:href="#CMR17-74" transform="translate(712.192666 0) scale(0.996264)"/>
      <path d="M 382.865493 0 
L 410.280084 0 
L 410.280084 0.3985 
L 382.865493 0.3985 
L 382.865493 0 
z
"/>
     </g>
    </g>
    <g id="PathCollection_3">
     <g>
      <use xlink:href="#md004b49735" x="65.279643" y="37.243395" style="fill: #32cd32; fill-opacity: 0.7; stroke: #32cd32; stroke-opacity: 0.7"/>
     </g>
    </g>
    <g id="text_13">
     <!-- superradiant state -->
     <g transform="translate(85.079643 40.130895) scale(0.11 -0.11)">
      <defs>
       <path id="CMR17-73" d="M 1978 2697 
C 1978 2813 1971 2819 1933 2819 
C 1907 2819 1901 2813 1824 2717 
C 1805 2691 1747 2626 1728 2601 
C 1523 2819 1235 2819 1126 2819 
C 416 2819 160 2447 160 2076 
C 160 1498 813 1365 998 1325 
C 1402 1243 1542 1217 1677 1101 
C 1760 1025 1901 884 1901 654 
C 1901 384 1747 38 1158 38 
C 602 38 403 460 288 1021 
C 269 1110 269 1117 218 1117 
C 166 1117 160 1110 160 983 
L 160 63 
C 160 -51 166 -58 205 -58 
C 237 -58 243 -51 275 0 
C 314 57 410 211 448 276 
C 576 103 800 -64 1158 -64 
C 1792 -64 2131 283 2131 784 
C 2131 1112 1958 1285 1875 1362 
C 1683 1561 1459 1606 1190 1657 
C 838 1735 390 1825 390 2217 
C 390 2383 480 2737 1126 2737 
C 1811 2737 1850 2094 1862 1888 
C 1869 1856 1901 1849 1920 1849 
C 1978 1849 1978 1869 1978 1978 
L 1978 2697 
z
" transform="scale(0.015625)"/>
       <path id="CMR17-70" d="M 1408 -1063 
C 998 -1063 973 -1037 973 -789 
L 973 402 
C 1158 134 1427 -38 1766 -38 
C 2406 -38 3053 523 3053 1388 
C 3053 2191 2496 2802 1837 2802 
C 1453 2802 1139 2592 960 2338 
L 960 2802 
L 198 2732 
L 198 2567 
C 576 2567 634 2528 634 2223 
L 634 -789 
C 634 -1031 608 -1063 198 -1063 
L 198 -1228 
C 352 -1216 634 -1216 800 -1216 
C 966 -1216 1254 -1216 1408 -1228 
L 1408 -1063 
z
M 973 2012 
C 973 2102 973 2235 1222 2471 
C 1254 2497 1472 2688 1792 2688 
C 2259 2688 2643 2108 2643 1382 
C 2643 656 2234 64 1728 64 
C 1498 64 1248 172 1056 472 
C 973 612 973 650 973 752 
L 973 2012 
z
" transform="scale(0.015625)"/>
      </defs>
      <use xlink:href="#CMR17-73" transform="scale(0.996264)"/>
      <use xlink:href="#CMR17-75" transform="translate(35.801338 0) scale(0.996264)"/>
      <use xlink:href="#CMR17-70" transform="translate(86.696707 0) scale(0.996264)"/>
      <use xlink:href="#CMR17-65" transform="translate(140.194516 0) scale(0.996264)"/>
      <use xlink:href="#CMR17-72" transform="translate(180.680176 0) scale(0.996264)"/>
      <use xlink:href="#CMR17-72" transform="translate(215.960944 0) scale(0.996264)"/>
      <use xlink:href="#CMR17-61" transform="translate(251.241712 0) scale(0.996264)"/>
      <use xlink:href="#CMR17-64" transform="translate(296.932189 0) scale(0.996264)"/>
      <use xlink:href="#CMR17-69" transform="translate(347.827559 0) scale(0.996264)"/>
      <use xlink:href="#CMR17-61" transform="translate(372.698617 0) scale(0.996264)"/>
      <use xlink:href="#CMR17-6e" transform="translate(418.389094 0) scale(0.996264)"/>
      <use xlink:href="#CMR17-74" transform="translate(466.68201 0) scale(0.996264)"/>
      <use xlink:href="#CMR17-73" transform="translate(532.038744 0) scale(0.996264)"/>
      <use xlink:href="#CMR17-74" transform="translate(567.840082 0) scale(0.996264)"/>
      <use xlink:href="#CMR17-61" transform="translate(603.12085 0) scale(0.996264)"/>
      <use xlink:href="#CMR17-74" transform="translate(648.811327 0) scale(0.996264)"/>
      <use xlink:href="#CMR17-65" transform="translate(684.092095 0) scale(0.996264)"/>
     </g>
    </g>
    <g id="line2d_13">
     <path d="M 54.279643 51.611789 
L 65.279643 51.611789 
L 76.279643 51.611789 
" style="fill: none; stroke: #000000; stroke-opacity: 0.6; stroke-linecap: square"/>
    </g>
    <g id="text_14">
     <!-- quadratic_linear fit -->
     <g transform="translate(85.079643 55.461789) scale(0.11 -0.11)">
      <use xlink:href="#CMR17-71" transform="scale(0.996264)"/>
      <use xlink:href="#CMR17-75" transform="translate(48.292916 0) scale(0.996264)"/>
      <use xlink:href="#CMR17-61" transform="translate(99.188286 0) scale(0.996264)"/>
      <use xlink:href="#CMR17-64" transform="translate(144.878763 0) scale(0.996264)"/>
      <use xlink:href="#CMR17-72" transform="translate(195.774133 0) scale(0.996264)"/>
      <use xlink:href="#CMR17-61" transform="translate(231.0549 0) scale(0.996264)"/>
      <use xlink:href="#CMR17-74" transform="translate(276.745377 0) scale(0.996264)"/>
      <use xlink:href="#CMR17-69" transform="translate(312.026145 0) scale(0.996264)"/>
      <use xlink:href="#CMR17-63" transform="translate(336.897204 0) scale(0.996264)"/>
      <use xlink:href="#CMR17-6c" transform="translate(410.280084 0) scale(0.996264)"/>
      <use xlink:href="#CMR17-69" transform="translate(435.151142 0) scale(0.996264)"/>
      <use xlink:href="#CMR17-6e" transform="translate(460.022201 0) scale(0.996264)"/>
      <use xlink:href="#CMR17-65" transform="translate(510.91757 0) scale(0.996264)"/>
      <use xlink:href="#CMR17-61" transform="translate(551.403231 0) scale(0.996264)"/>
      <use xlink:href="#CMR17-72" transform="translate(597.093708 0) scale(0.996264)"/>
      <use xlink:href="#CMR17-c" transform="translate(662.450442 0) scale(0.996264)"/>
      <use xlink:href="#CMR17-74" transform="translate(712.192666 0) scale(0.996264)"/>
      <path d="M 382.865493 0 
L 410.280084 0 
L 410.280084 0.3985 
L 382.865493 0.3985 
L 382.865493 0 
z
"/>
     </g>
    </g>
    <g id="PathCollection_4">
     <g>
      <use xlink:href="#m2340ccae6c" x="65.279643" y="67.905184" style="fill: #1e90ff; fill-opacity: 0.7; stroke: #1e90ff; stroke-opacity: 0.7"/>
     </g>
    </g>
    <g id="text_15">
     <!-- excited state -->
     <g transform="translate(85.079643 70.792684) scale(0.11 -0.11)">
      <defs>
       <path id="CMR17-78" d="M 1664 1477 
C 1856 1726 2074 2006 2253 2216 
C 2464 2458 2707 2560 2989 2560 
L 2989 2726 
C 2880 2726 2656 2726 2541 2726 
C 2368 2726 2170 2726 2022 2732 
L 2022 2566 
C 2112 2553 2163 2489 2163 2400 
C 2163 2285 2099 2215 2067 2171 
L 1594 1573 
L 1030 2306 
C 973 2376 973 2388 973 2420 
C 973 2497 1037 2560 1146 2560 
L 1146 2732 
C 992 2726 717 2726 557 2726 
C 384 2726 179 2726 38 2732 
L 38 2560 
C 384 2560 461 2534 614 2343 
L 1350 1395 
C 1363 1382 1395 1344 1395 1325 
C 1395 1299 838 619 768 530 
C 480 185 179 160 6 160 
L 6 0 
C 115 0 339 0 454 0 
C 582 0 864 0 979 -6 
L 979 160 
C 941 166 838 179 838 325 
C 838 440 890 510 947 586 
L 1478 1236 
L 2035 512 
C 2086 442 2163 346 2163 301 
C 2163 211 2086 160 1984 160 
L 1984 -6 
C 2138 0 2413 0 2573 0 
C 2746 0 2950 0 3091 -6 
L 3091 160 
C 2771 160 2675 172 2522 370 
L 1664 1477 
z
" transform="scale(0.015625)"/>
      </defs>
      <use xlink:href="#CMR17-65" transform="scale(0.996264)"/>
      <use xlink:href="#CMR17-78" transform="translate(40.48566 0) scale(0.996264)"/>
      <use xlink:href="#CMR17-63" transform="translate(88.778576 0) scale(0.996264)"/>
      <use xlink:href="#CMR17-69" transform="translate(129.264237 0) scale(0.996264)"/>
      <use xlink:href="#CMR17-74" transform="translate(154.135295 0) scale(0.996264)"/>
      <use xlink:href="#CMR17-65" transform="translate(189.416063 0) scale(0.996264)"/>
      <use xlink:href="#CMR17-64" transform="translate(229.901724 0) scale(0.996264)"/>
      <use xlink:href="#CMR17-73" transform="translate(310.87306 0) scale(0.996264)"/>
      <use xlink:href="#CMR17-74" transform="translate(346.674397 0) scale(0.996264)"/>
      <use xlink:href="#CMR17-61" transform="translate(381.955165 0) scale(0.996264)"/>
      <use xlink:href="#CMR17-74" transform="translate(427.645642 0) scale(0.996264)"/>
      <use xlink:href="#CMR17-65" transform="translate(462.92641 0) scale(0.996264)"/>
     </g>
    </g>
   </g>
  </g>
 </g>
 <defs>
  <clipPath id="p3d38845a62">
   <rect x="44.379643" y="7.2" width="532.819877" height="106.232903"/>
  </clipPath>
 </defs>
</svg>
