<?xml version="1.0" encoding="utf-8" standalone="no"?>
<!DOCTYPE svg PUBLIC "-//W3C//DTD SVG 1.1//EN"
  "http://www.w3.org/Graphics/SVG/1.1/DTD/svg11.dtd">
<svg xmlns:xlink="http://www.w3.org/1999/xlink" width="576pt" height="432pt" viewBox="0 0 576 432" xmlns="http://www.w3.org/2000/svg" version="1.1">
 <metadata>
  <rdf:RDF xmlns:dc="http://purl.org/dc/elements/1.1/" xmlns:cc="http://creativecommons.org/ns#" xmlns:rdf="http://www.w3.org/1999/02/22-rdf-syntax-ns#">
   <cc:Work>
    <dc:type rdf:resource="http://purl.org/dc/dcmitype/StillImage"/>
    <dc:date>2025-01-13T17:07:25.745519</dc:date>
    <dc:format>image/svg+xml</dc:format>
    <dc:creator>
     <cc:Agent>
      <dc:title>Matplotlib v3.10.0, https://matplotlib.org/</dc:title>
     </cc:Agent>
    </dc:creator>
   </cc:Work>
  </rdf:RDF>
 </metadata>
 <defs>
  <style type="text/css">*{stroke-linejoin: round; stroke-linecap: butt}</style>
 </defs>
 <g id="figure_1">
  <g id="patch_1">
   <path d="M 0 432 
L 576 432 
L 576 0 
L 0 0 
z
" style="fill: #ffffff"/>
  </g>
  <g id="axes_1">
   <g id="patch_2">
    <path d="M 42.765865 398.64351 
L 572.99976 398.64351 
L 572.99976 3.00024 
L 42.765865 3.00024 
z
" style="fill: #ffffff"/>
   </g>
   <g id="PathCollection_1">
    <defs>
     <path id="mf42873f8be" d="M 0 2.95804 
C 0.784481 2.95804 1.536938 2.646362 2.09165 2.09165 
C 2.646362 1.536938 2.95804 0.784481 2.95804 0 
C 2.95804 -0.784481 2.646362 -1.536938 2.09165 -2.09165 
C 1.536938 -2.646362 0.784481 -2.95804 0 -2.95804 
C -0.784481 -2.95804 -1.536938 -2.646362 -2.09165 -2.09165 
C -2.646362 -1.536938 -2.95804 -0.784481 -2.95804 0 
C -2.95804 0.784481 -2.646362 1.536938 -2.09165 2.09165 
C -1.536938 2.646362 -0.784481 2.95804 0 2.95804 
z
" style="stroke: #32cd32"/>
    </defs>
    <g clip-path="url(#pcbaec395d0)">
     <use xlink:href="#mf42873f8be" x="66.867406" y="377.44074" style="fill: #32cd32; stroke: #32cd32"/>
     <use xlink:href="#mf42873f8be" x="78.624255" y="374.804237" style="fill: #32cd32; stroke: #32cd32"/>
     <use xlink:href="#mf42873f8be" x="90.381104" y="370.831205" style="fill: #32cd32; stroke: #32cd32"/>
     <use xlink:href="#mf42873f8be" x="102.137953" y="367.290078" style="fill: #32cd32; stroke: #32cd32"/>
     <use xlink:href="#mf42873f8be" x="113.894802" y="362.509245" style="fill: #32cd32; stroke: #32cd32"/>
     <use xlink:href="#mf42873f8be" x="125.651651" y="358.248901" style="fill: #32cd32; stroke: #32cd32"/>
     <use xlink:href="#mf42873f8be" x="137.4085" y="352.94708" style="fill: #32cd32; stroke: #32cd32"/>
     <use xlink:href="#mf42873f8be" x="149.165349" y="348.211444" style="fill: #32cd32; stroke: #32cd32"/>
     <use xlink:href="#mf42873f8be" x="160.922199" y="342.343787" style="fill: #32cd32; stroke: #32cd32"/>
     <use xlink:href="#mf42873f8be" x="172.679048" y="336.471434" style="fill: #32cd32; stroke: #32cd32"/>
     <use xlink:href="#mf42873f8be" x="184.435897" y="330.452669" style="fill: #32cd32; stroke: #32cd32"/>
     <use xlink:href="#mf42873f8be" x="196.192746" y="324.062383" style="fill: #32cd32; stroke: #32cd32"/>
     <use xlink:href="#mf42873f8be" x="207.949595" y="317.067817" style="fill: #32cd32; stroke: #32cd32"/>
     <use xlink:href="#mf42873f8be" x="219.706444" y="310.467636" style="fill: #32cd32; stroke: #32cd32"/>
     <use xlink:href="#mf42873f8be" x="231.463293" y="303.410479" style="fill: #32cd32; stroke: #32cd32"/>
     <use xlink:href="#mf42873f8be" x="243.220142" y="297.144" style="fill: #32cd32; stroke: #32cd32"/>
     <use xlink:href="#mf42873f8be" x="254.976991" y="289.353161" style="fill: #32cd32; stroke: #32cd32"/>
     <use xlink:href="#mf42873f8be" x="266.733841" y="281.105229" style="fill: #32cd32; stroke: #32cd32"/>
     <use xlink:href="#mf42873f8be" x="278.49069" y="273.89963" style="fill: #32cd32; stroke: #32cd32"/>
     <use xlink:href="#mf42873f8be" x="290.247539" y="266.485294" style="fill: #32cd32; stroke: #32cd32"/>
     <use xlink:href="#mf42873f8be" x="302.004388" y="256.881844" style="fill: #32cd32; stroke: #32cd32"/>
     <use xlink:href="#mf42873f8be" x="313.761237" y="248.754099" style="fill: #32cd32; stroke: #32cd32"/>
     <use xlink:href="#mf42873f8be" x="325.518086" y="240.329857" style="fill: #32cd32; stroke: #32cd32"/>
     <use xlink:href="#mf42873f8be" x="337.274935" y="231.617887" style="fill: #32cd32; stroke: #32cd32"/>
     <use xlink:href="#mf42873f8be" x="349.031784" y="222.576474" style="fill: #32cd32; stroke: #32cd32"/>
     <use xlink:href="#mf42873f8be" x="360.788634" y="213.225861" style="fill: #32cd32; stroke: #32cd32"/>
     <use xlink:href="#mf42873f8be" x="372.545483" y="203.516238" style="fill: #32cd32; stroke: #32cd32"/>
     <use xlink:href="#mf42873f8be" x="384.302332" y="193.509361" style="fill: #32cd32; stroke: #32cd32"/>
     <use xlink:href="#mf42873f8be" x="396.059181" y="186.425748" style="fill: #32cd32; stroke: #32cd32"/>
     <use xlink:href="#mf42873f8be" x="407.81603" y="175.775713" style="fill: #32cd32; stroke: #32cd32"/>
     <use xlink:href="#mf42873f8be" x="419.572879" y="164.749883" style="fill: #32cd32; stroke: #32cd32"/>
     <use xlink:href="#mf42873f8be" x="431.329728" y="153.444933" style="fill: #32cd32; stroke: #32cd32"/>
     <use xlink:href="#mf42873f8be" x="443.086577" y="145.759884" style="fill: #32cd32; stroke: #32cd32"/>
     <use xlink:href="#mf42873f8be" x="454.843426" y="133.720739" style="fill: #32cd32; stroke: #32cd32"/>
     <use xlink:href="#mf42873f8be" x="466.600276" y="126.041947" style="fill: #32cd32; stroke: #32cd32"/>
     <use xlink:href="#mf42873f8be" x="478.357125" y="113.229585" style="fill: #32cd32; stroke: #32cd32"/>
     <use xlink:href="#mf42873f8be" x="490.113974" y="100.136824" style="fill: #32cd32; stroke: #32cd32"/>
     <use xlink:href="#mf42873f8be" x="501.870823" y="91.873773" style="fill: #32cd32; stroke: #32cd32"/>
     <use xlink:href="#mf42873f8be" x="513.627672" y="78.025971" style="fill: #32cd32; stroke: #32cd32"/>
     <use xlink:href="#mf42873f8be" x="525.384521" y="69.571843" style="fill: #32cd32; stroke: #32cd32"/>
     <use xlink:href="#mf42873f8be" x="537.14137" y="54.981307" style="fill: #32cd32; stroke: #32cd32"/>
     <use xlink:href="#mf42873f8be" x="548.898219" y="46.262009" style="fill: #32cd32; stroke: #32cd32"/>
    </g>
   </g>
   <g id="PathCollection_2">
    <defs>
     <path id="m9236342b30" d="M 0 -2.95804 
L -2.95804 2.95804 
L 2.95804 2.95804 
z
" style="stroke: #1e90ff"/>
    </defs>
    <g clip-path="url(#pcbaec395d0)">
     <use xlink:href="#m9236342b30" x="66.867406" y="379.661443" style="fill: #1e90ff; stroke: #1e90ff"/>
     <use xlink:href="#m9236342b30" x="78.624255" y="378.888766" style="fill: #1e90ff; stroke: #1e90ff"/>
     <use xlink:href="#m9236342b30" x="90.381104" y="378.896715" style="fill: #1e90ff; stroke: #1e90ff"/>
     <use xlink:href="#m9236342b30" x="102.137953" y="377.012093" style="fill: #1e90ff; stroke: #1e90ff"/>
     <use xlink:href="#m9236342b30" x="113.894802" y="378.429139" style="fill: #1e90ff; stroke: #1e90ff"/>
     <use xlink:href="#m9236342b30" x="125.651651" y="376.009795" style="fill: #1e90ff; stroke: #1e90ff"/>
     <use xlink:href="#m9236342b30" x="137.4085" y="376.654689" style="fill: #1e90ff; stroke: #1e90ff"/>
     <use xlink:href="#m9236342b30" x="149.165349" y="374.881984" style="fill: #1e90ff; stroke: #1e90ff"/>
     <use xlink:href="#m9236342b30" x="160.922199" y="375.490055" style="fill: #1e90ff; stroke: #1e90ff"/>
     <use xlink:href="#m9236342b30" x="172.679048" y="373.296705" style="fill: #1e90ff; stroke: #1e90ff"/>
     <use xlink:href="#m9236342b30" x="184.435897" y="374.310647" style="fill: #1e90ff; stroke: #1e90ff"/>
     <use xlink:href="#m9236342b30" x="196.192746" y="372.165305" style="fill: #1e90ff; stroke: #1e90ff"/>
     <use xlink:href="#m9236342b30" x="207.949595" y="370.072574" style="fill: #1e90ff; stroke: #1e90ff"/>
     <use xlink:href="#m9236342b30" x="219.706444" y="370.745466" style="fill: #1e90ff; stroke: #1e90ff"/>
     <use xlink:href="#m9236342b30" x="231.463293" y="368.387206" style="fill: #1e90ff; stroke: #1e90ff"/>
     <use xlink:href="#m9236342b30" x="243.220142" y="368.921165" style="fill: #1e90ff; stroke: #1e90ff"/>
     <use xlink:href="#m9236342b30" x="254.976991" y="366.768594" style="fill: #1e90ff; stroke: #1e90ff"/>
     <use xlink:href="#m9236342b30" x="266.733841" y="366.840069" style="fill: #1e90ff; stroke: #1e90ff"/>
     <use xlink:href="#m9236342b30" x="278.49069" y="365.243422" style="fill: #1e90ff; stroke: #1e90ff"/>
     <use xlink:href="#m9236342b30" x="290.247539" y="364.406754" style="fill: #1e90ff; stroke: #1e90ff"/>
     <use xlink:href="#m9236342b30" x="302.004388" y="363.743821" style="fill: #1e90ff; stroke: #1e90ff"/>
     <use xlink:href="#m9236342b30" x="313.761237" y="361.872575" style="fill: #1e90ff; stroke: #1e90ff"/>
     <use xlink:href="#m9236342b30" x="325.518086" y="361.860187" style="fill: #1e90ff; stroke: #1e90ff"/>
     <use xlink:href="#m9236342b30" x="337.274935" y="359.801352" style="fill: #1e90ff; stroke: #1e90ff"/>
     <use xlink:href="#m9236342b30" x="349.031784" y="360.043664" style="fill: #1e90ff; stroke: #1e90ff"/>
     <use xlink:href="#m9236342b30" x="360.788634" y="358.008011" style="fill: #1e90ff; stroke: #1e90ff"/>
     <use xlink:href="#m9236342b30" x="372.545483" y="358.254995" style="fill: #1e90ff; stroke: #1e90ff"/>
     <use xlink:href="#m9236342b30" x="384.302332" y="356.263788" style="fill: #1e90ff; stroke: #1e90ff"/>
     <use xlink:href="#m9236342b30" x="396.059181" y="355.800952" style="fill: #1e90ff; stroke: #1e90ff"/>
     <use xlink:href="#m9236342b30" x="407.81603" y="354.379709" style="fill: #1e90ff; stroke: #1e90ff"/>
     <use xlink:href="#m9236342b30" x="419.572879" y="353.327271" style="fill: #1e90ff; stroke: #1e90ff"/>
     <use xlink:href="#m9236342b30" x="431.329728" y="352.271033" style="fill: #1e90ff; stroke: #1e90ff"/>
     <use xlink:href="#m9236342b30" x="443.086577" y="350.667118" style="fill: #1e90ff; stroke: #1e90ff"/>
     <use xlink:href="#m9236342b30" x="454.843426" y="350.39974" style="fill: #1e90ff; stroke: #1e90ff"/>
     <use xlink:href="#m9236342b30" x="466.600276" y="348.432091" style="fill: #1e90ff; stroke: #1e90ff"/>
     <use xlink:href="#m9236342b30" x="478.357125" y="348.541678" style="fill: #1e90ff; stroke: #1e90ff"/>
     <use xlink:href="#m9236342b30" x="490.113974" y="346.501578" style="fill: #1e90ff; stroke: #1e90ff"/>
     <use xlink:href="#m9236342b30" x="501.870823" y="346.357184" style="fill: #1e90ff; stroke: #1e90ff"/>
     <use xlink:href="#m9236342b30" x="513.627672" y="344.609509" style="fill: #1e90ff; stroke: #1e90ff"/>
     <use xlink:href="#m9236342b30" x="525.384521" y="344.083426" style="fill: #1e90ff; stroke: #1e90ff"/>
     <use xlink:href="#m9236342b30" x="537.14137" y="342.56624" style="fill: #1e90ff; stroke: #1e90ff"/>
     <use xlink:href="#m9236342b30" x="548.898219" y="341.525157" style="fill: #1e90ff; stroke: #1e90ff"/>
    </g>
   </g>
   <g id="matplotlib.axis_1">
    <g id="xtick_1">
     <g id="line2d_1">
      <defs>
       <path id="maff700a8f1" d="M 0 0 
L 0 3.5 
" style="stroke: #000000; stroke-width: 0.8"/>
      </defs>
      <g>
       <use xlink:href="#maff700a8f1" x="43.353707" y="398.64351" style="stroke: #000000; stroke-width: 0.8"/>
      </g>
     </g>
     <g id="text_1">
      <!-- 0 -->
      <g transform="translate(40.172457 413.241947) scale(0.1 -0.1)">
       <defs>
        <path id="DejaVuSans-30" d="M 2034 4250 
Q 1547 4250 1301 3770 
Q 1056 3291 1056 2328 
Q 1056 1369 1301 889 
Q 1547 409 2034 409 
Q 2525 409 2770 889 
Q 3016 1369 3016 2328 
Q 3016 3291 2770 3770 
Q 2525 4250 2034 4250 
z
M 2034 4750 
Q 2819 4750 3233 4129 
Q 3647 3509 3647 2328 
Q 3647 1150 3233 529 
Q 2819 -91 2034 -91 
Q 1250 -91 836 529 
Q 422 1150 422 2328 
Q 422 3509 836 4129 
Q 1250 4750 2034 4750 
z
" transform="scale(0.015625)"/>
       </defs>
       <use xlink:href="#DejaVuSans-30"/>
      </g>
     </g>
    </g>
    <g id="xtick_2">
     <g id="line2d_2">
      <g>
       <use xlink:href="#maff700a8f1" x="160.922199" y="398.64351" style="stroke: #000000; stroke-width: 0.8"/>
      </g>
     </g>
     <g id="text_2">
      <!-- 10 -->
      <g transform="translate(154.559699 413.241947) scale(0.1 -0.1)">
       <defs>
        <path id="DejaVuSans-31" d="M 794 531 
L 1825 531 
L 1825 4091 
L 703 3866 
L 703 4441 
L 1819 4666 
L 2450 4666 
L 2450 531 
L 3481 531 
L 3481 0 
L 794 0 
L 794 531 
z
" transform="scale(0.015625)"/>
       </defs>
       <use xlink:href="#DejaVuSans-31"/>
       <use xlink:href="#DejaVuSans-30" transform="translate(63.623047 0)"/>
      </g>
     </g>
    </g>
    <g id="xtick_3">
     <g id="line2d_3">
      <g>
       <use xlink:href="#maff700a8f1" x="278.49069" y="398.64351" style="stroke: #000000; stroke-width: 0.8"/>
      </g>
     </g>
     <g id="text_3">
      <!-- 20 -->
      <g transform="translate(272.12819 413.241947) scale(0.1 -0.1)">
       <defs>
        <path id="DejaVuSans-32" d="M 1228 531 
L 3431 531 
L 3431 0 
L 469 0 
L 469 531 
Q 828 903 1448 1529 
Q 2069 2156 2228 2338 
Q 2531 2678 2651 2914 
Q 2772 3150 2772 3378 
Q 2772 3750 2511 3984 
Q 2250 4219 1831 4219 
Q 1534 4219 1204 4116 
Q 875 4013 500 3803 
L 500 4441 
Q 881 4594 1212 4672 
Q 1544 4750 1819 4750 
Q 2544 4750 2975 4387 
Q 3406 4025 3406 3419 
Q 3406 3131 3298 2873 
Q 3191 2616 2906 2266 
Q 2828 2175 2409 1742 
Q 1991 1309 1228 531 
z
" transform="scale(0.015625)"/>
       </defs>
       <use xlink:href="#DejaVuSans-32"/>
       <use xlink:href="#DejaVuSans-30" transform="translate(63.623047 0)"/>
      </g>
     </g>
    </g>
    <g id="xtick_4">
     <g id="line2d_4">
      <g>
       <use xlink:href="#maff700a8f1" x="396.059181" y="398.64351" style="stroke: #000000; stroke-width: 0.8"/>
      </g>
     </g>
     <g id="text_4">
      <!-- 30 -->
      <g transform="translate(389.696681 413.241947) scale(0.1 -0.1)">
       <defs>
        <path id="DejaVuSans-33" d="M 2597 2516 
Q 3050 2419 3304 2112 
Q 3559 1806 3559 1356 
Q 3559 666 3084 287 
Q 2609 -91 1734 -91 
Q 1441 -91 1130 -33 
Q 819 25 488 141 
L 488 750 
Q 750 597 1062 519 
Q 1375 441 1716 441 
Q 2309 441 2620 675 
Q 2931 909 2931 1356 
Q 2931 1769 2642 2001 
Q 2353 2234 1838 2234 
L 1294 2234 
L 1294 2753 
L 1863 2753 
Q 2328 2753 2575 2939 
Q 2822 3125 2822 3475 
Q 2822 3834 2567 4026 
Q 2313 4219 1838 4219 
Q 1578 4219 1281 4162 
Q 984 4106 628 3988 
L 628 4550 
Q 988 4650 1302 4700 
Q 1616 4750 1894 4750 
Q 2613 4750 3031 4423 
Q 3450 4097 3450 3541 
Q 3450 3153 3228 2886 
Q 3006 2619 2597 2516 
z
" transform="scale(0.015625)"/>
       </defs>
       <use xlink:href="#DejaVuSans-33"/>
       <use xlink:href="#DejaVuSans-30" transform="translate(63.623047 0)"/>
      </g>
     </g>
    </g>
    <g id="xtick_5">
     <g id="line2d_5">
      <g>
       <use xlink:href="#maff700a8f1" x="513.627672" y="398.64351" style="stroke: #000000; stroke-width: 0.8"/>
      </g>
     </g>
     <g id="text_5">
      <!-- 40 -->
      <g transform="translate(507.265172 413.241947) scale(0.1 -0.1)">
       <defs>
        <path id="DejaVuSans-34" d="M 2419 4116 
L 825 1625 
L 2419 1625 
L 2419 4116 
z
M 2253 4666 
L 3047 4666 
L 3047 1625 
L 3713 1625 
L 3713 1100 
L 3047 1100 
L 3047 0 
L 2419 0 
L 2419 1100 
L 313 1100 
L 313 1709 
L 2253 4666 
z
" transform="scale(0.015625)"/>
       </defs>
       <use xlink:href="#DejaVuSans-34"/>
       <use xlink:href="#DejaVuSans-30" transform="translate(63.623047 0)"/>
      </g>
     </g>
    </g>
    <g id="text_6">
     <!-- N -->
     <g transform="translate(304.142188 426.920072) scale(0.1 -0.1)">
      <defs>
       <path id="DejaVuSans-4e" d="M 628 4666 
L 1478 4666 
L 3547 763 
L 3547 4666 
L 4159 4666 
L 4159 0 
L 3309 0 
L 1241 3903 
L 1241 0 
L 628 0 
L 628 4666 
z
" transform="scale(0.015625)"/>
      </defs>
      <use xlink:href="#DejaVuSans-4e"/>
     </g>
    </g>
   </g>
   <g id="matplotlib.axis_2">
    <g id="ytick_1">
     <g id="line2d_6">
      <defs>
       <path id="m348aa93e9e" d="M 0 0 
L -3.5 0 
" style="stroke: #000000; stroke-width: 0.8"/>
      </defs>
      <g>
       <use xlink:href="#m348aa93e9e" x="42.765865" y="382.184" style="stroke: #000000; stroke-width: 0.8"/>
      </g>
     </g>
     <g id="text_7">
      <!-- 0 -->
      <g transform="translate(29.403365 385.983219) scale(0.1 -0.1)">
       <use xlink:href="#DejaVuSans-30"/>
      </g>
     </g>
    </g>
    <g id="ytick_2">
     <g id="line2d_7">
      <g>
       <use xlink:href="#m348aa93e9e" x="42.765865" y="338.1324" style="stroke: #000000; stroke-width: 0.8"/>
      </g>
     </g>
     <g id="text_8">
      <!-- 25 -->
      <g transform="translate(23.040865 341.931618) scale(0.1 -0.1)">
       <defs>
        <path id="DejaVuSans-35" d="M 691 4666 
L 3169 4666 
L 3169 4134 
L 1269 4134 
L 1269 2991 
Q 1406 3038 1543 3061 
Q 1681 3084 1819 3084 
Q 2600 3084 3056 2656 
Q 3513 2228 3513 1497 
Q 3513 744 3044 326 
Q 2575 -91 1722 -91 
Q 1428 -91 1123 -41 
Q 819 9 494 109 
L 494 744 
Q 775 591 1075 516 
Q 1375 441 1709 441 
Q 2250 441 2565 725 
Q 2881 1009 2881 1497 
Q 2881 1984 2565 2268 
Q 2250 2553 1709 2553 
Q 1456 2553 1204 2497 
Q 953 2441 691 2322 
L 691 4666 
z
" transform="scale(0.015625)"/>
       </defs>
       <use xlink:href="#DejaVuSans-32"/>
       <use xlink:href="#DejaVuSans-35" transform="translate(63.623047 0)"/>
      </g>
     </g>
    </g>
    <g id="ytick_3">
     <g id="line2d_8">
      <g>
       <use xlink:href="#m348aa93e9e" x="42.765865" y="294.080799" style="stroke: #000000; stroke-width: 0.8"/>
      </g>
     </g>
     <g id="text_9">
      <!-- 50 -->
      <g transform="translate(23.040865 297.880018) scale(0.1 -0.1)">
       <use xlink:href="#DejaVuSans-35"/>
       <use xlink:href="#DejaVuSans-30" transform="translate(63.623047 0)"/>
      </g>
     </g>
    </g>
    <g id="ytick_4">
     <g id="line2d_9">
      <g>
       <use xlink:href="#m348aa93e9e" x="42.765865" y="250.029198" style="stroke: #000000; stroke-width: 0.8"/>
      </g>
     </g>
     <g id="text_10">
      <!-- 75 -->
      <g transform="translate(23.040865 253.828417) scale(0.1 -0.1)">
       <defs>
        <path id="DejaVuSans-37" d="M 525 4666 
L 3525 4666 
L 3525 4397 
L 1831 0 
L 1172 0 
L 2766 4134 
L 525 4134 
L 525 4666 
z
" transform="scale(0.015625)"/>
       </defs>
       <use xlink:href="#DejaVuSans-37"/>
       <use xlink:href="#DejaVuSans-35" transform="translate(63.623047 0)"/>
      </g>
     </g>
    </g>
    <g id="ytick_5">
     <g id="line2d_10">
      <g>
       <use xlink:href="#m348aa93e9e" x="42.765865" y="205.977598" style="stroke: #000000; stroke-width: 0.8"/>
      </g>
     </g>
     <g id="text_11">
      <!-- 100 -->
      <g transform="translate(16.678365 209.776816) scale(0.1 -0.1)">
       <use xlink:href="#DejaVuSans-31"/>
       <use xlink:href="#DejaVuSans-30" transform="translate(63.623047 0)"/>
       <use xlink:href="#DejaVuSans-30" transform="translate(127.246094 0)"/>
      </g>
     </g>
    </g>
    <g id="ytick_6">
     <g id="line2d_11">
      <g>
       <use xlink:href="#m348aa93e9e" x="42.765865" y="161.925997" style="stroke: #000000; stroke-width: 0.8"/>
      </g>
     </g>
     <g id="text_12">
      <!-- 125 -->
      <g transform="translate(16.678365 165.725216) scale(0.1 -0.1)">
       <use xlink:href="#DejaVuSans-31"/>
       <use xlink:href="#DejaVuSans-32" transform="translate(63.623047 0)"/>
       <use xlink:href="#DejaVuSans-35" transform="translate(127.246094 0)"/>
      </g>
     </g>
    </g>
    <g id="ytick_7">
     <g id="line2d_12">
      <g>
       <use xlink:href="#m348aa93e9e" x="42.765865" y="117.874396" style="stroke: #000000; stroke-width: 0.8"/>
      </g>
     </g>
     <g id="text_13">
      <!-- 150 -->
      <g transform="translate(16.678365 121.673615) scale(0.1 -0.1)">
       <use xlink:href="#DejaVuSans-31"/>
       <use xlink:href="#DejaVuSans-35" transform="translate(63.623047 0)"/>
       <use xlink:href="#DejaVuSans-30" transform="translate(127.246094 0)"/>
      </g>
     </g>
    </g>
    <g id="ytick_8">
     <g id="line2d_13">
      <g>
       <use xlink:href="#m348aa93e9e" x="42.765865" y="73.822796" style="stroke: #000000; stroke-width: 0.8"/>
      </g>
     </g>
     <g id="text_14">
      <!-- 175 -->
      <g transform="translate(16.678365 77.622014) scale(0.1 -0.1)">
       <use xlink:href="#DejaVuSans-31"/>
       <use xlink:href="#DejaVuSans-37" transform="translate(63.623047 0)"/>
       <use xlink:href="#DejaVuSans-35" transform="translate(127.246094 0)"/>
      </g>
     </g>
    </g>
    <g id="ytick_9">
     <g id="line2d_14">
      <g>
       <use xlink:href="#m348aa93e9e" x="42.765865" y="29.771195" style="stroke: #000000; stroke-width: 0.8"/>
      </g>
     </g>
     <g id="text_15">
      <!-- 200 -->
      <g transform="translate(16.678365 33.570414) scale(0.1 -0.1)">
       <use xlink:href="#DejaVuSans-32"/>
       <use xlink:href="#DejaVuSans-30" transform="translate(63.623047 0)"/>
       <use xlink:href="#DejaVuSans-30" transform="translate(127.246094 0)"/>
      </g>
     </g>
    </g>
    <g id="text_16">
     <!-- Slope of first bump -->
     <g transform="translate(10.598677 248.439062) rotate(-90) scale(0.1 -0.1)">
      <defs>
       <path id="DejaVuSans-53" d="M 3425 4513 
L 3425 3897 
Q 3066 4069 2747 4153 
Q 2428 4238 2131 4238 
Q 1616 4238 1336 4038 
Q 1056 3838 1056 3469 
Q 1056 3159 1242 3001 
Q 1428 2844 1947 2747 
L 2328 2669 
Q 3034 2534 3370 2195 
Q 3706 1856 3706 1288 
Q 3706 609 3251 259 
Q 2797 -91 1919 -91 
Q 1588 -91 1214 -16 
Q 841 59 441 206 
L 441 856 
Q 825 641 1194 531 
Q 1563 422 1919 422 
Q 2459 422 2753 634 
Q 3047 847 3047 1241 
Q 3047 1584 2836 1778 
Q 2625 1972 2144 2069 
L 1759 2144 
Q 1053 2284 737 2584 
Q 422 2884 422 3419 
Q 422 4038 858 4394 
Q 1294 4750 2059 4750 
Q 2388 4750 2728 4690 
Q 3069 4631 3425 4513 
z
" transform="scale(0.015625)"/>
       <path id="DejaVuSans-6c" d="M 603 4863 
L 1178 4863 
L 1178 0 
L 603 0 
L 603 4863 
z
" transform="scale(0.015625)"/>
       <path id="DejaVuSans-6f" d="M 1959 3097 
Q 1497 3097 1228 2736 
Q 959 2375 959 1747 
Q 959 1119 1226 758 
Q 1494 397 1959 397 
Q 2419 397 2687 759 
Q 2956 1122 2956 1747 
Q 2956 2369 2687 2733 
Q 2419 3097 1959 3097 
z
M 1959 3584 
Q 2709 3584 3137 3096 
Q 3566 2609 3566 1747 
Q 3566 888 3137 398 
Q 2709 -91 1959 -91 
Q 1206 -91 779 398 
Q 353 888 353 1747 
Q 353 2609 779 3096 
Q 1206 3584 1959 3584 
z
" transform="scale(0.015625)"/>
       <path id="DejaVuSans-70" d="M 1159 525 
L 1159 -1331 
L 581 -1331 
L 581 3500 
L 1159 3500 
L 1159 2969 
Q 1341 3281 1617 3432 
Q 1894 3584 2278 3584 
Q 2916 3584 3314 3078 
Q 3713 2572 3713 1747 
Q 3713 922 3314 415 
Q 2916 -91 2278 -91 
Q 1894 -91 1617 61 
Q 1341 213 1159 525 
z
M 3116 1747 
Q 3116 2381 2855 2742 
Q 2594 3103 2138 3103 
Q 1681 3103 1420 2742 
Q 1159 2381 1159 1747 
Q 1159 1113 1420 752 
Q 1681 391 2138 391 
Q 2594 391 2855 752 
Q 3116 1113 3116 1747 
z
" transform="scale(0.015625)"/>
       <path id="DejaVuSans-65" d="M 3597 1894 
L 3597 1613 
L 953 1613 
Q 991 1019 1311 708 
Q 1631 397 2203 397 
Q 2534 397 2845 478 
Q 3156 559 3463 722 
L 3463 178 
Q 3153 47 2828 -22 
Q 2503 -91 2169 -91 
Q 1331 -91 842 396 
Q 353 884 353 1716 
Q 353 2575 817 3079 
Q 1281 3584 2069 3584 
Q 2775 3584 3186 3129 
Q 3597 2675 3597 1894 
z
M 3022 2063 
Q 3016 2534 2758 2815 
Q 2500 3097 2075 3097 
Q 1594 3097 1305 2825 
Q 1016 2553 972 2059 
L 3022 2063 
z
" transform="scale(0.015625)"/>
       <path id="DejaVuSans-20" transform="scale(0.015625)"/>
       <path id="DejaVuSans-66" d="M 2375 4863 
L 2375 4384 
L 1825 4384 
Q 1516 4384 1395 4259 
Q 1275 4134 1275 3809 
L 1275 3500 
L 2222 3500 
L 2222 3053 
L 1275 3053 
L 1275 0 
L 697 0 
L 697 3053 
L 147 3053 
L 147 3500 
L 697 3500 
L 697 3744 
Q 697 4328 969 4595 
Q 1241 4863 1831 4863 
L 2375 4863 
z
" transform="scale(0.015625)"/>
       <path id="DejaVuSans-69" d="M 603 3500 
L 1178 3500 
L 1178 0 
L 603 0 
L 603 3500 
z
M 603 4863 
L 1178 4863 
L 1178 4134 
L 603 4134 
L 603 4863 
z
" transform="scale(0.015625)"/>
       <path id="DejaVuSans-72" d="M 2631 2963 
Q 2534 3019 2420 3045 
Q 2306 3072 2169 3072 
Q 1681 3072 1420 2755 
Q 1159 2438 1159 1844 
L 1159 0 
L 581 0 
L 581 3500 
L 1159 3500 
L 1159 2956 
Q 1341 3275 1631 3429 
Q 1922 3584 2338 3584 
Q 2397 3584 2469 3576 
Q 2541 3569 2628 3553 
L 2631 2963 
z
" transform="scale(0.015625)"/>
       <path id="DejaVuSans-73" d="M 2834 3397 
L 2834 2853 
Q 2591 2978 2328 3040 
Q 2066 3103 1784 3103 
Q 1356 3103 1142 2972 
Q 928 2841 928 2578 
Q 928 2378 1081 2264 
Q 1234 2150 1697 2047 
L 1894 2003 
Q 2506 1872 2764 1633 
Q 3022 1394 3022 966 
Q 3022 478 2636 193 
Q 2250 -91 1575 -91 
Q 1294 -91 989 -36 
Q 684 19 347 128 
L 347 722 
Q 666 556 975 473 
Q 1284 391 1588 391 
Q 1994 391 2212 530 
Q 2431 669 2431 922 
Q 2431 1156 2273 1281 
Q 2116 1406 1581 1522 
L 1381 1569 
Q 847 1681 609 1914 
Q 372 2147 372 2553 
Q 372 3047 722 3315 
Q 1072 3584 1716 3584 
Q 2034 3584 2315 3537 
Q 2597 3491 2834 3397 
z
" transform="scale(0.015625)"/>
       <path id="DejaVuSans-74" d="M 1172 4494 
L 1172 3500 
L 2356 3500 
L 2356 3053 
L 1172 3053 
L 1172 1153 
Q 1172 725 1289 603 
Q 1406 481 1766 481 
L 2356 481 
L 2356 0 
L 1766 0 
Q 1100 0 847 248 
Q 594 497 594 1153 
L 594 3053 
L 172 3053 
L 172 3500 
L 594 3500 
L 594 4494 
L 1172 4494 
z
" transform="scale(0.015625)"/>
       <path id="DejaVuSans-62" d="M 3116 1747 
Q 3116 2381 2855 2742 
Q 2594 3103 2138 3103 
Q 1681 3103 1420 2742 
Q 1159 2381 1159 1747 
Q 1159 1113 1420 752 
Q 1681 391 2138 391 
Q 2594 391 2855 752 
Q 3116 1113 3116 1747 
z
M 1159 2969 
Q 1341 3281 1617 3432 
Q 1894 3584 2278 3584 
Q 2916 3584 3314 3078 
Q 3713 2572 3713 1747 
Q 3713 922 3314 415 
Q 2916 -91 2278 -91 
Q 1894 -91 1617 61 
Q 1341 213 1159 525 
L 1159 0 
L 581 0 
L 581 4863 
L 1159 4863 
L 1159 2969 
z
" transform="scale(0.015625)"/>
       <path id="DejaVuSans-75" d="M 544 1381 
L 544 3500 
L 1119 3500 
L 1119 1403 
Q 1119 906 1312 657 
Q 1506 409 1894 409 
Q 2359 409 2629 706 
Q 2900 1003 2900 1516 
L 2900 3500 
L 3475 3500 
L 3475 0 
L 2900 0 
L 2900 538 
Q 2691 219 2414 64 
Q 2138 -91 1772 -91 
Q 1169 -91 856 284 
Q 544 659 544 1381 
z
M 1991 3584 
L 1991 3584 
z
" transform="scale(0.015625)"/>
       <path id="DejaVuSans-6d" d="M 3328 2828 
Q 3544 3216 3844 3400 
Q 4144 3584 4550 3584 
Q 5097 3584 5394 3201 
Q 5691 2819 5691 2113 
L 5691 0 
L 5113 0 
L 5113 2094 
Q 5113 2597 4934 2840 
Q 4756 3084 4391 3084 
Q 3944 3084 3684 2787 
Q 3425 2491 3425 1978 
L 3425 0 
L 2847 0 
L 2847 2094 
Q 2847 2600 2669 2842 
Q 2491 3084 2119 3084 
Q 1678 3084 1418 2786 
Q 1159 2488 1159 1978 
L 1159 0 
L 581 0 
L 581 3500 
L 1159 3500 
L 1159 2956 
Q 1356 3278 1631 3431 
Q 1906 3584 2284 3584 
Q 2666 3584 2933 3390 
Q 3200 3197 3328 2828 
z
" transform="scale(0.015625)"/>
      </defs>
      <use xlink:href="#DejaVuSans-53"/>
      <use xlink:href="#DejaVuSans-6c" transform="translate(63.476562 0)"/>
      <use xlink:href="#DejaVuSans-6f" transform="translate(91.259766 0)"/>
      <use xlink:href="#DejaVuSans-70" transform="translate(152.441406 0)"/>
      <use xlink:href="#DejaVuSans-65" transform="translate(215.917969 0)"/>
      <use xlink:href="#DejaVuSans-20" transform="translate(277.441406 0)"/>
      <use xlink:href="#DejaVuSans-6f" transform="translate(309.228516 0)"/>
      <use xlink:href="#DejaVuSans-66" transform="translate(370.410156 0)"/>
      <use xlink:href="#DejaVuSans-20" transform="translate(405.615234 0)"/>
      <use xlink:href="#DejaVuSans-66" transform="translate(437.402344 0)"/>
      <use xlink:href="#DejaVuSans-69" transform="translate(472.607422 0)"/>
      <use xlink:href="#DejaVuSans-72" transform="translate(500.390625 0)"/>
      <use xlink:href="#DejaVuSans-73" transform="translate(541.503906 0)"/>
      <use xlink:href="#DejaVuSans-74" transform="translate(593.603516 0)"/>
      <use xlink:href="#DejaVuSans-20" transform="translate(632.8125 0)"/>
      <use xlink:href="#DejaVuSans-62" transform="translate(664.599609 0)"/>
      <use xlink:href="#DejaVuSans-75" transform="translate(728.076172 0)"/>
      <use xlink:href="#DejaVuSans-6d" transform="translate(791.455078 0)"/>
      <use xlink:href="#DejaVuSans-70" transform="translate(888.867188 0)"/>
     </g>
    </g>
   </g>
   <g id="line2d_15">
    <path d="M 66.867406 376.864922 
L 78.624255 373.78535 
L 90.381104 370.425755 
L 102.137953 366.786137 
L 113.894802 362.866497 
L 125.651651 358.666835 
L 137.4085 354.18715 
L 149.165349 349.427443 
L 160.922199 344.387713 
L 172.679048 339.067961 
L 184.435897 333.468186 
L 196.192746 327.588389 
L 207.949595 321.428569 
L 219.706444 314.988727 
L 231.463293 308.268862 
L 243.220142 301.268975 
L 254.976991 293.989066 
L 266.733841 286.429133 
L 278.49069 278.589179 
L 290.247539 270.469202 
L 302.004388 262.069203 
L 313.761237 253.389181 
L 325.518086 244.429136 
L 337.274935 235.18907 
L 349.031784 225.66898 
L 360.788634 215.868869 
L 372.545483 205.788734 
L 384.302332 195.428578 
L 396.059181 184.788398 
L 407.81603 173.868197 
L 419.572879 162.667973 
L 431.329728 151.187726 
L 443.086577 139.427457 
L 454.843426 127.387166 
L 466.600276 115.066852 
L 478.357125 102.466515 
L 490.113974 89.586156 
L 501.870823 76.425775 
L 513.627672 62.985371 
L 525.384521 49.264945 
L 537.14137 35.264496 
L 548.898219 20.984025 
" clip-path="url(#pcbaec395d0)" style="fill: none; stroke: #32cd32; stroke-opacity: 0.6; stroke-width: 3; stroke-linecap: square"/>
   </g>
   <g id="line2d_16">
    <path d="M 66.867406 380.659725 
L 78.624255 379.884803 
L 90.381104 379.101358 
L 102.137953 378.30939 
L 113.894802 377.508899 
L 125.651651 376.699886 
L 137.4085 375.882349 
L 149.165349 375.05629 
L 160.922199 374.221707 
L 172.679048 373.378602 
L 184.435897 372.526973 
L 196.192746 371.666822 
L 207.949595 370.798148 
L 219.706444 369.920951 
L 231.463293 369.035231 
L 243.220142 368.140988 
L 254.976991 367.238222 
L 266.733841 366.326933 
L 278.49069 365.407121 
L 290.247539 364.478787 
L 302.004388 363.541929 
L 313.761237 362.596549 
L 325.518086 361.642645 
L 337.274935 360.680219 
L 349.031784 359.709269 
L 360.788634 358.729797 
L 372.545483 357.741802 
L 384.302332 356.745284 
L 396.059181 355.740243 
L 407.81603 354.726679 
L 419.572879 353.704592 
L 431.329728 352.673982 
L 443.086577 351.63485 
L 454.843426 350.587194 
L 466.600276 349.531015 
L 478.357125 348.466314 
L 490.113974 347.393089 
L 501.870823 346.311342 
L 513.627672 345.221072 
L 525.384521 344.122279 
L 537.14137 343.014962 
L 548.898219 341.899123 
" clip-path="url(#pcbaec395d0)" style="fill: none; stroke: #1e90ff; stroke-opacity: 0.6; stroke-width: 3; stroke-linecap: square"/>
   </g>
   <g id="patch_3">
    <path d="M 42.765865 398.64351 
L 42.765865 3.00024 
" style="fill: none; stroke: #000000; stroke-width: 0.8; stroke-linejoin: miter; stroke-linecap: square"/>
   </g>
   <g id="patch_4">
    <path d="M 572.99976 398.64351 
L 572.99976 3.00024 
" style="fill: none; stroke: #000000; stroke-width: 0.8; stroke-linejoin: miter; stroke-linecap: square"/>
   </g>
   <g id="patch_5">
    <path d="M 42.765865 398.64351 
L 572.99976 398.64351 
" style="fill: none; stroke: #000000; stroke-width: 0.8; stroke-linejoin: miter; stroke-linecap: square"/>
   </g>
   <g id="patch_6">
    <path d="M 42.765865 3.00024 
L 572.99976 3.00024 
" style="fill: none; stroke: #000000; stroke-width: 0.8; stroke-linejoin: miter; stroke-linecap: square"/>
   </g>
   <g id="legend_1">
    <g id="patch_7">
     <path d="M 49.765865 70.26899 
L 176.047115 70.26899 
Q 178.047115 70.26899 178.047115 68.26899 
L 178.047115 10.00024 
Q 178.047115 8.00024 176.047115 8.00024 
L 49.765865 8.00024 
Q 47.765865 8.00024 47.765865 10.00024 
L 47.765865 68.26899 
Q 47.765865 70.26899 49.765865 70.26899 
z
" style="fill: #ffffff; opacity: 0.8; stroke: #cccccc; stroke-linejoin: miter"/>
    </g>
    <g id="line2d_17">
     <path d="M 51.765865 16.098678 
L 61.765865 16.098678 
L 71.765865 16.098678 
" style="fill: none; stroke: #32cd32; stroke-opacity: 0.6; stroke-width: 3; stroke-linecap: square"/>
    </g>
    <g id="text_17">
     <!-- quadratic_linear fit -->
     <g transform="translate(79.765865 19.598678) scale(0.1 -0.1)">
      <defs>
       <path id="DejaVuSans-71" d="M 947 1747 
Q 947 1113 1208 752 
Q 1469 391 1925 391 
Q 2381 391 2643 752 
Q 2906 1113 2906 1747 
Q 2906 2381 2643 2742 
Q 2381 3103 1925 3103 
Q 1469 3103 1208 2742 
Q 947 2381 947 1747 
z
M 2906 525 
Q 2725 213 2448 61 
Q 2172 -91 1784 -91 
Q 1150 -91 751 415 
Q 353 922 353 1747 
Q 353 2572 751 3078 
Q 1150 3584 1784 3584 
Q 2172 3584 2448 3432 
Q 2725 3281 2906 2969 
L 2906 3500 
L 3481 3500 
L 3481 -1331 
L 2906 -1331 
L 2906 525 
z
" transform="scale(0.015625)"/>
       <path id="DejaVuSans-61" d="M 2194 1759 
Q 1497 1759 1228 1600 
Q 959 1441 959 1056 
Q 959 750 1161 570 
Q 1363 391 1709 391 
Q 2188 391 2477 730 
Q 2766 1069 2766 1631 
L 2766 1759 
L 2194 1759 
z
M 3341 1997 
L 3341 0 
L 2766 0 
L 2766 531 
Q 2569 213 2275 61 
Q 1981 -91 1556 -91 
Q 1019 -91 701 211 
Q 384 513 384 1019 
Q 384 1609 779 1909 
Q 1175 2209 1959 2209 
L 2766 2209 
L 2766 2266 
Q 2766 2663 2505 2880 
Q 2244 3097 1772 3097 
Q 1472 3097 1187 3025 
Q 903 2953 641 2809 
L 641 3341 
Q 956 3463 1253 3523 
Q 1550 3584 1831 3584 
Q 2591 3584 2966 3190 
Q 3341 2797 3341 1997 
z
" transform="scale(0.015625)"/>
       <path id="DejaVuSans-64" d="M 2906 2969 
L 2906 4863 
L 3481 4863 
L 3481 0 
L 2906 0 
L 2906 525 
Q 2725 213 2448 61 
Q 2172 -91 1784 -91 
Q 1150 -91 751 415 
Q 353 922 353 1747 
Q 353 2572 751 3078 
Q 1150 3584 1784 3584 
Q 2172 3584 2448 3432 
Q 2725 3281 2906 2969 
z
M 947 1747 
Q 947 1113 1208 752 
Q 1469 391 1925 391 
Q 2381 391 2643 752 
Q 2906 1113 2906 1747 
Q 2906 2381 2643 2742 
Q 2381 3103 1925 3103 
Q 1469 3103 1208 2742 
Q 947 2381 947 1747 
z
" transform="scale(0.015625)"/>
       <path id="DejaVuSans-63" d="M 3122 3366 
L 3122 2828 
Q 2878 2963 2633 3030 
Q 2388 3097 2138 3097 
Q 1578 3097 1268 2742 
Q 959 2388 959 1747 
Q 959 1106 1268 751 
Q 1578 397 2138 397 
Q 2388 397 2633 464 
Q 2878 531 3122 666 
L 3122 134 
Q 2881 22 2623 -34 
Q 2366 -91 2075 -91 
Q 1284 -91 818 406 
Q 353 903 353 1747 
Q 353 2603 823 3093 
Q 1294 3584 2113 3584 
Q 2378 3584 2631 3529 
Q 2884 3475 3122 3366 
z
" transform="scale(0.015625)"/>
       <path id="DejaVuSans-5f" d="M 3263 -1063 
L 3263 -1509 
L -63 -1509 
L -63 -1063 
L 3263 -1063 
z
" transform="scale(0.015625)"/>
       <path id="DejaVuSans-6e" d="M 3513 2113 
L 3513 0 
L 2938 0 
L 2938 2094 
Q 2938 2591 2744 2837 
Q 2550 3084 2163 3084 
Q 1697 3084 1428 2787 
Q 1159 2491 1159 1978 
L 1159 0 
L 581 0 
L 581 3500 
L 1159 3500 
L 1159 2956 
Q 1366 3272 1645 3428 
Q 1925 3584 2291 3584 
Q 2894 3584 3203 3211 
Q 3513 2838 3513 2113 
z
" transform="scale(0.015625)"/>
      </defs>
      <use xlink:href="#DejaVuSans-71"/>
      <use xlink:href="#DejaVuSans-75" transform="translate(63.476562 0)"/>
      <use xlink:href="#DejaVuSans-61" transform="translate(126.855469 0)"/>
      <use xlink:href="#DejaVuSans-64" transform="translate(188.134766 0)"/>
      <use xlink:href="#DejaVuSans-72" transform="translate(251.611328 0)"/>
      <use xlink:href="#DejaVuSans-61" transform="translate(292.724609 0)"/>
      <use xlink:href="#DejaVuSans-74" transform="translate(354.003906 0)"/>
      <use xlink:href="#DejaVuSans-69" transform="translate(393.212891 0)"/>
      <use xlink:href="#DejaVuSans-63" transform="translate(420.996094 0)"/>
      <use xlink:href="#DejaVuSans-5f" transform="translate(475.976562 0)"/>
      <use xlink:href="#DejaVuSans-6c" transform="translate(525.976562 0)"/>
      <use xlink:href="#DejaVuSans-69" transform="translate(553.759766 0)"/>
      <use xlink:href="#DejaVuSans-6e" transform="translate(581.542969 0)"/>
      <use xlink:href="#DejaVuSans-65" transform="translate(644.921875 0)"/>
      <use xlink:href="#DejaVuSans-61" transform="translate(706.445312 0)"/>
      <use xlink:href="#DejaVuSans-72" transform="translate(767.724609 0)"/>
      <use xlink:href="#DejaVuSans-20" transform="translate(808.837891 0)"/>
      <use xlink:href="#DejaVuSans-66" transform="translate(840.625 0)"/>
      <use xlink:href="#DejaVuSans-69" transform="translate(875.830078 0)"/>
      <use xlink:href="#DejaVuSans-74" transform="translate(903.613281 0)"/>
     </g>
    </g>
    <g id="PathCollection_3">
     <g>
      <use xlink:href="#mf42873f8be" x="61.765865" y="31.929928" style="fill: #32cd32; stroke: #32cd32"/>
     </g>
    </g>
    <g id="text_18">
     <!-- superradiant state -->
     <g transform="translate(79.765865 34.554928) scale(0.1 -0.1)">
      <use xlink:href="#DejaVuSans-73"/>
      <use xlink:href="#DejaVuSans-75" transform="translate(52.099609 0)"/>
      <use xlink:href="#DejaVuSans-70" transform="translate(115.478516 0)"/>
      <use xlink:href="#DejaVuSans-65" transform="translate(178.955078 0)"/>
      <use xlink:href="#DejaVuSans-72" transform="translate(240.478516 0)"/>
      <use xlink:href="#DejaVuSans-72" transform="translate(279.841797 0)"/>
      <use xlink:href="#DejaVuSans-61" transform="translate(320.955078 0)"/>
      <use xlink:href="#DejaVuSans-64" transform="translate(382.234375 0)"/>
      <use xlink:href="#DejaVuSans-69" transform="translate(445.710938 0)"/>
      <use xlink:href="#DejaVuSans-61" transform="translate(473.494141 0)"/>
      <use xlink:href="#DejaVuSans-6e" transform="translate(534.773438 0)"/>
      <use xlink:href="#DejaVuSans-74" transform="translate(598.152344 0)"/>
      <use xlink:href="#DejaVuSans-20" transform="translate(637.361328 0)"/>
      <use xlink:href="#DejaVuSans-73" transform="translate(669.148438 0)"/>
      <use xlink:href="#DejaVuSans-74" transform="translate(721.248047 0)"/>
      <use xlink:href="#DejaVuSans-61" transform="translate(760.457031 0)"/>
      <use xlink:href="#DejaVuSans-74" transform="translate(821.736328 0)"/>
      <use xlink:href="#DejaVuSans-65" transform="translate(860.945312 0)"/>
     </g>
    </g>
    <g id="line2d_18">
     <path d="M 51.765865 45.733052 
L 61.765865 45.733052 
L 71.765865 45.733052 
" style="fill: none; stroke: #1e90ff; stroke-opacity: 0.6; stroke-width: 3; stroke-linecap: square"/>
    </g>
    <g id="text_19">
     <!-- quadratic_linear fit -->
     <g transform="translate(79.765865 49.233052) scale(0.1 -0.1)">
      <use xlink:href="#DejaVuSans-71"/>
      <use xlink:href="#DejaVuSans-75" transform="translate(63.476562 0)"/>
      <use xlink:href="#DejaVuSans-61" transform="translate(126.855469 0)"/>
      <use xlink:href="#DejaVuSans-64" transform="translate(188.134766 0)"/>
      <use xlink:href="#DejaVuSans-72" transform="translate(251.611328 0)"/>
      <use xlink:href="#DejaVuSans-61" transform="translate(292.724609 0)"/>
      <use xlink:href="#DejaVuSans-74" transform="translate(354.003906 0)"/>
      <use xlink:href="#DejaVuSans-69" transform="translate(393.212891 0)"/>
      <use xlink:href="#DejaVuSans-63" transform="translate(420.996094 0)"/>
      <use xlink:href="#DejaVuSans-5f" transform="translate(475.976562 0)"/>
      <use xlink:href="#DejaVuSans-6c" transform="translate(525.976562 0)"/>
      <use xlink:href="#DejaVuSans-69" transform="translate(553.759766 0)"/>
      <use xlink:href="#DejaVuSans-6e" transform="translate(581.542969 0)"/>
      <use xlink:href="#DejaVuSans-65" transform="translate(644.921875 0)"/>
      <use xlink:href="#DejaVuSans-61" transform="translate(706.445312 0)"/>
      <use xlink:href="#DejaVuSans-72" transform="translate(767.724609 0)"/>
      <use xlink:href="#DejaVuSans-20" transform="translate(808.837891 0)"/>
      <use xlink:href="#DejaVuSans-66" transform="translate(840.625 0)"/>
      <use xlink:href="#DejaVuSans-69" transform="translate(875.830078 0)"/>
      <use xlink:href="#DejaVuSans-74" transform="translate(903.613281 0)"/>
     </g>
    </g>
    <g id="PathCollection_4">
     <g>
      <use xlink:href="#m9236342b30" x="61.765865" y="61.564302" style="fill: #1e90ff; stroke: #1e90ff"/>
     </g>
    </g>
    <g id="text_20">
     <!-- excited state -->
     <g transform="translate(79.765865 64.189302) scale(0.1 -0.1)">
      <defs>
       <path id="DejaVuSans-78" d="M 3513 3500 
L 2247 1797 
L 3578 0 
L 2900 0 
L 1881 1375 
L 863 0 
L 184 0 
L 1544 1831 
L 300 3500 
L 978 3500 
L 1906 2253 
L 2834 3500 
L 3513 3500 
z
" transform="scale(0.015625)"/>
      </defs>
      <use xlink:href="#DejaVuSans-65"/>
      <use xlink:href="#DejaVuSans-78" transform="translate(59.773438 0)"/>
      <use xlink:href="#DejaVuSans-63" transform="translate(117.203125 0)"/>
      <use xlink:href="#DejaVuSans-69" transform="translate(172.183594 0)"/>
      <use xlink:href="#DejaVuSans-74" transform="translate(199.966797 0)"/>
      <use xlink:href="#DejaVuSans-65" transform="translate(239.175781 0)"/>
      <use xlink:href="#DejaVuSans-64" transform="translate(300.699219 0)"/>
      <use xlink:href="#DejaVuSans-20" transform="translate(364.175781 0)"/>
      <use xlink:href="#DejaVuSans-73" transform="translate(395.962891 0)"/>
      <use xlink:href="#DejaVuSans-74" transform="translate(448.0625 0)"/>
      <use xlink:href="#DejaVuSans-61" transform="translate(487.271484 0)"/>
      <use xlink:href="#DejaVuSans-74" transform="translate(548.550781 0)"/>
      <use xlink:href="#DejaVuSans-65" transform="translate(587.759766 0)"/>
     </g>
    </g>
   </g>
  </g>
 </g>
 <defs>
  <clipPath id="pcbaec395d0">
   <rect x="42.765865" y="3.00024" width="530.233895" height="395.64327"/>
  </clipPath>
 </defs>
</svg>
