<?xml version="1.0" encoding="utf-8" standalone="no"?>
<!DOCTYPE svg PUBLIC "-//W3C//DTD SVG 1.1//EN"
  "http://www.w3.org/Graphics/SVG/1.1/DTD/svg11.dtd">
<svg xmlns:xlink="http://www.w3.org/1999/xlink" width="576pt" height="432pt" viewBox="0 0 576 432" xmlns="http://www.w3.org/2000/svg" version="1.1">
 <metadata>
  <rdf:RDF xmlns:dc="http://purl.org/dc/elements/1.1/" xmlns:cc="http://creativecommons.org/ns#" xmlns:rdf="http://www.w3.org/1999/02/22-rdf-syntax-ns#">
   <cc:Work>
    <dc:type rdf:resource="http://purl.org/dc/dcmitype/StillImage"/>
    <dc:date>2025-01-13T17:07:26.132584</dc:date>
    <dc:format>image/svg+xml</dc:format>
    <dc:creator>
     <cc:Agent>
      <dc:title>Matplotlib v3.10.0, https://matplotlib.org/</dc:title>
     </cc:Agent>
    </dc:creator>
   </cc:Work>
  </rdf:RDF>
 </metadata>
 <defs>
  <style type="text/css">*{stroke-linejoin: round; stroke-linecap: butt}</style>
 </defs>
 <g id="figure_1">
  <g id="patch_1">
   <path d="M 0 432 
L 576 432 
L 576 0 
L 0 0 
z
" style="fill: #ffffff"/>
  </g>
  <g id="axes_1">
   <g id="patch_2">
    <path d="M 42.765865 398.64351 
L 572.99976 398.64351 
L 572.99976 3.00024 
L 42.765865 3.00024 
z
" style="fill: #ffffff"/>
   </g>
   <g id="PathCollection_1">
    <defs>
     <path id="m9ad6c23daf" d="M 0 2.95804 
C 0.784481 2.95804 1.536938 2.646362 2.09165 2.09165 
C 2.646362 1.536938 2.95804 0.784481 2.95804 0 
C 2.95804 -0.784481 2.646362 -1.536938 2.09165 -2.09165 
C 1.536938 -2.646362 0.784481 -2.95804 0 -2.95804 
C -0.784481 -2.95804 -1.536938 -2.646362 -2.09165 -2.09165 
C -2.646362 -1.536938 -2.95804 -0.784481 -2.95804 0 
C -2.95804 0.784481 -2.646362 1.536938 -2.09165 2.09165 
C -1.536938 2.646362 -0.784481 2.95804 0 2.95804 
z
" style="stroke: #32cd32"/>
    </defs>
    <g clip-path="url(#pc43885336a)">
     <use xlink:href="#m9ad6c23daf" x="66.867406" y="380.273253" style="fill: #32cd32; stroke: #32cd32"/>
     <use xlink:href="#m9ad6c23daf" x="75.178282" y="379.693027" style="fill: #32cd32; stroke: #32cd32"/>
     <use xlink:href="#m9ad6c23daf" x="83.489158" y="378.726325" style="fill: #32cd32; stroke: #32cd32"/>
     <use xlink:href="#m9ad6c23daf" x="91.800034" y="377.759371" style="fill: #32cd32; stroke: #32cd32"/>
     <use xlink:href="#m9ad6c23daf" x="100.11091" y="376.405932" style="fill: #32cd32; stroke: #32cd32"/>
     <use xlink:href="#m9ad6c23daf" x="108.421786" y="375.052252" style="fill: #32cd32; stroke: #32cd32"/>
     <use xlink:href="#m9ad6c23daf" x="116.732662" y="373.312075" style="fill: #32cd32; stroke: #32cd32"/>
     <use xlink:href="#m9ad6c23daf" x="125.043538" y="371.571671" style="fill: #32cd32; stroke: #32cd32"/>
     <use xlink:href="#m9ad6c23daf" x="133.354414" y="369.444754" style="fill: #32cd32; stroke: #32cd32"/>
     <use xlink:href="#m9ad6c23daf" x="141.665291" y="367.317627" style="fill: #32cd32; stroke: #32cd32"/>
     <use xlink:href="#m9ad6c23daf" x="149.976167" y="364.803969" style="fill: #32cd32; stroke: #32cd32"/>
     <use xlink:href="#m9ad6c23daf" x="158.287043" y="362.29012" style="fill: #32cd32; stroke: #32cd32"/>
     <use xlink:href="#m9ad6c23daf" x="166.597919" y="359.389719" style="fill: #32cd32; stroke: #32cd32"/>
     <use xlink:href="#m9ad6c23daf" x="174.908795" y="356.489151" style="fill: #32cd32; stroke: #32cd32"/>
     <use xlink:href="#m9ad6c23daf" x="183.219671" y="353.202005" style="fill: #32cd32; stroke: #32cd32"/>
     <use xlink:href="#m9ad6c23daf" x="191.530547" y="349.914719" style="fill: #32cd32; stroke: #32cd32"/>
     <use xlink:href="#m9ad6c23daf" x="199.841423" y="346.240827" style="fill: #32cd32; stroke: #32cd32"/>
     <use xlink:href="#m9ad6c23daf" x="208.152299" y="342.566825" style="fill: #32cd32; stroke: #32cd32"/>
     <use xlink:href="#m9ad6c23daf" x="216.463175" y="338.506185" style="fill: #32cd32; stroke: #32cd32"/>
     <use xlink:href="#m9ad6c23daf" x="224.774052" y="334.445468" style="fill: #32cd32; stroke: #32cd32"/>
     <use xlink:href="#m9ad6c23daf" x="233.084928" y="329.998079" style="fill: #32cd32; stroke: #32cd32"/>
     <use xlink:href="#m9ad6c23daf" x="241.395804" y="325.550649" style="fill: #32cd32; stroke: #32cd32"/>
     <use xlink:href="#m9ad6c23daf" x="249.70668" y="320.716508" style="fill: #32cd32; stroke: #32cd32"/>
     <use xlink:href="#m9ad6c23daf" x="258.017556" y="315.882367" style="fill: #32cd32; stroke: #32cd32"/>
     <use xlink:href="#m9ad6c23daf" x="266.328432" y="310.661473" style="fill: #32cd32; stroke: #32cd32"/>
     <use xlink:href="#m9ad6c23daf" x="274.639308" y="305.440623" style="fill: #32cd32; stroke: #32cd32"/>
     <use xlink:href="#m9ad6c23daf" x="282.950184" y="299.832974" style="fill: #32cd32; stroke: #32cd32"/>
     <use xlink:href="#m9ad6c23daf" x="291.26106" y="294.225416" style="fill: #32cd32; stroke: #32cd32"/>
     <use xlink:href="#m9ad6c23daf" x="299.571936" y="288.231011" style="fill: #32cd32; stroke: #32cd32"/>
     <use xlink:href="#m9ad6c23daf" x="307.882813" y="282.236747" style="fill: #32cd32; stroke: #32cd32"/>
     <use xlink:href="#m9ad6c23daf" x="316.193689" y="275.855583" style="fill: #32cd32; stroke: #32cd32"/>
     <use xlink:href="#m9ad6c23daf" x="324.504565" y="269.474615" style="fill: #32cd32; stroke: #32cd32"/>
     <use xlink:href="#m9ad6c23daf" x="332.815441" y="262.706691" style="fill: #32cd32; stroke: #32cd32"/>
     <use xlink:href="#m9ad6c23daf" x="341.126317" y="255.93902" style="fill: #32cd32; stroke: #32cd32"/>
     <use xlink:href="#m9ad6c23daf" x="349.437193" y="248.784335" style="fill: #32cd32; stroke: #32cd32"/>
     <use xlink:href="#m9ad6c23daf" x="357.748069" y="241.629963" style="fill: #32cd32; stroke: #32cd32"/>
     <use xlink:href="#m9ad6c23daf" x="366.058945" y="234.088515" style="fill: #32cd32; stroke: #32cd32"/>
     <use xlink:href="#m9ad6c23daf" x="374.369821" y="226.547443" style="fill: #32cd32; stroke: #32cd32"/>
     <use xlink:href="#m9ad6c23daf" x="382.680697" y="218.61923" style="fill: #32cd32; stroke: #32cd32"/>
     <use xlink:href="#m9ad6c23daf" x="390.991573" y="210.691461" style="fill: #32cd32; stroke: #32cd32"/>
     <use xlink:href="#m9ad6c23daf" x="399.30245" y="202.376482" style="fill: #32cd32; stroke: #32cd32"/>
     <use xlink:href="#m9ad6c23daf" x="407.613326" y="194.062016" style="fill: #32cd32; stroke: #32cd32"/>
     <use xlink:href="#m9ad6c23daf" x="415.924202" y="185.360269" style="fill: #32cd32; stroke: #32cd32"/>
     <use xlink:href="#m9ad6c23daf" x="424.235078" y="176.659109" style="fill: #32cd32; stroke: #32cd32"/>
     <use xlink:href="#m9ad6c23daf" x="432.545954" y="167.570591" style="fill: #32cd32; stroke: #32cd32"/>
     <use xlink:href="#m9ad6c23daf" x="440.85683" y="158.482739" style="fill: #32cd32; stroke: #32cd32"/>
     <use xlink:href="#m9ad6c23daf" x="449.167706" y="149.00745" style="fill: #32cd32; stroke: #32cd32"/>
     <use xlink:href="#m9ad6c23daf" x="457.478582" y="139.532906" style="fill: #32cd32; stroke: #32cd32"/>
     <use xlink:href="#m9ad6c23daf" x="465.789458" y="129.670844" style="fill: #32cd32; stroke: #32cd32"/>
     <use xlink:href="#m9ad6c23daf" x="474.100334" y="119.80961" style="fill: #32cd32; stroke: #32cd32"/>
     <use xlink:href="#m9ad6c23daf" x="482.411211" y="109.560773" style="fill: #32cd32; stroke: #32cd32"/>
     <use xlink:href="#m9ad6c23daf" x="490.722087" y="99.312852" style="fill: #32cd32; stroke: #32cd32"/>
     <use xlink:href="#m9ad6c23daf" x="499.032963" y="88.677239" style="fill: #32cd32; stroke: #32cd32"/>
     <use xlink:href="#m9ad6c23daf" x="507.343839" y="78.042628" style="fill: #32cd32; stroke: #32cd32"/>
     <use xlink:href="#m9ad6c23daf" x="515.654715" y="67.020256" style="fill: #32cd32; stroke: #32cd32"/>
     <use xlink:href="#m9ad6c23daf" x="523.965591" y="55.998934" style="fill: #32cd32; stroke: #32cd32"/>
     <use xlink:href="#m9ad6c23daf" x="532.276467" y="44.589759" style="fill: #32cd32; stroke: #32cd32"/>
     <use xlink:href="#m9ad6c23daf" x="540.587343" y="33.18179" style="fill: #32cd32; stroke: #32cd32"/>
     <use xlink:href="#m9ad6c23daf" x="548.898219" y="21.385763" style="fill: #32cd32; stroke: #32cd32"/>
    </g>
   </g>
   <g id="PathCollection_2">
    <defs>
     <path id="md77c5e2f08" d="M 0 -2.95804 
L -2.95804 2.95804 
L 2.95804 2.95804 
z
" style="stroke: #1e90ff"/>
    </defs>
    <g clip-path="url(#pc43885336a)">
     <use xlink:href="#md77c5e2f08" x="66.867406" y="380.659725" style="fill: #1e90ff; stroke: #1e90ff"/>
     <use xlink:href="#md77c5e2f08" x="75.178282" y="380.466229" style="fill: #1e90ff; stroke: #1e90ff"/>
     <use xlink:href="#md77c5e2f08" x="83.489158" y="380.272733" style="fill: #1e90ff; stroke: #1e90ff"/>
     <use xlink:href="#md77c5e2f08" x="91.800034" y="380.079237" style="fill: #1e90ff; stroke: #1e90ff"/>
     <use xlink:href="#md77c5e2f08" x="100.11091" y="379.885742" style="fill: #1e90ff; stroke: #1e90ff"/>
     <use xlink:href="#md77c5e2f08" x="108.421786" y="379.692246" style="fill: #1e90ff; stroke: #1e90ff"/>
     <use xlink:href="#md77c5e2f08" x="116.732662" y="379.498751" style="fill: #1e90ff; stroke: #1e90ff"/>
     <use xlink:href="#md77c5e2f08" x="125.043538" y="379.305256" style="fill: #1e90ff; stroke: #1e90ff"/>
     <use xlink:href="#md77c5e2f08" x="133.354414" y="379.111761" style="fill: #1e90ff; stroke: #1e90ff"/>
     <use xlink:href="#md77c5e2f08" x="141.665291" y="378.918266" style="fill: #1e90ff; stroke: #1e90ff"/>
     <use xlink:href="#md77c5e2f08" x="149.976167" y="378.724771" style="fill: #1e90ff; stroke: #1e90ff"/>
     <use xlink:href="#md77c5e2f08" x="158.287043" y="378.531276" style="fill: #1e90ff; stroke: #1e90ff"/>
     <use xlink:href="#md77c5e2f08" x="166.597919" y="378.337782" style="fill: #1e90ff; stroke: #1e90ff"/>
     <use xlink:href="#md77c5e2f08" x="174.908795" y="378.144288" style="fill: #1e90ff; stroke: #1e90ff"/>
     <use xlink:href="#md77c5e2f08" x="183.219671" y="377.950793" style="fill: #1e90ff; stroke: #1e90ff"/>
     <use xlink:href="#md77c5e2f08" x="191.530547" y="377.757299" style="fill: #1e90ff; stroke: #1e90ff"/>
     <use xlink:href="#md77c5e2f08" x="199.841423" y="377.563805" style="fill: #1e90ff; stroke: #1e90ff"/>
     <use xlink:href="#md77c5e2f08" x="208.152299" y="377.370312" style="fill: #1e90ff; stroke: #1e90ff"/>
     <use xlink:href="#md77c5e2f08" x="216.463175" y="377.176818" style="fill: #1e90ff; stroke: #1e90ff"/>
     <use xlink:href="#md77c5e2f08" x="224.774052" y="376.983324" style="fill: #1e90ff; stroke: #1e90ff"/>
     <use xlink:href="#md77c5e2f08" x="233.084928" y="376.789831" style="fill: #1e90ff; stroke: #1e90ff"/>
     <use xlink:href="#md77c5e2f08" x="241.395804" y="376.596338" style="fill: #1e90ff; stroke: #1e90ff"/>
     <use xlink:href="#md77c5e2f08" x="249.70668" y="376.402845" style="fill: #1e90ff; stroke: #1e90ff"/>
     <use xlink:href="#md77c5e2f08" x="258.017556" y="376.209352" style="fill: #1e90ff; stroke: #1e90ff"/>
     <use xlink:href="#md77c5e2f08" x="266.328432" y="376.015859" style="fill: #1e90ff; stroke: #1e90ff"/>
     <use xlink:href="#md77c5e2f08" x="274.639308" y="375.822366" style="fill: #1e90ff; stroke: #1e90ff"/>
     <use xlink:href="#md77c5e2f08" x="282.950184" y="375.628874" style="fill: #1e90ff; stroke: #1e90ff"/>
     <use xlink:href="#md77c5e2f08" x="291.26106" y="375.435381" style="fill: #1e90ff; stroke: #1e90ff"/>
     <use xlink:href="#md77c5e2f08" x="299.571936" y="375.241889" style="fill: #1e90ff; stroke: #1e90ff"/>
     <use xlink:href="#md77c5e2f08" x="307.882813" y="375.048397" style="fill: #1e90ff; stroke: #1e90ff"/>
     <use xlink:href="#md77c5e2f08" x="316.193689" y="374.854905" style="fill: #1e90ff; stroke: #1e90ff"/>
     <use xlink:href="#md77c5e2f08" x="324.504565" y="374.661413" style="fill: #1e90ff; stroke: #1e90ff"/>
     <use xlink:href="#md77c5e2f08" x="332.815441" y="374.467922" style="fill: #1e90ff; stroke: #1e90ff"/>
     <use xlink:href="#md77c5e2f08" x="341.126317" y="374.27443" style="fill: #1e90ff; stroke: #1e90ff"/>
     <use xlink:href="#md77c5e2f08" x="349.437193" y="374.080939" style="fill: #1e90ff; stroke: #1e90ff"/>
     <use xlink:href="#md77c5e2f08" x="357.748069" y="373.887448" style="fill: #1e90ff; stroke: #1e90ff"/>
     <use xlink:href="#md77c5e2f08" x="366.058945" y="373.693956" style="fill: #1e90ff; stroke: #1e90ff"/>
     <use xlink:href="#md77c5e2f08" x="374.369821" y="373.500466" style="fill: #1e90ff; stroke: #1e90ff"/>
     <use xlink:href="#md77c5e2f08" x="382.680697" y="373.306975" style="fill: #1e90ff; stroke: #1e90ff"/>
     <use xlink:href="#md77c5e2f08" x="390.991573" y="373.113484" style="fill: #1e90ff; stroke: #1e90ff"/>
     <use xlink:href="#md77c5e2f08" x="399.30245" y="372.919993" style="fill: #1e90ff; stroke: #1e90ff"/>
     <use xlink:href="#md77c5e2f08" x="407.613326" y="372.726503" style="fill: #1e90ff; stroke: #1e90ff"/>
     <use xlink:href="#md77c5e2f08" x="415.924202" y="372.533013" style="fill: #1e90ff; stroke: #1e90ff"/>
     <use xlink:href="#md77c5e2f08" x="424.235078" y="372.339523" style="fill: #1e90ff; stroke: #1e90ff"/>
     <use xlink:href="#md77c5e2f08" x="432.545954" y="372.146033" style="fill: #1e90ff; stroke: #1e90ff"/>
     <use xlink:href="#md77c5e2f08" x="440.85683" y="371.952543" style="fill: #1e90ff; stroke: #1e90ff"/>
     <use xlink:href="#md77c5e2f08" x="449.167706" y="371.759053" style="fill: #1e90ff; stroke: #1e90ff"/>
     <use xlink:href="#md77c5e2f08" x="457.478582" y="371.565564" style="fill: #1e90ff; stroke: #1e90ff"/>
     <use xlink:href="#md77c5e2f08" x="465.789458" y="371.372074" style="fill: #1e90ff; stroke: #1e90ff"/>
     <use xlink:href="#md77c5e2f08" x="474.100334" y="371.178585" style="fill: #1e90ff; stroke: #1e90ff"/>
     <use xlink:href="#md77c5e2f08" x="482.411211" y="370.985096" style="fill: #1e90ff; stroke: #1e90ff"/>
     <use xlink:href="#md77c5e2f08" x="490.722087" y="370.791607" style="fill: #1e90ff; stroke: #1e90ff"/>
     <use xlink:href="#md77c5e2f08" x="499.032963" y="370.598118" style="fill: #1e90ff; stroke: #1e90ff"/>
     <use xlink:href="#md77c5e2f08" x="507.343839" y="370.404629" style="fill: #1e90ff; stroke: #1e90ff"/>
     <use xlink:href="#md77c5e2f08" x="515.654715" y="370.211141" style="fill: #1e90ff; stroke: #1e90ff"/>
     <use xlink:href="#md77c5e2f08" x="523.965591" y="370.017652" style="fill: #1e90ff; stroke: #1e90ff"/>
     <use xlink:href="#md77c5e2f08" x="532.276467" y="369.824164" style="fill: #1e90ff; stroke: #1e90ff"/>
     <use xlink:href="#md77c5e2f08" x="540.587343" y="369.630676" style="fill: #1e90ff; stroke: #1e90ff"/>
     <use xlink:href="#md77c5e2f08" x="548.898219" y="369.437188" style="fill: #1e90ff; stroke: #1e90ff"/>
    </g>
   </g>
   <g id="matplotlib.axis_1">
    <g id="xtick_1">
     <g id="line2d_1">
      <defs>
       <path id="m2c0fb3d066" d="M 0 0 
L 0 3.5 
" style="stroke: #000000; stroke-width: 0.8"/>
      </defs>
      <g>
       <use xlink:href="#m2c0fb3d066" x="50.245653" y="398.64351" style="stroke: #000000; stroke-width: 0.8"/>
      </g>
     </g>
     <g id="text_1">
      <!-- 0 -->
      <g transform="translate(47.064403 413.241947) scale(0.1 -0.1)">
       <defs>
        <path id="DejaVuSans-30" d="M 2034 4250 
Q 1547 4250 1301 3770 
Q 1056 3291 1056 2328 
Q 1056 1369 1301 889 
Q 1547 409 2034 409 
Q 2525 409 2770 889 
Q 3016 1369 3016 2328 
Q 3016 3291 2770 3770 
Q 2525 4250 2034 4250 
z
M 2034 4750 
Q 2819 4750 3233 4129 
Q 3647 3509 3647 2328 
Q 3647 1150 3233 529 
Q 2819 -91 2034 -91 
Q 1250 -91 836 529 
Q 422 1150 422 2328 
Q 422 3509 836 4129 
Q 1250 4750 2034 4750 
z
" transform="scale(0.015625)"/>
       </defs>
       <use xlink:href="#DejaVuSans-30"/>
      </g>
     </g>
    </g>
    <g id="xtick_2">
     <g id="line2d_2">
      <g>
       <use xlink:href="#m2c0fb3d066" x="133.354414" y="398.64351" style="stroke: #000000; stroke-width: 0.8"/>
      </g>
     </g>
     <g id="text_2">
      <!-- 10 -->
      <g transform="translate(126.991914 413.241947) scale(0.1 -0.1)">
       <defs>
        <path id="DejaVuSans-31" d="M 794 531 
L 1825 531 
L 1825 4091 
L 703 3866 
L 703 4441 
L 1819 4666 
L 2450 4666 
L 2450 531 
L 3481 531 
L 3481 0 
L 794 0 
L 794 531 
z
" transform="scale(0.015625)"/>
       </defs>
       <use xlink:href="#DejaVuSans-31"/>
       <use xlink:href="#DejaVuSans-30" transform="translate(63.623047 0)"/>
      </g>
     </g>
    </g>
    <g id="xtick_3">
     <g id="line2d_3">
      <g>
       <use xlink:href="#m2c0fb3d066" x="216.463175" y="398.64351" style="stroke: #000000; stroke-width: 0.8"/>
      </g>
     </g>
     <g id="text_3">
      <!-- 20 -->
      <g transform="translate(210.100675 413.241947) scale(0.1 -0.1)">
       <defs>
        <path id="DejaVuSans-32" d="M 1228 531 
L 3431 531 
L 3431 0 
L 469 0 
L 469 531 
Q 828 903 1448 1529 
Q 2069 2156 2228 2338 
Q 2531 2678 2651 2914 
Q 2772 3150 2772 3378 
Q 2772 3750 2511 3984 
Q 2250 4219 1831 4219 
Q 1534 4219 1204 4116 
Q 875 4013 500 3803 
L 500 4441 
Q 881 4594 1212 4672 
Q 1544 4750 1819 4750 
Q 2544 4750 2975 4387 
Q 3406 4025 3406 3419 
Q 3406 3131 3298 2873 
Q 3191 2616 2906 2266 
Q 2828 2175 2409 1742 
Q 1991 1309 1228 531 
z
" transform="scale(0.015625)"/>
       </defs>
       <use xlink:href="#DejaVuSans-32"/>
       <use xlink:href="#DejaVuSans-30" transform="translate(63.623047 0)"/>
      </g>
     </g>
    </g>
    <g id="xtick_4">
     <g id="line2d_4">
      <g>
       <use xlink:href="#m2c0fb3d066" x="299.571936" y="398.64351" style="stroke: #000000; stroke-width: 0.8"/>
      </g>
     </g>
     <g id="text_4">
      <!-- 30 -->
      <g transform="translate(293.209436 413.241947) scale(0.1 -0.1)">
       <defs>
        <path id="DejaVuSans-33" d="M 2597 2516 
Q 3050 2419 3304 2112 
Q 3559 1806 3559 1356 
Q 3559 666 3084 287 
Q 2609 -91 1734 -91 
Q 1441 -91 1130 -33 
Q 819 25 488 141 
L 488 750 
Q 750 597 1062 519 
Q 1375 441 1716 441 
Q 2309 441 2620 675 
Q 2931 909 2931 1356 
Q 2931 1769 2642 2001 
Q 2353 2234 1838 2234 
L 1294 2234 
L 1294 2753 
L 1863 2753 
Q 2328 2753 2575 2939 
Q 2822 3125 2822 3475 
Q 2822 3834 2567 4026 
Q 2313 4219 1838 4219 
Q 1578 4219 1281 4162 
Q 984 4106 628 3988 
L 628 4550 
Q 988 4650 1302 4700 
Q 1616 4750 1894 4750 
Q 2613 4750 3031 4423 
Q 3450 4097 3450 3541 
Q 3450 3153 3228 2886 
Q 3006 2619 2597 2516 
z
" transform="scale(0.015625)"/>
       </defs>
       <use xlink:href="#DejaVuSans-33"/>
       <use xlink:href="#DejaVuSans-30" transform="translate(63.623047 0)"/>
      </g>
     </g>
    </g>
    <g id="xtick_5">
     <g id="line2d_5">
      <g>
       <use xlink:href="#m2c0fb3d066" x="382.680697" y="398.64351" style="stroke: #000000; stroke-width: 0.8"/>
      </g>
     </g>
     <g id="text_5">
      <!-- 40 -->
      <g transform="translate(376.318197 413.241947) scale(0.1 -0.1)">
       <defs>
        <path id="DejaVuSans-34" d="M 2419 4116 
L 825 1625 
L 2419 1625 
L 2419 4116 
z
M 2253 4666 
L 3047 4666 
L 3047 1625 
L 3713 1625 
L 3713 1100 
L 3047 1100 
L 3047 0 
L 2419 0 
L 2419 1100 
L 313 1100 
L 313 1709 
L 2253 4666 
z
" transform="scale(0.015625)"/>
       </defs>
       <use xlink:href="#DejaVuSans-34"/>
       <use xlink:href="#DejaVuSans-30" transform="translate(63.623047 0)"/>
      </g>
     </g>
    </g>
    <g id="xtick_6">
     <g id="line2d_6">
      <g>
       <use xlink:href="#m2c0fb3d066" x="465.789458" y="398.64351" style="stroke: #000000; stroke-width: 0.8"/>
      </g>
     </g>
     <g id="text_6">
      <!-- 50 -->
      <g transform="translate(459.426958 413.241947) scale(0.1 -0.1)">
       <defs>
        <path id="DejaVuSans-35" d="M 691 4666 
L 3169 4666 
L 3169 4134 
L 1269 4134 
L 1269 2991 
Q 1406 3038 1543 3061 
Q 1681 3084 1819 3084 
Q 2600 3084 3056 2656 
Q 3513 2228 3513 1497 
Q 3513 744 3044 326 
Q 2575 -91 1722 -91 
Q 1428 -91 1123 -41 
Q 819 9 494 109 
L 494 744 
Q 775 591 1075 516 
Q 1375 441 1709 441 
Q 2250 441 2565 725 
Q 2881 1009 2881 1497 
Q 2881 1984 2565 2268 
Q 2250 2553 1709 2553 
Q 1456 2553 1204 2497 
Q 953 2441 691 2322 
L 691 4666 
z
" transform="scale(0.015625)"/>
       </defs>
       <use xlink:href="#DejaVuSans-35"/>
       <use xlink:href="#DejaVuSans-30" transform="translate(63.623047 0)"/>
      </g>
     </g>
    </g>
    <g id="xtick_7">
     <g id="line2d_7">
      <g>
       <use xlink:href="#m2c0fb3d066" x="548.898219" y="398.64351" style="stroke: #000000; stroke-width: 0.8"/>
      </g>
     </g>
     <g id="text_7">
      <!-- 60 -->
      <g transform="translate(542.535719 413.241947) scale(0.1 -0.1)">
       <defs>
        <path id="DejaVuSans-36" d="M 2113 2584 
Q 1688 2584 1439 2293 
Q 1191 2003 1191 1497 
Q 1191 994 1439 701 
Q 1688 409 2113 409 
Q 2538 409 2786 701 
Q 3034 994 3034 1497 
Q 3034 2003 2786 2293 
Q 2538 2584 2113 2584 
z
M 3366 4563 
L 3366 3988 
Q 3128 4100 2886 4159 
Q 2644 4219 2406 4219 
Q 1781 4219 1451 3797 
Q 1122 3375 1075 2522 
Q 1259 2794 1537 2939 
Q 1816 3084 2150 3084 
Q 2853 3084 3261 2657 
Q 3669 2231 3669 1497 
Q 3669 778 3244 343 
Q 2819 -91 2113 -91 
Q 1303 -91 875 529 
Q 447 1150 447 2328 
Q 447 3434 972 4092 
Q 1497 4750 2381 4750 
Q 2619 4750 2861 4703 
Q 3103 4656 3366 4563 
z
" transform="scale(0.015625)"/>
       </defs>
       <use xlink:href="#DejaVuSans-36"/>
       <use xlink:href="#DejaVuSans-30" transform="translate(63.623047 0)"/>
      </g>
     </g>
    </g>
    <g id="text_8">
     <!-- N -->
     <g transform="translate(304.142188 426.920072) scale(0.1 -0.1)">
      <defs>
       <path id="DejaVuSans-4e" d="M 628 4666 
L 1478 4666 
L 3547 763 
L 3547 4666 
L 4159 4666 
L 4159 0 
L 3309 0 
L 1241 3903 
L 1241 0 
L 628 0 
L 628 4666 
z
" transform="scale(0.015625)"/>
      </defs>
      <use xlink:href="#DejaVuSans-4e"/>
     </g>
    </g>
   </g>
   <g id="matplotlib.axis_2">
    <g id="ytick_1">
     <g id="line2d_8">
      <defs>
       <path id="m165b222745" d="M 0 0 
L -3.5 0 
" style="stroke: #000000; stroke-width: 0.8"/>
      </defs>
      <g>
       <use xlink:href="#m165b222745" x="42.765865" y="381.046717" style="stroke: #000000; stroke-width: 0.8"/>
      </g>
     </g>
     <g id="text_9">
      <!-- 0 -->
      <g transform="translate(29.403365 384.845936) scale(0.1 -0.1)">
       <use xlink:href="#DejaVuSans-30"/>
      </g>
     </g>
    </g>
    <g id="ytick_2">
     <g id="line2d_9">
      <g>
       <use xlink:href="#m165b222745" x="42.765865" y="335.173042" style="stroke: #000000; stroke-width: 0.8"/>
      </g>
     </g>
     <g id="text_10">
      <!-- 20 -->
      <g transform="translate(23.040865 338.97226) scale(0.1 -0.1)">
       <use xlink:href="#DejaVuSans-32"/>
       <use xlink:href="#DejaVuSans-30" transform="translate(63.623047 0)"/>
      </g>
     </g>
    </g>
    <g id="ytick_3">
     <g id="line2d_10">
      <g>
       <use xlink:href="#m165b222745" x="42.765865" y="289.299366" style="stroke: #000000; stroke-width: 0.8"/>
      </g>
     </g>
     <g id="text_11">
      <!-- 40 -->
      <g transform="translate(23.040865 293.098585) scale(0.1 -0.1)">
       <use xlink:href="#DejaVuSans-34"/>
       <use xlink:href="#DejaVuSans-30" transform="translate(63.623047 0)"/>
      </g>
     </g>
    </g>
    <g id="ytick_4">
     <g id="line2d_11">
      <g>
       <use xlink:href="#m165b222745" x="42.765865" y="243.42569" style="stroke: #000000; stroke-width: 0.8"/>
      </g>
     </g>
     <g id="text_12">
      <!-- 60 -->
      <g transform="translate(23.040865 247.224909) scale(0.1 -0.1)">
       <use xlink:href="#DejaVuSans-36"/>
       <use xlink:href="#DejaVuSans-30" transform="translate(63.623047 0)"/>
      </g>
     </g>
    </g>
    <g id="ytick_5">
     <g id="line2d_12">
      <g>
       <use xlink:href="#m165b222745" x="42.765865" y="197.552014" style="stroke: #000000; stroke-width: 0.8"/>
      </g>
     </g>
     <g id="text_13">
      <!-- 80 -->
      <g transform="translate(23.040865 201.351233) scale(0.1 -0.1)">
       <defs>
        <path id="DejaVuSans-38" d="M 2034 2216 
Q 1584 2216 1326 1975 
Q 1069 1734 1069 1313 
Q 1069 891 1326 650 
Q 1584 409 2034 409 
Q 2484 409 2743 651 
Q 3003 894 3003 1313 
Q 3003 1734 2745 1975 
Q 2488 2216 2034 2216 
z
M 1403 2484 
Q 997 2584 770 2862 
Q 544 3141 544 3541 
Q 544 4100 942 4425 
Q 1341 4750 2034 4750 
Q 2731 4750 3128 4425 
Q 3525 4100 3525 3541 
Q 3525 3141 3298 2862 
Q 3072 2584 2669 2484 
Q 3125 2378 3379 2068 
Q 3634 1759 3634 1313 
Q 3634 634 3220 271 
Q 2806 -91 2034 -91 
Q 1263 -91 848 271 
Q 434 634 434 1313 
Q 434 1759 690 2068 
Q 947 2378 1403 2484 
z
M 1172 3481 
Q 1172 3119 1398 2916 
Q 1625 2713 2034 2713 
Q 2441 2713 2670 2916 
Q 2900 3119 2900 3481 
Q 2900 3844 2670 4047 
Q 2441 4250 2034 4250 
Q 1625 4250 1398 4047 
Q 1172 3844 1172 3481 
z
" transform="scale(0.015625)"/>
       </defs>
       <use xlink:href="#DejaVuSans-38"/>
       <use xlink:href="#DejaVuSans-30" transform="translate(63.623047 0)"/>
      </g>
     </g>
    </g>
    <g id="ytick_6">
     <g id="line2d_13">
      <g>
       <use xlink:href="#m165b222745" x="42.765865" y="151.678339" style="stroke: #000000; stroke-width: 0.8"/>
      </g>
     </g>
     <g id="text_14">
      <!-- 100 -->
      <g transform="translate(16.678365 155.477557) scale(0.1 -0.1)">
       <use xlink:href="#DejaVuSans-31"/>
       <use xlink:href="#DejaVuSans-30" transform="translate(63.623047 0)"/>
       <use xlink:href="#DejaVuSans-30" transform="translate(127.246094 0)"/>
      </g>
     </g>
    </g>
    <g id="ytick_7">
     <g id="line2d_14">
      <g>
       <use xlink:href="#m165b222745" x="42.765865" y="105.804663" style="stroke: #000000; stroke-width: 0.8"/>
      </g>
     </g>
     <g id="text_15">
      <!-- 120 -->
      <g transform="translate(16.678365 109.603881) scale(0.1 -0.1)">
       <use xlink:href="#DejaVuSans-31"/>
       <use xlink:href="#DejaVuSans-32" transform="translate(63.623047 0)"/>
       <use xlink:href="#DejaVuSans-30" transform="translate(127.246094 0)"/>
      </g>
     </g>
    </g>
    <g id="ytick_8">
     <g id="line2d_15">
      <g>
       <use xlink:href="#m165b222745" x="42.765865" y="59.930987" style="stroke: #000000; stroke-width: 0.8"/>
      </g>
     </g>
     <g id="text_16">
      <!-- 140 -->
      <g transform="translate(16.678365 63.730206) scale(0.1 -0.1)">
       <use xlink:href="#DejaVuSans-31"/>
       <use xlink:href="#DejaVuSans-34" transform="translate(63.623047 0)"/>
       <use xlink:href="#DejaVuSans-30" transform="translate(127.246094 0)"/>
      </g>
     </g>
    </g>
    <g id="ytick_9">
     <g id="line2d_16">
      <g>
       <use xlink:href="#m165b222745" x="42.765865" y="14.057311" style="stroke: #000000; stroke-width: 0.8"/>
      </g>
     </g>
     <g id="text_17">
      <!-- 160 -->
      <g transform="translate(16.678365 17.85653) scale(0.1 -0.1)">
       <use xlink:href="#DejaVuSans-31"/>
       <use xlink:href="#DejaVuSans-36" transform="translate(63.623047 0)"/>
       <use xlink:href="#DejaVuSans-30" transform="translate(127.246094 0)"/>
      </g>
     </g>
    </g>
    <g id="text_18">
     <!-- Slope over short time of 0.1 -->
     <g transform="translate(10.598677 270.707031) rotate(-90) scale(0.1 -0.1)">
      <defs>
       <path id="DejaVuSans-53" d="M 3425 4513 
L 3425 3897 
Q 3066 4069 2747 4153 
Q 2428 4238 2131 4238 
Q 1616 4238 1336 4038 
Q 1056 3838 1056 3469 
Q 1056 3159 1242 3001 
Q 1428 2844 1947 2747 
L 2328 2669 
Q 3034 2534 3370 2195 
Q 3706 1856 3706 1288 
Q 3706 609 3251 259 
Q 2797 -91 1919 -91 
Q 1588 -91 1214 -16 
Q 841 59 441 206 
L 441 856 
Q 825 641 1194 531 
Q 1563 422 1919 422 
Q 2459 422 2753 634 
Q 3047 847 3047 1241 
Q 3047 1584 2836 1778 
Q 2625 1972 2144 2069 
L 1759 2144 
Q 1053 2284 737 2584 
Q 422 2884 422 3419 
Q 422 4038 858 4394 
Q 1294 4750 2059 4750 
Q 2388 4750 2728 4690 
Q 3069 4631 3425 4513 
z
" transform="scale(0.015625)"/>
       <path id="DejaVuSans-6c" d="M 603 4863 
L 1178 4863 
L 1178 0 
L 603 0 
L 603 4863 
z
" transform="scale(0.015625)"/>
       <path id="DejaVuSans-6f" d="M 1959 3097 
Q 1497 3097 1228 2736 
Q 959 2375 959 1747 
Q 959 1119 1226 758 
Q 1494 397 1959 397 
Q 2419 397 2687 759 
Q 2956 1122 2956 1747 
Q 2956 2369 2687 2733 
Q 2419 3097 1959 3097 
z
M 1959 3584 
Q 2709 3584 3137 3096 
Q 3566 2609 3566 1747 
Q 3566 888 3137 398 
Q 2709 -91 1959 -91 
Q 1206 -91 779 398 
Q 353 888 353 1747 
Q 353 2609 779 3096 
Q 1206 3584 1959 3584 
z
" transform="scale(0.015625)"/>
       <path id="DejaVuSans-70" d="M 1159 525 
L 1159 -1331 
L 581 -1331 
L 581 3500 
L 1159 3500 
L 1159 2969 
Q 1341 3281 1617 3432 
Q 1894 3584 2278 3584 
Q 2916 3584 3314 3078 
Q 3713 2572 3713 1747 
Q 3713 922 3314 415 
Q 2916 -91 2278 -91 
Q 1894 -91 1617 61 
Q 1341 213 1159 525 
z
M 3116 1747 
Q 3116 2381 2855 2742 
Q 2594 3103 2138 3103 
Q 1681 3103 1420 2742 
Q 1159 2381 1159 1747 
Q 1159 1113 1420 752 
Q 1681 391 2138 391 
Q 2594 391 2855 752 
Q 3116 1113 3116 1747 
z
" transform="scale(0.015625)"/>
       <path id="DejaVuSans-65" d="M 3597 1894 
L 3597 1613 
L 953 1613 
Q 991 1019 1311 708 
Q 1631 397 2203 397 
Q 2534 397 2845 478 
Q 3156 559 3463 722 
L 3463 178 
Q 3153 47 2828 -22 
Q 2503 -91 2169 -91 
Q 1331 -91 842 396 
Q 353 884 353 1716 
Q 353 2575 817 3079 
Q 1281 3584 2069 3584 
Q 2775 3584 3186 3129 
Q 3597 2675 3597 1894 
z
M 3022 2063 
Q 3016 2534 2758 2815 
Q 2500 3097 2075 3097 
Q 1594 3097 1305 2825 
Q 1016 2553 972 2059 
L 3022 2063 
z
" transform="scale(0.015625)"/>
       <path id="DejaVuSans-20" transform="scale(0.015625)"/>
       <path id="DejaVuSans-76" d="M 191 3500 
L 800 3500 
L 1894 563 
L 2988 3500 
L 3597 3500 
L 2284 0 
L 1503 0 
L 191 3500 
z
" transform="scale(0.015625)"/>
       <path id="DejaVuSans-72" d="M 2631 2963 
Q 2534 3019 2420 3045 
Q 2306 3072 2169 3072 
Q 1681 3072 1420 2755 
Q 1159 2438 1159 1844 
L 1159 0 
L 581 0 
L 581 3500 
L 1159 3500 
L 1159 2956 
Q 1341 3275 1631 3429 
Q 1922 3584 2338 3584 
Q 2397 3584 2469 3576 
Q 2541 3569 2628 3553 
L 2631 2963 
z
" transform="scale(0.015625)"/>
       <path id="DejaVuSans-73" d="M 2834 3397 
L 2834 2853 
Q 2591 2978 2328 3040 
Q 2066 3103 1784 3103 
Q 1356 3103 1142 2972 
Q 928 2841 928 2578 
Q 928 2378 1081 2264 
Q 1234 2150 1697 2047 
L 1894 2003 
Q 2506 1872 2764 1633 
Q 3022 1394 3022 966 
Q 3022 478 2636 193 
Q 2250 -91 1575 -91 
Q 1294 -91 989 -36 
Q 684 19 347 128 
L 347 722 
Q 666 556 975 473 
Q 1284 391 1588 391 
Q 1994 391 2212 530 
Q 2431 669 2431 922 
Q 2431 1156 2273 1281 
Q 2116 1406 1581 1522 
L 1381 1569 
Q 847 1681 609 1914 
Q 372 2147 372 2553 
Q 372 3047 722 3315 
Q 1072 3584 1716 3584 
Q 2034 3584 2315 3537 
Q 2597 3491 2834 3397 
z
" transform="scale(0.015625)"/>
       <path id="DejaVuSans-68" d="M 3513 2113 
L 3513 0 
L 2938 0 
L 2938 2094 
Q 2938 2591 2744 2837 
Q 2550 3084 2163 3084 
Q 1697 3084 1428 2787 
Q 1159 2491 1159 1978 
L 1159 0 
L 581 0 
L 581 4863 
L 1159 4863 
L 1159 2956 
Q 1366 3272 1645 3428 
Q 1925 3584 2291 3584 
Q 2894 3584 3203 3211 
Q 3513 2838 3513 2113 
z
" transform="scale(0.015625)"/>
       <path id="DejaVuSans-74" d="M 1172 4494 
L 1172 3500 
L 2356 3500 
L 2356 3053 
L 1172 3053 
L 1172 1153 
Q 1172 725 1289 603 
Q 1406 481 1766 481 
L 2356 481 
L 2356 0 
L 1766 0 
Q 1100 0 847 248 
Q 594 497 594 1153 
L 594 3053 
L 172 3053 
L 172 3500 
L 594 3500 
L 594 4494 
L 1172 4494 
z
" transform="scale(0.015625)"/>
       <path id="DejaVuSans-69" d="M 603 3500 
L 1178 3500 
L 1178 0 
L 603 0 
L 603 3500 
z
M 603 4863 
L 1178 4863 
L 1178 4134 
L 603 4134 
L 603 4863 
z
" transform="scale(0.015625)"/>
       <path id="DejaVuSans-6d" d="M 3328 2828 
Q 3544 3216 3844 3400 
Q 4144 3584 4550 3584 
Q 5097 3584 5394 3201 
Q 5691 2819 5691 2113 
L 5691 0 
L 5113 0 
L 5113 2094 
Q 5113 2597 4934 2840 
Q 4756 3084 4391 3084 
Q 3944 3084 3684 2787 
Q 3425 2491 3425 1978 
L 3425 0 
L 2847 0 
L 2847 2094 
Q 2847 2600 2669 2842 
Q 2491 3084 2119 3084 
Q 1678 3084 1418 2786 
Q 1159 2488 1159 1978 
L 1159 0 
L 581 0 
L 581 3500 
L 1159 3500 
L 1159 2956 
Q 1356 3278 1631 3431 
Q 1906 3584 2284 3584 
Q 2666 3584 2933 3390 
Q 3200 3197 3328 2828 
z
" transform="scale(0.015625)"/>
       <path id="DejaVuSans-66" d="M 2375 4863 
L 2375 4384 
L 1825 4384 
Q 1516 4384 1395 4259 
Q 1275 4134 1275 3809 
L 1275 3500 
L 2222 3500 
L 2222 3053 
L 1275 3053 
L 1275 0 
L 697 0 
L 697 3053 
L 147 3053 
L 147 3500 
L 697 3500 
L 697 3744 
Q 697 4328 969 4595 
Q 1241 4863 1831 4863 
L 2375 4863 
z
" transform="scale(0.015625)"/>
       <path id="DejaVuSans-2e" d="M 684 794 
L 1344 794 
L 1344 0 
L 684 0 
L 684 794 
z
" transform="scale(0.015625)"/>
      </defs>
      <use xlink:href="#DejaVuSans-53"/>
      <use xlink:href="#DejaVuSans-6c" transform="translate(63.476562 0)"/>
      <use xlink:href="#DejaVuSans-6f" transform="translate(91.259766 0)"/>
      <use xlink:href="#DejaVuSans-70" transform="translate(152.441406 0)"/>
      <use xlink:href="#DejaVuSans-65" transform="translate(215.917969 0)"/>
      <use xlink:href="#DejaVuSans-20" transform="translate(277.441406 0)"/>
      <use xlink:href="#DejaVuSans-6f" transform="translate(309.228516 0)"/>
      <use xlink:href="#DejaVuSans-76" transform="translate(370.410156 0)"/>
      <use xlink:href="#DejaVuSans-65" transform="translate(429.589844 0)"/>
      <use xlink:href="#DejaVuSans-72" transform="translate(491.113281 0)"/>
      <use xlink:href="#DejaVuSans-20" transform="translate(532.226562 0)"/>
      <use xlink:href="#DejaVuSans-73" transform="translate(564.013672 0)"/>
      <use xlink:href="#DejaVuSans-68" transform="translate(616.113281 0)"/>
      <use xlink:href="#DejaVuSans-6f" transform="translate(679.492188 0)"/>
      <use xlink:href="#DejaVuSans-72" transform="translate(740.673828 0)"/>
      <use xlink:href="#DejaVuSans-74" transform="translate(781.787109 0)"/>
      <use xlink:href="#DejaVuSans-20" transform="translate(820.996094 0)"/>
      <use xlink:href="#DejaVuSans-74" transform="translate(852.783203 0)"/>
      <use xlink:href="#DejaVuSans-69" transform="translate(891.992188 0)"/>
      <use xlink:href="#DejaVuSans-6d" transform="translate(919.775391 0)"/>
      <use xlink:href="#DejaVuSans-65" transform="translate(1017.1875 0)"/>
      <use xlink:href="#DejaVuSans-20" transform="translate(1078.710938 0)"/>
      <use xlink:href="#DejaVuSans-6f" transform="translate(1110.498047 0)"/>
      <use xlink:href="#DejaVuSans-66" transform="translate(1171.679688 0)"/>
      <use xlink:href="#DejaVuSans-20" transform="translate(1206.884766 0)"/>
      <use xlink:href="#DejaVuSans-30" transform="translate(1238.671875 0)"/>
      <use xlink:href="#DejaVuSans-2e" transform="translate(1302.294922 0)"/>
      <use xlink:href="#DejaVuSans-31" transform="translate(1334.082031 0)"/>
     </g>
    </g>
   </g>
   <g id="line2d_17">
    <path d="M 66.867406 380.294169 
L 75.178282 379.626959 
L 83.489158 378.76579 
L 91.800034 377.710664 
L 100.11091 376.461581 
L 108.421786 375.01854 
L 116.732662 373.381541 
L 125.043538 371.550585 
L 133.354414 369.525671 
L 141.665291 367.3068 
L 149.976167 364.893971 
L 158.287043 362.287184 
L 166.597919 359.48644 
L 174.908795 356.491738 
L 183.219671 353.303078 
L 191.530547 349.920461 
L 199.841423 346.343886 
L 208.152299 342.573354 
L 216.463175 338.608864 
L 224.774052 334.450416 
L 233.084928 330.098011 
L 241.395804 325.551648 
L 249.70668 320.811328 
L 258.017556 315.87705 
L 266.328432 310.748814 
L 274.639308 305.426621 
L 282.950184 299.91047 
L 291.26106 294.200362 
L 299.571936 288.296296 
L 307.882813 282.198272 
L 316.193689 275.906291 
L 324.504565 269.420352 
L 332.815441 262.740455 
L 341.126317 255.866601 
L 349.437193 248.79879 
L 357.748069 241.53702 
L 366.058945 234.081293 
L 374.369821 226.431609 
L 382.680697 218.587966 
L 390.991573 210.550367 
L 399.30245 202.318809 
L 407.613326 193.893294 
L 415.924202 185.273822 
L 424.235078 176.460391 
L 432.545954 167.453004 
L 440.85683 158.251658 
L 449.167706 148.856355 
L 457.478582 139.267095 
L 465.789458 129.483876 
L 474.100334 119.5067 
L 482.411211 109.335567 
L 490.722087 98.970476 
L 499.032963 88.411427 
L 507.343839 77.658421 
L 515.654715 66.711457 
L 523.965591 55.570535 
L 532.276467 44.235656 
L 540.587343 32.706819 
L 548.898219 20.984025 
" clip-path="url(#pc43885336a)" style="fill: none; stroke: #32cd32; stroke-opacity: 0.6; stroke-width: 3; stroke-linecap: square"/>
   </g>
   <g id="line2d_18">
    <path d="M 66.867406 380.659725 
L 75.178282 380.466229 
L 83.489158 380.272733 
L 91.800034 380.079237 
L 100.11091 379.885742 
L 108.421786 379.692246 
L 116.732662 379.498751 
L 125.043538 379.305256 
L 133.354414 379.111761 
L 141.665291 378.918266 
L 149.976167 378.724771 
L 158.287043 378.531276 
L 166.597919 378.337782 
L 174.908795 378.144288 
L 183.219671 377.950793 
L 191.530547 377.757299 
L 199.841423 377.563805 
L 208.152299 377.370312 
L 216.463175 377.176818 
L 224.774052 376.983324 
L 233.084928 376.789831 
L 241.395804 376.596338 
L 249.70668 376.402845 
L 258.017556 376.209352 
L 266.328432 376.015859 
L 274.639308 375.822366 
L 282.950184 375.628874 
L 291.26106 375.435381 
L 299.571936 375.241889 
L 307.882813 375.048397 
L 316.193689 374.854905 
L 324.504565 374.661413 
L 332.815441 374.467922 
L 341.126317 374.27443 
L 349.437193 374.080939 
L 357.748069 373.887448 
L 366.058945 373.693956 
L 374.369821 373.500466 
L 382.680697 373.306975 
L 390.991573 373.113484 
L 399.30245 372.919993 
L 407.613326 372.726503 
L 415.924202 372.533013 
L 424.235078 372.339523 
L 432.545954 372.146033 
L 440.85683 371.952543 
L 449.167706 371.759053 
L 457.478582 371.565564 
L 465.789458 371.372074 
L 474.100334 371.178585 
L 482.411211 370.985096 
L 490.722087 370.791607 
L 499.032963 370.598118 
L 507.343839 370.404629 
L 515.654715 370.211141 
L 523.965591 370.017652 
L 532.276467 369.824164 
L 540.587343 369.630676 
L 548.898219 369.437188 
" clip-path="url(#pc43885336a)" style="fill: none; stroke: #1e90ff; stroke-opacity: 0.6; stroke-width: 3; stroke-linecap: square"/>
   </g>
   <g id="patch_3">
    <path d="M 42.765865 398.64351 
L 42.765865 3.00024 
" style="fill: none; stroke: #000000; stroke-width: 0.8; stroke-linejoin: miter; stroke-linecap: square"/>
   </g>
   <g id="patch_4">
    <path d="M 572.99976 398.64351 
L 572.99976 3.00024 
" style="fill: none; stroke: #000000; stroke-width: 0.8; stroke-linejoin: miter; stroke-linecap: square"/>
   </g>
   <g id="patch_5">
    <path d="M 42.765865 398.64351 
L 572.99976 398.64351 
" style="fill: none; stroke: #000000; stroke-width: 0.8; stroke-linejoin: miter; stroke-linecap: square"/>
   </g>
   <g id="patch_6">
    <path d="M 42.765865 3.00024 
L 572.99976 3.00024 
" style="fill: none; stroke: #000000; stroke-width: 0.8; stroke-linejoin: miter; stroke-linecap: square"/>
   </g>
   <g id="legend_1">
    <g id="patch_7">
     <path d="M 49.765865 70.26899 
L 176.047115 70.26899 
Q 178.047115 70.26899 178.047115 68.26899 
L 178.047115 10.00024 
Q 178.047115 8.00024 176.047115 8.00024 
L 49.765865 8.00024 
Q 47.765865 8.00024 47.765865 10.00024 
L 47.765865 68.26899 
Q 47.765865 70.26899 49.765865 70.26899 
z
" style="fill: #ffffff; opacity: 0.8; stroke: #cccccc; stroke-linejoin: miter"/>
    </g>
    <g id="line2d_19">
     <path d="M 51.765865 16.098678 
L 61.765865 16.098678 
L 71.765865 16.098678 
" style="fill: none; stroke: #32cd32; stroke-opacity: 0.6; stroke-width: 3; stroke-linecap: square"/>
    </g>
    <g id="text_19">
     <!-- quadratic_linear fit -->
     <g transform="translate(79.765865 19.598678) scale(0.1 -0.1)">
      <defs>
       <path id="DejaVuSans-71" d="M 947 1747 
Q 947 1113 1208 752 
Q 1469 391 1925 391 
Q 2381 391 2643 752 
Q 2906 1113 2906 1747 
Q 2906 2381 2643 2742 
Q 2381 3103 1925 3103 
Q 1469 3103 1208 2742 
Q 947 2381 947 1747 
z
M 2906 525 
Q 2725 213 2448 61 
Q 2172 -91 1784 -91 
Q 1150 -91 751 415 
Q 353 922 353 1747 
Q 353 2572 751 3078 
Q 1150 3584 1784 3584 
Q 2172 3584 2448 3432 
Q 2725 3281 2906 2969 
L 2906 3500 
L 3481 3500 
L 3481 -1331 
L 2906 -1331 
L 2906 525 
z
" transform="scale(0.015625)"/>
       <path id="DejaVuSans-75" d="M 544 1381 
L 544 3500 
L 1119 3500 
L 1119 1403 
Q 1119 906 1312 657 
Q 1506 409 1894 409 
Q 2359 409 2629 706 
Q 2900 1003 2900 1516 
L 2900 3500 
L 3475 3500 
L 3475 0 
L 2900 0 
L 2900 538 
Q 2691 219 2414 64 
Q 2138 -91 1772 -91 
Q 1169 -91 856 284 
Q 544 659 544 1381 
z
M 1991 3584 
L 1991 3584 
z
" transform="scale(0.015625)"/>
       <path id="DejaVuSans-61" d="M 2194 1759 
Q 1497 1759 1228 1600 
Q 959 1441 959 1056 
Q 959 750 1161 570 
Q 1363 391 1709 391 
Q 2188 391 2477 730 
Q 2766 1069 2766 1631 
L 2766 1759 
L 2194 1759 
z
M 3341 1997 
L 3341 0 
L 2766 0 
L 2766 531 
Q 2569 213 2275 61 
Q 1981 -91 1556 -91 
Q 1019 -91 701 211 
Q 384 513 384 1019 
Q 384 1609 779 1909 
Q 1175 2209 1959 2209 
L 2766 2209 
L 2766 2266 
Q 2766 2663 2505 2880 
Q 2244 3097 1772 3097 
Q 1472 3097 1187 3025 
Q 903 2953 641 2809 
L 641 3341 
Q 956 3463 1253 3523 
Q 1550 3584 1831 3584 
Q 2591 3584 2966 3190 
Q 3341 2797 3341 1997 
z
" transform="scale(0.015625)"/>
       <path id="DejaVuSans-64" d="M 2906 2969 
L 2906 4863 
L 3481 4863 
L 3481 0 
L 2906 0 
L 2906 525 
Q 2725 213 2448 61 
Q 2172 -91 1784 -91 
Q 1150 -91 751 415 
Q 353 922 353 1747 
Q 353 2572 751 3078 
Q 1150 3584 1784 3584 
Q 2172 3584 2448 3432 
Q 2725 3281 2906 2969 
z
M 947 1747 
Q 947 1113 1208 752 
Q 1469 391 1925 391 
Q 2381 391 2643 752 
Q 2906 1113 2906 1747 
Q 2906 2381 2643 2742 
Q 2381 3103 1925 3103 
Q 1469 3103 1208 2742 
Q 947 2381 947 1747 
z
" transform="scale(0.015625)"/>
       <path id="DejaVuSans-63" d="M 3122 3366 
L 3122 2828 
Q 2878 2963 2633 3030 
Q 2388 3097 2138 3097 
Q 1578 3097 1268 2742 
Q 959 2388 959 1747 
Q 959 1106 1268 751 
Q 1578 397 2138 397 
Q 2388 397 2633 464 
Q 2878 531 3122 666 
L 3122 134 
Q 2881 22 2623 -34 
Q 2366 -91 2075 -91 
Q 1284 -91 818 406 
Q 353 903 353 1747 
Q 353 2603 823 3093 
Q 1294 3584 2113 3584 
Q 2378 3584 2631 3529 
Q 2884 3475 3122 3366 
z
" transform="scale(0.015625)"/>
       <path id="DejaVuSans-5f" d="M 3263 -1063 
L 3263 -1509 
L -63 -1509 
L -63 -1063 
L 3263 -1063 
z
" transform="scale(0.015625)"/>
       <path id="DejaVuSans-6e" d="M 3513 2113 
L 3513 0 
L 2938 0 
L 2938 2094 
Q 2938 2591 2744 2837 
Q 2550 3084 2163 3084 
Q 1697 3084 1428 2787 
Q 1159 2491 1159 1978 
L 1159 0 
L 581 0 
L 581 3500 
L 1159 3500 
L 1159 2956 
Q 1366 3272 1645 3428 
Q 1925 3584 2291 3584 
Q 2894 3584 3203 3211 
Q 3513 2838 3513 2113 
z
" transform="scale(0.015625)"/>
      </defs>
      <use xlink:href="#DejaVuSans-71"/>
      <use xlink:href="#DejaVuSans-75" transform="translate(63.476562 0)"/>
      <use xlink:href="#DejaVuSans-61" transform="translate(126.855469 0)"/>
      <use xlink:href="#DejaVuSans-64" transform="translate(188.134766 0)"/>
      <use xlink:href="#DejaVuSans-72" transform="translate(251.611328 0)"/>
      <use xlink:href="#DejaVuSans-61" transform="translate(292.724609 0)"/>
      <use xlink:href="#DejaVuSans-74" transform="translate(354.003906 0)"/>
      <use xlink:href="#DejaVuSans-69" transform="translate(393.212891 0)"/>
      <use xlink:href="#DejaVuSans-63" transform="translate(420.996094 0)"/>
      <use xlink:href="#DejaVuSans-5f" transform="translate(475.976562 0)"/>
      <use xlink:href="#DejaVuSans-6c" transform="translate(525.976562 0)"/>
      <use xlink:href="#DejaVuSans-69" transform="translate(553.759766 0)"/>
      <use xlink:href="#DejaVuSans-6e" transform="translate(581.542969 0)"/>
      <use xlink:href="#DejaVuSans-65" transform="translate(644.921875 0)"/>
      <use xlink:href="#DejaVuSans-61" transform="translate(706.445312 0)"/>
      <use xlink:href="#DejaVuSans-72" transform="translate(767.724609 0)"/>
      <use xlink:href="#DejaVuSans-20" transform="translate(808.837891 0)"/>
      <use xlink:href="#DejaVuSans-66" transform="translate(840.625 0)"/>
      <use xlink:href="#DejaVuSans-69" transform="translate(875.830078 0)"/>
      <use xlink:href="#DejaVuSans-74" transform="translate(903.613281 0)"/>
     </g>
    </g>
    <g id="PathCollection_3">
     <g>
      <use xlink:href="#m9ad6c23daf" x="61.765865" y="31.929928" style="fill: #32cd32; stroke: #32cd32"/>
     </g>
    </g>
    <g id="text_20">
     <!-- superradiant state -->
     <g transform="translate(79.765865 34.554928) scale(0.1 -0.1)">
      <use xlink:href="#DejaVuSans-73"/>
      <use xlink:href="#DejaVuSans-75" transform="translate(52.099609 0)"/>
      <use xlink:href="#DejaVuSans-70" transform="translate(115.478516 0)"/>
      <use xlink:href="#DejaVuSans-65" transform="translate(178.955078 0)"/>
      <use xlink:href="#DejaVuSans-72" transform="translate(240.478516 0)"/>
      <use xlink:href="#DejaVuSans-72" transform="translate(279.841797 0)"/>
      <use xlink:href="#DejaVuSans-61" transform="translate(320.955078 0)"/>
      <use xlink:href="#DejaVuSans-64" transform="translate(382.234375 0)"/>
      <use xlink:href="#DejaVuSans-69" transform="translate(445.710938 0)"/>
      <use xlink:href="#DejaVuSans-61" transform="translate(473.494141 0)"/>
      <use xlink:href="#DejaVuSans-6e" transform="translate(534.773438 0)"/>
      <use xlink:href="#DejaVuSans-74" transform="translate(598.152344 0)"/>
      <use xlink:href="#DejaVuSans-20" transform="translate(637.361328 0)"/>
      <use xlink:href="#DejaVuSans-73" transform="translate(669.148438 0)"/>
      <use xlink:href="#DejaVuSans-74" transform="translate(721.248047 0)"/>
      <use xlink:href="#DejaVuSans-61" transform="translate(760.457031 0)"/>
      <use xlink:href="#DejaVuSans-74" transform="translate(821.736328 0)"/>
      <use xlink:href="#DejaVuSans-65" transform="translate(860.945312 0)"/>
     </g>
    </g>
    <g id="line2d_20">
     <path d="M 51.765865 45.733052 
L 61.765865 45.733052 
L 71.765865 45.733052 
" style="fill: none; stroke: #1e90ff; stroke-opacity: 0.6; stroke-width: 3; stroke-linecap: square"/>
    </g>
    <g id="text_21">
     <!-- quadratic_linear fit -->
     <g transform="translate(79.765865 49.233052) scale(0.1 -0.1)">
      <use xlink:href="#DejaVuSans-71"/>
      <use xlink:href="#DejaVuSans-75" transform="translate(63.476562 0)"/>
      <use xlink:href="#DejaVuSans-61" transform="translate(126.855469 0)"/>
      <use xlink:href="#DejaVuSans-64" transform="translate(188.134766 0)"/>
      <use xlink:href="#DejaVuSans-72" transform="translate(251.611328 0)"/>
      <use xlink:href="#DejaVuSans-61" transform="translate(292.724609 0)"/>
      <use xlink:href="#DejaVuSans-74" transform="translate(354.003906 0)"/>
      <use xlink:href="#DejaVuSans-69" transform="translate(393.212891 0)"/>
      <use xlink:href="#DejaVuSans-63" transform="translate(420.996094 0)"/>
      <use xlink:href="#DejaVuSans-5f" transform="translate(475.976562 0)"/>
      <use xlink:href="#DejaVuSans-6c" transform="translate(525.976562 0)"/>
      <use xlink:href="#DejaVuSans-69" transform="translate(553.759766 0)"/>
      <use xlink:href="#DejaVuSans-6e" transform="translate(581.542969 0)"/>
      <use xlink:href="#DejaVuSans-65" transform="translate(644.921875 0)"/>
      <use xlink:href="#DejaVuSans-61" transform="translate(706.445312 0)"/>
      <use xlink:href="#DejaVuSans-72" transform="translate(767.724609 0)"/>
      <use xlink:href="#DejaVuSans-20" transform="translate(808.837891 0)"/>
      <use xlink:href="#DejaVuSans-66" transform="translate(840.625 0)"/>
      <use xlink:href="#DejaVuSans-69" transform="translate(875.830078 0)"/>
      <use xlink:href="#DejaVuSans-74" transform="translate(903.613281 0)"/>
     </g>
    </g>
    <g id="PathCollection_4">
     <g>
      <use xlink:href="#md77c5e2f08" x="61.765865" y="61.564302" style="fill: #1e90ff; stroke: #1e90ff"/>
     </g>
    </g>
    <g id="text_22">
     <!-- excited state -->
     <g transform="translate(79.765865 64.189302) scale(0.1 -0.1)">
      <defs>
       <path id="DejaVuSans-78" d="M 3513 3500 
L 2247 1797 
L 3578 0 
L 2900 0 
L 1881 1375 
L 863 0 
L 184 0 
L 1544 1831 
L 300 3500 
L 978 3500 
L 1906 2253 
L 2834 3500 
L 3513 3500 
z
" transform="scale(0.015625)"/>
      </defs>
      <use xlink:href="#DejaVuSans-65"/>
      <use xlink:href="#DejaVuSans-78" transform="translate(59.773438 0)"/>
      <use xlink:href="#DejaVuSans-63" transform="translate(117.203125 0)"/>
      <use xlink:href="#DejaVuSans-69" transform="translate(172.183594 0)"/>
      <use xlink:href="#DejaVuSans-74" transform="translate(199.966797 0)"/>
      <use xlink:href="#DejaVuSans-65" transform="translate(239.175781 0)"/>
      <use xlink:href="#DejaVuSans-64" transform="translate(300.699219 0)"/>
      <use xlink:href="#DejaVuSans-20" transform="translate(364.175781 0)"/>
      <use xlink:href="#DejaVuSans-73" transform="translate(395.962891 0)"/>
      <use xlink:href="#DejaVuSans-74" transform="translate(448.0625 0)"/>
      <use xlink:href="#DejaVuSans-61" transform="translate(487.271484 0)"/>
      <use xlink:href="#DejaVuSans-74" transform="translate(548.550781 0)"/>
      <use xlink:href="#DejaVuSans-65" transform="translate(587.759766 0)"/>
     </g>
    </g>
   </g>
  </g>
 </g>
 <defs>
  <clipPath id="pc43885336a">
   <rect x="42.765865" y="3.00024" width="530.233895" height="395.64327"/>
  </clipPath>
 </defs>
</svg>
