<?xml version="1.0" encoding="utf-8" standalone="no"?>
<!DOCTYPE svg PUBLIC "-//W3C//DTD SVG 1.1//EN"
  "http://www.w3.org/Graphics/SVG/1.1/DTD/svg11.dtd">
<svg xmlns:xlink="http://www.w3.org/1999/xlink" width="584.39952pt" height="151.115386pt" viewBox="0 0 584.39952 151.115386" xmlns="http://www.w3.org/2000/svg" version="1.1">
 <metadata>
  <rdf:RDF xmlns:dc="http://purl.org/dc/elements/1.1/" xmlns:cc="http://creativecommons.org/ns#" xmlns:rdf="http://www.w3.org/1999/02/22-rdf-syntax-ns#">
   <cc:Work>
    <dc:type rdf:resource="http://purl.org/dc/dcmitype/StillImage"/>
    <dc:date>2025-01-16T18:31:51.329089</dc:date>
    <dc:format>image/svg+xml</dc:format>
    <dc:creator>
     <cc:Agent>
      <dc:title>Matplotlib v3.10.0, https://matplotlib.org/</dc:title>
     </cc:Agent>
    </dc:creator>
   </cc:Work>
  </rdf:RDF>
 </metadata>
 <defs>
  <style type="text/css">*{stroke-linejoin: round; stroke-linecap: butt}</style>
 </defs>
 <g id="figure_1">
  <g id="patch_1">
   <path d="M 0 151.115386 
L 584.39952 151.115386 
L 584.39952 0 
L 0 0 
z
" style="fill: #ffffff"/>
  </g>
  <g id="axes_1">
   <g id="patch_2">
    <path d="M 38.900176 113.432903 
L 577.19952 113.432903 
L 577.19952 7.2 
L 38.900176 7.2 
z
" style="fill: #ffffff"/>
   </g>
   <g id="FillBetweenPolyCollection_1">
    <defs>
     <path id="mb37bfd119c" d="M 63.368328 -43.210077 
L 63.368328 -43.228844 
L 71.805622 -44.914154 
L 80.242915 -46.597824 
L 88.680209 -48.279974 
L 97.117503 -49.960665 
L 105.554797 -51.639933 
L 113.992091 -53.317802 
L 122.429384 -54.994288 
L 130.866678 -56.669403 
L 139.303972 -58.343156 
L 147.741266 -60.015555 
L 156.17856 -61.686605 
L 164.615853 -63.35631 
L 173.053147 -65.024674 
L 181.490441 -66.691701 
L 189.927735 -68.357392 
L 198.365029 -70.02175 
L 206.802322 -71.684778 
L 215.239616 -73.346476 
L 223.67691 -75.006846 
L 232.114204 -76.66589 
L 240.551498 -78.323609 
L 248.988791 -79.980003 
L 257.426085 -81.635074 
L 265.863379 -83.288823 
L 274.300673 -84.94125 
L 282.737967 -86.592355 
L 291.17526 -88.24214 
L 299.612554 -89.890606 
L 308.049848 -91.537751 
L 316.487142 -93.183578 
L 324.924436 -94.828087 
L 333.361729 -96.471277 
L 341.799023 -98.11315 
L 350.236317 -99.753706 
L 358.673611 -101.392944 
L 367.110904 -103.030866 
L 375.548198 -104.667472 
L 383.985492 -106.302761 
L 392.422786 -107.936735 
L 400.86008 -109.569393 
L 409.297373 -111.200735 
L 417.734667 -112.830763 
L 426.171961 -114.459475 
L 434.609255 -116.086873 
L 443.046549 -117.712955 
L 451.483842 -119.337724 
L 459.921136 -120.961178 
L 468.35843 -122.583318 
L 476.795724 -124.204144 
L 485.233018 -125.823656 
L 493.670311 -127.441854 
L 502.107605 -129.058739 
L 510.544899 -130.67431 
L 518.982193 -132.288568 
L 527.419487 -133.901513 
L 535.85678 -135.513144 
L 544.294074 -137.123462 
L 552.731368 -138.732467 
L 552.731368 -138.628327 
L 552.731368 -138.628327 
L 544.294074 -137.020216 
L 535.85678 -135.410799 
L 527.419487 -133.800077 
L 518.982193 -132.188048 
L 510.544899 -130.574714 
L 502.107605 -128.960074 
L 493.670311 -127.344129 
L 485.233018 -125.726879 
L 476.795724 -124.108323 
L 468.35843 -122.488462 
L 459.921136 -120.867297 
L 451.483842 -119.244826 
L 443.046549 -117.621051 
L 434.609255 -115.995971 
L 426.171961 -114.369587 
L 417.734667 -112.741899 
L 409.297373 -111.112907 
L 400.86008 -109.482611 
L 392.422786 -107.851012 
L 383.985492 -106.218109 
L 375.548198 -104.583903 
L 367.110904 -102.948394 
L 358.673611 -101.311583 
L 350.236317 -99.673469 
L 341.799023 -98.034054 
L 333.361729 -96.393337 
L 324.924436 -94.751318 
L 316.487142 -93.107999 
L 308.049848 -91.463379 
L 299.612554 -89.817459 
L 291.17526 -88.170239 
L 282.737967 -86.52172 
L 274.300673 -84.871903 
L 265.863379 -83.220788 
L 257.426085 -81.568376 
L 248.988791 -79.914667 
L 240.551498 -78.259663 
L 232.114204 -76.603364 
L 223.67691 -74.945771 
L 215.239616 -73.286886 
L 206.802322 -71.62671 
L 198.365029 -69.965244 
L 189.927735 -68.30249 
L 181.490441 -66.63845 
L 173.053147 -64.973126 
L 164.615853 -63.306521 
L 156.17856 -61.638638 
L 147.741266 -59.96948 
L 139.303972 -58.299053 
L 130.866678 -56.627361 
L 122.429384 -54.954413 
L 113.992091 -53.280216 
L 105.554797 -51.604782 
L 97.117503 -49.928129 
L 88.680209 -48.25028 
L 80.242915 -46.571271 
L 71.805622 -44.891164 
L 63.368328 -43.210077 
z
" style="stroke: #32cd32; stroke-opacity: 0.3"/>
    </defs>
    <g clip-path="url(#p40a1561001)">
     <use xlink:href="#mb37bfd119c" x="0" y="151.115386" style="fill: #32cd32; fill-opacity: 0.3; stroke: #32cd32; stroke-opacity: 0.3"/>
    </g>
   </g>
   <g id="PathCollection_1">
    <defs>
     <path id="mafcf3e9c45" d="M 0 2.236068 
C 0.593012 2.236068 1.161816 2.000462 1.581139 1.581139 
C 2.000462 1.161816 2.236068 0.593012 2.236068 0 
C 2.236068 -0.593012 2.000462 -1.161816 1.581139 -1.581139 
C 1.161816 -2.000462 0.593012 -2.236068 0 -2.236068 
C -0.593012 -2.236068 -1.161816 -2.000462 -1.581139 -1.581139 
C -2.000462 -1.161816 -2.236068 -0.593012 -2.236068 0 
C -2.236068 0.593012 -2.000462 1.161816 -1.581139 1.581139 
C -1.161816 2.000462 -0.593012 2.236068 0 2.236068 
z
" style="stroke: #32cd32; stroke-opacity: 0.7"/>
    </defs>
    <g clip-path="url(#p40a1561001)">
     <use xlink:href="#mafcf3e9c45" x="63.368328" y="107.766169" style="fill: #32cd32; fill-opacity: 0.7; stroke: #32cd32; stroke-opacity: 0.7"/>
     <use xlink:href="#mafcf3e9c45" x="71.805622" y="106.242822" style="fill: #32cd32; fill-opacity: 0.7; stroke: #32cd32; stroke-opacity: 0.7"/>
     <use xlink:href="#mafcf3e9c45" x="80.242915" y="103.802081" style="fill: #32cd32; fill-opacity: 0.7; stroke: #32cd32; stroke-opacity: 0.7"/>
     <use xlink:href="#mafcf3e9c45" x="88.680209" y="102.151057" style="fill: #32cd32; fill-opacity: 0.7; stroke: #32cd32; stroke-opacity: 0.7"/>
     <use xlink:href="#mafcf3e9c45" x="97.117503" y="100.413931" style="fill: #32cd32; fill-opacity: 0.7; stroke: #32cd32; stroke-opacity: 0.7"/>
     <use xlink:href="#mafcf3e9c45" x="105.554797" y="99.310837" style="fill: #32cd32; fill-opacity: 0.7; stroke: #32cd32; stroke-opacity: 0.7"/>
     <use xlink:href="#mafcf3e9c45" x="113.992091" y="97.169062" style="fill: #32cd32; fill-opacity: 0.7; stroke: #32cd32; stroke-opacity: 0.7"/>
     <use xlink:href="#mafcf3e9c45" x="122.429384" y="95.021237" style="fill: #32cd32; fill-opacity: 0.7; stroke: #32cd32; stroke-opacity: 0.7"/>
     <use xlink:href="#mafcf3e9c45" x="130.866678" y="94.116044" style="fill: #32cd32; fill-opacity: 0.7; stroke: #32cd32; stroke-opacity: 0.7"/>
     <use xlink:href="#mafcf3e9c45" x="139.303972" y="93.345113" style="fill: #32cd32; fill-opacity: 0.7; stroke: #32cd32; stroke-opacity: 0.7"/>
     <use xlink:href="#mafcf3e9c45" x="147.741266" y="90.700818" style="fill: #32cd32; fill-opacity: 0.7; stroke: #32cd32; stroke-opacity: 0.7"/>
     <use xlink:href="#mafcf3e9c45" x="156.17856" y="88.800835" style="fill: #32cd32; fill-opacity: 0.7; stroke: #32cd32; stroke-opacity: 0.7"/>
     <use xlink:href="#mafcf3e9c45" x="164.615853" y="88.106913" style="fill: #32cd32; fill-opacity: 0.7; stroke: #32cd32; stroke-opacity: 0.7"/>
     <use xlink:href="#mafcf3e9c45" x="173.053147" y="86.181206" style="fill: #32cd32; fill-opacity: 0.7; stroke: #32cd32; stroke-opacity: 0.7"/>
     <use xlink:href="#mafcf3e9c45" x="181.490441" y="84.077783" style="fill: #32cd32; fill-opacity: 0.7; stroke: #32cd32; stroke-opacity: 0.7"/>
     <use xlink:href="#mafcf3e9c45" x="189.927735" y="82.600575" style="fill: #32cd32; fill-opacity: 0.7; stroke: #32cd32; stroke-opacity: 0.7"/>
     <use xlink:href="#mafcf3e9c45" x="198.365029" y="80.730399" style="fill: #32cd32; fill-opacity: 0.7; stroke: #32cd32; stroke-opacity: 0.7"/>
     <use xlink:href="#mafcf3e9c45" x="206.802322" y="79.309062" style="fill: #32cd32; fill-opacity: 0.7; stroke: #32cd32; stroke-opacity: 0.7"/>
     <use xlink:href="#mafcf3e9c45" x="215.239616" y="78.539937" style="fill: #32cd32; fill-opacity: 0.7; stroke: #32cd32; stroke-opacity: 0.7"/>
     <use xlink:href="#mafcf3e9c45" x="223.67691" y="75.82867" style="fill: #32cd32; fill-opacity: 0.7; stroke: #32cd32; stroke-opacity: 0.7"/>
     <use xlink:href="#mafcf3e9c45" x="232.114204" y="73.442878" style="fill: #32cd32; fill-opacity: 0.7; stroke: #32cd32; stroke-opacity: 0.7"/>
     <use xlink:href="#mafcf3e9c45" x="240.551498" y="72.850111" style="fill: #32cd32; fill-opacity: 0.7; stroke: #32cd32; stroke-opacity: 0.7"/>
     <use xlink:href="#mafcf3e9c45" x="248.988791" y="72.073873" style="fill: #32cd32; fill-opacity: 0.7; stroke: #32cd32; stroke-opacity: 0.7"/>
     <use xlink:href="#mafcf3e9c45" x="257.426085" y="69.984552" style="fill: #32cd32; fill-opacity: 0.7; stroke: #32cd32; stroke-opacity: 0.7"/>
     <use xlink:href="#mafcf3e9c45" x="265.863379" y="67.659942" style="fill: #32cd32; fill-opacity: 0.7; stroke: #32cd32; stroke-opacity: 0.7"/>
     <use xlink:href="#mafcf3e9c45" x="274.300673" y="65.914747" style="fill: #32cd32; fill-opacity: 0.7; stroke: #32cd32; stroke-opacity: 0.7"/>
     <use xlink:href="#mafcf3e9c45" x="282.737967" y="64.755811" style="fill: #32cd32; fill-opacity: 0.7; stroke: #32cd32; stroke-opacity: 0.7"/>
     <use xlink:href="#mafcf3e9c45" x="291.17526" y="63.26984" style="fill: #32cd32; fill-opacity: 0.7; stroke: #32cd32; stroke-opacity: 0.7"/>
     <use xlink:href="#mafcf3e9c45" x="299.612554" y="61.685251" style="fill: #32cd32; fill-opacity: 0.7; stroke: #32cd32; stroke-opacity: 0.7"/>
     <use xlink:href="#mafcf3e9c45" x="308.049848" y="59.233593" style="fill: #32cd32; fill-opacity: 0.7; stroke: #32cd32; stroke-opacity: 0.7"/>
     <use xlink:href="#mafcf3e9c45" x="316.487142" y="57.552305" style="fill: #32cd32; fill-opacity: 0.7; stroke: #32cd32; stroke-opacity: 0.7"/>
     <use xlink:href="#mafcf3e9c45" x="324.924436" y="56.239668" style="fill: #32cd32; fill-opacity: 0.7; stroke: #32cd32; stroke-opacity: 0.7"/>
     <use xlink:href="#mafcf3e9c45" x="333.361729" y="55.113928" style="fill: #32cd32; fill-opacity: 0.7; stroke: #32cd32; stroke-opacity: 0.7"/>
     <use xlink:href="#mafcf3e9c45" x="341.799023" y="53.426648" style="fill: #32cd32; fill-opacity: 0.7; stroke: #32cd32; stroke-opacity: 0.7"/>
     <use xlink:href="#mafcf3e9c45" x="350.236317" y="51.467764" style="fill: #32cd32; fill-opacity: 0.7; stroke: #32cd32; stroke-opacity: 0.7"/>
     <use xlink:href="#mafcf3e9c45" x="358.673611" y="49.627761" style="fill: #32cd32; fill-opacity: 0.7; stroke: #32cd32; stroke-opacity: 0.7"/>
     <use xlink:href="#mafcf3e9c45" x="367.110904" y="48.158018" style="fill: #32cd32; fill-opacity: 0.7; stroke: #32cd32; stroke-opacity: 0.7"/>
     <use xlink:href="#mafcf3e9c45" x="375.548198" y="47.113812" style="fill: #32cd32; fill-opacity: 0.7; stroke: #32cd32; stroke-opacity: 0.7"/>
     <use xlink:href="#mafcf3e9c45" x="383.985492" y="45.581738" style="fill: #32cd32; fill-opacity: 0.7; stroke: #32cd32; stroke-opacity: 0.7"/>
     <use xlink:href="#mafcf3e9c45" x="392.422786" y="42.760483" style="fill: #32cd32; fill-opacity: 0.7; stroke: #32cd32; stroke-opacity: 0.7"/>
     <use xlink:href="#mafcf3e9c45" x="400.86008" y="41.66735" style="fill: #32cd32; fill-opacity: 0.7; stroke: #32cd32; stroke-opacity: 0.7"/>
     <use xlink:href="#mafcf3e9c45" x="409.297373" y="40.155055" style="fill: #32cd32; fill-opacity: 0.7; stroke: #32cd32; stroke-opacity: 0.7"/>
     <use xlink:href="#mafcf3e9c45" x="417.734667" y="38.411678" style="fill: #32cd32; fill-opacity: 0.7; stroke: #32cd32; stroke-opacity: 0.7"/>
     <use xlink:href="#mafcf3e9c45" x="426.171961" y="37.03478" style="fill: #32cd32; fill-opacity: 0.7; stroke: #32cd32; stroke-opacity: 0.7"/>
     <use xlink:href="#mafcf3e9c45" x="434.609255" y="35.41819" style="fill: #32cd32; fill-opacity: 0.7; stroke: #32cd32; stroke-opacity: 0.7"/>
     <use xlink:href="#mafcf3e9c45" x="443.046549" y="33.732404" style="fill: #32cd32; fill-opacity: 0.7; stroke: #32cd32; stroke-opacity: 0.7"/>
     <use xlink:href="#mafcf3e9c45" x="451.483842" y="31.845421" style="fill: #32cd32; fill-opacity: 0.7; stroke: #32cd32; stroke-opacity: 0.7"/>
     <use xlink:href="#mafcf3e9c45" x="459.921136" y="30.468067" style="fill: #32cd32; fill-opacity: 0.7; stroke: #32cd32; stroke-opacity: 0.7"/>
     <use xlink:href="#mafcf3e9c45" x="468.35843" y="28.623777" style="fill: #32cd32; fill-opacity: 0.7; stroke: #32cd32; stroke-opacity: 0.7"/>
     <use xlink:href="#mafcf3e9c45" x="476.795724" y="26.759056" style="fill: #32cd32; fill-opacity: 0.7; stroke: #32cd32; stroke-opacity: 0.7"/>
     <use xlink:href="#mafcf3e9c45" x="485.233018" y="25.54719" style="fill: #32cd32; fill-opacity: 0.7; stroke: #32cd32; stroke-opacity: 0.7"/>
     <use xlink:href="#mafcf3e9c45" x="493.670311" y="23.975257" style="fill: #32cd32; fill-opacity: 0.7; stroke: #32cd32; stroke-opacity: 0.7"/>
     <use xlink:href="#mafcf3e9c45" x="502.107605" y="21.239959" style="fill: #32cd32; fill-opacity: 0.7; stroke: #32cd32; stroke-opacity: 0.7"/>
     <use xlink:href="#mafcf3e9c45" x="510.544899" y="20.396721" style="fill: #32cd32; fill-opacity: 0.7; stroke: #32cd32; stroke-opacity: 0.7"/>
     <use xlink:href="#mafcf3e9c45" x="518.982193" y="19.013011" style="fill: #32cd32; fill-opacity: 0.7; stroke: #32cd32; stroke-opacity: 0.7"/>
     <use xlink:href="#mafcf3e9c45" x="527.419487" y="16.936034" style="fill: #32cd32; fill-opacity: 0.7; stroke: #32cd32; stroke-opacity: 0.7"/>
     <use xlink:href="#mafcf3e9c45" x="535.85678" y="15.405229" style="fill: #32cd32; fill-opacity: 0.7; stroke: #32cd32; stroke-opacity: 0.7"/>
     <use xlink:href="#mafcf3e9c45" x="544.294074" y="13.972192" style="fill: #32cd32; fill-opacity: 0.7; stroke: #32cd32; stroke-opacity: 0.7"/>
     <use xlink:href="#mafcf3e9c45" x="552.731368" y="12.028768" style="fill: #32cd32; fill-opacity: 0.7; stroke: #32cd32; stroke-opacity: 0.7"/>
    </g>
   </g>
   <g id="FillBetweenPolyCollection_2">
    <defs>
     <path id="m2314d6a09d" d="M 63.368328 -42.995593 
L 63.368328 -43.042638 
L 71.805622 -44.629284 
L 80.242915 -46.212676 
L 88.680209 -47.793115 
L 97.117503 -49.370754 
L 105.554797 -50.945684 
L 113.992091 -52.517963 
L 122.429384 -54.087634 
L 130.866678 -55.654726 
L 139.303972 -57.219263 
L 147.741266 -58.78126 
L 156.17856 -60.340734 
L 164.615853 -61.897694 
L 173.053147 -63.45215 
L 181.490441 -65.004111 
L 189.927735 -66.553582 
L 198.365029 -68.100569 
L 206.802322 -69.645077 
L 215.239616 -71.187111 
L 223.67691 -72.726673 
L 232.114204 -74.263768 
L 240.551498 -75.798399 
L 248.988791 -77.330567 
L 257.426085 -78.860275 
L 265.863379 -80.387525 
L 274.300673 -81.91232 
L 282.737967 -83.43466 
L 291.17526 -84.954548 
L 299.612554 -86.471984 
L 308.049848 -87.986971 
L 316.487142 -89.499509 
L 324.924436 -91.009599 
L 333.361729 -92.517243 
L 341.799023 -94.022441 
L 350.236317 -95.525195 
L 358.673611 -97.025504 
L 367.110904 -98.523371 
L 375.548198 -100.018795 
L 383.985492 -101.511778 
L 392.422786 -103.002319 
L 400.86008 -104.49042 
L 409.297373 -105.976081 
L 417.734667 -107.459303 
L 426.171961 -108.940086 
L 434.609255 -110.41843 
L 443.046549 -111.894336 
L 451.483842 -113.367805 
L 459.921136 -114.838837 
L 468.35843 -116.307431 
L 476.795724 -117.77359 
L 485.233018 -119.237312 
L 493.670311 -120.698598 
L 502.107605 -122.157449 
L 510.544899 -123.613865 
L 518.982193 -125.067846 
L 527.419487 -126.519392 
L 535.85678 -127.968504 
L 544.294074 -129.415182 
L 552.731368 -130.859426 
L 552.731368 -130.598369 
L 552.731368 -130.598369 
L 544.294074 -129.156367 
L 535.85678 -127.711949 
L 527.419487 -126.265115 
L 518.982193 -124.815865 
L 510.544899 -123.3642 
L 502.107605 -121.910119 
L 493.670311 -120.453623 
L 485.233018 -118.994713 
L 476.795724 -117.533388 
L 468.35843 -116.069649 
L 459.921136 -114.603497 
L 451.483842 -113.134931 
L 443.046549 -111.663952 
L 434.609255 -110.190561 
L 426.171961 -108.714757 
L 417.734667 -107.236542 
L 409.297373 -105.755915 
L 400.86008 -104.272878 
L 392.422786 -102.78743 
L 383.985492 -101.299573 
L 375.548198 -99.809307 
L 367.110904 -98.316632 
L 358.673611 -96.821549 
L 350.236317 -95.32406 
L 341.799023 -93.824164 
L 333.361729 -92.321862 
L 324.924436 -90.817156 
L 316.487142 -89.310047 
L 308.049848 -87.800534 
L 299.612554 -86.288621 
L 291.17526 -84.774307 
L 282.737967 -83.257594 
L 274.300673 -81.738483 
L 265.863379 -80.216977 
L 257.426085 -78.693076 
L 248.988791 -77.166783 
L 240.551498 -75.638099 
L 232.114204 -74.107028 
L 223.67691 -72.573571 
L 215.239616 -71.037732 
L 206.802322 -69.499514 
L 198.365029 -67.95892 
L 189.927735 -66.415954 
L 181.490441 -64.870623 
L 173.053147 -63.32293 
L 164.615853 -61.772884 
L 156.17856 -60.220491 
L 147.741266 -58.665761 
L 139.303972 -57.108706 
L 130.866678 -55.549338 
L 122.429384 -53.987677 
L 113.992091 -52.423744 
L 105.554797 -50.85757 
L 97.117503 -49.289195 
L 88.680209 -47.718679 
L 80.242915 -46.146114 
L 71.805622 -44.571652 
L 63.368328 -42.995593 
z
" style="stroke: #1e90ff; stroke-opacity: 0.3"/>
    </defs>
    <g clip-path="url(#p40a1561001)">
     <use xlink:href="#m2314d6a09d" x="0" y="151.115386" style="fill: #1e90ff; fill-opacity: 0.3; stroke: #1e90ff; stroke-opacity: 0.3"/>
    </g>
   </g>
   <g id="PathCollection_2">
    <defs>
     <path id="m5d37c1bca5" d="M 0 -2.236068 
L -2.236068 2.236068 
L 2.236068 2.236068 
z
" style="stroke: #1e90ff; stroke-opacity: 0.7"/>
    </defs>
    <g clip-path="url(#p40a1561001)">
     <use xlink:href="#m5d37c1bca5" x="63.368328" y="108.604135" style="fill: #1e90ff; fill-opacity: 0.7; stroke: #1e90ff; stroke-opacity: 0.7"/>
     <use xlink:href="#m5d37c1bca5" x="71.805622" y="104.723335" style="fill: #1e90ff; fill-opacity: 0.7; stroke: #1e90ff; stroke-opacity: 0.7"/>
     <use xlink:href="#m5d37c1bca5" x="80.242915" y="105.100192" style="fill: #1e90ff; fill-opacity: 0.7; stroke: #1e90ff; stroke-opacity: 0.7"/>
     <use xlink:href="#m5d37c1bca5" x="88.680209" y="104.055193" style="fill: #1e90ff; fill-opacity: 0.7; stroke: #1e90ff; stroke-opacity: 0.7"/>
     <use xlink:href="#m5d37c1bca5" x="97.117503" y="99.242664" style="fill: #1e90ff; fill-opacity: 0.7; stroke: #1e90ff; stroke-opacity: 0.7"/>
     <use xlink:href="#m5d37c1bca5" x="105.554797" y="99.367587" style="fill: #1e90ff; fill-opacity: 0.7; stroke: #1e90ff; stroke-opacity: 0.7"/>
     <use xlink:href="#m5d37c1bca5" x="113.992091" y="96.726852" style="fill: #1e90ff; fill-opacity: 0.7; stroke: #1e90ff; stroke-opacity: 0.7"/>
     <use xlink:href="#m5d37c1bca5" x="122.429384" y="96.355644" style="fill: #1e90ff; fill-opacity: 0.7; stroke: #1e90ff; stroke-opacity: 0.7"/>
     <use xlink:href="#m5d37c1bca5" x="130.866678" y="95.372394" style="fill: #1e90ff; fill-opacity: 0.7; stroke: #1e90ff; stroke-opacity: 0.7"/>
     <use xlink:href="#m5d37c1bca5" x="139.303972" y="94.023162" style="fill: #1e90ff; fill-opacity: 0.7; stroke: #1e90ff; stroke-opacity: 0.7"/>
     <use xlink:href="#m5d37c1bca5" x="147.741266" y="91.791729" style="fill: #1e90ff; fill-opacity: 0.7; stroke: #1e90ff; stroke-opacity: 0.7"/>
     <use xlink:href="#m5d37c1bca5" x="156.17856" y="91.398432" style="fill: #1e90ff; fill-opacity: 0.7; stroke: #1e90ff; stroke-opacity: 0.7"/>
     <use xlink:href="#m5d37c1bca5" x="164.615853" y="87.437827" style="fill: #1e90ff; fill-opacity: 0.7; stroke: #1e90ff; stroke-opacity: 0.7"/>
     <use xlink:href="#m5d37c1bca5" x="173.053147" y="87.760417" style="fill: #1e90ff; fill-opacity: 0.7; stroke: #1e90ff; stroke-opacity: 0.7"/>
     <use xlink:href="#m5d37c1bca5" x="181.490441" y="87.443719" style="fill: #1e90ff; fill-opacity: 0.7; stroke: #1e90ff; stroke-opacity: 0.7"/>
     <use xlink:href="#m5d37c1bca5" x="189.927735" y="82.402863" style="fill: #1e90ff; fill-opacity: 0.7; stroke: #1e90ff; stroke-opacity: 0.7"/>
     <use xlink:href="#m5d37c1bca5" x="198.365029" y="83.600554" style="fill: #1e90ff; fill-opacity: 0.7; stroke: #1e90ff; stroke-opacity: 0.7"/>
     <use xlink:href="#m5d37c1bca5" x="206.802322" y="80.960321" style="fill: #1e90ff; fill-opacity: 0.7; stroke: #1e90ff; stroke-opacity: 0.7"/>
     <use xlink:href="#m5d37c1bca5" x="215.239616" y="79.847732" style="fill: #1e90ff; fill-opacity: 0.7; stroke: #1e90ff; stroke-opacity: 0.7"/>
     <use xlink:href="#m5d37c1bca5" x="223.67691" y="76.882147" style="fill: #1e90ff; fill-opacity: 0.7; stroke: #1e90ff; stroke-opacity: 0.7"/>
     <use xlink:href="#m5d37c1bca5" x="232.114204" y="77.822887" style="fill: #1e90ff; fill-opacity: 0.7; stroke: #1e90ff; stroke-opacity: 0.7"/>
     <use xlink:href="#m5d37c1bca5" x="240.551498" y="73.662268" style="fill: #1e90ff; fill-opacity: 0.7; stroke: #1e90ff; stroke-opacity: 0.7"/>
     <use xlink:href="#m5d37c1bca5" x="248.988791" y="74.62984" style="fill: #1e90ff; fill-opacity: 0.7; stroke: #1e90ff; stroke-opacity: 0.7"/>
     <use xlink:href="#m5d37c1bca5" x="257.426085" y="72.404627" style="fill: #1e90ff; fill-opacity: 0.7; stroke: #1e90ff; stroke-opacity: 0.7"/>
     <use xlink:href="#m5d37c1bca5" x="265.863379" y="69.370128" style="fill: #1e90ff; fill-opacity: 0.7; stroke: #1e90ff; stroke-opacity: 0.7"/>
     <use xlink:href="#m5d37c1bca5" x="274.300673" y="67.96985" style="fill: #1e90ff; fill-opacity: 0.7; stroke: #1e90ff; stroke-opacity: 0.7"/>
     <use xlink:href="#m5d37c1bca5" x="282.737967" y="68.239242" style="fill: #1e90ff; fill-opacity: 0.7; stroke: #1e90ff; stroke-opacity: 0.7"/>
     <use xlink:href="#m5d37c1bca5" x="291.17526" y="67.251472" style="fill: #1e90ff; fill-opacity: 0.7; stroke: #1e90ff; stroke-opacity: 0.7"/>
     <use xlink:href="#m5d37c1bca5" x="299.612554" y="64.982609" style="fill: #1e90ff; fill-opacity: 0.7; stroke: #1e90ff; stroke-opacity: 0.7"/>
     <use xlink:href="#m5d37c1bca5" x="308.049848" y="63.648401" style="fill: #1e90ff; fill-opacity: 0.7; stroke: #1e90ff; stroke-opacity: 0.7"/>
     <use xlink:href="#m5d37c1bca5" x="316.487142" y="61.035365" style="fill: #1e90ff; fill-opacity: 0.7; stroke: #1e90ff; stroke-opacity: 0.7"/>
     <use xlink:href="#m5d37c1bca5" x="324.924436" y="60.248856" style="fill: #1e90ff; fill-opacity: 0.7; stroke: #1e90ff; stroke-opacity: 0.7"/>
     <use xlink:href="#m5d37c1bca5" x="333.361729" y="58.880814" style="fill: #1e90ff; fill-opacity: 0.7; stroke: #1e90ff; stroke-opacity: 0.7"/>
     <use xlink:href="#m5d37c1bca5" x="341.799023" y="59.288504" style="fill: #1e90ff; fill-opacity: 0.7; stroke: #1e90ff; stroke-opacity: 0.7"/>
     <use xlink:href="#m5d37c1bca5" x="350.236317" y="55.251294" style="fill: #1e90ff; fill-opacity: 0.7; stroke: #1e90ff; stroke-opacity: 0.7"/>
     <use xlink:href="#m5d37c1bca5" x="358.673611" y="54.905572" style="fill: #1e90ff; fill-opacity: 0.7; stroke: #1e90ff; stroke-opacity: 0.7"/>
     <use xlink:href="#m5d37c1bca5" x="367.110904" y="53.196523" style="fill: #1e90ff; fill-opacity: 0.7; stroke: #1e90ff; stroke-opacity: 0.7"/>
     <use xlink:href="#m5d37c1bca5" x="375.548198" y="51.390014" style="fill: #1e90ff; fill-opacity: 0.7; stroke: #1e90ff; stroke-opacity: 0.7"/>
     <use xlink:href="#m5d37c1bca5" x="383.985492" y="50.54945" style="fill: #1e90ff; fill-opacity: 0.7; stroke: #1e90ff; stroke-opacity: 0.7"/>
     <use xlink:href="#m5d37c1bca5" x="392.422786" y="47.658063" style="fill: #1e90ff; fill-opacity: 0.7; stroke: #1e90ff; stroke-opacity: 0.7"/>
     <use xlink:href="#m5d37c1bca5" x="400.86008" y="47.623153" style="fill: #1e90ff; fill-opacity: 0.7; stroke: #1e90ff; stroke-opacity: 0.7"/>
     <use xlink:href="#m5d37c1bca5" x="409.297373" y="46.464732" style="fill: #1e90ff; fill-opacity: 0.7; stroke: #1e90ff; stroke-opacity: 0.7"/>
     <use xlink:href="#m5d37c1bca5" x="417.734667" y="44.13625" style="fill: #1e90ff; fill-opacity: 0.7; stroke: #1e90ff; stroke-opacity: 0.7"/>
     <use xlink:href="#m5d37c1bca5" x="426.171961" y="44.601333" style="fill: #1e90ff; fill-opacity: 0.7; stroke: #1e90ff; stroke-opacity: 0.7"/>
     <use xlink:href="#m5d37c1bca5" x="434.609255" y="40.520143" style="fill: #1e90ff; fill-opacity: 0.7; stroke: #1e90ff; stroke-opacity: 0.7"/>
     <use xlink:href="#m5d37c1bca5" x="443.046549" y="40.385382" style="fill: #1e90ff; fill-opacity: 0.7; stroke: #1e90ff; stroke-opacity: 0.7"/>
     <use xlink:href="#m5d37c1bca5" x="451.483842" y="37.866531" style="fill: #1e90ff; fill-opacity: 0.7; stroke: #1e90ff; stroke-opacity: 0.7"/>
     <use xlink:href="#m5d37c1bca5" x="459.921136" y="36.257125" style="fill: #1e90ff; fill-opacity: 0.7; stroke: #1e90ff; stroke-opacity: 0.7"/>
     <use xlink:href="#m5d37c1bca5" x="468.35843" y="35.081911" style="fill: #1e90ff; fill-opacity: 0.7; stroke: #1e90ff; stroke-opacity: 0.7"/>
     <use xlink:href="#m5d37c1bca5" x="476.795724" y="34.662893" style="fill: #1e90ff; fill-opacity: 0.7; stroke: #1e90ff; stroke-opacity: 0.7"/>
     <use xlink:href="#m5d37c1bca5" x="485.233018" y="31.206867" style="fill: #1e90ff; fill-opacity: 0.7; stroke: #1e90ff; stroke-opacity: 0.7"/>
     <use xlink:href="#m5d37c1bca5" x="493.670311" y="29.793589" style="fill: #1e90ff; fill-opacity: 0.7; stroke: #1e90ff; stroke-opacity: 0.7"/>
     <use xlink:href="#m5d37c1bca5" x="502.107605" y="30.081" style="fill: #1e90ff; fill-opacity: 0.7; stroke: #1e90ff; stroke-opacity: 0.7"/>
     <use xlink:href="#m5d37c1bca5" x="510.544899" y="26.918593" style="fill: #1e90ff; fill-opacity: 0.7; stroke: #1e90ff; stroke-opacity: 0.7"/>
     <use xlink:href="#m5d37c1bca5" x="518.982193" y="27.160896" style="fill: #1e90ff; fill-opacity: 0.7; stroke: #1e90ff; stroke-opacity: 0.7"/>
     <use xlink:href="#m5d37c1bca5" x="527.419487" y="23.588964" style="fill: #1e90ff; fill-opacity: 0.7; stroke: #1e90ff; stroke-opacity: 0.7"/>
     <use xlink:href="#m5d37c1bca5" x="535.85678" y="21.294379" style="fill: #1e90ff; fill-opacity: 0.7; stroke: #1e90ff; stroke-opacity: 0.7"/>
     <use xlink:href="#m5d37c1bca5" x="544.294074" y="22.892008" style="fill: #1e90ff; fill-opacity: 0.7; stroke: #1e90ff; stroke-opacity: 0.7"/>
     <use xlink:href="#m5d37c1bca5" x="552.731368" y="17.841271" style="fill: #1e90ff; fill-opacity: 0.7; stroke: #1e90ff; stroke-opacity: 0.7"/>
    </g>
   </g>
   <g id="matplotlib.axis_1">
    <g id="xtick_1">
     <g id="line2d_1">
      <defs>
       <path id="m4a794eaa6e" d="M 0 0 
L 0 3.5 
" style="stroke: #000000; stroke-width: 0.8"/>
      </defs>
      <g>
       <use xlink:href="#m4a794eaa6e" x="46.49374" y="113.432903" style="stroke: #000000; stroke-width: 0.8"/>
      </g>
     </g>
     <g id="text_1">
      <!-- $\mathdefault{0}$ -->
      <g transform="translate(43.754007 128.04325) scale(0.11 -0.11)">
       <defs>
        <path id="CMR17-30" d="M 2688 2025 
C 2688 2416 2682 3080 2413 3591 
C 2176 4039 1798 4198 1466 4198 
C 1158 4198 768 4058 525 3597 
C 269 3118 243 2524 243 2025 
C 243 1661 250 1106 448 619 
C 723 -39 1216 -128 1466 -128 
C 1760 -128 2208 -7 2470 600 
C 2662 1042 2688 1559 2688 2025 
z
M 1466 -26 
C 1056 -26 813 325 723 812 
C 653 1188 653 1738 653 2096 
C 653 2588 653 2997 736 3387 
C 858 3929 1216 4096 1466 4096 
C 1728 4096 2067 3923 2189 3400 
C 2272 3036 2278 2607 2278 2096 
C 2278 1680 2278 1169 2202 792 
C 2067 95 1690 -26 1466 -26 
z
" transform="scale(0.015625)"/>
       </defs>
       <use xlink:href="#CMR17-30" transform="scale(0.996264)"/>
      </g>
     </g>
    </g>
    <g id="xtick_2">
     <g id="line2d_2">
      <g>
       <use xlink:href="#m4a794eaa6e" x="130.866678" y="113.432903" style="stroke: #000000; stroke-width: 0.8"/>
      </g>
     </g>
     <g id="text_2">
      <!-- $\mathdefault{10}$ -->
      <g transform="translate(125.387211 128.04325) scale(0.11 -0.11)">
       <defs>
        <path id="CMR17-31" d="M 1702 4058 
C 1702 4192 1696 4192 1606 4192 
C 1357 3916 979 3827 621 3827 
C 602 3827 570 3827 563 3808 
C 557 3795 557 3782 557 3648 
C 755 3648 1088 3686 1344 3839 
L 1344 461 
C 1344 236 1331 160 781 160 
L 589 160 
L 589 0 
C 896 0 1216 0 1523 0 
C 1830 0 2150 0 2458 0 
L 2458 160 
L 2266 160 
C 1715 160 1702 230 1702 458 
L 1702 4058 
z
" transform="scale(0.015625)"/>
       </defs>
       <use xlink:href="#CMR17-31" transform="scale(0.996264)"/>
       <use xlink:href="#CMR17-30" transform="translate(45.690477 0) scale(0.996264)"/>
      </g>
     </g>
    </g>
    <g id="xtick_3">
     <g id="line2d_3">
      <g>
       <use xlink:href="#m4a794eaa6e" x="215.239616" y="113.432903" style="stroke: #000000; stroke-width: 0.8"/>
      </g>
     </g>
     <g id="text_3">
      <!-- $\mathdefault{20}$ -->
      <g transform="translate(209.760149 128.04325) scale(0.11 -0.11)">
       <defs>
        <path id="CMR17-32" d="M 2669 989 
L 2554 989 
C 2490 536 2438 459 2413 420 
C 2381 369 1920 369 1830 369 
L 602 369 
C 832 619 1280 1072 1824 1597 
C 2214 1967 2669 2402 2669 3035 
C 2669 3790 2067 4224 1395 4224 
C 691 4224 262 3604 262 3030 
C 262 2780 448 2748 525 2748 
C 589 2748 781 2787 781 3010 
C 781 3207 614 3264 525 3264 
C 486 3264 448 3258 422 3245 
C 544 3790 915 4058 1306 4058 
C 1862 4058 2227 3617 2227 3035 
C 2227 2479 1901 2000 1536 1584 
L 262 146 
L 262 0 
L 2515 0 
L 2669 989 
z
" transform="scale(0.015625)"/>
       </defs>
       <use xlink:href="#CMR17-32" transform="scale(0.996264)"/>
       <use xlink:href="#CMR17-30" transform="translate(45.690477 0) scale(0.996264)"/>
      </g>
     </g>
    </g>
    <g id="xtick_4">
     <g id="line2d_4">
      <g>
       <use xlink:href="#m4a794eaa6e" x="299.612554" y="113.432903" style="stroke: #000000; stroke-width: 0.8"/>
      </g>
     </g>
     <g id="text_4">
      <!-- $\mathdefault{30}$ -->
      <g transform="translate(294.133087 128.04325) scale(0.11 -0.11)">
       <defs>
        <path id="CMR17-33" d="M 1414 2157 
C 1984 2157 2234 1662 2234 1090 
C 2234 320 1824 25 1453 25 
C 1114 25 563 194 390 693 
C 422 680 454 680 486 680 
C 640 680 755 782 755 948 
C 755 1133 614 1216 486 1216 
C 378 1216 211 1165 211 926 
C 211 335 787 -128 1466 -128 
C 2176 -128 2720 430 2720 1085 
C 2720 1707 2208 2157 1600 2227 
C 2086 2328 2554 2756 2554 3329 
C 2554 3820 2048 4179 1472 4179 
C 890 4179 378 3829 378 3329 
C 378 3110 544 3072 627 3072 
C 762 3072 877 3155 877 3321 
C 877 3486 762 3569 627 3569 
C 602 3569 570 3569 544 3557 
C 730 3959 1235 4032 1459 4032 
C 1683 4032 2106 3925 2106 3320 
C 2106 3143 2080 2828 1862 2550 
C 1670 2304 1453 2304 1242 2284 
C 1210 2284 1062 2269 1037 2269 
C 992 2263 966 2257 966 2208 
C 966 2163 973 2157 1101 2157 
L 1414 2157 
z
" transform="scale(0.015625)"/>
       </defs>
       <use xlink:href="#CMR17-33" transform="scale(0.996264)"/>
       <use xlink:href="#CMR17-30" transform="translate(45.690477 0) scale(0.996264)"/>
      </g>
     </g>
    </g>
    <g id="xtick_5">
     <g id="line2d_5">
      <g>
       <use xlink:href="#m4a794eaa6e" x="383.985492" y="113.432903" style="stroke: #000000; stroke-width: 0.8"/>
      </g>
     </g>
     <g id="text_5">
      <!-- $\mathdefault{40}$ -->
      <g transform="translate(378.506025 128.04325) scale(0.11 -0.11)">
       <defs>
        <path id="CMR17-34" d="M 2150 4122 
C 2150 4256 2144 4256 2029 4256 
L 128 1254 
L 128 1088 
L 1779 1088 
L 1779 457 
C 1779 224 1766 160 1318 160 
L 1197 160 
L 1197 0 
C 1402 0 1747 0 1965 0 
C 2182 0 2528 0 2733 0 
L 2733 160 
L 2611 160 
C 2163 160 2150 224 2150 457 
L 2150 1088 
L 2803 1088 
L 2803 1254 
L 2150 1254 
L 2150 4122 
z
M 1798 3703 
L 1798 1254 
L 256 1254 
L 1798 3703 
z
" transform="scale(0.015625)"/>
       </defs>
       <use xlink:href="#CMR17-34" transform="scale(0.996264)"/>
       <use xlink:href="#CMR17-30" transform="translate(45.690477 0) scale(0.996264)"/>
      </g>
     </g>
    </g>
    <g id="xtick_6">
     <g id="line2d_6">
      <g>
       <use xlink:href="#m4a794eaa6e" x="468.35843" y="113.432903" style="stroke: #000000; stroke-width: 0.8"/>
      </g>
     </g>
     <g id="text_6">
      <!-- $\mathdefault{50}$ -->
      <g transform="translate(462.878963 128.04325) scale(0.11 -0.11)">
       <defs>
        <path id="CMR17-35" d="M 730 3692 
C 794 3666 1056 3584 1325 3584 
C 1920 3584 2246 3911 2432 4100 
C 2432 4157 2432 4192 2394 4192 
C 2387 4192 2374 4192 2323 4163 
C 2099 4058 1837 3973 1517 3973 
C 1325 3973 1037 3999 723 4139 
C 653 4171 640 4171 634 4171 
C 602 4171 595 4164 595 4037 
L 595 2203 
C 595 2089 595 2057 659 2057 
C 691 2057 704 2070 736 2114 
C 941 2401 1222 2522 1542 2522 
C 1766 2522 2246 2382 2246 1289 
C 2246 1085 2246 715 2054 421 
C 1894 159 1645 25 1370 25 
C 947 25 518 320 403 814 
C 429 807 480 795 506 795 
C 589 795 749 840 749 1038 
C 749 1210 627 1280 506 1280 
C 358 1280 262 1190 262 1011 
C 262 454 704 -128 1382 -128 
C 2042 -128 2669 440 2669 1264 
C 2669 2030 2170 2624 1549 2624 
C 1222 2624 947 2503 730 2274 
L 730 3692 
z
" transform="scale(0.015625)"/>
       </defs>
       <use xlink:href="#CMR17-35" transform="scale(0.996264)"/>
       <use xlink:href="#CMR17-30" transform="translate(45.690477 0) scale(0.996264)"/>
      </g>
     </g>
    </g>
    <g id="xtick_7">
     <g id="line2d_7">
      <g>
       <use xlink:href="#m4a794eaa6e" x="552.731368" y="113.432903" style="stroke: #000000; stroke-width: 0.8"/>
      </g>
     </g>
     <g id="text_7">
      <!-- $\mathdefault{60}$ -->
      <g transform="translate(547.251901 128.04325) scale(0.11 -0.11)">
       <defs>
        <path id="CMR17-36" d="M 678 2176 
C 678 3690 1395 4032 1811 4032 
C 1946 4032 2272 4009 2400 3776 
C 2298 3776 2106 3776 2106 3553 
C 2106 3381 2246 3323 2336 3323 
C 2394 3323 2566 3348 2566 3560 
C 2566 3954 2246 4179 1805 4179 
C 1043 4179 243 3390 243 1984 
C 243 253 966 -128 1478 -128 
C 2099 -128 2688 427 2688 1283 
C 2688 2081 2170 2662 1517 2662 
C 1126 2662 838 2407 678 1960 
L 678 2176 
z
M 1478 25 
C 691 25 691 1200 691 1436 
C 691 1896 909 2560 1504 2560 
C 1613 2560 1926 2560 2138 2120 
C 2253 1870 2253 1609 2253 1289 
C 2253 944 2253 690 2118 434 
C 1978 171 1773 25 1478 25 
z
" transform="scale(0.015625)"/>
       </defs>
       <use xlink:href="#CMR17-36" transform="scale(0.996264)"/>
       <use xlink:href="#CMR17-30" transform="translate(45.690477 0) scale(0.996264)"/>
      </g>
     </g>
    </g>
    <g id="text_8">
     <!-- N -->
     <g transform="translate(303.940251 141.784491) scale(0.11 -0.11)">
      <defs>
       <path id="CMR17-4e" d="M 1312 4250 
C 1267 4320 1261 4320 1139 4320 
L 326 4320 
L 326 4160 
L 448 4160 
C 704 4160 819 4129 838 4122 
L 838 610 
C 838 451 838 153 326 153 
L 326 -13 
C 474 0 742 0 902 0 
C 1062 0 1331 0 1478 -13 
L 1478 153 
C 966 153 966 451 966 610 
L 966 4033 
C 1011 3995 1011 3982 1056 3919 
L 3430 76 
C 3475 0 3494 0 3526 0 
C 3590 0 3590 19 3590 139 
L 3590 3705 
C 3590 3863 3590 4160 4102 4160 
L 4102 4326 
C 3955 4320 3686 4320 3526 4320 
C 3366 4320 3098 4320 2950 4326 
L 2950 4160 
C 3462 4160 3462 3862 3462 3703 
L 3462 763 
L 1312 4250 
z
" transform="scale(0.015625)"/>
      </defs>
      <use xlink:href="#CMR17-4e" transform="scale(0.996264)"/>
     </g>
    </g>
   </g>
   <g id="matplotlib.axis_2">
    <g id="ytick_1">
     <g id="line2d_8">
      <defs>
       <path id="m9a4711197a" d="M 0 0 
L -3.5 0 
" style="stroke: #000000; stroke-width: 0.8"/>
      </defs>
      <g>
       <use xlink:href="#m9a4711197a" x="38.900176" y="111.26625" style="stroke: #000000; stroke-width: 0.8"/>
      </g>
     </g>
     <g id="text_9">
      <!-- $\mathdefault{0}$ -->
      <g transform="translate(26.420709 115.071424) scale(0.11 -0.11)">
       <use xlink:href="#CMR17-30" transform="scale(0.996264)"/>
      </g>
     </g>
    </g>
    <g id="ytick_2">
     <g id="line2d_9">
      <g>
       <use xlink:href="#m9a4711197a" x="38.900176" y="61.969584" style="stroke: #000000; stroke-width: 0.8"/>
      </g>
     </g>
     <g id="text_10">
      <!-- $\mathdefault{20}$ -->
      <g transform="translate(20.941241 65.774757) scale(0.11 -0.11)">
       <use xlink:href="#CMR17-32" transform="scale(0.996264)"/>
       <use xlink:href="#CMR17-30" transform="translate(45.690477 0) scale(0.996264)"/>
      </g>
     </g>
    </g>
    <g id="ytick_3">
     <g id="line2d_10">
      <g>
       <use xlink:href="#m9a4711197a" x="38.900176" y="12.672917" style="stroke: #000000; stroke-width: 0.8"/>
      </g>
     </g>
     <g id="text_11">
      <!-- $\mathdefault{40}$ -->
      <g transform="translate(20.941241 16.478091) scale(0.11 -0.11)">
       <use xlink:href="#CMR17-34" transform="scale(0.996264)"/>
       <use xlink:href="#CMR17-30" transform="translate(45.690477 0) scale(0.996264)"/>
      </g>
     </g>
    </g>
    <g id="text_12">
     <!-- Average after initial phase -->
     <g transform="translate(14.810347 123.695593) rotate(-90) scale(0.11 -0.11)">
      <defs>
       <path id="CMR17-41" d="M 2323 4378 
C 2291 4461 2278 4480 2214 4480 
C 2150 4480 2138 4461 2106 4378 
L 749 566 
C 627 223 371 153 147 153 
L 147 -13 
C 262 0 518 0 640 0 
C 800 0 1056 0 1210 -13 
L 1210 153 
C 909 153 864 361 864 439 
C 864 497 877 530 890 569 
L 1229 1536 
L 2906 1536 
L 3290 442 
C 3322 365 3322 352 3322 327 
C 3322 153 3046 153 2925 153 
L 2925 0 
C 3110 0 3443 0 3642 0 
C 3808 0 4128 0 4282 -13 
L 4282 153 
C 3942 153 3827 153 3744 387 
L 2323 4378 
z
M 2067 3893 
L 2848 1702 
L 1286 1702 
L 2067 3893 
z
" transform="scale(0.015625)"/>
       <path id="CMR17-76" d="M 2502 2163 
C 2560 2304 2662 2560 3034 2560 
L 3034 2726 
C 2912 2726 2752 2726 2630 2726 
C 2496 2726 2285 2726 2157 2732 
L 2157 2566 
C 2317 2553 2406 2477 2406 2311 
C 2406 2253 2406 2240 2368 2151 
L 1664 377 
L 902 2286 
C 864 2369 864 2381 864 2407 
C 864 2560 1075 2560 1171 2560 
L 1171 2732 
C 1018 2726 736 2726 576 2726 
C 403 2726 205 2726 64 2732 
L 64 2560 
C 307 2560 442 2560 518 2362 
L 1446 44 
C 1485 -51 1491 -64 1549 -64 
C 1606 -64 1613 -51 1651 44 
L 2502 2163 
z
" transform="scale(0.015625)"/>
       <path id="CMR17-65" d="M 2438 1472 
C 2464 1498 2464 1511 2464 1576 
C 2464 2238 2118 2816 1389 2816 
C 710 2816 173 2169 173 1383 
C 173 551 781 -64 1459 -64 
C 2176 -64 2458 607 2458 740 
C 2458 784 2419 784 2406 784 
C 2362 784 2355 771 2330 696 
C 2189 265 1837 51 1504 51 
C 1229 51 954 203 781 480 
C 582 803 582 1176 582 1472 
L 2438 1472 
z
M 589 1568 
C 634 2505 1126 2714 1382 2714 
C 1818 2714 2112 2297 2118 1568 
L 589 1568 
z
" transform="scale(0.015625)"/>
       <path id="CMR17-72" d="M 960 1497 
C 960 2112 1222 2688 1702 2688 
C 1747 2688 1792 2682 1837 2662 
C 1837 2662 1696 2617 1696 2452 
C 1696 2298 1818 2234 1914 2234 
C 1990 2234 2131 2279 2131 2458 
C 2131 2663 1926 2790 1709 2790 
C 1222 2790 1011 2317 947 2093 
L 941 2093 
L 941 2790 
L 198 2720 
L 198 2554 
C 576 2554 634 2515 634 2208 
L 634 428 
C 634 184 608 153 198 153 
L 198 -13 
C 352 0 646 0 813 0 
C 998 0 1325 0 1498 -13 
L 1498 153 
C 1037 153 960 153 960 440 
L 960 1497 
z
" transform="scale(0.015625)"/>
       <path id="CMR17-61" d="M 2304 1653 
C 2304 2072 2304 2294 2035 2543 
C 1798 2752 1523 2816 1306 2816 
C 800 2816 435 2407 435 1971 
C 435 1728 627 1728 666 1728 
C 749 1728 896 1778 896 1954 
C 896 2112 774 2181 666 2181 
C 640 2181 608 2174 589 2168 
C 723 2592 1069 2714 1293 2714 
C 1613 2714 1965 2429 1965 1885 
L 1965 1600 
C 1587 1600 1133 1549 774 1357 
C 371 1133 256 813 256 570 
C 256 77 832 -64 1171 -64 
C 1523 -64 1850 139 1990 511 
C 2003 233 2182 -18 2464 -18 
C 2598 -18 2938 70 2938 567 
L 2938 920 
L 2822 920 
L 2822 562 
C 2822 178 2650 128 2566 128 
C 2304 128 2304 458 2304 738 
L 2304 1653 
z
M 1965 870 
C 1965 317 1568 38 1216 38 
C 896 38 646 275 646 570 
C 646 761 730 1100 1101 1305 
C 1408 1478 1760 1504 1965 1504 
L 1965 870 
z
" transform="scale(0.015625)"/>
       <path id="CMR17-67" d="M 710 1164 
C 832 1068 1043 960 1299 960 
C 1805 960 2240 1357 2240 1888 
C 2240 2054 2189 2310 1997 2509 
C 2176 2692 2438 2752 2586 2752 
C 2611 2752 2650 2752 2682 2734 
C 2656 2728 2598 2703 2598 2605 
C 2598 2527 2656 2471 2739 2471 
C 2835 2471 2886 2533 2886 2614 
C 2886 2731 2790 2854 2586 2854 
C 2330 2854 2106 2738 1926 2580 
C 1734 2753 1504 2816 1299 2816 
C 794 2816 358 2419 358 1888 
C 358 1522 570 1292 634 1228 
C 442 1004 442 743 442 711 
C 442 545 506 302 723 168 
C 390 85 128 -169 128 -486 
C 128 -943 736 -1280 1466 -1280 
C 2170 -1280 2803 -956 2803 -479 
C 2803 384 1856 384 1363 384 
C 1216 384 954 384 922 391 
C 723 423 589 602 589 826 
C 589 883 589 1024 710 1164 
z
M 1299 1068 
C 736 1068 736 1760 736 1889 
C 736 2016 736 2708 1299 2708 
C 1862 2708 1862 2016 1862 1889 
C 1862 1760 1862 1068 1299 1068 
z
M 1466 -1171 
C 826 -1171 384 -835 384 -486 
C 384 -289 493 -105 634 -4 
C 794 104 858 104 1293 104 
C 1818 104 2547 104 2547 -486 
C 2547 -835 2106 -1171 1466 -1171 
z
" transform="scale(0.015625)"/>
       <path id="CMR17-66" d="M 979 2560 
L 1709 2560 
L 1709 2725 
L 966 2725 
L 966 3494 
C 966 4022 1235 4352 1510 4352 
C 1594 4352 1690 4327 1754 4282 
C 1702 4269 1568 4225 1568 4067 
C 1568 3901 1696 3850 1786 3850 
C 1875 3850 2003 3901 2003 4067 
C 2003 4308 1773 4454 1517 4454 
C 1152 4454 653 4156 653 3481 
L 653 2725 
L 141 2725 
L 141 2560 
L 653 2560 
L 653 427 
C 653 184 627 153 218 153 
L 218 -13 
C 371 0 666 0 832 0 
C 1018 0 1344 0 1517 -13 
L 1517 153 
C 1056 153 979 153 979 439 
L 979 2560 
z
" transform="scale(0.015625)"/>
       <path id="CMR17-74" d="M 966 2560 
L 1862 2560 
L 1862 2725 
L 966 2725 
L 966 3904 
L 851 3904 
C 838 3245 614 2668 70 2668 
L 70 2560 
L 627 2560 
L 627 771 
C 627 650 627 -64 1370 -64 
C 1747 -64 1965 306 1965 777 
L 1965 1140 
L 1850 1140 
L 1850 783 
C 1850 344 1677 51 1408 51 
C 1222 51 966 178 966 758 
L 966 2560 
z
" transform="scale(0.015625)"/>
       <path id="CMR17-69" d="M 992 3909 
C 992 4049 877 4170 730 4170 
C 589 4170 467 4056 467 3909 
C 467 3769 582 3648 730 3648 
C 870 3648 992 3763 992 3909 
z
M 243 2706 
L 243 2541 
C 602 2541 653 2502 653 2197 
L 653 427 
C 653 184 627 153 218 153 
L 218 -13 
C 371 0 646 0 806 0 
C 960 0 1222 0 1370 -13 
L 1370 153 
C 992 153 979 191 979 420 
L 979 2776 
L 243 2706 
z
" transform="scale(0.015625)"/>
       <path id="CMR17-6e" d="M 2656 1933 
C 2656 2259 2592 2790 1837 2790 
C 1331 2790 1069 2400 973 2144 
L 966 2144 
L 966 2790 
L 211 2720 
L 211 2554 
C 589 2554 646 2515 646 2208 
L 646 428 
C 646 184 621 153 211 153 
L 211 -13 
C 365 0 646 0 813 0 
C 979 0 1267 0 1421 -13 
L 1421 153 
C 1011 153 986 178 986 428 
L 986 1658 
C 986 2247 1344 2688 1792 2688 
C 2266 2688 2317 2266 2317 1958 
L 2317 428 
C 2317 184 2291 153 1882 153 
L 1882 -13 
C 2035 0 2317 0 2483 0 
C 2650 0 2938 0 3091 -13 
L 3091 153 
C 2682 153 2656 178 2656 428 
L 2656 1933 
z
" transform="scale(0.015625)"/>
       <path id="CMR17-6c" d="M 979 4396 
L 218 4326 
L 218 4160 
C 595 4160 653 4122 653 3817 
L 653 426 
C 653 184 627 153 218 153 
L 218 -13 
C 371 0 653 0 813 0 
C 979 0 1261 0 1414 -13 
L 1414 153 
C 1005 153 979 178 979 426 
L 979 4396 
z
" transform="scale(0.015625)"/>
       <path id="CMR17-70" d="M 1408 -1063 
C 998 -1063 973 -1037 973 -789 
L 973 402 
C 1158 134 1427 -38 1766 -38 
C 2406 -38 3053 523 3053 1388 
C 3053 2191 2496 2802 1837 2802 
C 1453 2802 1139 2592 960 2338 
L 960 2802 
L 198 2732 
L 198 2567 
C 576 2567 634 2528 634 2223 
L 634 -789 
C 634 -1031 608 -1063 198 -1063 
L 198 -1228 
C 352 -1216 634 -1216 800 -1216 
C 966 -1216 1254 -1216 1408 -1228 
L 1408 -1063 
z
M 973 2012 
C 973 2102 973 2235 1222 2471 
C 1254 2497 1472 2688 1792 2688 
C 2259 2688 2643 2108 2643 1382 
C 2643 656 2234 64 1728 64 
C 1498 64 1248 172 1056 472 
C 973 612 973 650 973 752 
L 973 2012 
z
" transform="scale(0.015625)"/>
       <path id="CMR17-68" d="M 2656 1933 
C 2656 2259 2592 2790 1837 2790 
C 1312 2790 1056 2368 979 2157 
L 973 2157 
L 973 4396 
L 211 4326 
L 211 4160 
C 589 4160 646 4122 646 3817 
L 646 426 
C 646 184 621 153 211 153 
L 211 -13 
C 365 0 646 0 813 0 
C 979 0 1267 0 1421 -13 
L 1421 153 
C 1011 153 986 178 986 428 
L 986 1658 
C 986 2247 1344 2688 1792 2688 
C 2266 2688 2317 2266 2317 1958 
L 2317 428 
C 2317 184 2291 153 1882 153 
L 1882 -13 
C 2035 0 2317 0 2483 0 
C 2650 0 2938 0 3091 -13 
L 3091 153 
C 2682 153 2656 178 2656 428 
L 2656 1933 
z
" transform="scale(0.015625)"/>
       <path id="CMR17-73" d="M 1978 2697 
C 1978 2813 1971 2819 1933 2819 
C 1907 2819 1901 2813 1824 2717 
C 1805 2691 1747 2626 1728 2601 
C 1523 2819 1235 2819 1126 2819 
C 416 2819 160 2447 160 2076 
C 160 1498 813 1365 998 1325 
C 1402 1243 1542 1217 1677 1101 
C 1760 1025 1901 884 1901 654 
C 1901 384 1747 38 1158 38 
C 602 38 403 460 288 1021 
C 269 1110 269 1117 218 1117 
C 166 1117 160 1110 160 983 
L 160 63 
C 160 -51 166 -58 205 -58 
C 237 -58 243 -51 275 0 
C 314 57 410 211 448 276 
C 576 103 800 -64 1158 -64 
C 1792 -64 2131 283 2131 784 
C 2131 1112 1958 1285 1875 1362 
C 1683 1561 1459 1606 1190 1657 
C 838 1735 390 1825 390 2217 
C 390 2383 480 2737 1126 2737 
C 1811 2737 1850 2094 1862 1888 
C 1869 1856 1901 1849 1920 1849 
C 1978 1849 1978 1869 1978 1978 
L 1978 2697 
z
" transform="scale(0.015625)"/>
      </defs>
      <use xlink:href="#CMR17-41" transform="scale(0.996264)"/>
      <use xlink:href="#CMR17-76" transform="translate(69.07243 0) scale(0.996264)"/>
      <use xlink:href="#CMR17-65" transform="translate(114.762892 0) scale(0.996264)"/>
      <use xlink:href="#CMR17-72" transform="translate(155.248552 0) scale(0.996264)"/>
      <use xlink:href="#CMR17-61" transform="translate(190.52932 0) scale(0.996264)"/>
      <use xlink:href="#CMR17-67" transform="translate(236.219797 0) scale(0.996264)"/>
      <use xlink:href="#CMR17-65" transform="translate(281.910274 0) scale(0.996264)"/>
      <use xlink:href="#CMR17-61" transform="translate(352.471901 0) scale(0.996264)"/>
      <use xlink:href="#CMR17-66" transform="translate(398.162378 0) scale(0.996264)"/>
      <use xlink:href="#CMR17-74" transform="translate(425.635891 0) scale(0.996264)"/>
      <use xlink:href="#CMR17-65" transform="translate(460.916658 0) scale(0.996264)"/>
      <use xlink:href="#CMR17-72" transform="translate(501.402319 0) scale(0.996264)"/>
      <use xlink:href="#CMR17-69" transform="translate(566.759053 0) scale(0.996264)"/>
      <use xlink:href="#CMR17-6e" transform="translate(591.630111 0) scale(0.996264)"/>
      <use xlink:href="#CMR17-69" transform="translate(642.525481 0) scale(0.996264)"/>
      <use xlink:href="#CMR17-74" transform="translate(667.39654 0) scale(0.996264)"/>
      <use xlink:href="#CMR17-69" transform="translate(702.677308 0) scale(0.996264)"/>
      <use xlink:href="#CMR17-61" transform="translate(727.548366 0) scale(0.996264)"/>
      <use xlink:href="#CMR17-6c" transform="translate(773.238843 0) scale(0.996264)"/>
      <use xlink:href="#CMR17-70" transform="translate(828.185868 0) scale(0.996264)"/>
      <use xlink:href="#CMR17-68" transform="translate(879.081238 0) scale(0.996264)"/>
      <use xlink:href="#CMR17-61" transform="translate(929.976607 0) scale(0.996264)"/>
      <use xlink:href="#CMR17-73" transform="translate(975.667085 0) scale(0.996264)"/>
      <use xlink:href="#CMR17-65" transform="translate(1011.468422 0) scale(0.996264)"/>
     </g>
    </g>
   </g>
   <g id="line2d_11">
    <path d="M 63.368328 107.895925 
L 71.805622 106.212727 
L 80.242915 104.530838 
L 88.680209 102.850258 
L 97.117503 101.170988 
L 105.554797 99.493028 
L 113.992091 97.816377 
L 122.429384 96.141035 
L 130.866678 94.467003 
L 139.303972 92.794281 
L 147.741266 91.122868 
L 156.17856 89.452764 
L 164.615853 87.78397 
L 173.053147 86.116486 
L 181.490441 84.45031 
L 189.927735 82.785445 
L 198.365029 81.121888 
L 206.802322 79.459642 
L 215.239616 77.798705 
L 223.67691 76.139077 
L 232.114204 74.480759 
L 240.551498 72.82375 
L 248.988791 71.16805 
L 257.426085 69.513661 
L 265.863379 67.86058 
L 274.300673 66.208809 
L 282.737967 64.558348 
L 291.17526 62.909196 
L 299.612554 61.261354 
L 308.049848 59.614821 
L 316.487142 57.969597 
L 324.924436 56.325683 
L 333.361729 54.683079 
L 341.799023 53.041784 
L 350.236317 51.401798 
L 358.673611 49.763122 
L 367.110904 48.125755 
L 375.548198 46.489698 
L 383.985492 44.854951 
L 392.422786 43.221512 
L 400.86008 41.589384 
L 409.297373 39.958565 
L 417.734667 38.329055 
L 426.171961 36.700855 
L 434.609255 35.073964 
L 443.046549 33.448382 
L 451.483842 31.824111 
L 459.921136 30.201148 
L 468.35843 28.579495 
L 476.795724 26.959152 
L 485.233018 25.340118 
L 493.670311 23.722394 
L 502.107605 22.105979 
L 510.544899 20.490873 
L 518.982193 18.877077 
L 527.419487 17.264591 
L 535.85678 15.653414 
L 544.294074 14.043546 
L 552.731368 12.434988 
" clip-path="url(#p40a1561001)" style="fill: none; stroke: #000000; stroke-opacity: 0.6; stroke-linecap: square"/>
   </g>
   <g id="line2d_12">
    <path d="M 63.368328 108.09627 
L 71.805622 106.514918 
L 80.242915 104.935991 
L 88.680209 103.359488 
L 97.117503 101.785411 
L 105.554797 100.213759 
L 113.992091 98.644532 
L 122.429384 97.07773 
L 130.866678 95.513353 
L 139.303972 93.951402 
L 147.741266 92.391875 
L 156.17856 90.834773 
L 164.615853 89.280097 
L 173.053147 87.727845 
L 181.490441 86.178019 
L 189.927735 84.630618 
L 198.365029 83.085641 
L 206.802322 81.54309 
L 215.239616 80.002964 
L 223.67691 78.465263 
L 232.114204 76.929987 
L 240.551498 75.397137 
L 248.988791 73.866711 
L 257.426085 72.33871 
L 265.863379 70.813135 
L 274.300673 69.289984 
L 282.737967 67.769259 
L 291.17526 66.250958 
L 299.612554 64.735083 
L 308.049848 63.221633 
L 316.487142 61.710608 
L 324.924436 60.202008 
L 333.361729 58.695833 
L 341.799023 57.192083 
L 350.236317 55.690758 
L 358.673611 54.191859 
L 367.110904 52.695384 
L 375.548198 51.201335 
L 383.985492 49.70971 
L 392.422786 48.220511 
L 400.86008 46.733737 
L 409.297373 45.249387 
L 417.734667 43.767463 
L 426.171961 42.287964 
L 434.609255 40.81089 
L 443.046549 39.336241 
L 451.483842 37.864018 
L 459.921136 36.394219 
L 468.35843 34.926845 
L 476.795724 33.461897 
L 485.233018 31.999373 
L 493.670311 30.539275 
L 502.107605 29.081601 
L 510.544899 27.626353 
L 518.982193 26.17353 
L 527.419487 24.723132 
L 535.85678 23.275159 
L 544.294074 21.829611 
L 552.731368 20.386488 
" clip-path="url(#p40a1561001)" style="fill: none; stroke: #000000; stroke-opacity: 0.6; stroke-linecap: square"/>
   </g>
   <g id="patch_3">
    <path d="M 38.900176 113.432903 
L 38.900176 7.2 
" style="fill: none; stroke: #000000; stroke-width: 0.8; stroke-linejoin: miter; stroke-linecap: square"/>
   </g>
   <g id="patch_4">
    <path d="M 577.19952 113.432903 
L 577.19952 7.2 
" style="fill: none; stroke: #000000; stroke-width: 0.8; stroke-linejoin: miter; stroke-linecap: square"/>
   </g>
   <g id="patch_5">
    <path d="M 38.900176 113.432903 
L 577.19952 113.432903 
" style="fill: none; stroke: #000000; stroke-width: 0.8; stroke-linejoin: miter; stroke-linecap: square"/>
   </g>
   <g id="patch_6">
    <path d="M 38.900176 7.2 
L 577.19952 7.2 
" style="fill: none; stroke: #000000; stroke-width: 0.8; stroke-linejoin: miter; stroke-linecap: square"/>
   </g>
   <g id="legend_1">
    <g id="patch_7">
     <path d="M 46.600176 77.323579 
L 171.955638 77.323579 
Q 174.155638 77.323579 174.155638 75.123579 
L 174.155638 14.9 
Q 174.155638 12.7 171.955638 12.7 
L 46.600176 12.7 
Q 44.400176 12.7 44.400176 14.9 
L 44.400176 75.123579 
Q 44.400176 77.323579 46.600176 77.323579 
z
" style="fill: #ffffff; opacity: 0.8; stroke: #cccccc; stroke-linejoin: miter"/>
    </g>
    <g id="line2d_13">
     <path d="M 48.800176 20.95 
L 59.800176 20.95 
L 70.800176 20.95 
" style="fill: none; stroke: #000000; stroke-opacity: 0.6; stroke-linecap: square"/>
    </g>
    <g id="text_13">
     <!-- quadratic_linear fit -->
     <g transform="translate(79.600176 24.8) scale(0.11 -0.11)">
      <defs>
       <path id="CMR17-71" d="M 2630 2802 
L 2528 2802 
L 2336 2172 
C 2189 2509 1920 2802 1491 2802 
C 838 2802 211 2223 211 1383 
C 211 548 800 -38 1440 -38 
C 1933 -38 2208 338 2291 478 
L 2291 -789 
C 2291 -1031 2266 -1063 1856 -1063 
L 1856 -1228 
C 2010 -1216 2291 -1216 2458 -1216 
C 2624 -1216 2912 -1216 3066 -1228 
L 3066 -1063 
C 2656 -1063 2630 -1037 2630 -789 
L 2630 2802 
z
M 2304 886 
C 2304 612 2074 357 2054 338 
C 1856 115 1626 64 1472 64 
C 992 64 621 669 621 1375 
C 621 2121 1043 2688 1536 2688 
C 2048 2688 2304 2108 2304 1777 
L 2304 886 
z
" transform="scale(0.015625)"/>
       <path id="CMR17-75" d="M 1882 2693 
L 1882 2528 
C 2259 2528 2317 2489 2317 2186 
L 2317 1032 
C 2317 500 2029 38 1555 38 
C 1030 38 986 348 986 678 
L 986 2763 
L 211 2693 
L 211 2528 
C 467 2528 640 2528 646 2274 
L 646 1058 
C 646 633 646 361 813 183 
C 896 101 1056 -64 1517 -64 
C 2061 -64 2272 377 2323 506 
L 2330 506 
L 2330 -63 
L 3091 -63 
L 3091 128 
C 2714 128 2656 166 2656 473 
L 2656 2763 
L 1882 2693 
z
" transform="scale(0.015625)"/>
       <path id="CMR17-64" d="M 1869 4326 
L 1869 4160 
C 2246 4160 2304 4122 2304 3820 
L 2304 2345 
C 2278 2377 2016 2790 1498 2790 
C 845 2790 211 2208 211 1364 
C 211 525 806 -64 1434 -64 
C 1978 -64 2259 337 2291 380 
L 2291 -63 
L 3066 -63 
L 3066 128 
C 2688 128 2630 166 2630 473 
L 2630 4396 
L 1869 4326 
z
M 2291 755 
C 2291 563 2176 390 2029 262 
C 1811 70 1594 38 1472 38 
C 1286 38 621 134 621 1356 
C 621 2612 1363 2688 1530 2688 
C 1824 2688 2061 2522 2208 2291 
C 2291 2157 2291 2138 2291 2023 
L 2291 755 
z
" transform="scale(0.015625)"/>
       <path id="CMR17-63" d="M 2234 2240 
C 2112 2240 1933 2240 1933 2017 
C 1933 1838 2080 1787 2163 1787 
C 2208 1787 2394 1807 2394 2024 
C 2394 2467 1958 2803 1466 2803 
C 787 2803 211 2178 211 1363 
C 211 516 813 -64 1466 -64 
C 2259 -64 2458 677 2458 748 
C 2458 774 2451 793 2406 793 
C 2362 793 2355 787 2330 703 
C 2163 180 1798 51 1523 51 
C 1114 51 621 427 621 1369 
C 621 2338 1094 2688 1472 2688 
C 1722 2688 2093 2573 2234 2240 
z
" transform="scale(0.015625)"/>
       <path id="CMR17-c" d="M 2554 2764 
C 2400 2764 1926 2764 1805 2739 
C 1766 2725 1754 2725 1677 2725 
L 947 2725 
L 947 3469 
C 947 4073 1434 4352 1818 4352 
C 1939 4352 2214 4320 2355 4101 
C 2291 4101 2086 4101 2086 3878 
C 2086 3725 2189 3648 2317 3648 
C 2432 3648 2547 3712 2547 3885 
C 2547 4205 2240 4454 1843 4454 
C 1338 4454 634 4168 634 3469 
L 634 2725 
L 122 2725 
L 122 2560 
L 634 2560 
L 634 427 
C 634 184 608 153 198 153 
L 198 -13 
C 352 0 634 0 794 0 
C 960 0 1242 0 1395 -13 
L 1395 153 
C 986 153 960 178 960 427 
L 960 2560 
L 1901 2560 
C 2176 2560 2227 2502 2227 2222 
L 2227 427 
C 2227 184 2202 153 1792 153 
L 1792 -13 
C 1946 0 2227 0 2387 0 
C 2554 0 2835 0 2989 -13 
L 2989 153 
C 2579 153 2554 178 2554 427 
L 2554 2764 
z
" transform="scale(0.015625)"/>
      </defs>
      <use xlink:href="#CMR17-71" transform="scale(0.996264)"/>
      <use xlink:href="#CMR17-75" transform="translate(48.292916 0) scale(0.996264)"/>
      <use xlink:href="#CMR17-61" transform="translate(99.188286 0) scale(0.996264)"/>
      <use xlink:href="#CMR17-64" transform="translate(144.878763 0) scale(0.996264)"/>
      <use xlink:href="#CMR17-72" transform="translate(195.774133 0) scale(0.996264)"/>
      <use xlink:href="#CMR17-61" transform="translate(231.0549 0) scale(0.996264)"/>
      <use xlink:href="#CMR17-74" transform="translate(276.745377 0) scale(0.996264)"/>
      <use xlink:href="#CMR17-69" transform="translate(312.026145 0) scale(0.996264)"/>
      <use xlink:href="#CMR17-63" transform="translate(336.897204 0) scale(0.996264)"/>
      <use xlink:href="#CMR17-6c" transform="translate(410.280084 0) scale(0.996264)"/>
      <use xlink:href="#CMR17-69" transform="translate(435.151142 0) scale(0.996264)"/>
      <use xlink:href="#CMR17-6e" transform="translate(460.022201 0) scale(0.996264)"/>
      <use xlink:href="#CMR17-65" transform="translate(510.91757 0) scale(0.996264)"/>
      <use xlink:href="#CMR17-61" transform="translate(551.403231 0) scale(0.996264)"/>
      <use xlink:href="#CMR17-72" transform="translate(597.093708 0) scale(0.996264)"/>
      <use xlink:href="#CMR17-c" transform="translate(662.450442 0) scale(0.996264)"/>
      <use xlink:href="#CMR17-74" transform="translate(712.192666 0) scale(0.996264)"/>
      <path d="M 382.865493 0 
L 410.280084 0 
L 410.280084 0.3985 
L 382.865493 0.3985 
L 382.865493 0 
z
"/>
     </g>
    </g>
    <g id="PathCollection_3">
     <g>
      <use xlink:href="#mafcf3e9c45" x="59.800176" y="37.243395" style="fill: #32cd32; fill-opacity: 0.7; stroke: #32cd32; stroke-opacity: 0.7"/>
     </g>
    </g>
    <g id="text_14">
     <!-- superradiant state -->
     <g transform="translate(79.600176 40.130895) scale(0.11 -0.11)">
      <use xlink:href="#CMR17-73" transform="scale(0.996264)"/>
      <use xlink:href="#CMR17-75" transform="translate(35.801338 0) scale(0.996264)"/>
      <use xlink:href="#CMR17-70" transform="translate(86.696707 0) scale(0.996264)"/>
      <use xlink:href="#CMR17-65" transform="translate(140.194516 0) scale(0.996264)"/>
      <use xlink:href="#CMR17-72" transform="translate(180.680176 0) scale(0.996264)"/>
      <use xlink:href="#CMR17-72" transform="translate(215.960944 0) scale(0.996264)"/>
      <use xlink:href="#CMR17-61" transform="translate(251.241712 0) scale(0.996264)"/>
      <use xlink:href="#CMR17-64" transform="translate(296.932189 0) scale(0.996264)"/>
      <use xlink:href="#CMR17-69" transform="translate(347.827559 0) scale(0.996264)"/>
      <use xlink:href="#CMR17-61" transform="translate(372.698617 0) scale(0.996264)"/>
      <use xlink:href="#CMR17-6e" transform="translate(418.389094 0) scale(0.996264)"/>
      <use xlink:href="#CMR17-74" transform="translate(466.68201 0) scale(0.996264)"/>
      <use xlink:href="#CMR17-73" transform="translate(532.038744 0) scale(0.996264)"/>
      <use xlink:href="#CMR17-74" transform="translate(567.840082 0) scale(0.996264)"/>
      <use xlink:href="#CMR17-61" transform="translate(603.12085 0) scale(0.996264)"/>
      <use xlink:href="#CMR17-74" transform="translate(648.811327 0) scale(0.996264)"/>
      <use xlink:href="#CMR17-65" transform="translate(684.092095 0) scale(0.996264)"/>
     </g>
    </g>
    <g id="line2d_14">
     <path d="M 48.800176 51.611789 
L 59.800176 51.611789 
L 70.800176 51.611789 
" style="fill: none; stroke: #000000; stroke-opacity: 0.6; stroke-linecap: square"/>
    </g>
    <g id="text_15">
     <!-- quadratic_linear fit -->
     <g transform="translate(79.600176 55.461789) scale(0.11 -0.11)">
      <use xlink:href="#CMR17-71" transform="scale(0.996264)"/>
      <use xlink:href="#CMR17-75" transform="translate(48.292916 0) scale(0.996264)"/>
      <use xlink:href="#CMR17-61" transform="translate(99.188286 0) scale(0.996264)"/>
      <use xlink:href="#CMR17-64" transform="translate(144.878763 0) scale(0.996264)"/>
      <use xlink:href="#CMR17-72" transform="translate(195.774133 0) scale(0.996264)"/>
      <use xlink:href="#CMR17-61" transform="translate(231.0549 0) scale(0.996264)"/>
      <use xlink:href="#CMR17-74" transform="translate(276.745377 0) scale(0.996264)"/>
      <use xlink:href="#CMR17-69" transform="translate(312.026145 0) scale(0.996264)"/>
      <use xlink:href="#CMR17-63" transform="translate(336.897204 0) scale(0.996264)"/>
      <use xlink:href="#CMR17-6c" transform="translate(410.280084 0) scale(0.996264)"/>
      <use xlink:href="#CMR17-69" transform="translate(435.151142 0) scale(0.996264)"/>
      <use xlink:href="#CMR17-6e" transform="translate(460.022201 0) scale(0.996264)"/>
      <use xlink:href="#CMR17-65" transform="translate(510.91757 0) scale(0.996264)"/>
      <use xlink:href="#CMR17-61" transform="translate(551.403231 0) scale(0.996264)"/>
      <use xlink:href="#CMR17-72" transform="translate(597.093708 0) scale(0.996264)"/>
      <use xlink:href="#CMR17-c" transform="translate(662.450442 0) scale(0.996264)"/>
      <use xlink:href="#CMR17-74" transform="translate(712.192666 0) scale(0.996264)"/>
      <path d="M 382.865493 0 
L 410.280084 0 
L 410.280084 0.3985 
L 382.865493 0.3985 
L 382.865493 0 
z
"/>
     </g>
    </g>
    <g id="PathCollection_4">
     <g>
      <use xlink:href="#m5d37c1bca5" x="59.800176" y="67.905184" style="fill: #1e90ff; fill-opacity: 0.7; stroke: #1e90ff; stroke-opacity: 0.7"/>
     </g>
    </g>
    <g id="text_16">
     <!-- excited state -->
     <g transform="translate(79.600176 70.792684) scale(0.11 -0.11)">
      <defs>
       <path id="CMR17-78" d="M 1664 1477 
C 1856 1726 2074 2006 2253 2216 
C 2464 2458 2707 2560 2989 2560 
L 2989 2726 
C 2880 2726 2656 2726 2541 2726 
C 2368 2726 2170 2726 2022 2732 
L 2022 2566 
C 2112 2553 2163 2489 2163 2400 
C 2163 2285 2099 2215 2067 2171 
L 1594 1573 
L 1030 2306 
C 973 2376 973 2388 973 2420 
C 973 2497 1037 2560 1146 2560 
L 1146 2732 
C 992 2726 717 2726 557 2726 
C 384 2726 179 2726 38 2732 
L 38 2560 
C 384 2560 461 2534 614 2343 
L 1350 1395 
C 1363 1382 1395 1344 1395 1325 
C 1395 1299 838 619 768 530 
C 480 185 179 160 6 160 
L 6 0 
C 115 0 339 0 454 0 
C 582 0 864 0 979 -6 
L 979 160 
C 941 166 838 179 838 325 
C 838 440 890 510 947 586 
L 1478 1236 
L 2035 512 
C 2086 442 2163 346 2163 301 
C 2163 211 2086 160 1984 160 
L 1984 -6 
C 2138 0 2413 0 2573 0 
C 2746 0 2950 0 3091 -6 
L 3091 160 
C 2771 160 2675 172 2522 370 
L 1664 1477 
z
" transform="scale(0.015625)"/>
      </defs>
      <use xlink:href="#CMR17-65" transform="scale(0.996264)"/>
      <use xlink:href="#CMR17-78" transform="translate(40.48566 0) scale(0.996264)"/>
      <use xlink:href="#CMR17-63" transform="translate(88.778576 0) scale(0.996264)"/>
      <use xlink:href="#CMR17-69" transform="translate(129.264237 0) scale(0.996264)"/>
      <use xlink:href="#CMR17-74" transform="translate(154.135295 0) scale(0.996264)"/>
      <use xlink:href="#CMR17-65" transform="translate(189.416063 0) scale(0.996264)"/>
      <use xlink:href="#CMR17-64" transform="translate(229.901724 0) scale(0.996264)"/>
      <use xlink:href="#CMR17-73" transform="translate(310.87306 0) scale(0.996264)"/>
      <use xlink:href="#CMR17-74" transform="translate(346.674397 0) scale(0.996264)"/>
      <use xlink:href="#CMR17-61" transform="translate(381.955165 0) scale(0.996264)"/>
      <use xlink:href="#CMR17-74" transform="translate(427.645642 0) scale(0.996264)"/>
      <use xlink:href="#CMR17-65" transform="translate(462.92641 0) scale(0.996264)"/>
     </g>
    </g>
   </g>
  </g>
 </g>
 <defs>
  <clipPath id="p40a1561001">
   <rect x="38.900176" y="7.2" width="538.299344" height="106.232903"/>
  </clipPath>
 </defs>
</svg>
