<?xml version="1.0" encoding="utf-8" standalone="no"?>
<!DOCTYPE svg PUBLIC "-//W3C//DTD SVG 1.1//EN"
  "http://www.w3.org/Graphics/SVG/1.1/DTD/svg11.dtd">
<svg xmlns:xlink="http://www.w3.org/1999/xlink" width="584.39952pt" height="224.63568pt" viewBox="0 0 584.39952 224.63568" xmlns="http://www.w3.org/2000/svg" version="1.1">
 <metadata>
  <rdf:RDF xmlns:dc="http://purl.org/dc/elements/1.1/" xmlns:cc="http://creativecommons.org/ns#" xmlns:rdf="http://www.w3.org/1999/02/22-rdf-syntax-ns#">
   <cc:Work>
    <dc:type rdf:resource="http://purl.org/dc/dcmitype/StillImage"/>
    <dc:date>2025-01-16T17:51:17.050249</dc:date>
    <dc:format>image/svg+xml</dc:format>
    <dc:creator>
     <cc:Agent>
      <dc:title>Matplotlib v3.10.0, https://matplotlib.org/</dc:title>
     </cc:Agent>
    </dc:creator>
   </cc:Work>
  </rdf:RDF>
 </metadata>
 <defs>
  <style type="text/css">*{stroke-linejoin: round; stroke-linecap: butt}</style>
 </defs>
 <g id="figure_1">
  <g id="patch_1">
   <path d="M 0 224.63568 
L 584.39952 224.63568 
L 584.39952 -0 
L 0 -0 
z
" style="fill: #ffffff"/>
  </g>
  <g id="axes_1">
   <g id="patch_2">
    <path d="M 44.379643 186.953197 
L 577.19952 186.953197 
L 577.19952 7.2 
L 44.379643 7.2 
z
" style="fill: #ffffff"/>
   </g>
   <g id="FillBetweenPolyCollection_1">
    <defs>
     <path id="mb8062d1cef" d="M 68.598728 -47.617027 
L 68.598728 -47.665029 
L 76.950137 -48.871359 
L 85.301546 -50.132402 
L 93.652955 -51.448463 
L 102.004363 -52.819699 
L 110.355772 -54.246203 
L 118.707181 -55.728035 
L 127.05859 -57.265238 
L 135.409998 -58.857842 
L 143.761407 -60.50587 
L 152.112816 -62.20934 
L 160.464224 -63.968267 
L 168.815633 -65.782661 
L 177.167042 -67.652533 
L 185.518451 -69.577891 
L 193.869859 -71.55874 
L 202.221268 -73.595087 
L 210.572677 -75.686938 
L 218.924086 -77.834295 
L 227.275494 -80.037163 
L 235.626903 -82.295546 
L 243.978312 -84.609446 
L 252.32972 -86.978866 
L 260.681129 -89.403808 
L 269.032538 -91.884274 
L 277.383947 -94.420267 
L 285.735355 -97.011788 
L 294.086764 -99.658838 
L 302.438173 -102.36142 
L 310.789582 -105.119534 
L 319.14099 -107.933182 
L 327.492399 -110.802365 
L 335.843808 -113.727083 
L 344.195216 -116.707339 
L 352.546625 -119.743132 
L 360.898034 -122.834464 
L 369.249443 -125.981335 
L 377.600851 -129.183746 
L 385.95226 -132.441698 
L 394.303669 -135.755192 
L 402.655078 -139.124227 
L 411.006486 -142.548806 
L 419.357895 -146.028927 
L 427.709304 -149.564592 
L 436.060712 -153.155801 
L 444.412121 -156.802555 
L 452.76353 -160.504854 
L 461.114939 -164.262698 
L 469.466347 -168.076088 
L 477.817756 -171.945024 
L 486.169165 -175.869507 
L 494.520574 -179.849537 
L 502.871982 -183.885113 
L 511.223391 -187.976238 
L 519.5748 -192.12291 
L 527.926209 -196.325129 
L 536.277617 -200.582898 
L 544.629026 -204.896215 
L 552.980435 -209.26508 
L 552.980435 -208.998718 
L 552.980435 -208.998718 
L 544.629026 -204.63214 
L 536.277617 -200.321129 
L 527.926209 -196.065684 
L 519.5748 -191.865807 
L 511.223391 -187.721498 
L 502.871982 -183.632756 
L 494.520574 -179.599583 
L 486.169165 -175.621977 
L 477.817756 -171.699941 
L 469.466347 -167.833473 
L 461.114939 -164.022575 
L 452.76353 -160.267247 
L 444.412121 -156.567488 
L 436.060712 -152.923301 
L 427.709304 -149.334684 
L 419.357895 -145.801638 
L 411.006486 -142.324165 
L 402.655078 -138.902264 
L 394.303669 -135.535935 
L 385.95226 -132.225181 
L 377.600851 -128.97 
L 369.249443 -125.770394 
L 360.898034 -122.626363 
L 352.546625 -119.537909 
L 344.195216 -116.505032 
L 335.843808 -113.527732 
L 327.492399 -110.606011 
L 319.14099 -107.73987 
L 310.789582 -104.929309 
L 302.438173 -102.17433 
L 294.086764 -99.474934 
L 285.735355 -96.831123 
L 277.383947 -94.242897 
L 269.032538 -91.710259 
L 260.681129 -89.233211 
L 252.32972 -86.811753 
L 243.978312 -84.445889 
L 235.626903 -82.13562 
L 227.275494 -79.880949 
L 218.924086 -77.68188 
L 210.572677 -75.538416 
L 202.221268 -73.450559 
L 193.869859 -71.418316 
L 185.518451 -69.44169 
L 177.167042 -67.520687 
L 168.815633 -65.655315 
L 160.464224 -63.84558 
L 152.112816 -62.091494 
L 143.761407 -60.393066 
L 135.409998 -58.750312 
L 127.05859 -57.163249 
L 118.707181 -55.631901 
L 110.355772 -54.156298 
L 102.004363 -52.736482 
L 93.652955 -51.372514 
L 85.301546 -50.064486 
L 76.950137 -48.812556 
L 68.598728 -47.617027 
z
" style="stroke: #32cd32; stroke-opacity: 0.3"/>
    </defs>
    <g clip-path="url(#p9c66deb98c)">
     <use xlink:href="#mb8062d1cef" x="0" y="224.63568" style="fill: #32cd32; fill-opacity: 0.3; stroke: #32cd32; stroke-opacity: 0.3"/>
    </g>
   </g>
   <g id="PathCollection_1">
    <defs>
     <path id="m9d8fd07578" d="M 0 2.236068 
C 0.593012 2.236068 1.161816 2.000462 1.581139 1.581139 
C 2.000462 1.161816 2.236068 0.593012 2.236068 0 
C 2.236068 -0.593012 2.000462 -1.161816 1.581139 -1.581139 
C 1.161816 -2.000462 0.593012 -2.236068 0 -2.236068 
C -0.593012 -2.236068 -1.161816 -2.000462 -1.581139 -1.581139 
C -2.000462 -1.161816 -2.236068 -0.593012 -2.236068 0 
C -2.236068 0.593012 -2.000462 1.161816 -1.581139 1.581139 
C -1.161816 2.000462 -0.593012 2.236068 0 2.236068 
z
" style="stroke: #32cd32; stroke-opacity: 0.7"/>
    </defs>
    <g clip-path="url(#p9c66deb98c)">
     <use xlink:href="#m9d8fd07578" x="68.598728" y="177.853457" style="fill: #32cd32; fill-opacity: 0.7; stroke: #32cd32; stroke-opacity: 0.7"/>
     <use xlink:href="#m9d8fd07578" x="76.950137" y="177.091931" style="fill: #32cd32; fill-opacity: 0.7; stroke: #32cd32; stroke-opacity: 0.7"/>
     <use xlink:href="#m9d8fd07578" x="85.301546" y="175.922211" style="fill: #32cd32; fill-opacity: 0.7; stroke: #32cd32; stroke-opacity: 0.7"/>
     <use xlink:href="#m9d8fd07578" x="93.652955" y="174.903432" style="fill: #32cd32; fill-opacity: 0.7; stroke: #32cd32; stroke-opacity: 0.7"/>
     <use xlink:href="#m9d8fd07578" x="102.004363" y="173.525798" style="fill: #32cd32; fill-opacity: 0.7; stroke: #32cd32; stroke-opacity: 0.7"/>
     <use xlink:href="#m9d8fd07578" x="110.355772" y="172.291833" style="fill: #32cd32; fill-opacity: 0.7; stroke: #32cd32; stroke-opacity: 0.7"/>
     <use xlink:href="#m9d8fd07578" x="118.707181" y="170.734041" style="fill: #32cd32; fill-opacity: 0.7; stroke: #32cd32; stroke-opacity: 0.7"/>
     <use xlink:href="#m9d8fd07578" x="127.05859" y="169.305091" style="fill: #32cd32; fill-opacity: 0.7; stroke: #32cd32; stroke-opacity: 0.7"/>
     <use xlink:href="#m9d8fd07578" x="135.409998" y="167.586151" style="fill: #32cd32; fill-opacity: 0.7; stroke: #32cd32; stroke-opacity: 0.7"/>
     <use xlink:href="#m9d8fd07578" x="143.761407" y="165.992165" style="fill: #32cd32; fill-opacity: 0.7; stroke: #32cd32; stroke-opacity: 0.7"/>
     <use xlink:href="#m9d8fd07578" x="152.112816" y="164.133285" style="fill: #32cd32; fill-opacity: 0.7; stroke: #32cd32; stroke-opacity: 0.7"/>
     <use xlink:href="#m9d8fd07578" x="160.464224" y="162.385715" style="fill: #32cd32; fill-opacity: 0.7; stroke: #32cd32; stroke-opacity: 0.7"/>
     <use xlink:href="#m9d8fd07578" x="168.815633" y="160.372703" style="fill: #32cd32; fill-opacity: 0.7; stroke: #32cd32; stroke-opacity: 0.7"/>
     <use xlink:href="#m9d8fd07578" x="177.167042" y="158.486223" style="fill: #32cd32; fill-opacity: 0.7; stroke: #32cd32; stroke-opacity: 0.7"/>
     <use xlink:href="#m9d8fd07578" x="185.518451" y="156.376413" style="fill: #32cd32; fill-opacity: 0.7; stroke: #32cd32; stroke-opacity: 0.7"/>
     <use xlink:href="#m9d8fd07578" x="193.869859" y="154.329066" style="fill: #32cd32; fill-opacity: 0.7; stroke: #32cd32; stroke-opacity: 0.7"/>
     <use xlink:href="#m9d8fd07578" x="202.221268" y="152.108434" style="fill: #32cd32; fill-opacity: 0.7; stroke: #32cd32; stroke-opacity: 0.7"/>
     <use xlink:href="#m9d8fd07578" x="210.572677" y="149.975732" style="fill: #32cd32; fill-opacity: 0.7; stroke: #32cd32; stroke-opacity: 0.7"/>
     <use xlink:href="#m9d8fd07578" x="218.924086" y="147.625053" style="fill: #32cd32; fill-opacity: 0.7; stroke: #32cd32; stroke-opacity: 0.7"/>
     <use xlink:href="#m9d8fd07578" x="227.275494" y="145.321973" style="fill: #32cd32; fill-opacity: 0.7; stroke: #32cd32; stroke-opacity: 0.7"/>
     <use xlink:href="#m9d8fd07578" x="235.626903" y="142.928937" style="fill: #32cd32; fill-opacity: 0.7; stroke: #32cd32; stroke-opacity: 0.7"/>
     <use xlink:href="#m9d8fd07578" x="243.978312" y="140.527208" style="fill: #32cd32; fill-opacity: 0.7; stroke: #32cd32; stroke-opacity: 0.7"/>
     <use xlink:href="#m9d8fd07578" x="252.32972" y="137.975335" style="fill: #32cd32; fill-opacity: 0.7; stroke: #32cd32; stroke-opacity: 0.7"/>
     <use xlink:href="#m9d8fd07578" x="260.681129" y="135.435911" style="fill: #32cd32; fill-opacity: 0.7; stroke: #32cd32; stroke-opacity: 0.7"/>
     <use xlink:href="#m9d8fd07578" x="269.032538" y="132.805819" style="fill: #32cd32; fill-opacity: 0.7; stroke: #32cd32; stroke-opacity: 0.7"/>
     <use xlink:href="#m9d8fd07578" x="277.383947" y="130.143628" style="fill: #32cd32; fill-opacity: 0.7; stroke: #32cd32; stroke-opacity: 0.7"/>
     <use xlink:href="#m9d8fd07578" x="285.735355" y="127.388093" style="fill: #32cd32; fill-opacity: 0.7; stroke: #32cd32; stroke-opacity: 0.7"/>
     <use xlink:href="#m9d8fd07578" x="294.086764" y="124.709354" style="fill: #32cd32; fill-opacity: 0.7; stroke: #32cd32; stroke-opacity: 0.7"/>
     <use xlink:href="#m9d8fd07578" x="302.438173" y="121.850612" style="fill: #32cd32; fill-opacity: 0.7; stroke: #32cd32; stroke-opacity: 0.7"/>
     <use xlink:href="#m9d8fd07578" x="310.789582" y="118.994483" style="fill: #32cd32; fill-opacity: 0.7; stroke: #32cd32; stroke-opacity: 0.7"/>
     <use xlink:href="#m9d8fd07578" x="319.14099" y="116.046802" style="fill: #32cd32; fill-opacity: 0.7; stroke: #32cd32; stroke-opacity: 0.7"/>
     <use xlink:href="#m9d8fd07578" x="327.492399" y="113.121755" style="fill: #32cd32; fill-opacity: 0.7; stroke: #32cd32; stroke-opacity: 0.7"/>
     <use xlink:href="#m9d8fd07578" x="335.843808" y="110.109643" style="fill: #32cd32; fill-opacity: 0.7; stroke: #32cd32; stroke-opacity: 0.7"/>
     <use xlink:href="#m9d8fd07578" x="344.195216" y="107.008237" style="fill: #32cd32; fill-opacity: 0.7; stroke: #32cd32; stroke-opacity: 0.7"/>
     <use xlink:href="#m9d8fd07578" x="352.546625" y="103.952803" style="fill: #32cd32; fill-opacity: 0.7; stroke: #32cd32; stroke-opacity: 0.7"/>
     <use xlink:href="#m9d8fd07578" x="360.898034" y="100.81664" style="fill: #32cd32; fill-opacity: 0.7; stroke: #32cd32; stroke-opacity: 0.7"/>
     <use xlink:href="#m9d8fd07578" x="369.249443" y="97.593067" style="fill: #32cd32; fill-opacity: 0.7; stroke: #32cd32; stroke-opacity: 0.7"/>
     <use xlink:href="#m9d8fd07578" x="377.600851" y="94.448306" style="fill: #32cd32; fill-opacity: 0.7; stroke: #32cd32; stroke-opacity: 0.7"/>
     <use xlink:href="#m9d8fd07578" x="385.95226" y="91.051581" style="fill: #32cd32; fill-opacity: 0.7; stroke: #32cd32; stroke-opacity: 0.7"/>
     <use xlink:href="#m9d8fd07578" x="394.303669" y="87.744328" style="fill: #32cd32; fill-opacity: 0.7; stroke: #32cd32; stroke-opacity: 0.7"/>
     <use xlink:href="#m9d8fd07578" x="402.655078" y="84.546334" style="fill: #32cd32; fill-opacity: 0.7; stroke: #32cd32; stroke-opacity: 0.7"/>
     <use xlink:href="#m9d8fd07578" x="411.006486" y="81.081846" style="fill: #32cd32; fill-opacity: 0.7; stroke: #32cd32; stroke-opacity: 0.7"/>
     <use xlink:href="#m9d8fd07578" x="419.357895" y="77.529351" style="fill: #32cd32; fill-opacity: 0.7; stroke: #32cd32; stroke-opacity: 0.7"/>
     <use xlink:href="#m9d8fd07578" x="427.709304" y="74.108619" style="fill: #32cd32; fill-opacity: 0.7; stroke: #32cd32; stroke-opacity: 0.7"/>
     <use xlink:href="#m9d8fd07578" x="436.060712" y="70.612992" style="fill: #32cd32; fill-opacity: 0.7; stroke: #32cd32; stroke-opacity: 0.7"/>
     <use xlink:href="#m9d8fd07578" x="444.412121" y="67.043225" style="fill: #32cd32; fill-opacity: 0.7; stroke: #32cd32; stroke-opacity: 0.7"/>
     <use xlink:href="#m9d8fd07578" x="452.76353" y="63.393942" style="fill: #32cd32; fill-opacity: 0.7; stroke: #32cd32; stroke-opacity: 0.7"/>
     <use xlink:href="#m9d8fd07578" x="461.114939" y="59.926028" style="fill: #32cd32; fill-opacity: 0.7; stroke: #32cd32; stroke-opacity: 0.7"/>
     <use xlink:href="#m9d8fd07578" x="469.466347" y="56.123802" style="fill: #32cd32; fill-opacity: 0.7; stroke: #32cd32; stroke-opacity: 0.7"/>
     <use xlink:href="#m9d8fd07578" x="477.817756" y="52.519739" style="fill: #32cd32; fill-opacity: 0.7; stroke: #32cd32; stroke-opacity: 0.7"/>
     <use xlink:href="#m9d8fd07578" x="486.169165" y="48.849233" style="fill: #32cd32; fill-opacity: 0.7; stroke: #32cd32; stroke-opacity: 0.7"/>
     <use xlink:href="#m9d8fd07578" x="494.520574" y="45.112119" style="fill: #32cd32; fill-opacity: 0.7; stroke: #32cd32; stroke-opacity: 0.7"/>
     <use xlink:href="#m9d8fd07578" x="502.871982" y="41.304693" style="fill: #32cd32; fill-opacity: 0.7; stroke: #32cd32; stroke-opacity: 0.7"/>
     <use xlink:href="#m9d8fd07578" x="511.223391" y="37.426569" style="fill: #32cd32; fill-opacity: 0.7; stroke: #32cd32; stroke-opacity: 0.7"/>
     <use xlink:href="#m9d8fd07578" x="519.5748" y="33.474359" style="fill: #32cd32; fill-opacity: 0.7; stroke: #32cd32; stroke-opacity: 0.7"/>
     <use xlink:href="#m9d8fd07578" x="527.926209" y="29.801413" style="fill: #32cd32; fill-opacity: 0.7; stroke: #32cd32; stroke-opacity: 0.7"/>
     <use xlink:href="#m9d8fd07578" x="536.277617" y="25.708499" style="fill: #32cd32; fill-opacity: 0.7; stroke: #32cd32; stroke-opacity: 0.7"/>
     <use xlink:href="#m9d8fd07578" x="544.629026" y="21.538636" style="fill: #32cd32; fill-opacity: 0.7; stroke: #32cd32; stroke-opacity: 0.7"/>
     <use xlink:href="#m9d8fd07578" x="552.980435" y="17.676505" style="fill: #32cd32; fill-opacity: 0.7; stroke: #32cd32; stroke-opacity: 0.7"/>
    </g>
   </g>
   <g id="FillBetweenPolyCollection_2">
    <defs>
     <path id="m95fecefaa7" d="M 68.598728 -45.853083 
L 68.598728 -45.860632 
L 76.950137 -46.090472 
L 85.301546 -46.322503 
L 93.652955 -46.556772 
L 102.004363 -46.793303 
L 110.355772 -47.032112 
L 118.707181 -47.273207 
L 127.05859 -47.516596 
L 135.409998 -47.762284 
L 143.761407 -48.010273 
L 152.112816 -48.260566 
L 160.464224 -48.513167 
L 168.815633 -48.768077 
L 177.167042 -49.025297 
L 185.518451 -49.284828 
L 193.869859 -49.546672 
L 202.221268 -49.810829 
L 210.572677 -50.077301 
L 218.924086 -50.346088 
L 227.275494 -50.61719 
L 235.626903 -50.890608 
L 243.978312 -51.166343 
L 252.32972 -51.444395 
L 260.681129 -51.724764 
L 269.032538 -52.00745 
L 277.383947 -52.292455 
L 285.735355 -52.579778 
L 294.086764 -52.869419 
L 302.438173 -53.161379 
L 310.789582 -53.455658 
L 319.14099 -53.752256 
L 327.492399 -54.051174 
L 335.843808 -54.352411 
L 344.195216 -54.655967 
L 352.546625 -54.961844 
L 360.898034 -55.27004 
L 369.249443 -55.580556 
L 377.600851 -55.893392 
L 385.95226 -56.208549 
L 394.303669 -56.526026 
L 402.655078 -56.845823 
L 411.006486 -57.167941 
L 419.357895 -57.492379 
L 427.709304 -57.819138 
L 436.060712 -58.148218 
L 444.412121 -58.479619 
L 452.76353 -58.81334 
L 461.114939 -59.149383 
L 469.466347 -59.487747 
L 477.817756 -59.828431 
L 486.169165 -60.171437 
L 494.520574 -60.516764 
L 502.871982 -60.864412 
L 511.223391 -61.214382 
L 519.5748 -61.566673 
L 527.926209 -61.921285 
L 536.277617 -62.278218 
L 544.629026 -62.637474 
L 552.980435 -62.99905 
L 552.980435 -62.957159 
L 552.980435 -62.957159 
L 544.629026 -62.595942 
L 536.277617 -62.237049 
L 527.926209 -61.880481 
L 519.5748 -61.526237 
L 511.223391 -61.174318 
L 502.871982 -60.824723 
L 494.520574 -60.477453 
L 486.169165 -60.132507 
L 477.817756 -59.789886 
L 469.466347 -59.44959 
L 461.114939 -59.111618 
L 452.76353 -58.775971 
L 444.412121 -58.442649 
L 436.060712 -58.111652 
L 427.709304 -57.78298 
L 419.357895 -57.456633 
L 411.006486 -57.132611 
L 402.655078 -56.810914 
L 394.303669 -56.491543 
L 385.95226 -56.174496 
L 377.600851 -55.859776 
L 369.249443 -55.547381 
L 360.898034 -55.237311 
L 352.546625 -54.929568 
L 344.195216 -54.62415 
L 335.843808 -54.321058 
L 327.492399 -54.020293 
L 319.14099 -53.721854 
L 310.789582 -53.425741 
L 302.438173 -53.131955 
L 294.086764 -52.840496 
L 285.735355 -52.551364 
L 277.383947 -52.26456 
L 269.032538 -51.980083 
L 260.681129 -51.697933 
L 252.32972 -51.418112 
L 243.978312 -51.14062 
L 235.626903 -50.865456 
L 227.275494 -50.592622 
L 218.924086 -50.322117 
L 210.572677 -50.053943 
L 202.221268 -49.788099 
L 193.869859 -49.524587 
L 185.518451 -49.263407 
L 177.167042 -49.004561 
L 168.815633 -48.748049 
L 160.464224 -48.493872 
L 152.112816 -48.242032 
L 143.761407 -47.992532 
L 135.409998 -47.745372 
L 127.05859 -47.500556 
L 118.707181 -47.258088 
L 110.355772 -47.017972 
L 102.004363 -46.780215 
L 93.652955 -46.544827 
L 85.301546 -46.311822 
L 76.950137 -46.081224 
L 68.598728 -45.853083 
z
" style="stroke: #1e90ff; stroke-opacity: 0.3"/>
    </defs>
    <g clip-path="url(#p9c66deb98c)">
     <use xlink:href="#m95fecefaa7" x="0" y="224.63568" style="fill: #1e90ff; fill-opacity: 0.3; stroke: #1e90ff; stroke-opacity: 0.3"/>
    </g>
   </g>
   <g id="PathCollection_2">
    <defs>
     <path id="mc9c98097f6" d="M 0 -2.236068 
L -2.236068 2.236068 
L 2.236068 2.236068 
z
" style="stroke: #1e90ff; stroke-opacity: 0.7"/>
    </defs>
    <g clip-path="url(#p9c66deb98c)">
     <use xlink:href="#mc9c98097f6" x="68.598728" y="178.498438" style="fill: #1e90ff; fill-opacity: 0.7; stroke: #1e90ff; stroke-opacity: 0.7"/>
     <use xlink:href="#mc9c98097f6" x="76.950137" y="178.271522" style="fill: #1e90ff; fill-opacity: 0.7; stroke: #1e90ff; stroke-opacity: 0.7"/>
     <use xlink:href="#mc9c98097f6" x="85.301546" y="178.274967" style="fill: #1e90ff; fill-opacity: 0.7; stroke: #1e90ff; stroke-opacity: 0.7"/>
     <use xlink:href="#mc9c98097f6" x="93.652955" y="177.730269" style="fill: #1e90ff; fill-opacity: 0.7; stroke: #1e90ff; stroke-opacity: 0.7"/>
     <use xlink:href="#mc9c98097f6" x="102.004363" y="178.139884" style="fill: #1e90ff; fill-opacity: 0.7; stroke: #1e90ff; stroke-opacity: 0.7"/>
     <use xlink:href="#mc9c98097f6" x="110.355772" y="177.436861" style="fill: #1e90ff; fill-opacity: 0.7; stroke: #1e90ff; stroke-opacity: 0.7"/>
     <use xlink:href="#mc9c98097f6" x="118.707181" y="177.623724" style="fill: #1e90ff; fill-opacity: 0.7; stroke: #1e90ff; stroke-opacity: 0.7"/>
     <use xlink:href="#mc9c98097f6" x="127.05859" y="177.111958" style="fill: #1e90ff; fill-opacity: 0.7; stroke: #1e90ff; stroke-opacity: 0.7"/>
     <use xlink:href="#mc9c98097f6" x="135.409998" y="177.285427" style="fill: #1e90ff; fill-opacity: 0.7; stroke: #1e90ff; stroke-opacity: 0.7"/>
     <use xlink:href="#mc9c98097f6" x="143.761407" y="176.652165" style="fill: #1e90ff; fill-opacity: 0.7; stroke: #1e90ff; stroke-opacity: 0.7"/>
     <use xlink:href="#mc9c98097f6" x="152.112816" y="176.944569" style="fill: #1e90ff; fill-opacity: 0.7; stroke: #1e90ff; stroke-opacity: 0.7"/>
     <use xlink:href="#mc9c98097f6" x="160.464224" y="176.319626" style="fill: #1e90ff; fill-opacity: 0.7; stroke: #1e90ff; stroke-opacity: 0.7"/>
     <use xlink:href="#mc9c98097f6" x="168.815633" y="175.710313" style="fill: #1e90ff; fill-opacity: 0.7; stroke: #1e90ff; stroke-opacity: 0.7"/>
     <use xlink:href="#mc9c98097f6" x="177.167042" y="175.909995" style="fill: #1e90ff; fill-opacity: 0.7; stroke: #1e90ff; stroke-opacity: 0.7"/>
     <use xlink:href="#mc9c98097f6" x="185.518451" y="175.224587" style="fill: #1e90ff; fill-opacity: 0.7; stroke: #1e90ff; stroke-opacity: 0.7"/>
     <use xlink:href="#mc9c98097f6" x="193.869859" y="175.378303" style="fill: #1e90ff; fill-opacity: 0.7; stroke: #1e90ff; stroke-opacity: 0.7"/>
     <use xlink:href="#mc9c98097f6" x="202.221268" y="174.760384" style="fill: #1e90ff; fill-opacity: 0.7; stroke: #1e90ff; stroke-opacity: 0.7"/>
     <use xlink:href="#mc9c98097f6" x="210.572677" y="174.76696" style="fill: #1e90ff; fill-opacity: 0.7; stroke: #1e90ff; stroke-opacity: 0.7"/>
     <use xlink:href="#mc9c98097f6" x="218.924086" y="174.308692" style="fill: #1e90ff; fill-opacity: 0.7; stroke: #1e90ff; stroke-opacity: 0.7"/>
     <use xlink:href="#mc9c98097f6" x="227.275494" y="174.074203" style="fill: #1e90ff; fill-opacity: 0.7; stroke: #1e90ff; stroke-opacity: 0.7"/>
     <use xlink:href="#mc9c98097f6" x="235.626903" y="173.876565" style="fill: #1e90ff; fill-opacity: 0.7; stroke: #1e90ff; stroke-opacity: 0.7"/>
     <use xlink:href="#mc9c98097f6" x="243.978312" y="173.333474" style="fill: #1e90ff; fill-opacity: 0.7; stroke: #1e90ff; stroke-opacity: 0.7"/>
     <use xlink:href="#mc9c98097f6" x="252.32972" y="173.324001" style="fill: #1e90ff; fill-opacity: 0.7; stroke: #1e90ff; stroke-opacity: 0.7"/>
     <use xlink:href="#mc9c98097f6" x="260.681129" y="172.732105" style="fill: #1e90ff; fill-opacity: 0.7; stroke: #1e90ff; stroke-opacity: 0.7"/>
     <use xlink:href="#mc9c98097f6" x="269.032538" y="172.806497" style="fill: #1e90ff; fill-opacity: 0.7; stroke: #1e90ff; stroke-opacity: 0.7"/>
     <use xlink:href="#mc9c98097f6" x="277.383947" y="172.204259" style="fill: #1e90ff; fill-opacity: 0.7; stroke: #1e90ff; stroke-opacity: 0.7"/>
     <use xlink:href="#mc9c98097f6" x="285.735355" y="172.273989" style="fill: #1e90ff; fill-opacity: 0.7; stroke: #1e90ff; stroke-opacity: 0.7"/>
     <use xlink:href="#mc9c98097f6" x="294.086764" y="171.699959" style="fill: #1e90ff; fill-opacity: 0.7; stroke: #1e90ff; stroke-opacity: 0.7"/>
     <use xlink:href="#mc9c98097f6" x="302.438173" y="171.570839" style="fill: #1e90ff; fill-opacity: 0.7; stroke: #1e90ff; stroke-opacity: 0.7"/>
     <use xlink:href="#mc9c98097f6" x="310.789582" y="171.14987" style="fill: #1e90ff; fill-opacity: 0.7; stroke: #1e90ff; stroke-opacity: 0.7"/>
     <use xlink:href="#mc9c98097f6" x="319.14099" y="170.83223" style="fill: #1e90ff; fill-opacity: 0.7; stroke: #1e90ff; stroke-opacity: 0.7"/>
     <use xlink:href="#mc9c98097f6" x="327.492399" y="170.55194" style="fill: #1e90ff; fill-opacity: 0.7; stroke: #1e90ff; stroke-opacity: 0.7"/>
     <use xlink:href="#mc9c98097f6" x="335.843808" y="170.070759" style="fill: #1e90ff; fill-opacity: 0.7; stroke: #1e90ff; stroke-opacity: 0.7"/>
     <use xlink:href="#mc9c98097f6" x="344.195216" y="169.996347" style="fill: #1e90ff; fill-opacity: 0.7; stroke: #1e90ff; stroke-opacity: 0.7"/>
     <use xlink:href="#mc9c98097f6" x="352.546625" y="169.417508" style="fill: #1e90ff; fill-opacity: 0.7; stroke: #1e90ff; stroke-opacity: 0.7"/>
     <use xlink:href="#mc9c98097f6" x="360.898034" y="169.446338" style="fill: #1e90ff; fill-opacity: 0.7; stroke: #1e90ff; stroke-opacity: 0.7"/>
     <use xlink:href="#mc9c98097f6" x="369.249443" y="168.845022" style="fill: #1e90ff; fill-opacity: 0.7; stroke: #1e90ff; stroke-opacity: 0.7"/>
     <use xlink:href="#mc9c98097f6" x="377.600851" y="168.84396" style="fill: #1e90ff; fill-opacity: 0.7; stroke: #1e90ff; stroke-opacity: 0.7"/>
     <use xlink:href="#mc9c98097f6" x="385.95226" y="168.298362" style="fill: #1e90ff; fill-opacity: 0.7; stroke: #1e90ff; stroke-opacity: 0.7"/>
     <use xlink:href="#mc9c98097f6" x="394.303669" y="168.145483" style="fill: #1e90ff; fill-opacity: 0.7; stroke: #1e90ff; stroke-opacity: 0.7"/>
     <use xlink:href="#mc9c98097f6" x="402.655078" y="167.736957" style="fill: #1e90ff; fill-opacity: 0.7; stroke: #1e90ff; stroke-opacity: 0.7"/>
     <use xlink:href="#mc9c98097f6" x="411.006486" y="167.400784" style="fill: #1e90ff; fill-opacity: 0.7; stroke: #1e90ff; stroke-opacity: 0.7"/>
     <use xlink:href="#mc9c98097f6" x="419.357895" y="167.140237" style="fill: #1e90ff; fill-opacity: 0.7; stroke: #1e90ff; stroke-opacity: 0.7"/>
     <use xlink:href="#mc9c98097f6" x="427.709304" y="166.688368" style="fill: #1e90ff; fill-opacity: 0.7; stroke: #1e90ff; stroke-opacity: 0.7"/>
     <use xlink:href="#mc9c98097f6" x="436.060712" y="166.513843" style="fill: #1e90ff; fill-opacity: 0.7; stroke: #1e90ff; stroke-opacity: 0.7"/>
     <use xlink:href="#mc9c98097f6" x="444.412121" y="165.989995" style="fill: #1e90ff; fill-opacity: 0.7; stroke: #1e90ff; stroke-opacity: 0.7"/>
     <use xlink:href="#mc9c98097f6" x="452.76353" y="165.907972" style="fill: #1e90ff; fill-opacity: 0.7; stroke: #1e90ff; stroke-opacity: 0.7"/>
     <use xlink:href="#mc9c98097f6" x="461.114939" y="165.330783" style="fill: #1e90ff; fill-opacity: 0.7; stroke: #1e90ff; stroke-opacity: 0.7"/>
     <use xlink:href="#mc9c98097f6" x="469.466347" y="165.301742" style="fill: #1e90ff; fill-opacity: 0.7; stroke: #1e90ff; stroke-opacity: 0.7"/>
     <use xlink:href="#mc9c98097f6" x="477.817756" y="164.709176" style="fill: #1e90ff; fill-opacity: 0.7; stroke: #1e90ff; stroke-opacity: 0.7"/>
     <use xlink:href="#mc9c98097f6" x="486.169165" y="164.606279" style="fill: #1e90ff; fill-opacity: 0.7; stroke: #1e90ff; stroke-opacity: 0.7"/>
     <use xlink:href="#mc9c98097f6" x="494.520574" y="164.096141" style="fill: #1e90ff; fill-opacity: 0.7; stroke: #1e90ff; stroke-opacity: 0.7"/>
     <use xlink:href="#mc9c98097f6" x="502.871982" y="163.839858" style="fill: #1e90ff; fill-opacity: 0.7; stroke: #1e90ff; stroke-opacity: 0.7"/>
     <use xlink:href="#mc9c98097f6" x="511.223391" y="163.482709" style="fill: #1e90ff; fill-opacity: 0.7; stroke: #1e90ff; stroke-opacity: 0.7"/>
     <use xlink:href="#mc9c98097f6" x="519.5748" y="163.106077" style="fill: #1e90ff; fill-opacity: 0.7; stroke: #1e90ff; stroke-opacity: 0.7"/>
     <use xlink:href="#mc9c98097f6" x="527.926209" y="162.858656" style="fill: #1e90ff; fill-opacity: 0.7; stroke: #1e90ff; stroke-opacity: 0.7"/>
     <use xlink:href="#mc9c98097f6" x="536.277617" y="162.387426" style="fill: #1e90ff; fill-opacity: 0.7; stroke: #1e90ff; stroke-opacity: 0.7"/>
     <use xlink:href="#mc9c98097f6" x="544.629026" y="162.254722" style="fill: #1e90ff; fill-opacity: 0.7; stroke: #1e90ff; stroke-opacity: 0.7"/>
     <use xlink:href="#mc9c98097f6" x="552.980435" y="161.698612" style="fill: #1e90ff; fill-opacity: 0.7; stroke: #1e90ff; stroke-opacity: 0.7"/>
    </g>
   </g>
   <g id="matplotlib.axis_1">
    <g id="xtick_1">
     <g id="line2d_1">
      <defs>
       <path id="ma24478d0c2" d="M 0 0 
L 0 3.5 
" style="stroke: #000000; stroke-width: 0.8"/>
      </defs>
      <g>
       <use xlink:href="#ma24478d0c2" x="51.895911" y="186.953197" style="stroke: #000000; stroke-width: 0.8"/>
      </g>
     </g>
     <g id="text_1">
      <!-- $\mathdefault{0}$ -->
      <g transform="translate(49.156177 201.563544) scale(0.11 -0.11)">
       <defs>
        <path id="CMR17-30" d="M 2688 2025 
C 2688 2416 2682 3080 2413 3591 
C 2176 4039 1798 4198 1466 4198 
C 1158 4198 768 4058 525 3597 
C 269 3118 243 2524 243 2025 
C 243 1661 250 1106 448 619 
C 723 -39 1216 -128 1466 -128 
C 1760 -128 2208 -7 2470 600 
C 2662 1042 2688 1559 2688 2025 
z
M 1466 -26 
C 1056 -26 813 325 723 812 
C 653 1188 653 1738 653 2096 
C 653 2588 653 2997 736 3387 
C 858 3929 1216 4096 1466 4096 
C 1728 4096 2067 3923 2189 3400 
C 2272 3036 2278 2607 2278 2096 
C 2278 1680 2278 1169 2202 792 
C 2067 95 1690 -26 1466 -26 
z
" transform="scale(0.015625)"/>
       </defs>
       <use xlink:href="#CMR17-30" transform="scale(0.996264)"/>
      </g>
     </g>
    </g>
    <g id="xtick_2">
     <g id="line2d_2">
      <g>
       <use xlink:href="#ma24478d0c2" x="135.409998" y="186.953197" style="stroke: #000000; stroke-width: 0.8"/>
      </g>
     </g>
     <g id="text_2">
      <!-- $\mathdefault{10}$ -->
      <g transform="translate(129.930531 201.563544) scale(0.11 -0.11)">
       <defs>
        <path id="CMR17-31" d="M 1702 4058 
C 1702 4192 1696 4192 1606 4192 
C 1357 3916 979 3827 621 3827 
C 602 3827 570 3827 563 3808 
C 557 3795 557 3782 557 3648 
C 755 3648 1088 3686 1344 3839 
L 1344 461 
C 1344 236 1331 160 781 160 
L 589 160 
L 589 0 
C 896 0 1216 0 1523 0 
C 1830 0 2150 0 2458 0 
L 2458 160 
L 2266 160 
C 1715 160 1702 230 1702 458 
L 1702 4058 
z
" transform="scale(0.015625)"/>
       </defs>
       <use xlink:href="#CMR17-31" transform="scale(0.996264)"/>
       <use xlink:href="#CMR17-30" transform="translate(45.690477 0) scale(0.996264)"/>
      </g>
     </g>
    </g>
    <g id="xtick_3">
     <g id="line2d_3">
      <g>
       <use xlink:href="#ma24478d0c2" x="218.924086" y="186.953197" style="stroke: #000000; stroke-width: 0.8"/>
      </g>
     </g>
     <g id="text_3">
      <!-- $\mathdefault{20}$ -->
      <g transform="translate(213.444618 201.563544) scale(0.11 -0.11)">
       <defs>
        <path id="CMR17-32" d="M 2669 989 
L 2554 989 
C 2490 536 2438 459 2413 420 
C 2381 369 1920 369 1830 369 
L 602 369 
C 832 619 1280 1072 1824 1597 
C 2214 1967 2669 2402 2669 3035 
C 2669 3790 2067 4224 1395 4224 
C 691 4224 262 3604 262 3030 
C 262 2780 448 2748 525 2748 
C 589 2748 781 2787 781 3010 
C 781 3207 614 3264 525 3264 
C 486 3264 448 3258 422 3245 
C 544 3790 915 4058 1306 4058 
C 1862 4058 2227 3617 2227 3035 
C 2227 2479 1901 2000 1536 1584 
L 262 146 
L 262 0 
L 2515 0 
L 2669 989 
z
" transform="scale(0.015625)"/>
       </defs>
       <use xlink:href="#CMR17-32" transform="scale(0.996264)"/>
       <use xlink:href="#CMR17-30" transform="translate(45.690477 0) scale(0.996264)"/>
      </g>
     </g>
    </g>
    <g id="xtick_4">
     <g id="line2d_4">
      <g>
       <use xlink:href="#ma24478d0c2" x="302.438173" y="186.953197" style="stroke: #000000; stroke-width: 0.8"/>
      </g>
     </g>
     <g id="text_4">
      <!-- $\mathdefault{30}$ -->
      <g transform="translate(296.958706 201.563544) scale(0.11 -0.11)">
       <defs>
        <path id="CMR17-33" d="M 1414 2157 
C 1984 2157 2234 1662 2234 1090 
C 2234 320 1824 25 1453 25 
C 1114 25 563 194 390 693 
C 422 680 454 680 486 680 
C 640 680 755 782 755 948 
C 755 1133 614 1216 486 1216 
C 378 1216 211 1165 211 926 
C 211 335 787 -128 1466 -128 
C 2176 -128 2720 430 2720 1085 
C 2720 1707 2208 2157 1600 2227 
C 2086 2328 2554 2756 2554 3329 
C 2554 3820 2048 4179 1472 4179 
C 890 4179 378 3829 378 3329 
C 378 3110 544 3072 627 3072 
C 762 3072 877 3155 877 3321 
C 877 3486 762 3569 627 3569 
C 602 3569 570 3569 544 3557 
C 730 3959 1235 4032 1459 4032 
C 1683 4032 2106 3925 2106 3320 
C 2106 3143 2080 2828 1862 2550 
C 1670 2304 1453 2304 1242 2284 
C 1210 2284 1062 2269 1037 2269 
C 992 2263 966 2257 966 2208 
C 966 2163 973 2157 1101 2157 
L 1414 2157 
z
" transform="scale(0.015625)"/>
       </defs>
       <use xlink:href="#CMR17-33" transform="scale(0.996264)"/>
       <use xlink:href="#CMR17-30" transform="translate(45.690477 0) scale(0.996264)"/>
      </g>
     </g>
    </g>
    <g id="xtick_5">
     <g id="line2d_5">
      <g>
       <use xlink:href="#ma24478d0c2" x="385.95226" y="186.953197" style="stroke: #000000; stroke-width: 0.8"/>
      </g>
     </g>
     <g id="text_5">
      <!-- $\mathdefault{40}$ -->
      <g transform="translate(380.472793 201.563544) scale(0.11 -0.11)">
       <defs>
        <path id="CMR17-34" d="M 2150 4122 
C 2150 4256 2144 4256 2029 4256 
L 128 1254 
L 128 1088 
L 1779 1088 
L 1779 457 
C 1779 224 1766 160 1318 160 
L 1197 160 
L 1197 0 
C 1402 0 1747 0 1965 0 
C 2182 0 2528 0 2733 0 
L 2733 160 
L 2611 160 
C 2163 160 2150 224 2150 457 
L 2150 1088 
L 2803 1088 
L 2803 1254 
L 2150 1254 
L 2150 4122 
z
M 1798 3703 
L 1798 1254 
L 256 1254 
L 1798 3703 
z
" transform="scale(0.015625)"/>
       </defs>
       <use xlink:href="#CMR17-34" transform="scale(0.996264)"/>
       <use xlink:href="#CMR17-30" transform="translate(45.690477 0) scale(0.996264)"/>
      </g>
     </g>
    </g>
    <g id="xtick_6">
     <g id="line2d_6">
      <g>
       <use xlink:href="#ma24478d0c2" x="469.466347" y="186.953197" style="stroke: #000000; stroke-width: 0.8"/>
      </g>
     </g>
     <g id="text_6">
      <!-- $\mathdefault{50}$ -->
      <g transform="translate(463.98688 201.563544) scale(0.11 -0.11)">
       <defs>
        <path id="CMR17-35" d="M 730 3692 
C 794 3666 1056 3584 1325 3584 
C 1920 3584 2246 3911 2432 4100 
C 2432 4157 2432 4192 2394 4192 
C 2387 4192 2374 4192 2323 4163 
C 2099 4058 1837 3973 1517 3973 
C 1325 3973 1037 3999 723 4139 
C 653 4171 640 4171 634 4171 
C 602 4171 595 4164 595 4037 
L 595 2203 
C 595 2089 595 2057 659 2057 
C 691 2057 704 2070 736 2114 
C 941 2401 1222 2522 1542 2522 
C 1766 2522 2246 2382 2246 1289 
C 2246 1085 2246 715 2054 421 
C 1894 159 1645 25 1370 25 
C 947 25 518 320 403 814 
C 429 807 480 795 506 795 
C 589 795 749 840 749 1038 
C 749 1210 627 1280 506 1280 
C 358 1280 262 1190 262 1011 
C 262 454 704 -128 1382 -128 
C 2042 -128 2669 440 2669 1264 
C 2669 2030 2170 2624 1549 2624 
C 1222 2624 947 2503 730 2274 
L 730 3692 
z
" transform="scale(0.015625)"/>
       </defs>
       <use xlink:href="#CMR17-35" transform="scale(0.996264)"/>
       <use xlink:href="#CMR17-30" transform="translate(45.690477 0) scale(0.996264)"/>
      </g>
     </g>
    </g>
    <g id="xtick_7">
     <g id="line2d_7">
      <g>
       <use xlink:href="#ma24478d0c2" x="552.980435" y="186.953197" style="stroke: #000000; stroke-width: 0.8"/>
      </g>
     </g>
     <g id="text_7">
      <!-- $\mathdefault{60}$ -->
      <g transform="translate(547.500967 201.563544) scale(0.11 -0.11)">
       <defs>
        <path id="CMR17-36" d="M 678 2176 
C 678 3690 1395 4032 1811 4032 
C 1946 4032 2272 4009 2400 3776 
C 2298 3776 2106 3776 2106 3553 
C 2106 3381 2246 3323 2336 3323 
C 2394 3323 2566 3348 2566 3560 
C 2566 3954 2246 4179 1805 4179 
C 1043 4179 243 3390 243 1984 
C 243 253 966 -128 1478 -128 
C 2099 -128 2688 427 2688 1283 
C 2688 2081 2170 2662 1517 2662 
C 1126 2662 838 2407 678 1960 
L 678 2176 
z
M 1478 25 
C 691 25 691 1200 691 1436 
C 691 1896 909 2560 1504 2560 
C 1613 2560 1926 2560 2138 2120 
C 2253 1870 2253 1609 2253 1289 
C 2253 944 2253 690 2118 434 
C 1978 171 1773 25 1478 25 
z
" transform="scale(0.015625)"/>
       </defs>
       <use xlink:href="#CMR17-36" transform="scale(0.996264)"/>
       <use xlink:href="#CMR17-30" transform="translate(45.690477 0) scale(0.996264)"/>
      </g>
     </g>
    </g>
    <g id="text_8">
     <!-- N -->
     <g transform="translate(306.679985 215.304785) scale(0.11 -0.11)">
      <defs>
       <path id="CMR17-4e" d="M 1312 4250 
C 1267 4320 1261 4320 1139 4320 
L 326 4320 
L 326 4160 
L 448 4160 
C 704 4160 819 4129 838 4122 
L 838 610 
C 838 451 838 153 326 153 
L 326 -13 
C 474 0 742 0 902 0 
C 1062 0 1331 0 1478 -13 
L 1478 153 
C 966 153 966 451 966 610 
L 966 4033 
C 1011 3995 1011 3982 1056 3919 
L 3430 76 
C 3475 0 3494 0 3526 0 
C 3590 0 3590 19 3590 139 
L 3590 3705 
C 3590 3863 3590 4160 4102 4160 
L 4102 4326 
C 3955 4320 3686 4320 3526 4320 
C 3366 4320 3098 4320 2950 4326 
L 2950 4160 
C 3462 4160 3462 3862 3462 3703 
L 3462 763 
L 1312 4250 
z
" transform="scale(0.015625)"/>
      </defs>
      <use xlink:href="#CMR17-4e" transform="scale(0.996264)"/>
     </g>
    </g>
   </g>
   <g id="matplotlib.axis_2">
    <g id="ytick_1">
     <g id="line2d_8">
      <defs>
       <path id="mcaf8e57695" d="M 0 0 
L -3.5 0 
" style="stroke: #000000; stroke-width: 0.8"/>
      </defs>
      <g>
       <use xlink:href="#mcaf8e57695" x="44.379643" y="179.229836" style="stroke: #000000; stroke-width: 0.8"/>
      </g>
     </g>
     <g id="text_9">
      <!-- $\mathdefault{0}$ -->
      <g transform="translate(31.900176 183.03501) scale(0.11 -0.11)">
       <use xlink:href="#CMR17-30" transform="scale(0.996264)"/>
      </g>
     </g>
    </g>
    <g id="ytick_2">
     <g id="line2d_9">
      <g>
       <use xlink:href="#mcaf8e57695" x="44.379643" y="153.645401" style="stroke: #000000; stroke-width: 0.8"/>
      </g>
     </g>
     <g id="text_10">
      <!-- $\mathdefault{50}$ -->
      <g transform="translate(26.420709 157.450574) scale(0.11 -0.11)">
       <use xlink:href="#CMR17-35" transform="scale(0.996264)"/>
       <use xlink:href="#CMR17-30" transform="translate(45.690477 0) scale(0.996264)"/>
      </g>
     </g>
    </g>
    <g id="ytick_3">
     <g id="line2d_10">
      <g>
       <use xlink:href="#mcaf8e57695" x="44.379643" y="128.060965" style="stroke: #000000; stroke-width: 0.8"/>
      </g>
     </g>
     <g id="text_11">
      <!-- $\mathdefault{100}$ -->
      <g transform="translate(20.941241 131.866138) scale(0.11 -0.11)">
       <use xlink:href="#CMR17-31" transform="scale(0.996264)"/>
       <use xlink:href="#CMR17-30" transform="translate(45.690477 0) scale(0.996264)"/>
       <use xlink:href="#CMR17-30" transform="translate(91.380954 0) scale(0.996264)"/>
      </g>
     </g>
    </g>
    <g id="ytick_4">
     <g id="line2d_11">
      <g>
       <use xlink:href="#mcaf8e57695" x="44.379643" y="102.476529" style="stroke: #000000; stroke-width: 0.8"/>
      </g>
     </g>
     <g id="text_12">
      <!-- $\mathdefault{150}$ -->
      <g transform="translate(20.941241 106.281703) scale(0.11 -0.11)">
       <use xlink:href="#CMR17-31" transform="scale(0.996264)"/>
       <use xlink:href="#CMR17-35" transform="translate(45.690477 0) scale(0.996264)"/>
       <use xlink:href="#CMR17-30" transform="translate(91.380954 0) scale(0.996264)"/>
      </g>
     </g>
    </g>
    <g id="ytick_5">
     <g id="line2d_12">
      <g>
       <use xlink:href="#mcaf8e57695" x="44.379643" y="76.892094" style="stroke: #000000; stroke-width: 0.8"/>
      </g>
     </g>
     <g id="text_13">
      <!-- $\mathdefault{200}$ -->
      <g transform="translate(20.941241 80.697267) scale(0.11 -0.11)">
       <use xlink:href="#CMR17-32" transform="scale(0.996264)"/>
       <use xlink:href="#CMR17-30" transform="translate(45.690477 0) scale(0.996264)"/>
       <use xlink:href="#CMR17-30" transform="translate(91.380954 0) scale(0.996264)"/>
      </g>
     </g>
    </g>
    <g id="ytick_6">
     <g id="line2d_13">
      <g>
       <use xlink:href="#mcaf8e57695" x="44.379643" y="51.307658" style="stroke: #000000; stroke-width: 0.8"/>
      </g>
     </g>
     <g id="text_14">
      <!-- $\mathdefault{250}$ -->
      <g transform="translate(20.941241 55.112831) scale(0.11 -0.11)">
       <use xlink:href="#CMR17-32" transform="scale(0.996264)"/>
       <use xlink:href="#CMR17-35" transform="translate(45.690477 0) scale(0.996264)"/>
       <use xlink:href="#CMR17-30" transform="translate(91.380954 0) scale(0.996264)"/>
      </g>
     </g>
    </g>
    <g id="ytick_7">
     <g id="line2d_14">
      <g>
       <use xlink:href="#mcaf8e57695" x="44.379643" y="25.723222" style="stroke: #000000; stroke-width: 0.8"/>
      </g>
     </g>
     <g id="text_15">
      <!-- $\mathdefault{300}$ -->
      <g transform="translate(20.941241 29.528395) scale(0.11 -0.11)">
       <use xlink:href="#CMR17-33" transform="scale(0.996264)"/>
       <use xlink:href="#CMR17-30" transform="translate(45.690477 0) scale(0.996264)"/>
       <use xlink:href="#CMR17-30" transform="translate(91.380954 0) scale(0.996264)"/>
      </g>
     </g>
    </g>
    <g id="text_16">
     <!-- Slope of initial phase -->
     <g transform="translate(14.810347 147.33547) rotate(-90) scale(0.11 -0.11)">
      <defs>
       <path id="CMR17-53" d="M 2803 4290 
C 2803 4404 2797 4411 2758 4411 
C 2720 4411 2707 4385 2682 4328 
L 2490 3907 
C 2246 4257 1875 4416 1472 4416 
C 819 4416 294 3901 294 3253 
C 294 3056 339 2776 557 2510 
C 794 2218 1018 2167 1530 2033 
C 1722 1982 2042 1899 2106 1874 
C 2470 1722 2662 1341 2662 985 
C 2662 527 2336 38 1779 38 
C 1094 38 454 419 410 1311 
C 403 1413 397 1419 352 1419 
C 301 1419 294 1413 294 1285 
L 294 -1 
C 294 -115 301 -122 339 -122 
C 384 -122 397 -90 486 108 
C 493 127 493 140 614 381 
C 934 -39 1472 -128 1779 -128 
C 2477 -128 2970 451 2970 1124 
C 2970 1454 2848 1708 2778 1823 
C 2509 2230 2221 2306 1914 2382 
C 1869 2402 1856 2402 1498 2490 
C 1152 2579 1005 2624 845 2796 
C 666 2992 602 3196 602 3399 
C 602 3812 934 4263 1478 4263 
C 2157 4263 2579 3786 2675 2993 
C 2694 2878 2701 2872 2746 2872 
C 2803 2872 2803 2891 2803 2999 
L 2803 4290 
z
" transform="scale(0.015625)"/>
       <path id="CMR17-6c" d="M 979 4396 
L 218 4326 
L 218 4160 
C 595 4160 653 4122 653 3817 
L 653 426 
C 653 184 627 153 218 153 
L 218 -13 
C 371 0 653 0 813 0 
C 979 0 1261 0 1414 -13 
L 1414 153 
C 1005 153 979 178 979 426 
L 979 4396 
z
" transform="scale(0.015625)"/>
       <path id="CMR17-6f" d="M 2758 1356 
C 2758 2176 2163 2816 1466 2816 
C 768 2816 173 2176 173 1356 
C 173 551 768 -64 1466 -64 
C 2163 -64 2758 551 2758 1356 
z
M 1466 51 
C 1165 51 909 230 762 480 
C 602 767 582 1126 582 1408 
C 582 1677 595 2010 762 2298 
C 890 2509 1139 2714 1466 2714 
C 1754 2714 1997 2554 2150 2330 
C 2349 2029 2349 1607 2349 1408 
C 2349 1158 2336 775 2163 467 
C 1984 173 1709 51 1466 51 
z
" transform="scale(0.015625)"/>
       <path id="CMR17-70" d="M 1408 -1063 
C 998 -1063 973 -1037 973 -789 
L 973 402 
C 1158 134 1427 -38 1766 -38 
C 2406 -38 3053 523 3053 1388 
C 3053 2191 2496 2802 1837 2802 
C 1453 2802 1139 2592 960 2338 
L 960 2802 
L 198 2732 
L 198 2567 
C 576 2567 634 2528 634 2223 
L 634 -789 
C 634 -1031 608 -1063 198 -1063 
L 198 -1228 
C 352 -1216 634 -1216 800 -1216 
C 966 -1216 1254 -1216 1408 -1228 
L 1408 -1063 
z
M 973 2012 
C 973 2102 973 2235 1222 2471 
C 1254 2497 1472 2688 1792 2688 
C 2259 2688 2643 2108 2643 1382 
C 2643 656 2234 64 1728 64 
C 1498 64 1248 172 1056 472 
C 973 612 973 650 973 752 
L 973 2012 
z
" transform="scale(0.015625)"/>
       <path id="CMR17-65" d="M 2438 1472 
C 2464 1498 2464 1511 2464 1576 
C 2464 2238 2118 2816 1389 2816 
C 710 2816 173 2169 173 1383 
C 173 551 781 -64 1459 -64 
C 2176 -64 2458 607 2458 740 
C 2458 784 2419 784 2406 784 
C 2362 784 2355 771 2330 696 
C 2189 265 1837 51 1504 51 
C 1229 51 954 203 781 480 
C 582 803 582 1176 582 1472 
L 2438 1472 
z
M 589 1568 
C 634 2505 1126 2714 1382 2714 
C 1818 2714 2112 2297 2118 1568 
L 589 1568 
z
" transform="scale(0.015625)"/>
       <path id="CMR17-66" d="M 979 2560 
L 1709 2560 
L 1709 2725 
L 966 2725 
L 966 3494 
C 966 4022 1235 4352 1510 4352 
C 1594 4352 1690 4327 1754 4282 
C 1702 4269 1568 4225 1568 4067 
C 1568 3901 1696 3850 1786 3850 
C 1875 3850 2003 3901 2003 4067 
C 2003 4308 1773 4454 1517 4454 
C 1152 4454 653 4156 653 3481 
L 653 2725 
L 141 2725 
L 141 2560 
L 653 2560 
L 653 427 
C 653 184 627 153 218 153 
L 218 -13 
C 371 0 666 0 832 0 
C 1018 0 1344 0 1517 -13 
L 1517 153 
C 1056 153 979 153 979 439 
L 979 2560 
z
" transform="scale(0.015625)"/>
       <path id="CMR17-69" d="M 992 3909 
C 992 4049 877 4170 730 4170 
C 589 4170 467 4056 467 3909 
C 467 3769 582 3648 730 3648 
C 870 3648 992 3763 992 3909 
z
M 243 2706 
L 243 2541 
C 602 2541 653 2502 653 2197 
L 653 427 
C 653 184 627 153 218 153 
L 218 -13 
C 371 0 646 0 806 0 
C 960 0 1222 0 1370 -13 
L 1370 153 
C 992 153 979 191 979 420 
L 979 2776 
L 243 2706 
z
" transform="scale(0.015625)"/>
       <path id="CMR17-6e" d="M 2656 1933 
C 2656 2259 2592 2790 1837 2790 
C 1331 2790 1069 2400 973 2144 
L 966 2144 
L 966 2790 
L 211 2720 
L 211 2554 
C 589 2554 646 2515 646 2208 
L 646 428 
C 646 184 621 153 211 153 
L 211 -13 
C 365 0 646 0 813 0 
C 979 0 1267 0 1421 -13 
L 1421 153 
C 1011 153 986 178 986 428 
L 986 1658 
C 986 2247 1344 2688 1792 2688 
C 2266 2688 2317 2266 2317 1958 
L 2317 428 
C 2317 184 2291 153 1882 153 
L 1882 -13 
C 2035 0 2317 0 2483 0 
C 2650 0 2938 0 3091 -13 
L 3091 153 
C 2682 153 2656 178 2656 428 
L 2656 1933 
z
" transform="scale(0.015625)"/>
       <path id="CMR17-74" d="M 966 2560 
L 1862 2560 
L 1862 2725 
L 966 2725 
L 966 3904 
L 851 3904 
C 838 3245 614 2668 70 2668 
L 70 2560 
L 627 2560 
L 627 771 
C 627 650 627 -64 1370 -64 
C 1747 -64 1965 306 1965 777 
L 1965 1140 
L 1850 1140 
L 1850 783 
C 1850 344 1677 51 1408 51 
C 1222 51 966 178 966 758 
L 966 2560 
z
" transform="scale(0.015625)"/>
       <path id="CMR17-61" d="M 2304 1653 
C 2304 2072 2304 2294 2035 2543 
C 1798 2752 1523 2816 1306 2816 
C 800 2816 435 2407 435 1971 
C 435 1728 627 1728 666 1728 
C 749 1728 896 1778 896 1954 
C 896 2112 774 2181 666 2181 
C 640 2181 608 2174 589 2168 
C 723 2592 1069 2714 1293 2714 
C 1613 2714 1965 2429 1965 1885 
L 1965 1600 
C 1587 1600 1133 1549 774 1357 
C 371 1133 256 813 256 570 
C 256 77 832 -64 1171 -64 
C 1523 -64 1850 139 1990 511 
C 2003 233 2182 -18 2464 -18 
C 2598 -18 2938 70 2938 567 
L 2938 920 
L 2822 920 
L 2822 562 
C 2822 178 2650 128 2566 128 
C 2304 128 2304 458 2304 738 
L 2304 1653 
z
M 1965 870 
C 1965 317 1568 38 1216 38 
C 896 38 646 275 646 570 
C 646 761 730 1100 1101 1305 
C 1408 1478 1760 1504 1965 1504 
L 1965 870 
z
" transform="scale(0.015625)"/>
       <path id="CMR17-68" d="M 2656 1933 
C 2656 2259 2592 2790 1837 2790 
C 1312 2790 1056 2368 979 2157 
L 973 2157 
L 973 4396 
L 211 4326 
L 211 4160 
C 589 4160 646 4122 646 3817 
L 646 426 
C 646 184 621 153 211 153 
L 211 -13 
C 365 0 646 0 813 0 
C 979 0 1267 0 1421 -13 
L 1421 153 
C 1011 153 986 178 986 428 
L 986 1658 
C 986 2247 1344 2688 1792 2688 
C 2266 2688 2317 2266 2317 1958 
L 2317 428 
C 2317 184 2291 153 1882 153 
L 1882 -13 
C 2035 0 2317 0 2483 0 
C 2650 0 2938 0 3091 -13 
L 3091 153 
C 2682 153 2656 178 2656 428 
L 2656 1933 
z
" transform="scale(0.015625)"/>
       <path id="CMR17-73" d="M 1978 2697 
C 1978 2813 1971 2819 1933 2819 
C 1907 2819 1901 2813 1824 2717 
C 1805 2691 1747 2626 1728 2601 
C 1523 2819 1235 2819 1126 2819 
C 416 2819 160 2447 160 2076 
C 160 1498 813 1365 998 1325 
C 1402 1243 1542 1217 1677 1101 
C 1760 1025 1901 884 1901 654 
C 1901 384 1747 38 1158 38 
C 602 38 403 460 288 1021 
C 269 1110 269 1117 218 1117 
C 166 1117 160 1110 160 983 
L 160 63 
C 160 -51 166 -58 205 -58 
C 237 -58 243 -51 275 0 
C 314 57 410 211 448 276 
C 576 103 800 -64 1158 -64 
C 1792 -64 2131 283 2131 784 
C 2131 1112 1958 1285 1875 1362 
C 1683 1561 1459 1606 1190 1657 
C 838 1735 390 1825 390 2217 
C 390 2383 480 2737 1126 2737 
C 1811 2737 1850 2094 1862 1888 
C 1869 1856 1901 1849 1920 1849 
C 1978 1849 1978 1869 1978 1978 
L 1978 2697 
z
" transform="scale(0.015625)"/>
      </defs>
      <use xlink:href="#CMR17-53" transform="scale(0.996264)"/>
      <use xlink:href="#CMR17-6c" transform="translate(50.89537 0) scale(0.996264)"/>
      <use xlink:href="#CMR17-6f" transform="translate(75.766428 0) scale(0.996264)"/>
      <use xlink:href="#CMR17-70" transform="translate(121.456905 0) scale(0.996264)"/>
      <use xlink:href="#CMR17-65" transform="translate(174.954714 0) scale(0.996264)"/>
      <use xlink:href="#CMR17-6f" transform="translate(245.516341 0) scale(0.996264)"/>
      <use xlink:href="#CMR17-66" transform="translate(291.206818 0) scale(0.996264)"/>
      <use xlink:href="#CMR17-69" transform="translate(348.756297 0) scale(0.996264)"/>
      <use xlink:href="#CMR17-6e" transform="translate(373.627355 0) scale(0.996264)"/>
      <use xlink:href="#CMR17-69" transform="translate(424.522725 0) scale(0.996264)"/>
      <use xlink:href="#CMR17-74" transform="translate(449.393783 0) scale(0.996264)"/>
      <use xlink:href="#CMR17-69" transform="translate(484.674551 0) scale(0.996264)"/>
      <use xlink:href="#CMR17-61" transform="translate(509.54561 0) scale(0.996264)"/>
      <use xlink:href="#CMR17-6c" transform="translate(555.236087 0) scale(0.996264)"/>
      <use xlink:href="#CMR17-70" transform="translate(610.183112 0) scale(0.996264)"/>
      <use xlink:href="#CMR17-68" transform="translate(661.078481 0) scale(0.996264)"/>
      <use xlink:href="#CMR17-61" transform="translate(711.973851 0) scale(0.996264)"/>
      <use xlink:href="#CMR17-73" transform="translate(757.664328 0) scale(0.996264)"/>
      <use xlink:href="#CMR17-65" transform="translate(793.465666 0) scale(0.996264)"/>
     </g>
    </g>
   </g>
   <g id="line2d_15">
    <path d="M 68.598728 176.994652 
L 76.950137 175.793723 
L 85.301546 174.537236 
L 93.652955 173.225192 
L 102.004363 171.85759 
L 110.355772 170.434429 
L 118.707181 168.955712 
L 127.05859 167.421436 
L 135.409998 165.831603 
L 143.761407 164.186212 
L 152.112816 162.485263 
L 160.464224 160.728756 
L 168.815633 158.916692 
L 177.167042 157.04907 
L 185.518451 155.12589 
L 193.869859 153.147152 
L 202.221268 151.112857 
L 210.572677 149.023003 
L 218.924086 146.877592 
L 227.275494 144.676624 
L 235.626903 142.420097 
L 243.978312 140.108013 
L 252.32972 137.740371 
L 260.681129 135.317171 
L 269.032538 132.838413 
L 277.383947 130.304098 
L 285.735355 127.714225 
L 294.086764 125.068794 
L 302.438173 122.367805 
L 310.789582 119.611259 
L 319.14099 116.799154 
L 327.492399 113.931492 
L 335.843808 111.008272 
L 344.195216 108.029495 
L 352.546625 104.99516 
L 360.898034 101.905267 
L 369.249443 98.759816 
L 377.600851 95.558807 
L 385.95226 92.302241 
L 394.303669 88.990116 
L 402.655078 85.622434 
L 411.006486 82.199195 
L 419.357895 78.720397 
L 427.709304 75.186042 
L 436.060712 71.596129 
L 444.412121 67.950658 
L 452.76353 64.24963 
L 461.114939 60.493043 
L 469.466347 56.680899 
L 477.817756 52.813197 
L 486.169165 48.889938 
L 494.520574 44.91112 
L 502.871982 40.876745 
L 511.223391 36.786812 
L 519.5748 32.641322 
L 527.926209 28.440273 
L 536.277617 24.183667 
L 544.629026 19.871503 
L 552.980435 15.503781 
" clip-path="url(#p9c66deb98c)" style="fill: none; stroke: #000000; stroke-opacity: 0.6; stroke-linecap: square"/>
   </g>
   <g id="line2d_16">
    <path d="M 68.598728 178.778823 
L 76.950137 178.549832 
L 85.301546 178.318518 
L 93.652955 178.084881 
L 102.004363 177.848921 
L 110.355772 177.610638 
L 118.707181 177.370032 
L 127.05859 177.127104 
L 135.409998 176.881852 
L 143.761407 176.634278 
L 152.112816 176.384381 
L 160.464224 176.13216 
L 168.815633 175.877617 
L 177.167042 175.620751 
L 185.518451 175.361562 
L 193.869859 175.100051 
L 202.221268 174.836216 
L 210.572677 174.570058 
L 218.924086 174.301578 
L 227.275494 174.030774 
L 235.626903 173.757648 
L 243.978312 173.482199 
L 252.32972 173.204427 
L 260.681129 172.924332 
L 269.032538 172.641914 
L 277.383947 172.357173 
L 285.735355 172.070109 
L 294.086764 171.780722 
L 302.438173 171.489013 
L 310.789582 171.19498 
L 319.14099 170.898625 
L 327.492399 170.599947 
L 335.843808 170.298945 
L 344.195216 169.995621 
L 352.546625 169.689974 
L 360.898034 169.382005 
L 369.249443 169.071712 
L 377.600851 168.759096 
L 385.95226 168.444157 
L 394.303669 168.126896 
L 402.655078 167.807312 
L 411.006486 167.485404 
L 419.357895 167.161174 
L 427.709304 166.834621 
L 436.060712 166.505745 
L 444.412121 166.174546 
L 452.76353 165.841024 
L 461.114939 165.505179 
L 469.466347 165.167012 
L 477.817756 164.826521 
L 486.169165 164.483708 
L 494.520574 164.138571 
L 502.871982 163.791112 
L 511.223391 163.44133 
L 519.5748 163.089225 
L 527.926209 162.734797 
L 536.277617 162.378046 
L 544.629026 162.018972 
L 552.980435 161.657576 
" clip-path="url(#p9c66deb98c)" style="fill: none; stroke: #000000; stroke-opacity: 0.6; stroke-linecap: square"/>
   </g>
   <g id="patch_3">
    <path d="M 44.379643 186.953197 
L 44.379643 7.2 
" style="fill: none; stroke: #000000; stroke-width: 0.8; stroke-linejoin: miter; stroke-linecap: square"/>
   </g>
   <g id="patch_4">
    <path d="M 577.19952 186.953197 
L 577.19952 7.2 
" style="fill: none; stroke: #000000; stroke-width: 0.8; stroke-linejoin: miter; stroke-linecap: square"/>
   </g>
   <g id="patch_5">
    <path d="M 44.379643 186.953197 
L 577.19952 186.953197 
" style="fill: none; stroke: #000000; stroke-width: 0.8; stroke-linejoin: miter; stroke-linecap: square"/>
   </g>
   <g id="patch_6">
    <path d="M 44.379643 7.2 
L 577.19952 7.2 
" style="fill: none; stroke: #000000; stroke-width: 0.8; stroke-linejoin: miter; stroke-linecap: square"/>
   </g>
   <g id="legend_1">
    <g id="patch_7">
     <path d="M 52.079643 77.323579 
L 177.435106 77.323579 
Q 179.635106 77.323579 179.635106 75.123579 
L 179.635106 14.9 
Q 179.635106 12.7 177.435106 12.7 
L 52.079643 12.7 
Q 49.879643 12.7 49.879643 14.9 
L 49.879643 75.123579 
Q 49.879643 77.323579 52.079643 77.323579 
z
" style="fill: #ffffff; opacity: 0.8; stroke: #cccccc; stroke-linejoin: miter"/>
    </g>
    <g id="line2d_17">
     <path d="M 54.279643 20.95 
L 65.279643 20.95 
L 76.279643 20.95 
" style="fill: none; stroke: #000000; stroke-opacity: 0.6; stroke-linecap: square"/>
    </g>
    <g id="text_17">
     <!-- quadratic_linear fit -->
     <g transform="translate(85.079643 24.8) scale(0.11 -0.11)">
      <defs>
       <path id="CMR17-71" d="M 2630 2802 
L 2528 2802 
L 2336 2172 
C 2189 2509 1920 2802 1491 2802 
C 838 2802 211 2223 211 1383 
C 211 548 800 -38 1440 -38 
C 1933 -38 2208 338 2291 478 
L 2291 -789 
C 2291 -1031 2266 -1063 1856 -1063 
L 1856 -1228 
C 2010 -1216 2291 -1216 2458 -1216 
C 2624 -1216 2912 -1216 3066 -1228 
L 3066 -1063 
C 2656 -1063 2630 -1037 2630 -789 
L 2630 2802 
z
M 2304 886 
C 2304 612 2074 357 2054 338 
C 1856 115 1626 64 1472 64 
C 992 64 621 669 621 1375 
C 621 2121 1043 2688 1536 2688 
C 2048 2688 2304 2108 2304 1777 
L 2304 886 
z
" transform="scale(0.015625)"/>
       <path id="CMR17-75" d="M 1882 2693 
L 1882 2528 
C 2259 2528 2317 2489 2317 2186 
L 2317 1032 
C 2317 500 2029 38 1555 38 
C 1030 38 986 348 986 678 
L 986 2763 
L 211 2693 
L 211 2528 
C 467 2528 640 2528 646 2274 
L 646 1058 
C 646 633 646 361 813 183 
C 896 101 1056 -64 1517 -64 
C 2061 -64 2272 377 2323 506 
L 2330 506 
L 2330 -63 
L 3091 -63 
L 3091 128 
C 2714 128 2656 166 2656 473 
L 2656 2763 
L 1882 2693 
z
" transform="scale(0.015625)"/>
       <path id="CMR17-64" d="M 1869 4326 
L 1869 4160 
C 2246 4160 2304 4122 2304 3820 
L 2304 2345 
C 2278 2377 2016 2790 1498 2790 
C 845 2790 211 2208 211 1364 
C 211 525 806 -64 1434 -64 
C 1978 -64 2259 337 2291 380 
L 2291 -63 
L 3066 -63 
L 3066 128 
C 2688 128 2630 166 2630 473 
L 2630 4396 
L 1869 4326 
z
M 2291 755 
C 2291 563 2176 390 2029 262 
C 1811 70 1594 38 1472 38 
C 1286 38 621 134 621 1356 
C 621 2612 1363 2688 1530 2688 
C 1824 2688 2061 2522 2208 2291 
C 2291 2157 2291 2138 2291 2023 
L 2291 755 
z
" transform="scale(0.015625)"/>
       <path id="CMR17-72" d="M 960 1497 
C 960 2112 1222 2688 1702 2688 
C 1747 2688 1792 2682 1837 2662 
C 1837 2662 1696 2617 1696 2452 
C 1696 2298 1818 2234 1914 2234 
C 1990 2234 2131 2279 2131 2458 
C 2131 2663 1926 2790 1709 2790 
C 1222 2790 1011 2317 947 2093 
L 941 2093 
L 941 2790 
L 198 2720 
L 198 2554 
C 576 2554 634 2515 634 2208 
L 634 428 
C 634 184 608 153 198 153 
L 198 -13 
C 352 0 646 0 813 0 
C 998 0 1325 0 1498 -13 
L 1498 153 
C 1037 153 960 153 960 440 
L 960 1497 
z
" transform="scale(0.015625)"/>
       <path id="CMR17-63" d="M 2234 2240 
C 2112 2240 1933 2240 1933 2017 
C 1933 1838 2080 1787 2163 1787 
C 2208 1787 2394 1807 2394 2024 
C 2394 2467 1958 2803 1466 2803 
C 787 2803 211 2178 211 1363 
C 211 516 813 -64 1466 -64 
C 2259 -64 2458 677 2458 748 
C 2458 774 2451 793 2406 793 
C 2362 793 2355 787 2330 703 
C 2163 180 1798 51 1523 51 
C 1114 51 621 427 621 1369 
C 621 2338 1094 2688 1472 2688 
C 1722 2688 2093 2573 2234 2240 
z
" transform="scale(0.015625)"/>
       <path id="CMR17-c" d="M 2554 2764 
C 2400 2764 1926 2764 1805 2739 
C 1766 2725 1754 2725 1677 2725 
L 947 2725 
L 947 3469 
C 947 4073 1434 4352 1818 4352 
C 1939 4352 2214 4320 2355 4101 
C 2291 4101 2086 4101 2086 3878 
C 2086 3725 2189 3648 2317 3648 
C 2432 3648 2547 3712 2547 3885 
C 2547 4205 2240 4454 1843 4454 
C 1338 4454 634 4168 634 3469 
L 634 2725 
L 122 2725 
L 122 2560 
L 634 2560 
L 634 427 
C 634 184 608 153 198 153 
L 198 -13 
C 352 0 634 0 794 0 
C 960 0 1242 0 1395 -13 
L 1395 153 
C 986 153 960 178 960 427 
L 960 2560 
L 1901 2560 
C 2176 2560 2227 2502 2227 2222 
L 2227 427 
C 2227 184 2202 153 1792 153 
L 1792 -13 
C 1946 0 2227 0 2387 0 
C 2554 0 2835 0 2989 -13 
L 2989 153 
C 2579 153 2554 178 2554 427 
L 2554 2764 
z
" transform="scale(0.015625)"/>
      </defs>
      <use xlink:href="#CMR17-71" transform="scale(0.996264)"/>
      <use xlink:href="#CMR17-75" transform="translate(48.292916 0) scale(0.996264)"/>
      <use xlink:href="#CMR17-61" transform="translate(99.188286 0) scale(0.996264)"/>
      <use xlink:href="#CMR17-64" transform="translate(144.878763 0) scale(0.996264)"/>
      <use xlink:href="#CMR17-72" transform="translate(195.774133 0) scale(0.996264)"/>
      <use xlink:href="#CMR17-61" transform="translate(231.0549 0) scale(0.996264)"/>
      <use xlink:href="#CMR17-74" transform="translate(276.745377 0) scale(0.996264)"/>
      <use xlink:href="#CMR17-69" transform="translate(312.026145 0) scale(0.996264)"/>
      <use xlink:href="#CMR17-63" transform="translate(336.897204 0) scale(0.996264)"/>
      <use xlink:href="#CMR17-6c" transform="translate(410.280084 0) scale(0.996264)"/>
      <use xlink:href="#CMR17-69" transform="translate(435.151142 0) scale(0.996264)"/>
      <use xlink:href="#CMR17-6e" transform="translate(460.022201 0) scale(0.996264)"/>
      <use xlink:href="#CMR17-65" transform="translate(510.91757 0) scale(0.996264)"/>
      <use xlink:href="#CMR17-61" transform="translate(551.403231 0) scale(0.996264)"/>
      <use xlink:href="#CMR17-72" transform="translate(597.093708 0) scale(0.996264)"/>
      <use xlink:href="#CMR17-c" transform="translate(662.450442 0) scale(0.996264)"/>
      <use xlink:href="#CMR17-74" transform="translate(712.192666 0) scale(0.996264)"/>
      <path d="M 382.865493 0 
L 410.280084 0 
L 410.280084 0.3985 
L 382.865493 0.3985 
L 382.865493 0 
z
"/>
     </g>
    </g>
    <g id="PathCollection_3">
     <g>
      <use xlink:href="#m9d8fd07578" x="65.279643" y="37.243395" style="fill: #32cd32; fill-opacity: 0.7; stroke: #32cd32; stroke-opacity: 0.7"/>
     </g>
    </g>
    <g id="text_18">
     <!-- superradiant state -->
     <g transform="translate(85.079643 40.130895) scale(0.11 -0.11)">
      <use xlink:href="#CMR17-73" transform="scale(0.996264)"/>
      <use xlink:href="#CMR17-75" transform="translate(35.801338 0) scale(0.996264)"/>
      <use xlink:href="#CMR17-70" transform="translate(86.696707 0) scale(0.996264)"/>
      <use xlink:href="#CMR17-65" transform="translate(140.194516 0) scale(0.996264)"/>
      <use xlink:href="#CMR17-72" transform="translate(180.680176 0) scale(0.996264)"/>
      <use xlink:href="#CMR17-72" transform="translate(215.960944 0) scale(0.996264)"/>
      <use xlink:href="#CMR17-61" transform="translate(251.241712 0) scale(0.996264)"/>
      <use xlink:href="#CMR17-64" transform="translate(296.932189 0) scale(0.996264)"/>
      <use xlink:href="#CMR17-69" transform="translate(347.827559 0) scale(0.996264)"/>
      <use xlink:href="#CMR17-61" transform="translate(372.698617 0) scale(0.996264)"/>
      <use xlink:href="#CMR17-6e" transform="translate(418.389094 0) scale(0.996264)"/>
      <use xlink:href="#CMR17-74" transform="translate(466.68201 0) scale(0.996264)"/>
      <use xlink:href="#CMR17-73" transform="translate(532.038744 0) scale(0.996264)"/>
      <use xlink:href="#CMR17-74" transform="translate(567.840082 0) scale(0.996264)"/>
      <use xlink:href="#CMR17-61" transform="translate(603.12085 0) scale(0.996264)"/>
      <use xlink:href="#CMR17-74" transform="translate(648.811327 0) scale(0.996264)"/>
      <use xlink:href="#CMR17-65" transform="translate(684.092095 0) scale(0.996264)"/>
     </g>
    </g>
    <g id="line2d_18">
     <path d="M 54.279643 51.611789 
L 65.279643 51.611789 
L 76.279643 51.611789 
" style="fill: none; stroke: #000000; stroke-opacity: 0.6; stroke-linecap: square"/>
    </g>
    <g id="text_19">
     <!-- quadratic_linear fit -->
     <g transform="translate(85.079643 55.461789) scale(0.11 -0.11)">
      <use xlink:href="#CMR17-71" transform="scale(0.996264)"/>
      <use xlink:href="#CMR17-75" transform="translate(48.292916 0) scale(0.996264)"/>
      <use xlink:href="#CMR17-61" transform="translate(99.188286 0) scale(0.996264)"/>
      <use xlink:href="#CMR17-64" transform="translate(144.878763 0) scale(0.996264)"/>
      <use xlink:href="#CMR17-72" transform="translate(195.774133 0) scale(0.996264)"/>
      <use xlink:href="#CMR17-61" transform="translate(231.0549 0) scale(0.996264)"/>
      <use xlink:href="#CMR17-74" transform="translate(276.745377 0) scale(0.996264)"/>
      <use xlink:href="#CMR17-69" transform="translate(312.026145 0) scale(0.996264)"/>
      <use xlink:href="#CMR17-63" transform="translate(336.897204 0) scale(0.996264)"/>
      <use xlink:href="#CMR17-6c" transform="translate(410.280084 0) scale(0.996264)"/>
      <use xlink:href="#CMR17-69" transform="translate(435.151142 0) scale(0.996264)"/>
      <use xlink:href="#CMR17-6e" transform="translate(460.022201 0) scale(0.996264)"/>
      <use xlink:href="#CMR17-65" transform="translate(510.91757 0) scale(0.996264)"/>
      <use xlink:href="#CMR17-61" transform="translate(551.403231 0) scale(0.996264)"/>
      <use xlink:href="#CMR17-72" transform="translate(597.093708 0) scale(0.996264)"/>
      <use xlink:href="#CMR17-c" transform="translate(662.450442 0) scale(0.996264)"/>
      <use xlink:href="#CMR17-74" transform="translate(712.192666 0) scale(0.996264)"/>
      <path d="M 382.865493 0 
L 410.280084 0 
L 410.280084 0.3985 
L 382.865493 0.3985 
L 382.865493 0 
z
"/>
     </g>
    </g>
    <g id="PathCollection_4">
     <g>
      <use xlink:href="#mc9c98097f6" x="65.279643" y="67.905184" style="fill: #1e90ff; fill-opacity: 0.7; stroke: #1e90ff; stroke-opacity: 0.7"/>
     </g>
    </g>
    <g id="text_20">
     <!-- excited state -->
     <g transform="translate(85.079643 70.792684) scale(0.11 -0.11)">
      <defs>
       <path id="CMR17-78" d="M 1664 1477 
C 1856 1726 2074 2006 2253 2216 
C 2464 2458 2707 2560 2989 2560 
L 2989 2726 
C 2880 2726 2656 2726 2541 2726 
C 2368 2726 2170 2726 2022 2732 
L 2022 2566 
C 2112 2553 2163 2489 2163 2400 
C 2163 2285 2099 2215 2067 2171 
L 1594 1573 
L 1030 2306 
C 973 2376 973 2388 973 2420 
C 973 2497 1037 2560 1146 2560 
L 1146 2732 
C 992 2726 717 2726 557 2726 
C 384 2726 179 2726 38 2732 
L 38 2560 
C 384 2560 461 2534 614 2343 
L 1350 1395 
C 1363 1382 1395 1344 1395 1325 
C 1395 1299 838 619 768 530 
C 480 185 179 160 6 160 
L 6 0 
C 115 0 339 0 454 0 
C 582 0 864 0 979 -6 
L 979 160 
C 941 166 838 179 838 325 
C 838 440 890 510 947 586 
L 1478 1236 
L 2035 512 
C 2086 442 2163 346 2163 301 
C 2163 211 2086 160 1984 160 
L 1984 -6 
C 2138 0 2413 0 2573 0 
C 2746 0 2950 0 3091 -6 
L 3091 160 
C 2771 160 2675 172 2522 370 
L 1664 1477 
z
" transform="scale(0.015625)"/>
      </defs>
      <use xlink:href="#CMR17-65" transform="scale(0.996264)"/>
      <use xlink:href="#CMR17-78" transform="translate(40.48566 0) scale(0.996264)"/>
      <use xlink:href="#CMR17-63" transform="translate(88.778576 0) scale(0.996264)"/>
      <use xlink:href="#CMR17-69" transform="translate(129.264237 0) scale(0.996264)"/>
      <use xlink:href="#CMR17-74" transform="translate(154.135295 0) scale(0.996264)"/>
      <use xlink:href="#CMR17-65" transform="translate(189.416063 0) scale(0.996264)"/>
      <use xlink:href="#CMR17-64" transform="translate(229.901724 0) scale(0.996264)"/>
      <use xlink:href="#CMR17-73" transform="translate(310.87306 0) scale(0.996264)"/>
      <use xlink:href="#CMR17-74" transform="translate(346.674397 0) scale(0.996264)"/>
      <use xlink:href="#CMR17-61" transform="translate(381.955165 0) scale(0.996264)"/>
      <use xlink:href="#CMR17-74" transform="translate(427.645642 0) scale(0.996264)"/>
      <use xlink:href="#CMR17-65" transform="translate(462.92641 0) scale(0.996264)"/>
     </g>
    </g>
   </g>
  </g>
 </g>
 <defs>
  <clipPath id="p9c66deb98c">
   <rect x="44.379643" y="7.2" width="532.819877" height="179.753197"/>
  </clipPath>
 </defs>
</svg>
