<?xml version="1.0" encoding="utf-8" standalone="no"?>
<!DOCTYPE svg PUBLIC "-//W3C//DTD SVG 1.1//EN"
  "http://www.w3.org/Graphics/SVG/1.1/DTD/svg11.dtd">
<svg xmlns:xlink="http://www.w3.org/1999/xlink" width="584.39952pt" height="151.115386pt" viewBox="0 0 584.39952 151.115386" xmlns="http://www.w3.org/2000/svg" version="1.1">
 <metadata>
  <rdf:RDF xmlns:dc="http://purl.org/dc/elements/1.1/" xmlns:cc="http://creativecommons.org/ns#" xmlns:rdf="http://www.w3.org/1999/02/22-rdf-syntax-ns#">
   <cc:Work>
    <dc:type rdf:resource="http://purl.org/dc/dcmitype/StillImage"/>
    <dc:date>2025-01-16T18:31:51.492141</dc:date>
    <dc:format>image/svg+xml</dc:format>
    <dc:creator>
     <cc:Agent>
      <dc:title>Matplotlib v3.10.0, https://matplotlib.org/</dc:title>
     </cc:Agent>
    </dc:creator>
   </cc:Work>
  </rdf:RDF>
 </metadata>
 <defs>
  <style type="text/css">*{stroke-linejoin: round; stroke-linecap: butt}</style>
 </defs>
 <g id="figure_1">
  <g id="patch_1">
   <path d="M 0 151.115386 
L 584.39952 151.115386 
L 584.39952 0 
L 0 0 
z
" style="fill: #ffffff"/>
  </g>
  <g id="axes_1">
   <g id="patch_2">
    <path d="M 38.900176 113.432903 
L 577.19952 113.432903 
L 577.19952 7.2 
L 38.900176 7.2 
z
" style="fill: #ffffff"/>
   </g>
   <g id="FillBetweenPolyCollection_1">
    <defs>
     <path id="m6882842d54" d="M 63.368328 -42.511251 
L 63.368328 -42.522184 
L 71.805622 -43.661302 
L 80.242915 -44.799526 
L 88.680209 -45.936925 
L 97.117503 -47.073535 
L 105.554797 -48.209377 
L 113.992091 -49.344465 
L 122.429384 -50.478809 
L 130.866678 -51.612416 
L 139.303972 -52.74529 
L 147.741266 -53.877436 
L 156.17856 -55.008857 
L 164.615853 -56.139556 
L 173.053147 -57.269535 
L 181.490441 -58.398796 
L 189.927735 -59.52734 
L 198.365029 -60.655169 
L 206.802322 -61.782283 
L 215.239616 -62.908685 
L 223.67691 -64.034373 
L 232.114204 -65.159351 
L 240.551498 -66.283617 
L 248.988791 -67.407172 
L 257.426085 -68.530018 
L 265.863379 -69.652155 
L 274.300673 -70.773583 
L 282.737967 -71.894302 
L 291.17526 -73.014313 
L 299.612554 -74.133616 
L 308.049848 -75.252212 
L 316.487142 -76.3701 
L 324.924436 -77.487281 
L 333.361729 -78.603756 
L 341.799023 -79.719524 
L 350.236317 -80.834586 
L 358.673611 -81.948942 
L 367.110904 -83.062592 
L 375.548198 -84.175536 
L 383.985492 -85.287774 
L 392.422786 -86.399307 
L 400.86008 -87.510135 
L 409.297373 -88.620258 
L 417.734667 -89.729675 
L 426.171961 -90.838387 
L 434.609255 -91.946395 
L 443.046549 -93.053698 
L 451.483842 -94.160296 
L 459.921136 -95.26619 
L 468.35843 -96.371379 
L 476.795724 -97.475864 
L 485.233018 -98.579644 
L 493.670311 -99.68272 
L 502.107605 -100.785092 
L 510.544899 -101.88676 
L 518.982193 -102.987724 
L 527.419487 -104.087984 
L 535.85678 -105.18754 
L 544.294074 -106.286392 
L 552.731368 -107.384541 
L 552.731368 -107.323871 
L 552.731368 -107.323871 
L 544.294074 -106.226243 
L 535.85678 -105.127916 
L 527.419487 -104.02889 
L 518.982193 -102.929163 
L 510.544899 -101.828738 
L 502.107605 -100.727612 
L 493.670311 -99.625788 
L 485.233018 -98.523264 
L 476.795724 -97.42004 
L 468.35843 -96.316118 
L 459.921136 -95.211496 
L 451.483842 -94.106176 
L 443.046549 -93.000156 
L 434.609255 -91.893438 
L 426.171961 -90.786021 
L 417.734667 -89.677905 
L 409.297373 -88.569091 
L 400.86008 -87.459578 
L 392.422786 -86.349367 
L 383.985492 -85.238458 
L 375.548198 -84.126851 
L 367.110904 -83.014546 
L 358.673611 -81.901543 
L 350.236317 -80.787842 
L 341.799023 -79.673444 
L 333.361729 -78.55835 
L 324.924436 -77.442558 
L 316.487142 -76.326069 
L 308.049848 -75.208884 
L 299.612554 -74.091002 
L 291.17526 -72.972425 
L 282.737967 -71.853151 
L 274.300673 -70.733183 
L 265.863379 -69.612519 
L 257.426085 -68.491161 
L 248.988791 -67.369109 
L 240.551498 -66.246363 
L 232.114204 -65.122924 
L 223.67691 -63.998792 
L 215.239616 -62.873969 
L 206.802322 -61.748454 
L 198.365029 -60.62225 
L 189.927735 -59.495356 
L 181.490441 -58.367773 
L 173.053147 -57.239505 
L 164.615853 -56.11055 
L 156.17856 -54.980913 
L 147.741266 -53.850594 
L 139.303972 -52.719596 
L 130.866678 -51.587923 
L 122.429384 -50.455579 
L 113.992091 -49.322569 
L 105.554797 -48.188899 
L 97.117503 -47.05458 
L 88.680209 -45.919626 
L 80.242915 -44.784057 
L 71.805622 -43.647908 
L 63.368328 -42.511251 
z
" style="stroke: #1e90ff; stroke-opacity: 0.3"/>
    </defs>
    <g clip-path="url(#p80582f0e73)">
     <use xlink:href="#m6882842d54" x="0" y="151.115386" style="fill: #1e90ff; fill-opacity: 0.3; stroke: #1e90ff; stroke-opacity: 0.3"/>
    </g>
   </g>
   <g id="PathCollection_1">
    <defs>
     <path id="m0e2e8964c7" d="M 0 -2.236068 
L -2.236068 2.236068 
L 2.236068 2.236068 
z
" style="stroke: #1e90ff; stroke-opacity: 0.7"/>
    </defs>
    <g clip-path="url(#p80582f0e73)">
     <use xlink:href="#m0e2e8964c7" x="63.368328" y="108.246724" style="fill: #1e90ff; fill-opacity: 0.7; stroke: #1e90ff; stroke-opacity: 0.7"/>
     <use xlink:href="#m0e2e8964c7" x="71.805622" y="107.840545" style="fill: #1e90ff; fill-opacity: 0.7; stroke: #1e90ff; stroke-opacity: 0.7"/>
     <use xlink:href="#m0e2e8964c7" x="80.242915" y="105.494284" style="fill: #1e90ff; fill-opacity: 0.7; stroke: #1e90ff; stroke-opacity: 0.7"/>
     <use xlink:href="#m0e2e8964c7" x="88.680209" y="105.348754" style="fill: #1e90ff; fill-opacity: 0.7; stroke: #1e90ff; stroke-opacity: 0.7"/>
     <use xlink:href="#m0e2e8964c7" x="97.117503" y="103.028575" style="fill: #1e90ff; fill-opacity: 0.7; stroke: #1e90ff; stroke-opacity: 0.7"/>
     <use xlink:href="#m0e2e8964c7" x="105.554797" y="102.912797" style="fill: #1e90ff; fill-opacity: 0.7; stroke: #1e90ff; stroke-opacity: 0.7"/>
     <use xlink:href="#m0e2e8964c7" x="113.992091" y="101.765217" style="fill: #1e90ff; fill-opacity: 0.7; stroke: #1e90ff; stroke-opacity: 0.7"/>
     <use xlink:href="#m0e2e8964c7" x="122.429384" y="100.573804" style="fill: #1e90ff; fill-opacity: 0.7; stroke: #1e90ff; stroke-opacity: 0.7"/>
     <use xlink:href="#m0e2e8964c7" x="130.866678" y="99.211582" style="fill: #1e90ff; fill-opacity: 0.7; stroke: #1e90ff; stroke-opacity: 0.7"/>
     <use xlink:href="#m0e2e8964c7" x="139.303972" y="98.243612" style="fill: #1e90ff; fill-opacity: 0.7; stroke: #1e90ff; stroke-opacity: 0.7"/>
     <use xlink:href="#m0e2e8964c7" x="147.741266" y="97.322054" style="fill: #1e90ff; fill-opacity: 0.7; stroke: #1e90ff; stroke-opacity: 0.7"/>
     <use xlink:href="#m0e2e8964c7" x="156.17856" y="95.633416" style="fill: #1e90ff; fill-opacity: 0.7; stroke: #1e90ff; stroke-opacity: 0.7"/>
     <use xlink:href="#m0e2e8964c7" x="164.615853" y="95.38234" style="fill: #1e90ff; fill-opacity: 0.7; stroke: #1e90ff; stroke-opacity: 0.7"/>
     <use xlink:href="#m0e2e8964c7" x="173.053147" y="93.292245" style="fill: #1e90ff; fill-opacity: 0.7; stroke: #1e90ff; stroke-opacity: 0.7"/>
     <use xlink:href="#m0e2e8964c7" x="181.490441" y="92.790175" style="fill: #1e90ff; fill-opacity: 0.7; stroke: #1e90ff; stroke-opacity: 0.7"/>
     <use xlink:href="#m0e2e8964c7" x="189.927735" y="91.674674" style="fill: #1e90ff; fill-opacity: 0.7; stroke: #1e90ff; stroke-opacity: 0.7"/>
     <use xlink:href="#m0e2e8964c7" x="198.365029" y="90.261844" style="fill: #1e90ff; fill-opacity: 0.7; stroke: #1e90ff; stroke-opacity: 0.7"/>
     <use xlink:href="#m0e2e8964c7" x="206.802322" y="89.712336" style="fill: #1e90ff; fill-opacity: 0.7; stroke: #1e90ff; stroke-opacity: 0.7"/>
     <use xlink:href="#m0e2e8964c7" x="215.239616" y="87.95544" style="fill: #1e90ff; fill-opacity: 0.7; stroke: #1e90ff; stroke-opacity: 0.7"/>
     <use xlink:href="#m0e2e8964c7" x="223.67691" y="87.478592" style="fill: #1e90ff; fill-opacity: 0.7; stroke: #1e90ff; stroke-opacity: 0.7"/>
     <use xlink:href="#m0e2e8964c7" x="232.114204" y="85.829506" style="fill: #1e90ff; fill-opacity: 0.7; stroke: #1e90ff; stroke-opacity: 0.7"/>
     <use xlink:href="#m0e2e8964c7" x="240.551498" y="85.105709" style="fill: #1e90ff; fill-opacity: 0.7; stroke: #1e90ff; stroke-opacity: 0.7"/>
     <use xlink:href="#m0e2e8964c7" x="248.988791" y="83.69919" style="fill: #1e90ff; fill-opacity: 0.7; stroke: #1e90ff; stroke-opacity: 0.7"/>
     <use xlink:href="#m0e2e8964c7" x="257.426085" y="82.712942" style="fill: #1e90ff; fill-opacity: 0.7; stroke: #1e90ff; stroke-opacity: 0.7"/>
     <use xlink:href="#m0e2e8964c7" x="265.863379" y="81.502131" style="fill: #1e90ff; fill-opacity: 0.7; stroke: #1e90ff; stroke-opacity: 0.7"/>
     <use xlink:href="#m0e2e8964c7" x="274.300673" y="80.329531" style="fill: #1e90ff; fill-opacity: 0.7; stroke: #1e90ff; stroke-opacity: 0.7"/>
     <use xlink:href="#m0e2e8964c7" x="282.737967" y="79.382191" style="fill: #1e90ff; fill-opacity: 0.7; stroke: #1e90ff; stroke-opacity: 0.7"/>
     <use xlink:href="#m0e2e8964c7" x="291.17526" y="77.988963" style="fill: #1e90ff; fill-opacity: 0.7; stroke: #1e90ff; stroke-opacity: 0.7"/>
     <use xlink:href="#m0e2e8964c7" x="299.612554" y="77.263026" style="fill: #1e90ff; fill-opacity: 0.7; stroke: #1e90ff; stroke-opacity: 0.7"/>
     <use xlink:href="#m0e2e8964c7" x="308.049848" y="75.745078" style="fill: #1e90ff; fill-opacity: 0.7; stroke: #1e90ff; stroke-opacity: 0.7"/>
     <use xlink:href="#m0e2e8964c7" x="316.487142" y="75.023702" style="fill: #1e90ff; fill-opacity: 0.7; stroke: #1e90ff; stroke-opacity: 0.7"/>
     <use xlink:href="#m0e2e8964c7" x="324.924436" y="73.551711" style="fill: #1e90ff; fill-opacity: 0.7; stroke: #1e90ff; stroke-opacity: 0.7"/>
     <use xlink:href="#m0e2e8964c7" x="333.361729" y="72.713596" style="fill: #1e90ff; fill-opacity: 0.7; stroke: #1e90ff; stroke-opacity: 0.7"/>
     <use xlink:href="#m0e2e8964c7" x="341.799023" y="71.385222" style="fill: #1e90ff; fill-opacity: 0.7; stroke: #1e90ff; stroke-opacity: 0.7"/>
     <use xlink:href="#m0e2e8964c7" x="350.236317" y="70.362309" style="fill: #1e90ff; fill-opacity: 0.7; stroke: #1e90ff; stroke-opacity: 0.7"/>
     <use xlink:href="#m0e2e8964c7" x="358.673611" y="69.254561" style="fill: #1e90ff; fill-opacity: 0.7; stroke: #1e90ff; stroke-opacity: 0.7"/>
     <use xlink:href="#m0e2e8964c7" x="367.110904" y="68.045632" style="fill: #1e90ff; fill-opacity: 0.7; stroke: #1e90ff; stroke-opacity: 0.7"/>
     <use xlink:href="#m0e2e8964c7" x="375.548198" y="67.115506" style="fill: #1e90ff; fill-opacity: 0.7; stroke: #1e90ff; stroke-opacity: 0.7"/>
     <use xlink:href="#m0e2e8964c7" x="383.985492" y="65.774484" style="fill: #1e90ff; fill-opacity: 0.7; stroke: #1e90ff; stroke-opacity: 0.7"/>
     <use xlink:href="#m0e2e8964c7" x="392.422786" y="64.942774" style="fill: #1e90ff; fill-opacity: 0.7; stroke: #1e90ff; stroke-opacity: 0.7"/>
     <use xlink:href="#m0e2e8964c7" x="400.86008" y="63.527641" style="fill: #1e90ff; fill-opacity: 0.7; stroke: #1e90ff; stroke-opacity: 0.7"/>
     <use xlink:href="#m0e2e8964c7" x="409.297373" y="62.714527" style="fill: #1e90ff; fill-opacity: 0.7; stroke: #1e90ff; stroke-opacity: 0.7"/>
     <use xlink:href="#m0e2e8964c7" x="417.734667" y="61.306685" style="fill: #1e90ff; fill-opacity: 0.7; stroke: #1e90ff; stroke-opacity: 0.7"/>
     <use xlink:href="#m0e2e8964c7" x="426.171961" y="60.43918" style="fill: #1e90ff; fill-opacity: 0.7; stroke: #1e90ff; stroke-opacity: 0.7"/>
     <use xlink:href="#m0e2e8964c7" x="434.609255" y="59.103343" style="fill: #1e90ff; fill-opacity: 0.7; stroke: #1e90ff; stroke-opacity: 0.7"/>
     <use xlink:href="#m0e2e8964c7" x="443.046549" y="58.150629" style="fill: #1e90ff; fill-opacity: 0.7; stroke: #1e90ff; stroke-opacity: 0.7"/>
     <use xlink:href="#m0e2e8964c7" x="451.483842" y="56.918306" style="fill: #1e90ff; fill-opacity: 0.7; stroke: #1e90ff; stroke-opacity: 0.7"/>
     <use xlink:href="#m0e2e8964c7" x="459.921136" y="55.861373" style="fill: #1e90ff; fill-opacity: 0.7; stroke: #1e90ff; stroke-opacity: 0.7"/>
     <use xlink:href="#m0e2e8964c7" x="468.35843" y="54.778489" style="fill: #1e90ff; fill-opacity: 0.7; stroke: #1e90ff; stroke-opacity: 0.7"/>
     <use xlink:href="#m0e2e8964c7" x="476.795724" y="53.576429" style="fill: #1e90ff; fill-opacity: 0.7; stroke: #1e90ff; stroke-opacity: 0.7"/>
     <use xlink:href="#m0e2e8964c7" x="485.233018" y="52.662256" style="fill: #1e90ff; fill-opacity: 0.7; stroke: #1e90ff; stroke-opacity: 0.7"/>
     <use xlink:href="#m0e2e8964c7" x="493.670311" y="51.31737" style="fill: #1e90ff; fill-opacity: 0.7; stroke: #1e90ff; stroke-opacity: 0.7"/>
     <use xlink:href="#m0e2e8964c7" x="502.107605" y="50.494765" style="fill: #1e90ff; fill-opacity: 0.7; stroke: #1e90ff; stroke-opacity: 0.7"/>
     <use xlink:href="#m0e2e8964c7" x="510.544899" y="49.093509" style="fill: #1e90ff; fill-opacity: 0.7; stroke: #1e90ff; stroke-opacity: 0.7"/>
     <use xlink:href="#m0e2e8964c7" x="518.982193" y="48.27351" style="fill: #1e90ff; fill-opacity: 0.7; stroke: #1e90ff; stroke-opacity: 0.7"/>
     <use xlink:href="#m0e2e8964c7" x="527.419487" y="46.8924" style="fill: #1e90ff; fill-opacity: 0.7; stroke: #1e90ff; stroke-opacity: 0.7"/>
     <use xlink:href="#m0e2e8964c7" x="535.85678" y="46.017576" style="fill: #1e90ff; fill-opacity: 0.7; stroke: #1e90ff; stroke-opacity: 0.7"/>
     <use xlink:href="#m0e2e8964c7" x="544.294074" y="44.711537" style="fill: #1e90ff; fill-opacity: 0.7; stroke: #1e90ff; stroke-opacity: 0.7"/>
     <use xlink:href="#m0e2e8964c7" x="552.731368" y="43.735799" style="fill: #1e90ff; fill-opacity: 0.7; stroke: #1e90ff; stroke-opacity: 0.7"/>
    </g>
   </g>
   <g id="FillBetweenPolyCollection_2">
    <defs>
     <path id="m0d7c4a3ecb" d="M 63.368328 -43.55941 
L 63.368328 -43.574411 
L 71.805622 -45.239122 
L 80.242915 -46.902893 
L 88.680209 -48.565819 
L 97.117503 -50.22795 
L 105.554797 -51.889314 
L 113.992091 -53.54993 
L 122.429384 -55.209812 
L 130.866678 -56.868969 
L 139.303972 -58.527409 
L 147.741266 -60.185136 
L 156.17856 -61.842155 
L 164.615853 -63.498471 
L 173.053147 -65.154085 
L 181.490441 -66.809001 
L 189.927735 -68.463221 
L 198.365029 -70.116745 
L 206.802322 -71.769577 
L 215.239616 -73.421717 
L 223.67691 -75.073166 
L 232.114204 -76.723926 
L 240.551498 -78.373997 
L 248.988791 -80.02338 
L 257.426085 -81.672077 
L 265.863379 -83.320087 
L 274.300673 -84.967411 
L 282.737967 -86.61405 
L 291.17526 -88.260004 
L 299.612554 -89.905274 
L 308.049848 -91.549859 
L 316.487142 -93.193762 
L 324.924436 -94.836981 
L 333.361729 -96.479518 
L 341.799023 -98.121372 
L 350.236317 -99.762544 
L 358.673611 -101.403034 
L 367.110904 -103.042842 
L 375.548198 -104.681969 
L 383.985492 -106.320414 
L 392.422786 -107.958179 
L 400.86008 -109.595262 
L 409.297373 -111.231665 
L 417.734667 -112.867388 
L 426.171961 -114.50243 
L 434.609255 -116.136791 
L 443.046549 -117.770473 
L 451.483842 -119.403475 
L 459.921136 -121.035797 
L 468.35843 -122.667439 
L 476.795724 -124.298402 
L 485.233018 -125.928685 
L 493.670311 -127.558289 
L 502.107605 -129.187213 
L 510.544899 -130.815459 
L 518.982193 -132.443025 
L 527.419487 -134.069912 
L 535.85678 -135.69612 
L 544.294074 -137.32165 
L 552.731368 -138.946501 
L 552.731368 -138.863259 
L 552.731368 -138.863259 
L 544.294074 -137.239123 
L 535.85678 -135.614314 
L 527.419487 -133.988832 
L 518.982193 -132.362677 
L 510.544899 -130.735849 
L 502.107605 -129.108348 
L 493.670311 -127.480175 
L 485.233018 -125.851329 
L 476.795724 -124.22181 
L 468.35843 -122.591619 
L 459.921136 -120.960755 
L 451.483842 -119.329219 
L 443.046549 -117.697012 
L 434.609255 -116.064132 
L 426.171961 -114.43058 
L 417.734667 -112.796357 
L 409.297373 -111.161462 
L 400.86008 -109.525896 
L 392.422786 -107.889658 
L 383.985492 -106.25275 
L 375.548198 -104.61517 
L 367.110904 -102.97692 
L 358.673611 -101.338 
L 350.236317 -99.698409 
L 341.799023 -98.058148 
L 333.361729 -96.417218 
L 324.924436 -94.775618 
L 316.487142 -93.133349 
L 308.049848 -91.490412 
L 299.612554 -89.846805 
L 291.17526 -88.202531 
L 282.737967 -86.557589 
L 274.300673 -84.91198 
L 265.863379 -83.265705 
L 257.426085 -81.618763 
L 248.988791 -79.971156 
L 240.551498 -78.322883 
L 232.114204 -76.673947 
L 223.67691 -75.024347 
L 215.239616 -73.374085 
L 206.802322 -71.723162 
L 198.365029 -70.071579 
L 189.927735 -68.419336 
L 181.490441 -66.766437 
L 173.053147 -65.112882 
L 164.615853 -63.458673 
L 156.17856 -61.803814 
L 147.741266 -60.148307 
L 139.303972 -58.492156 
L 130.866678 -56.835365 
L 122.429384 -55.177939 
L 113.992091 -53.519887 
L 105.554797 -51.861217 
L 97.117503 -50.201943 
L 88.680209 -48.542084 
L 80.242915 -46.881668 
L 71.805622 -45.220745 
L 63.368328 -43.55941 
z
" style="stroke: #32cd32; stroke-opacity: 0.3"/>
    </defs>
    <g clip-path="url(#p80582f0e73)">
     <use xlink:href="#m0d7c4a3ecb" x="0" y="151.115386" style="fill: #32cd32; fill-opacity: 0.3; stroke: #32cd32; stroke-opacity: 0.3"/>
    </g>
   </g>
   <g id="PathCollection_2">
    <defs>
     <path id="mf80f12d9de" d="M 0 2.236068 
C 0.593012 2.236068 1.161816 2.000462 1.581139 1.581139 
C 2.000462 1.161816 2.236068 0.593012 2.236068 0 
C 2.236068 -0.593012 2.000462 -1.161816 1.581139 -1.581139 
C 1.161816 -2.000462 0.593012 -2.236068 0 -2.236068 
C -0.593012 -2.236068 -1.161816 -2.000462 -1.581139 -1.581139 
C -2.000462 -1.161816 -2.236068 -0.593012 -2.236068 0 
C -2.236068 0.593012 -2.000462 1.161816 -1.581139 1.581139 
C -1.161816 2.000462 -0.593012 2.236068 0 2.236068 
z
" style="stroke: #32cd32; stroke-opacity: 0.7"/>
    </defs>
    <g clip-path="url(#p80582f0e73)">
     <use xlink:href="#mf80f12d9de" x="63.368328" y="106.031589" style="fill: #32cd32; fill-opacity: 0.7; stroke: #32cd32; stroke-opacity: 0.7"/>
     <use xlink:href="#mf80f12d9de" x="71.805622" y="104.930366" style="fill: #32cd32; fill-opacity: 0.7; stroke: #32cd32; stroke-opacity: 0.7"/>
     <use xlink:href="#mf80f12d9de" x="80.242915" y="103.10616" style="fill: #32cd32; fill-opacity: 0.7; stroke: #32cd32; stroke-opacity: 0.7"/>
     <use xlink:href="#mf80f12d9de" x="88.680209" y="101.778205" style="fill: #32cd32; fill-opacity: 0.7; stroke: #32cd32; stroke-opacity: 0.7"/>
     <use xlink:href="#mf80f12d9de" x="97.117503" y="100.096128" style="fill: #32cd32; fill-opacity: 0.7; stroke: #32cd32; stroke-opacity: 0.7"/>
     <use xlink:href="#mf80f12d9de" x="105.554797" y="98.644439" style="fill: #32cd32; fill-opacity: 0.7; stroke: #32cd32; stroke-opacity: 0.7"/>
     <use xlink:href="#mf80f12d9de" x="113.992091" y="97.014616" style="fill: #32cd32; fill-opacity: 0.7; stroke: #32cd32; stroke-opacity: 0.7"/>
     <use xlink:href="#mf80f12d9de" x="122.429384" y="95.492781" style="fill: #32cd32; fill-opacity: 0.7; stroke: #32cd32; stroke-opacity: 0.7"/>
     <use xlink:href="#mf80f12d9de" x="130.866678" y="93.883802" style="fill: #32cd32; fill-opacity: 0.7; stroke: #32cd32; stroke-opacity: 0.7"/>
     <use xlink:href="#mf80f12d9de" x="139.303972" y="92.317506" style="fill: #32cd32; fill-opacity: 0.7; stroke: #32cd32; stroke-opacity: 0.7"/>
     <use xlink:href="#mf80f12d9de" x="147.741266" y="90.714902" style="fill: #32cd32; fill-opacity: 0.7; stroke: #32cd32; stroke-opacity: 0.7"/>
     <use xlink:href="#mf80f12d9de" x="156.17856" y="89.118975" style="fill: #32cd32; fill-opacity: 0.7; stroke: #32cd32; stroke-opacity: 0.7"/>
     <use xlink:href="#mf80f12d9de" x="164.615853" y="87.515868" style="fill: #32cd32; fill-opacity: 0.7; stroke: #32cd32; stroke-opacity: 0.7"/>
     <use xlink:href="#mf80f12d9de" x="173.053147" y="85.899638" style="fill: #32cd32; fill-opacity: 0.7; stroke: #32cd32; stroke-opacity: 0.7"/>
     <use xlink:href="#mf80f12d9de" x="181.490441" y="84.291468" style="fill: #32cd32; fill-opacity: 0.7; stroke: #32cd32; stroke-opacity: 0.7"/>
     <use xlink:href="#mf80f12d9de" x="189.927735" y="82.6622" style="fill: #32cd32; fill-opacity: 0.7; stroke: #32cd32; stroke-opacity: 0.7"/>
     <use xlink:href="#mf80f12d9de" x="198.365029" y="81.047493" style="fill: #32cd32; fill-opacity: 0.7; stroke: #32cd32; stroke-opacity: 0.7"/>
     <use xlink:href="#mf80f12d9de" x="206.802322" y="79.40901" style="fill: #32cd32; fill-opacity: 0.7; stroke: #32cd32; stroke-opacity: 0.7"/>
     <use xlink:href="#mf80f12d9de" x="215.239616" y="77.787671" style="fill: #32cd32; fill-opacity: 0.7; stroke: #32cd32; stroke-opacity: 0.7"/>
     <use xlink:href="#mf80f12d9de" x="223.67691" y="76.144844" style="fill: #32cd32; fill-opacity: 0.7; stroke: #32cd32; stroke-opacity: 0.7"/>
     <use xlink:href="#mf80f12d9de" x="232.114204" y="74.516296" style="fill: #32cd32; fill-opacity: 0.7; stroke: #32cd32; stroke-opacity: 0.7"/>
     <use xlink:href="#mf80f12d9de" x="240.551498" y="72.870756" style="fill: #32cd32; fill-opacity: 0.7; stroke: #32cd32; stroke-opacity: 0.7"/>
     <use xlink:href="#mf80f12d9de" x="248.988791" y="71.237389" style="fill: #32cd32; fill-opacity: 0.7; stroke: #32cd32; stroke-opacity: 0.7"/>
     <use xlink:href="#mf80f12d9de" x="257.426085" y="69.591343" style="fill: #32cd32; fill-opacity: 0.7; stroke: #32cd32; stroke-opacity: 0.7"/>
     <use xlink:href="#mf80f12d9de" x="265.863379" y="67.953543" style="fill: #32cd32; fill-opacity: 0.7; stroke: #32cd32; stroke-opacity: 0.7"/>
     <use xlink:href="#mf80f12d9de" x="274.300673" y="66.307851" style="fill: #32cd32; fill-opacity: 0.7; stroke: #32cd32; stroke-opacity: 0.7"/>
     <use xlink:href="#mf80f12d9de" x="282.737967" y="64.66744" style="fill: #32cd32; fill-opacity: 0.7; stroke: #32cd32; stroke-opacity: 0.7"/>
     <use xlink:href="#mf80f12d9de" x="291.17526" y="63.021054" style="fill: #32cd32; fill-opacity: 0.7; stroke: #32cd32; stroke-opacity: 0.7"/>
     <use xlink:href="#mf80f12d9de" x="299.612554" y="61.378649" style="fill: #32cd32; fill-opacity: 0.7; stroke: #32cd32; stroke-opacity: 0.7"/>
     <use xlink:href="#mf80f12d9de" x="308.049848" y="59.733836" style="fill: #32cd32; fill-opacity: 0.7; stroke: #32cd32; stroke-opacity: 0.7"/>
     <use xlink:href="#mf80f12d9de" x="316.487142" y="58.090203" style="fill: #32cd32; fill-opacity: 0.7; stroke: #32cd32; stroke-opacity: 0.7"/>
     <use xlink:href="#mf80f12d9de" x="324.924436" y="56.445458" style="fill: #32cd32; fill-opacity: 0.7; stroke: #32cd32; stroke-opacity: 0.7"/>
     <use xlink:href="#mf80f12d9de" x="333.361729" y="54.800783" style="fill: #32cd32; fill-opacity: 0.7; stroke: #32cd32; stroke-opacity: 0.7"/>
     <use xlink:href="#mf80f12d9de" x="341.799023" y="53.157554" style="fill: #32cd32; fill-opacity: 0.7; stroke: #32cd32; stroke-opacity: 0.7"/>
     <use xlink:href="#mf80f12d9de" x="350.236317" y="51.511753" style="fill: #32cd32; fill-opacity: 0.7; stroke: #32cd32; stroke-opacity: 0.7"/>
     <use xlink:href="#mf80f12d9de" x="358.673611" y="49.867765" style="fill: #32cd32; fill-opacity: 0.7; stroke: #32cd32; stroke-opacity: 0.7"/>
     <use xlink:href="#mf80f12d9de" x="367.110904" y="48.223024" style="fill: #32cd32; fill-opacity: 0.7; stroke: #32cd32; stroke-opacity: 0.7"/>
     <use xlink:href="#mf80f12d9de" x="375.548198" y="46.578033" style="fill: #32cd32; fill-opacity: 0.7; stroke: #32cd32; stroke-opacity: 0.7"/>
     <use xlink:href="#mf80f12d9de" x="383.985492" y="44.934463" style="fill: #32cd32; fill-opacity: 0.7; stroke: #32cd32; stroke-opacity: 0.7"/>
     <use xlink:href="#mf80f12d9de" x="392.422786" y="43.290486" style="fill: #32cd32; fill-opacity: 0.7; stroke: #32cd32; stroke-opacity: 0.7"/>
     <use xlink:href="#mf80f12d9de" x="400.86008" y="41.643149" style="fill: #32cd32; fill-opacity: 0.7; stroke: #32cd32; stroke-opacity: 0.7"/>
     <use xlink:href="#mf80f12d9de" x="409.297373" y="39.999555" style="fill: #32cd32; fill-opacity: 0.7; stroke: #32cd32; stroke-opacity: 0.7"/>
     <use xlink:href="#mf80f12d9de" x="417.734667" y="38.356013" style="fill: #32cd32; fill-opacity: 0.7; stroke: #32cd32; stroke-opacity: 0.7"/>
     <use xlink:href="#mf80f12d9de" x="426.171961" y="36.710824" style="fill: #32cd32; fill-opacity: 0.7; stroke: #32cd32; stroke-opacity: 0.7"/>
     <use xlink:href="#mf80f12d9de" x="434.609255" y="35.06504" style="fill: #32cd32; fill-opacity: 0.7; stroke: #32cd32; stroke-opacity: 0.7"/>
     <use xlink:href="#mf80f12d9de" x="443.046549" y="33.42088" style="fill: #32cd32; fill-opacity: 0.7; stroke: #32cd32; stroke-opacity: 0.7"/>
     <use xlink:href="#mf80f12d9de" x="451.483842" y="31.77635" style="fill: #32cd32; fill-opacity: 0.7; stroke: #32cd32; stroke-opacity: 0.7"/>
     <use xlink:href="#mf80f12d9de" x="459.921136" y="30.129194" style="fill: #32cd32; fill-opacity: 0.7; stroke: #32cd32; stroke-opacity: 0.7"/>
     <use xlink:href="#mf80f12d9de" x="468.35843" y="28.485686" style="fill: #32cd32; fill-opacity: 0.7; stroke: #32cd32; stroke-opacity: 0.7"/>
     <use xlink:href="#mf80f12d9de" x="476.795724" y="26.839319" style="fill: #32cd32; fill-opacity: 0.7; stroke: #32cd32; stroke-opacity: 0.7"/>
     <use xlink:href="#mf80f12d9de" x="485.233018" y="25.192846" style="fill: #32cd32; fill-opacity: 0.7; stroke: #32cd32; stroke-opacity: 0.7"/>
     <use xlink:href="#mf80f12d9de" x="493.670311" y="23.547364" style="fill: #32cd32; fill-opacity: 0.7; stroke: #32cd32; stroke-opacity: 0.7"/>
     <use xlink:href="#mf80f12d9de" x="502.107605" y="21.901692" style="fill: #32cd32; fill-opacity: 0.7; stroke: #32cd32; stroke-opacity: 0.7"/>
     <use xlink:href="#mf80f12d9de" x="510.544899" y="20.256856" style="fill: #32cd32; fill-opacity: 0.7; stroke: #32cd32; stroke-opacity: 0.7"/>
     <use xlink:href="#mf80f12d9de" x="518.982193" y="18.611994" style="fill: #32cd32; fill-opacity: 0.7; stroke: #32cd32; stroke-opacity: 0.7"/>
     <use xlink:href="#mf80f12d9de" x="527.419487" y="16.964238" style="fill: #32cd32; fill-opacity: 0.7; stroke: #32cd32; stroke-opacity: 0.7"/>
     <use xlink:href="#mf80f12d9de" x="535.85678" y="15.319673" style="fill: #32cd32; fill-opacity: 0.7; stroke: #32cd32; stroke-opacity: 0.7"/>
     <use xlink:href="#mf80f12d9de" x="544.294074" y="13.677144" style="fill: #32cd32; fill-opacity: 0.7; stroke: #32cd32; stroke-opacity: 0.7"/>
     <use xlink:href="#mf80f12d9de" x="552.731368" y="12.028768" style="fill: #32cd32; fill-opacity: 0.7; stroke: #32cd32; stroke-opacity: 0.7"/>
    </g>
   </g>
   <g id="matplotlib.axis_1">
    <g id="xtick_1">
     <g id="line2d_1">
      <defs>
       <path id="macf0f1c543" d="M 0 0 
L 0 3.5 
" style="stroke: #000000; stroke-width: 0.8"/>
      </defs>
      <g>
       <use xlink:href="#macf0f1c543" x="46.49374" y="113.432903" style="stroke: #000000; stroke-width: 0.8"/>
      </g>
     </g>
     <g id="text_1">
      <!-- $\mathdefault{0}$ -->
      <g transform="translate(43.754007 128.04325) scale(0.11 -0.11)">
       <defs>
        <path id="CMR17-30" d="M 2688 2025 
C 2688 2416 2682 3080 2413 3591 
C 2176 4039 1798 4198 1466 4198 
C 1158 4198 768 4058 525 3597 
C 269 3118 243 2524 243 2025 
C 243 1661 250 1106 448 619 
C 723 -39 1216 -128 1466 -128 
C 1760 -128 2208 -7 2470 600 
C 2662 1042 2688 1559 2688 2025 
z
M 1466 -26 
C 1056 -26 813 325 723 812 
C 653 1188 653 1738 653 2096 
C 653 2588 653 2997 736 3387 
C 858 3929 1216 4096 1466 4096 
C 1728 4096 2067 3923 2189 3400 
C 2272 3036 2278 2607 2278 2096 
C 2278 1680 2278 1169 2202 792 
C 2067 95 1690 -26 1466 -26 
z
" transform="scale(0.015625)"/>
       </defs>
       <use xlink:href="#CMR17-30" transform="scale(0.996264)"/>
      </g>
     </g>
    </g>
    <g id="xtick_2">
     <g id="line2d_2">
      <g>
       <use xlink:href="#macf0f1c543" x="130.866678" y="113.432903" style="stroke: #000000; stroke-width: 0.8"/>
      </g>
     </g>
     <g id="text_2">
      <!-- $\mathdefault{10}$ -->
      <g transform="translate(125.387211 128.04325) scale(0.11 -0.11)">
       <defs>
        <path id="CMR17-31" d="M 1702 4058 
C 1702 4192 1696 4192 1606 4192 
C 1357 3916 979 3827 621 3827 
C 602 3827 570 3827 563 3808 
C 557 3795 557 3782 557 3648 
C 755 3648 1088 3686 1344 3839 
L 1344 461 
C 1344 236 1331 160 781 160 
L 589 160 
L 589 0 
C 896 0 1216 0 1523 0 
C 1830 0 2150 0 2458 0 
L 2458 160 
L 2266 160 
C 1715 160 1702 230 1702 458 
L 1702 4058 
z
" transform="scale(0.015625)"/>
       </defs>
       <use xlink:href="#CMR17-31" transform="scale(0.996264)"/>
       <use xlink:href="#CMR17-30" transform="translate(45.690477 0) scale(0.996264)"/>
      </g>
     </g>
    </g>
    <g id="xtick_3">
     <g id="line2d_3">
      <g>
       <use xlink:href="#macf0f1c543" x="215.239616" y="113.432903" style="stroke: #000000; stroke-width: 0.8"/>
      </g>
     </g>
     <g id="text_3">
      <!-- $\mathdefault{20}$ -->
      <g transform="translate(209.760149 128.04325) scale(0.11 -0.11)">
       <defs>
        <path id="CMR17-32" d="M 2669 989 
L 2554 989 
C 2490 536 2438 459 2413 420 
C 2381 369 1920 369 1830 369 
L 602 369 
C 832 619 1280 1072 1824 1597 
C 2214 1967 2669 2402 2669 3035 
C 2669 3790 2067 4224 1395 4224 
C 691 4224 262 3604 262 3030 
C 262 2780 448 2748 525 2748 
C 589 2748 781 2787 781 3010 
C 781 3207 614 3264 525 3264 
C 486 3264 448 3258 422 3245 
C 544 3790 915 4058 1306 4058 
C 1862 4058 2227 3617 2227 3035 
C 2227 2479 1901 2000 1536 1584 
L 262 146 
L 262 0 
L 2515 0 
L 2669 989 
z
" transform="scale(0.015625)"/>
       </defs>
       <use xlink:href="#CMR17-32" transform="scale(0.996264)"/>
       <use xlink:href="#CMR17-30" transform="translate(45.690477 0) scale(0.996264)"/>
      </g>
     </g>
    </g>
    <g id="xtick_4">
     <g id="line2d_4">
      <g>
       <use xlink:href="#macf0f1c543" x="299.612554" y="113.432903" style="stroke: #000000; stroke-width: 0.8"/>
      </g>
     </g>
     <g id="text_4">
      <!-- $\mathdefault{30}$ -->
      <g transform="translate(294.133087 128.04325) scale(0.11 -0.11)">
       <defs>
        <path id="CMR17-33" d="M 1414 2157 
C 1984 2157 2234 1662 2234 1090 
C 2234 320 1824 25 1453 25 
C 1114 25 563 194 390 693 
C 422 680 454 680 486 680 
C 640 680 755 782 755 948 
C 755 1133 614 1216 486 1216 
C 378 1216 211 1165 211 926 
C 211 335 787 -128 1466 -128 
C 2176 -128 2720 430 2720 1085 
C 2720 1707 2208 2157 1600 2227 
C 2086 2328 2554 2756 2554 3329 
C 2554 3820 2048 4179 1472 4179 
C 890 4179 378 3829 378 3329 
C 378 3110 544 3072 627 3072 
C 762 3072 877 3155 877 3321 
C 877 3486 762 3569 627 3569 
C 602 3569 570 3569 544 3557 
C 730 3959 1235 4032 1459 4032 
C 1683 4032 2106 3925 2106 3320 
C 2106 3143 2080 2828 1862 2550 
C 1670 2304 1453 2304 1242 2284 
C 1210 2284 1062 2269 1037 2269 
C 992 2263 966 2257 966 2208 
C 966 2163 973 2157 1101 2157 
L 1414 2157 
z
" transform="scale(0.015625)"/>
       </defs>
       <use xlink:href="#CMR17-33" transform="scale(0.996264)"/>
       <use xlink:href="#CMR17-30" transform="translate(45.690477 0) scale(0.996264)"/>
      </g>
     </g>
    </g>
    <g id="xtick_5">
     <g id="line2d_5">
      <g>
       <use xlink:href="#macf0f1c543" x="383.985492" y="113.432903" style="stroke: #000000; stroke-width: 0.8"/>
      </g>
     </g>
     <g id="text_5">
      <!-- $\mathdefault{40}$ -->
      <g transform="translate(378.506025 128.04325) scale(0.11 -0.11)">
       <defs>
        <path id="CMR17-34" d="M 2150 4122 
C 2150 4256 2144 4256 2029 4256 
L 128 1254 
L 128 1088 
L 1779 1088 
L 1779 457 
C 1779 224 1766 160 1318 160 
L 1197 160 
L 1197 0 
C 1402 0 1747 0 1965 0 
C 2182 0 2528 0 2733 0 
L 2733 160 
L 2611 160 
C 2163 160 2150 224 2150 457 
L 2150 1088 
L 2803 1088 
L 2803 1254 
L 2150 1254 
L 2150 4122 
z
M 1798 3703 
L 1798 1254 
L 256 1254 
L 1798 3703 
z
" transform="scale(0.015625)"/>
       </defs>
       <use xlink:href="#CMR17-34" transform="scale(0.996264)"/>
       <use xlink:href="#CMR17-30" transform="translate(45.690477 0) scale(0.996264)"/>
      </g>
     </g>
    </g>
    <g id="xtick_6">
     <g id="line2d_6">
      <g>
       <use xlink:href="#macf0f1c543" x="468.35843" y="113.432903" style="stroke: #000000; stroke-width: 0.8"/>
      </g>
     </g>
     <g id="text_6">
      <!-- $\mathdefault{50}$ -->
      <g transform="translate(462.878963 128.04325) scale(0.11 -0.11)">
       <defs>
        <path id="CMR17-35" d="M 730 3692 
C 794 3666 1056 3584 1325 3584 
C 1920 3584 2246 3911 2432 4100 
C 2432 4157 2432 4192 2394 4192 
C 2387 4192 2374 4192 2323 4163 
C 2099 4058 1837 3973 1517 3973 
C 1325 3973 1037 3999 723 4139 
C 653 4171 640 4171 634 4171 
C 602 4171 595 4164 595 4037 
L 595 2203 
C 595 2089 595 2057 659 2057 
C 691 2057 704 2070 736 2114 
C 941 2401 1222 2522 1542 2522 
C 1766 2522 2246 2382 2246 1289 
C 2246 1085 2246 715 2054 421 
C 1894 159 1645 25 1370 25 
C 947 25 518 320 403 814 
C 429 807 480 795 506 795 
C 589 795 749 840 749 1038 
C 749 1210 627 1280 506 1280 
C 358 1280 262 1190 262 1011 
C 262 454 704 -128 1382 -128 
C 2042 -128 2669 440 2669 1264 
C 2669 2030 2170 2624 1549 2624 
C 1222 2624 947 2503 730 2274 
L 730 3692 
z
" transform="scale(0.015625)"/>
       </defs>
       <use xlink:href="#CMR17-35" transform="scale(0.996264)"/>
       <use xlink:href="#CMR17-30" transform="translate(45.690477 0) scale(0.996264)"/>
      </g>
     </g>
    </g>
    <g id="xtick_7">
     <g id="line2d_7">
      <g>
       <use xlink:href="#macf0f1c543" x="552.731368" y="113.432903" style="stroke: #000000; stroke-width: 0.8"/>
      </g>
     </g>
     <g id="text_7">
      <!-- $\mathdefault{60}$ -->
      <g transform="translate(547.251901 128.04325) scale(0.11 -0.11)">
       <defs>
        <path id="CMR17-36" d="M 678 2176 
C 678 3690 1395 4032 1811 4032 
C 1946 4032 2272 4009 2400 3776 
C 2298 3776 2106 3776 2106 3553 
C 2106 3381 2246 3323 2336 3323 
C 2394 3323 2566 3348 2566 3560 
C 2566 3954 2246 4179 1805 4179 
C 1043 4179 243 3390 243 1984 
C 243 253 966 -128 1478 -128 
C 2099 -128 2688 427 2688 1283 
C 2688 2081 2170 2662 1517 2662 
C 1126 2662 838 2407 678 1960 
L 678 2176 
z
M 1478 25 
C 691 25 691 1200 691 1436 
C 691 1896 909 2560 1504 2560 
C 1613 2560 1926 2560 2138 2120 
C 2253 1870 2253 1609 2253 1289 
C 2253 944 2253 690 2118 434 
C 1978 171 1773 25 1478 25 
z
" transform="scale(0.015625)"/>
       </defs>
       <use xlink:href="#CMR17-36" transform="scale(0.996264)"/>
       <use xlink:href="#CMR17-30" transform="translate(45.690477 0) scale(0.996264)"/>
      </g>
     </g>
    </g>
    <g id="text_8">
     <!-- N -->
     <g transform="translate(303.940251 141.784491) scale(0.11 -0.11)">
      <defs>
       <path id="CMR17-4e" d="M 1312 4250 
C 1267 4320 1261 4320 1139 4320 
L 326 4320 
L 326 4160 
L 448 4160 
C 704 4160 819 4129 838 4122 
L 838 610 
C 838 451 838 153 326 153 
L 326 -13 
C 474 0 742 0 902 0 
C 1062 0 1331 0 1478 -13 
L 1478 153 
C 966 153 966 451 966 610 
L 966 4033 
C 1011 3995 1011 3982 1056 3919 
L 3430 76 
C 3475 0 3494 0 3526 0 
C 3590 0 3590 19 3590 139 
L 3590 3705 
C 3590 3863 3590 4160 4102 4160 
L 4102 4326 
C 3955 4320 3686 4320 3526 4320 
C 3366 4320 3098 4320 2950 4326 
L 2950 4160 
C 3462 4160 3462 3862 3462 3703 
L 3462 763 
L 1312 4250 
z
" transform="scale(0.015625)"/>
      </defs>
      <use xlink:href="#CMR17-4e" transform="scale(0.996264)"/>
     </g>
    </g>
   </g>
   <g id="matplotlib.axis_2">
    <g id="ytick_1">
     <g id="line2d_8">
      <defs>
       <path id="m5976a31f94" d="M 0 0 
L -3.5 0 
" style="stroke: #000000; stroke-width: 0.8"/>
      </defs>
      <g>
       <use xlink:href="#m5976a31f94" x="38.900176" y="110.876548" style="stroke: #000000; stroke-width: 0.8"/>
      </g>
     </g>
     <g id="text_9">
      <!-- $\mathdefault{0}$ -->
      <g transform="translate(26.420709 114.681722) scale(0.11 -0.11)">
       <use xlink:href="#CMR17-30" transform="scale(0.996264)"/>
      </g>
     </g>
    </g>
    <g id="ytick_2">
     <g id="line2d_9">
      <g>
       <use xlink:href="#m5976a31f94" x="38.900176" y="79.954959" style="stroke: #000000; stroke-width: 0.8"/>
      </g>
     </g>
     <g id="text_10">
      <!-- $\mathdefault{20}$ -->
      <g transform="translate(20.941241 83.760132) scale(0.11 -0.11)">
       <use xlink:href="#CMR17-32" transform="scale(0.996264)"/>
       <use xlink:href="#CMR17-30" transform="translate(45.690477 0) scale(0.996264)"/>
      </g>
     </g>
    </g>
    <g id="ytick_3">
     <g id="line2d_10">
      <g>
       <use xlink:href="#m5976a31f94" x="38.900176" y="49.033369" style="stroke: #000000; stroke-width: 0.8"/>
      </g>
     </g>
     <g id="text_11">
      <!-- $\mathdefault{40}$ -->
      <g transform="translate(20.941241 52.838543) scale(0.11 -0.11)">
       <use xlink:href="#CMR17-34" transform="scale(0.996264)"/>
       <use xlink:href="#CMR17-30" transform="translate(45.690477 0) scale(0.996264)"/>
      </g>
     </g>
    </g>
    <g id="ytick_4">
     <g id="line2d_11">
      <g>
       <use xlink:href="#m5976a31f94" x="38.900176" y="18.11178" style="stroke: #000000; stroke-width: 0.8"/>
      </g>
     </g>
     <g id="text_12">
      <!-- $\mathdefault{60}$ -->
      <g transform="translate(20.941241 21.916953) scale(0.11 -0.11)">
       <use xlink:href="#CMR17-36" transform="scale(0.996264)"/>
       <use xlink:href="#CMR17-30" transform="translate(45.690477 0) scale(0.996264)"/>
      </g>
     </g>
    </g>
    <g id="text_13">
     <!-- Maximum in initial phase -->
     <g transform="translate(14.810347 121.99085) rotate(-90) scale(0.11 -0.11)">
      <defs>
       <path id="CMR17-4d" d="M 1338 4224 
C 1299 4320 1293 4320 1158 4320 
L 339 4320 
L 339 4160 
C 781 4160 851 4160 851 3875 
L 851 610 
C 851 451 851 153 339 153 
L 339 -13 
C 486 0 755 0 915 0 
C 1075 0 1344 0 1491 -13 
L 1491 153 
C 979 153 979 451 979 610 
L 979 4135 
L 986 4135 
L 2490 89 
C 2515 25 2528 -13 2579 -13 
C 2630 -13 2643 25 2669 89 
L 4186 4166 
L 4192 4166 
L 4192 438 
C 4192 153 4122 153 3680 153 
L 3680 -13 
C 3853 0 4198 0 4384 0 
C 4570 0 4922 0 5094 -13 
L 5094 153 
C 4653 153 4582 153 4582 438 
L 4582 3875 
C 4582 4160 4653 4160 5094 4160 
L 5094 4320 
L 4282 4320 
C 4147 4320 4141 4314 4102 4218 
L 2720 502 
L 1338 4224 
z
" transform="scale(0.015625)"/>
       <path id="CMR17-61" d="M 2304 1653 
C 2304 2072 2304 2294 2035 2543 
C 1798 2752 1523 2816 1306 2816 
C 800 2816 435 2407 435 1971 
C 435 1728 627 1728 666 1728 
C 749 1728 896 1778 896 1954 
C 896 2112 774 2181 666 2181 
C 640 2181 608 2174 589 2168 
C 723 2592 1069 2714 1293 2714 
C 1613 2714 1965 2429 1965 1885 
L 1965 1600 
C 1587 1600 1133 1549 774 1357 
C 371 1133 256 813 256 570 
C 256 77 832 -64 1171 -64 
C 1523 -64 1850 139 1990 511 
C 2003 233 2182 -18 2464 -18 
C 2598 -18 2938 70 2938 567 
L 2938 920 
L 2822 920 
L 2822 562 
C 2822 178 2650 128 2566 128 
C 2304 128 2304 458 2304 738 
L 2304 1653 
z
M 1965 870 
C 1965 317 1568 38 1216 38 
C 896 38 646 275 646 570 
C 646 761 730 1100 1101 1305 
C 1408 1478 1760 1504 1965 1504 
L 1965 870 
z
" transform="scale(0.015625)"/>
       <path id="CMR17-78" d="M 1664 1477 
C 1856 1726 2074 2006 2253 2216 
C 2464 2458 2707 2560 2989 2560 
L 2989 2726 
C 2880 2726 2656 2726 2541 2726 
C 2368 2726 2170 2726 2022 2732 
L 2022 2566 
C 2112 2553 2163 2489 2163 2400 
C 2163 2285 2099 2215 2067 2171 
L 1594 1573 
L 1030 2306 
C 973 2376 973 2388 973 2420 
C 973 2497 1037 2560 1146 2560 
L 1146 2732 
C 992 2726 717 2726 557 2726 
C 384 2726 179 2726 38 2732 
L 38 2560 
C 384 2560 461 2534 614 2343 
L 1350 1395 
C 1363 1382 1395 1344 1395 1325 
C 1395 1299 838 619 768 530 
C 480 185 179 160 6 160 
L 6 0 
C 115 0 339 0 454 0 
C 582 0 864 0 979 -6 
L 979 160 
C 941 166 838 179 838 325 
C 838 440 890 510 947 586 
L 1478 1236 
L 2035 512 
C 2086 442 2163 346 2163 301 
C 2163 211 2086 160 1984 160 
L 1984 -6 
C 2138 0 2413 0 2573 0 
C 2746 0 2950 0 3091 -6 
L 3091 160 
C 2771 160 2675 172 2522 370 
L 1664 1477 
z
" transform="scale(0.015625)"/>
       <path id="CMR17-69" d="M 992 3909 
C 992 4049 877 4170 730 4170 
C 589 4170 467 4056 467 3909 
C 467 3769 582 3648 730 3648 
C 870 3648 992 3763 992 3909 
z
M 243 2706 
L 243 2541 
C 602 2541 653 2502 653 2197 
L 653 427 
C 653 184 627 153 218 153 
L 218 -13 
C 371 0 646 0 806 0 
C 960 0 1222 0 1370 -13 
L 1370 153 
C 992 153 979 191 979 420 
L 979 2776 
L 243 2706 
z
" transform="scale(0.015625)"/>
       <path id="CMR17-6d" d="M 4326 1933 
C 4326 2252 4269 2790 3507 2790 
C 3072 2790 2771 2496 2656 2151 
L 2650 2151 
C 2573 2676 2195 2790 1837 2790 
C 1331 2790 1069 2400 973 2144 
L 966 2144 
L 966 2790 
L 211 2720 
L 211 2554 
C 589 2554 646 2515 646 2208 
L 646 428 
C 646 184 621 153 211 153 
L 211 -13 
C 365 0 646 0 813 0 
C 979 0 1267 0 1421 -13 
L 1421 153 
C 1011 153 986 178 986 428 
L 986 1658 
C 986 2247 1344 2688 1792 2688 
C 2266 2688 2317 2266 2317 1958 
L 2317 428 
C 2317 184 2291 153 1882 153 
L 1882 -13 
C 2035 0 2317 0 2483 0 
C 2650 0 2938 0 3091 -13 
L 3091 153 
C 2682 153 2656 178 2656 428 
L 2656 1658 
C 2656 2247 3014 2688 3462 2688 
C 3936 2688 3987 2266 3987 1958 
L 3987 428 
C 3987 184 3962 153 3552 153 
L 3552 -13 
C 3706 0 3987 0 4154 0 
C 4320 0 4608 0 4762 -13 
L 4762 153 
C 4352 153 4326 178 4326 428 
L 4326 1933 
z
" transform="scale(0.015625)"/>
       <path id="CMR17-75" d="M 1882 2693 
L 1882 2528 
C 2259 2528 2317 2489 2317 2186 
L 2317 1032 
C 2317 500 2029 38 1555 38 
C 1030 38 986 348 986 678 
L 986 2763 
L 211 2693 
L 211 2528 
C 467 2528 640 2528 646 2274 
L 646 1058 
C 646 633 646 361 813 183 
C 896 101 1056 -64 1517 -64 
C 2061 -64 2272 377 2323 506 
L 2330 506 
L 2330 -63 
L 3091 -63 
L 3091 128 
C 2714 128 2656 166 2656 473 
L 2656 2763 
L 1882 2693 
z
" transform="scale(0.015625)"/>
       <path id="CMR17-6e" d="M 2656 1933 
C 2656 2259 2592 2790 1837 2790 
C 1331 2790 1069 2400 973 2144 
L 966 2144 
L 966 2790 
L 211 2720 
L 211 2554 
C 589 2554 646 2515 646 2208 
L 646 428 
C 646 184 621 153 211 153 
L 211 -13 
C 365 0 646 0 813 0 
C 979 0 1267 0 1421 -13 
L 1421 153 
C 1011 153 986 178 986 428 
L 986 1658 
C 986 2247 1344 2688 1792 2688 
C 2266 2688 2317 2266 2317 1958 
L 2317 428 
C 2317 184 2291 153 1882 153 
L 1882 -13 
C 2035 0 2317 0 2483 0 
C 2650 0 2938 0 3091 -13 
L 3091 153 
C 2682 153 2656 178 2656 428 
L 2656 1933 
z
" transform="scale(0.015625)"/>
       <path id="CMR17-74" d="M 966 2560 
L 1862 2560 
L 1862 2725 
L 966 2725 
L 966 3904 
L 851 3904 
C 838 3245 614 2668 70 2668 
L 70 2560 
L 627 2560 
L 627 771 
C 627 650 627 -64 1370 -64 
C 1747 -64 1965 306 1965 777 
L 1965 1140 
L 1850 1140 
L 1850 783 
C 1850 344 1677 51 1408 51 
C 1222 51 966 178 966 758 
L 966 2560 
z
" transform="scale(0.015625)"/>
       <path id="CMR17-6c" d="M 979 4396 
L 218 4326 
L 218 4160 
C 595 4160 653 4122 653 3817 
L 653 426 
C 653 184 627 153 218 153 
L 218 -13 
C 371 0 653 0 813 0 
C 979 0 1261 0 1414 -13 
L 1414 153 
C 1005 153 979 178 979 426 
L 979 4396 
z
" transform="scale(0.015625)"/>
       <path id="CMR17-70" d="M 1408 -1063 
C 998 -1063 973 -1037 973 -789 
L 973 402 
C 1158 134 1427 -38 1766 -38 
C 2406 -38 3053 523 3053 1388 
C 3053 2191 2496 2802 1837 2802 
C 1453 2802 1139 2592 960 2338 
L 960 2802 
L 198 2732 
L 198 2567 
C 576 2567 634 2528 634 2223 
L 634 -789 
C 634 -1031 608 -1063 198 -1063 
L 198 -1228 
C 352 -1216 634 -1216 800 -1216 
C 966 -1216 1254 -1216 1408 -1228 
L 1408 -1063 
z
M 973 2012 
C 973 2102 973 2235 1222 2471 
C 1254 2497 1472 2688 1792 2688 
C 2259 2688 2643 2108 2643 1382 
C 2643 656 2234 64 1728 64 
C 1498 64 1248 172 1056 472 
C 973 612 973 650 973 752 
L 973 2012 
z
" transform="scale(0.015625)"/>
       <path id="CMR17-68" d="M 2656 1933 
C 2656 2259 2592 2790 1837 2790 
C 1312 2790 1056 2368 979 2157 
L 973 2157 
L 973 4396 
L 211 4326 
L 211 4160 
C 589 4160 646 4122 646 3817 
L 646 426 
C 646 184 621 153 211 153 
L 211 -13 
C 365 0 646 0 813 0 
C 979 0 1267 0 1421 -13 
L 1421 153 
C 1011 153 986 178 986 428 
L 986 1658 
C 986 2247 1344 2688 1792 2688 
C 2266 2688 2317 2266 2317 1958 
L 2317 428 
C 2317 184 2291 153 1882 153 
L 1882 -13 
C 2035 0 2317 0 2483 0 
C 2650 0 2938 0 3091 -13 
L 3091 153 
C 2682 153 2656 178 2656 428 
L 2656 1933 
z
" transform="scale(0.015625)"/>
       <path id="CMR17-73" d="M 1978 2697 
C 1978 2813 1971 2819 1933 2819 
C 1907 2819 1901 2813 1824 2717 
C 1805 2691 1747 2626 1728 2601 
C 1523 2819 1235 2819 1126 2819 
C 416 2819 160 2447 160 2076 
C 160 1498 813 1365 998 1325 
C 1402 1243 1542 1217 1677 1101 
C 1760 1025 1901 884 1901 654 
C 1901 384 1747 38 1158 38 
C 602 38 403 460 288 1021 
C 269 1110 269 1117 218 1117 
C 166 1117 160 1110 160 983 
L 160 63 
C 160 -51 166 -58 205 -58 
C 237 -58 243 -51 275 0 
C 314 57 410 211 448 276 
C 576 103 800 -64 1158 -64 
C 1792 -64 2131 283 2131 784 
C 2131 1112 1958 1285 1875 1362 
C 1683 1561 1459 1606 1190 1657 
C 838 1735 390 1825 390 2217 
C 390 2383 480 2737 1126 2737 
C 1811 2737 1850 2094 1862 1888 
C 1869 1856 1901 1849 1920 1849 
C 1978 1849 1978 1869 1978 1978 
L 1978 2697 
z
" transform="scale(0.015625)"/>
       <path id="CMR17-65" d="M 2438 1472 
C 2464 1498 2464 1511 2464 1576 
C 2464 2238 2118 2816 1389 2816 
C 710 2816 173 2169 173 1383 
C 173 551 781 -64 1459 -64 
C 2176 -64 2458 607 2458 740 
C 2458 784 2419 784 2406 784 
C 2362 784 2355 771 2330 696 
C 2189 265 1837 51 1504 51 
C 1229 51 954 203 781 480 
C 582 803 582 1176 582 1472 
L 2438 1472 
z
M 589 1568 
C 634 2505 1126 2714 1382 2714 
C 1818 2714 2112 2297 2118 1568 
L 589 1568 
z
" transform="scale(0.015625)"/>
      </defs>
      <use xlink:href="#CMR17-4d" transform="scale(0.996264)"/>
      <use xlink:href="#CMR17-61" transform="translate(84.686941 0) scale(0.996264)"/>
      <use xlink:href="#CMR17-78" transform="translate(130.377418 0) scale(0.996264)"/>
      <use xlink:href="#CMR17-69" transform="translate(178.670334 0) scale(0.996264)"/>
      <use xlink:href="#CMR17-6d" transform="translate(203.541392 0) scale(0.996264)"/>
      <use xlink:href="#CMR17-75" transform="translate(277.858528 0) scale(0.996264)"/>
      <use xlink:href="#CMR17-6d" transform="translate(328.753898 0) scale(0.996264)"/>
      <use xlink:href="#CMR17-69" transform="translate(435.749454 0) scale(0.996264)"/>
      <use xlink:href="#CMR17-6e" transform="translate(460.620512 0) scale(0.996264)"/>
      <use xlink:href="#CMR17-69" transform="translate(541.591849 0) scale(0.996264)"/>
      <use xlink:href="#CMR17-6e" transform="translate(566.462907 0) scale(0.996264)"/>
      <use xlink:href="#CMR17-69" transform="translate(617.358277 0) scale(0.996264)"/>
      <use xlink:href="#CMR17-74" transform="translate(642.229335 0) scale(0.996264)"/>
      <use xlink:href="#CMR17-69" transform="translate(677.510103 0) scale(0.996264)"/>
      <use xlink:href="#CMR17-61" transform="translate(702.381162 0) scale(0.996264)"/>
      <use xlink:href="#CMR17-6c" transform="translate(748.071639 0) scale(0.996264)"/>
      <use xlink:href="#CMR17-70" transform="translate(803.018664 0) scale(0.996264)"/>
      <use xlink:href="#CMR17-68" transform="translate(853.914033 0) scale(0.996264)"/>
      <use xlink:href="#CMR17-61" transform="translate(904.809403 0) scale(0.996264)"/>
      <use xlink:href="#CMR17-73" transform="translate(950.49988 0) scale(0.996264)"/>
      <use xlink:href="#CMR17-65" transform="translate(986.301218 0) scale(0.996264)"/>
     </g>
    </g>
   </g>
   <g id="line2d_12">
    <path d="M 63.368328 108.598668 
L 71.805622 107.46078 
L 80.242915 106.323594 
L 88.680209 105.18711 
L 97.117503 104.051328 
L 105.554797 102.916247 
L 113.992091 101.781869 
L 122.429384 100.648191 
L 130.866678 99.515216 
L 139.303972 98.382943 
L 147.741266 97.251371 
L 156.17856 96.120501 
L 164.615853 94.990332 
L 173.053147 93.860866 
L 181.490441 92.732101 
L 189.927735 91.604038 
L 198.365029 90.476676 
L 206.802322 89.350017 
L 215.239616 88.224059 
L 223.67691 87.098803 
L 232.114204 85.974248 
L 240.551498 84.850396 
L 248.988791 83.727245 
L 257.426085 82.604796 
L 265.863379 81.483049 
L 274.300673 80.362003 
L 282.737967 79.241659 
L 291.17526 78.122017 
L 299.612554 77.003077 
L 308.049848 75.884838 
L 316.487142 74.767301 
L 324.924436 73.650466 
L 333.361729 72.534333 
L 341.799023 71.418901 
L 350.236317 70.304171 
L 358.673611 69.190143 
L 367.110904 68.076817 
L 375.548198 66.964192 
L 383.985492 65.852269 
L 392.422786 64.741048 
L 400.86008 63.630529 
L 409.297373 62.520711 
L 417.734667 61.411596 
L 426.171961 60.303181 
L 434.609255 59.195469 
L 443.046549 58.088459 
L 451.483842 56.98215 
L 459.921136 55.876543 
L 468.35843 54.771637 
L 476.795724 53.667434 
L 485.233018 52.563932 
L 493.670311 51.461132 
L 502.107605 50.359033 
L 510.544899 49.257637 
L 518.982193 48.156942 
L 527.419487 47.056949 
L 535.85678 45.957657 
L 544.294074 44.859068 
L 552.731368 43.76118 
" clip-path="url(#p80582f0e73)" style="fill: none; stroke: #000000; stroke-opacity: 0.6; stroke-linecap: square"/>
   </g>
   <g id="line2d_13">
    <path d="M 63.368328 107.548475 
L 71.805622 105.885452 
L 80.242915 104.223105 
L 88.680209 102.561434 
L 97.117503 100.900439 
L 105.554797 99.24012 
L 113.992091 97.580477 
L 122.429384 95.92151 
L 130.866678 94.263219 
L 139.303972 92.605603 
L 147.741266 90.948664 
L 156.17856 89.292401 
L 164.615853 87.636813 
L 173.053147 85.981902 
L 181.490441 84.327667 
L 189.927735 82.674107 
L 198.365029 81.021224 
L 206.802322 79.369016 
L 215.239616 77.717484 
L 223.67691 76.066629 
L 232.114204 74.416449 
L 240.551498 72.766945 
L 248.988791 71.118118 
L 257.426085 69.469966 
L 265.863379 67.82249 
L 274.300673 66.17569 
L 282.737967 64.529566 
L 291.17526 62.884118 
L 299.612554 61.239346 
L 308.049848 59.59525 
L 316.487142 57.95183 
L 324.924436 56.309086 
L 333.361729 54.667018 
L 341.799023 53.025625 
L 350.236317 51.384909 
L 358.673611 49.744869 
L 367.110904 48.105504 
L 375.548198 46.466816 
L 383.985492 44.828804 
L 392.422786 43.191467 
L 400.86008 41.554807 
L 409.297373 39.918822 
L 417.734667 38.283513 
L 426.171961 36.648881 
L 434.609255 35.014924 
L 443.046549 33.381643 
L 451.483842 31.749038 
L 459.921136 30.11711 
L 468.35843 28.485857 
L 476.795724 26.85528 
L 485.233018 25.225379 
L 493.670311 23.596154 
L 502.107605 21.967605 
L 510.544899 20.339732 
L 518.982193 18.712535 
L 527.419487 17.086014 
L 535.85678 15.460168 
L 544.294074 13.834999 
L 552.731368 12.210506 
" clip-path="url(#p80582f0e73)" style="fill: none; stroke: #000000; stroke-opacity: 0.6; stroke-linecap: square"/>
   </g>
   <g id="patch_3">
    <path d="M 38.900176 113.432903 
L 38.900176 7.2 
" style="fill: none; stroke: #000000; stroke-width: 0.8; stroke-linejoin: miter; stroke-linecap: square"/>
   </g>
   <g id="patch_4">
    <path d="M 577.19952 113.432903 
L 577.19952 7.2 
" style="fill: none; stroke: #000000; stroke-width: 0.8; stroke-linejoin: miter; stroke-linecap: square"/>
   </g>
   <g id="patch_5">
    <path d="M 38.900176 113.432903 
L 577.19952 113.432903 
" style="fill: none; stroke: #000000; stroke-width: 0.8; stroke-linejoin: miter; stroke-linecap: square"/>
   </g>
   <g id="patch_6">
    <path d="M 38.900176 7.2 
L 577.19952 7.2 
" style="fill: none; stroke: #000000; stroke-width: 0.8; stroke-linejoin: miter; stroke-linecap: square"/>
   </g>
   <g id="legend_1">
    <g id="patch_7">
     <path d="M 46.600176 77.323579 
L 171.955638 77.323579 
Q 174.155638 77.323579 174.155638 75.123579 
L 174.155638 14.9 
Q 174.155638 12.7 171.955638 12.7 
L 46.600176 12.7 
Q 44.400176 12.7 44.400176 14.9 
L 44.400176 75.123579 
Q 44.400176 77.323579 46.600176 77.323579 
z
" style="fill: #ffffff; opacity: 0.8; stroke: #cccccc; stroke-linejoin: miter"/>
    </g>
    <g id="line2d_14">
     <path d="M 48.800176 20.95 
L 59.800176 20.95 
L 70.800176 20.95 
" style="fill: none; stroke: #000000; stroke-opacity: 0.6; stroke-linecap: square"/>
    </g>
    <g id="text_14">
     <!-- quadratic_linear fit -->
     <g transform="translate(79.600176 24.8) scale(0.11 -0.11)">
      <defs>
       <path id="CMR17-71" d="M 2630 2802 
L 2528 2802 
L 2336 2172 
C 2189 2509 1920 2802 1491 2802 
C 838 2802 211 2223 211 1383 
C 211 548 800 -38 1440 -38 
C 1933 -38 2208 338 2291 478 
L 2291 -789 
C 2291 -1031 2266 -1063 1856 -1063 
L 1856 -1228 
C 2010 -1216 2291 -1216 2458 -1216 
C 2624 -1216 2912 -1216 3066 -1228 
L 3066 -1063 
C 2656 -1063 2630 -1037 2630 -789 
L 2630 2802 
z
M 2304 886 
C 2304 612 2074 357 2054 338 
C 1856 115 1626 64 1472 64 
C 992 64 621 669 621 1375 
C 621 2121 1043 2688 1536 2688 
C 2048 2688 2304 2108 2304 1777 
L 2304 886 
z
" transform="scale(0.015625)"/>
       <path id="CMR17-64" d="M 1869 4326 
L 1869 4160 
C 2246 4160 2304 4122 2304 3820 
L 2304 2345 
C 2278 2377 2016 2790 1498 2790 
C 845 2790 211 2208 211 1364 
C 211 525 806 -64 1434 -64 
C 1978 -64 2259 337 2291 380 
L 2291 -63 
L 3066 -63 
L 3066 128 
C 2688 128 2630 166 2630 473 
L 2630 4396 
L 1869 4326 
z
M 2291 755 
C 2291 563 2176 390 2029 262 
C 1811 70 1594 38 1472 38 
C 1286 38 621 134 621 1356 
C 621 2612 1363 2688 1530 2688 
C 1824 2688 2061 2522 2208 2291 
C 2291 2157 2291 2138 2291 2023 
L 2291 755 
z
" transform="scale(0.015625)"/>
       <path id="CMR17-72" d="M 960 1497 
C 960 2112 1222 2688 1702 2688 
C 1747 2688 1792 2682 1837 2662 
C 1837 2662 1696 2617 1696 2452 
C 1696 2298 1818 2234 1914 2234 
C 1990 2234 2131 2279 2131 2458 
C 2131 2663 1926 2790 1709 2790 
C 1222 2790 1011 2317 947 2093 
L 941 2093 
L 941 2790 
L 198 2720 
L 198 2554 
C 576 2554 634 2515 634 2208 
L 634 428 
C 634 184 608 153 198 153 
L 198 -13 
C 352 0 646 0 813 0 
C 998 0 1325 0 1498 -13 
L 1498 153 
C 1037 153 960 153 960 440 
L 960 1497 
z
" transform="scale(0.015625)"/>
       <path id="CMR17-63" d="M 2234 2240 
C 2112 2240 1933 2240 1933 2017 
C 1933 1838 2080 1787 2163 1787 
C 2208 1787 2394 1807 2394 2024 
C 2394 2467 1958 2803 1466 2803 
C 787 2803 211 2178 211 1363 
C 211 516 813 -64 1466 -64 
C 2259 -64 2458 677 2458 748 
C 2458 774 2451 793 2406 793 
C 2362 793 2355 787 2330 703 
C 2163 180 1798 51 1523 51 
C 1114 51 621 427 621 1369 
C 621 2338 1094 2688 1472 2688 
C 1722 2688 2093 2573 2234 2240 
z
" transform="scale(0.015625)"/>
       <path id="CMR17-c" d="M 2554 2764 
C 2400 2764 1926 2764 1805 2739 
C 1766 2725 1754 2725 1677 2725 
L 947 2725 
L 947 3469 
C 947 4073 1434 4352 1818 4352 
C 1939 4352 2214 4320 2355 4101 
C 2291 4101 2086 4101 2086 3878 
C 2086 3725 2189 3648 2317 3648 
C 2432 3648 2547 3712 2547 3885 
C 2547 4205 2240 4454 1843 4454 
C 1338 4454 634 4168 634 3469 
L 634 2725 
L 122 2725 
L 122 2560 
L 634 2560 
L 634 427 
C 634 184 608 153 198 153 
L 198 -13 
C 352 0 634 0 794 0 
C 960 0 1242 0 1395 -13 
L 1395 153 
C 986 153 960 178 960 427 
L 960 2560 
L 1901 2560 
C 2176 2560 2227 2502 2227 2222 
L 2227 427 
C 2227 184 2202 153 1792 153 
L 1792 -13 
C 1946 0 2227 0 2387 0 
C 2554 0 2835 0 2989 -13 
L 2989 153 
C 2579 153 2554 178 2554 427 
L 2554 2764 
z
" transform="scale(0.015625)"/>
      </defs>
      <use xlink:href="#CMR17-71" transform="scale(0.996264)"/>
      <use xlink:href="#CMR17-75" transform="translate(48.292916 0) scale(0.996264)"/>
      <use xlink:href="#CMR17-61" transform="translate(99.188286 0) scale(0.996264)"/>
      <use xlink:href="#CMR17-64" transform="translate(144.878763 0) scale(0.996264)"/>
      <use xlink:href="#CMR17-72" transform="translate(195.774133 0) scale(0.996264)"/>
      <use xlink:href="#CMR17-61" transform="translate(231.0549 0) scale(0.996264)"/>
      <use xlink:href="#CMR17-74" transform="translate(276.745377 0) scale(0.996264)"/>
      <use xlink:href="#CMR17-69" transform="translate(312.026145 0) scale(0.996264)"/>
      <use xlink:href="#CMR17-63" transform="translate(336.897204 0) scale(0.996264)"/>
      <use xlink:href="#CMR17-6c" transform="translate(410.280084 0) scale(0.996264)"/>
      <use xlink:href="#CMR17-69" transform="translate(435.151142 0) scale(0.996264)"/>
      <use xlink:href="#CMR17-6e" transform="translate(460.022201 0) scale(0.996264)"/>
      <use xlink:href="#CMR17-65" transform="translate(510.91757 0) scale(0.996264)"/>
      <use xlink:href="#CMR17-61" transform="translate(551.403231 0) scale(0.996264)"/>
      <use xlink:href="#CMR17-72" transform="translate(597.093708 0) scale(0.996264)"/>
      <use xlink:href="#CMR17-c" transform="translate(662.450442 0) scale(0.996264)"/>
      <use xlink:href="#CMR17-74" transform="translate(712.192666 0) scale(0.996264)"/>
      <path d="M 382.865493 0 
L 410.280084 0 
L 410.280084 0.3985 
L 382.865493 0.3985 
L 382.865493 0 
z
"/>
     </g>
    </g>
    <g id="PathCollection_3">
     <g>
      <use xlink:href="#m0e2e8964c7" x="59.800176" y="37.243395" style="fill: #1e90ff; fill-opacity: 0.7; stroke: #1e90ff; stroke-opacity: 0.7"/>
     </g>
    </g>
    <g id="text_15">
     <!-- excited state -->
     <g transform="translate(79.600176 40.130895) scale(0.11 -0.11)">
      <use xlink:href="#CMR17-65" transform="scale(0.996264)"/>
      <use xlink:href="#CMR17-78" transform="translate(40.48566 0) scale(0.996264)"/>
      <use xlink:href="#CMR17-63" transform="translate(88.778576 0) scale(0.996264)"/>
      <use xlink:href="#CMR17-69" transform="translate(129.264237 0) scale(0.996264)"/>
      <use xlink:href="#CMR17-74" transform="translate(154.135295 0) scale(0.996264)"/>
      <use xlink:href="#CMR17-65" transform="translate(189.416063 0) scale(0.996264)"/>
      <use xlink:href="#CMR17-64" transform="translate(229.901724 0) scale(0.996264)"/>
      <use xlink:href="#CMR17-73" transform="translate(310.87306 0) scale(0.996264)"/>
      <use xlink:href="#CMR17-74" transform="translate(346.674397 0) scale(0.996264)"/>
      <use xlink:href="#CMR17-61" transform="translate(381.955165 0) scale(0.996264)"/>
      <use xlink:href="#CMR17-74" transform="translate(427.645642 0) scale(0.996264)"/>
      <use xlink:href="#CMR17-65" transform="translate(462.92641 0) scale(0.996264)"/>
     </g>
    </g>
    <g id="line2d_15">
     <path d="M 48.800176 51.611789 
L 59.800176 51.611789 
L 70.800176 51.611789 
" style="fill: none; stroke: #000000; stroke-opacity: 0.6; stroke-linecap: square"/>
    </g>
    <g id="text_16">
     <!-- quadratic_linear fit -->
     <g transform="translate(79.600176 55.461789) scale(0.11 -0.11)">
      <use xlink:href="#CMR17-71" transform="scale(0.996264)"/>
      <use xlink:href="#CMR17-75" transform="translate(48.292916 0) scale(0.996264)"/>
      <use xlink:href="#CMR17-61" transform="translate(99.188286 0) scale(0.996264)"/>
      <use xlink:href="#CMR17-64" transform="translate(144.878763 0) scale(0.996264)"/>
      <use xlink:href="#CMR17-72" transform="translate(195.774133 0) scale(0.996264)"/>
      <use xlink:href="#CMR17-61" transform="translate(231.0549 0) scale(0.996264)"/>
      <use xlink:href="#CMR17-74" transform="translate(276.745377 0) scale(0.996264)"/>
      <use xlink:href="#CMR17-69" transform="translate(312.026145 0) scale(0.996264)"/>
      <use xlink:href="#CMR17-63" transform="translate(336.897204 0) scale(0.996264)"/>
      <use xlink:href="#CMR17-6c" transform="translate(410.280084 0) scale(0.996264)"/>
      <use xlink:href="#CMR17-69" transform="translate(435.151142 0) scale(0.996264)"/>
      <use xlink:href="#CMR17-6e" transform="translate(460.022201 0) scale(0.996264)"/>
      <use xlink:href="#CMR17-65" transform="translate(510.91757 0) scale(0.996264)"/>
      <use xlink:href="#CMR17-61" transform="translate(551.403231 0) scale(0.996264)"/>
      <use xlink:href="#CMR17-72" transform="translate(597.093708 0) scale(0.996264)"/>
      <use xlink:href="#CMR17-c" transform="translate(662.450442 0) scale(0.996264)"/>
      <use xlink:href="#CMR17-74" transform="translate(712.192666 0) scale(0.996264)"/>
      <path d="M 382.865493 0 
L 410.280084 0 
L 410.280084 0.3985 
L 382.865493 0.3985 
L 382.865493 0 
z
"/>
     </g>
    </g>
    <g id="PathCollection_4">
     <g>
      <use xlink:href="#mf80f12d9de" x="59.800176" y="67.905184" style="fill: #32cd32; fill-opacity: 0.7; stroke: #32cd32; stroke-opacity: 0.7"/>
     </g>
    </g>
    <g id="text_17">
     <!-- superradiant state -->
     <g transform="translate(79.600176 70.792684) scale(0.11 -0.11)">
      <use xlink:href="#CMR17-73" transform="scale(0.996264)"/>
      <use xlink:href="#CMR17-75" transform="translate(35.801338 0) scale(0.996264)"/>
      <use xlink:href="#CMR17-70" transform="translate(86.696707 0) scale(0.996264)"/>
      <use xlink:href="#CMR17-65" transform="translate(140.194516 0) scale(0.996264)"/>
      <use xlink:href="#CMR17-72" transform="translate(180.680176 0) scale(0.996264)"/>
      <use xlink:href="#CMR17-72" transform="translate(215.960944 0) scale(0.996264)"/>
      <use xlink:href="#CMR17-61" transform="translate(251.241712 0) scale(0.996264)"/>
      <use xlink:href="#CMR17-64" transform="translate(296.932189 0) scale(0.996264)"/>
      <use xlink:href="#CMR17-69" transform="translate(347.827559 0) scale(0.996264)"/>
      <use xlink:href="#CMR17-61" transform="translate(372.698617 0) scale(0.996264)"/>
      <use xlink:href="#CMR17-6e" transform="translate(418.389094 0) scale(0.996264)"/>
      <use xlink:href="#CMR17-74" transform="translate(466.68201 0) scale(0.996264)"/>
      <use xlink:href="#CMR17-73" transform="translate(532.038744 0) scale(0.996264)"/>
      <use xlink:href="#CMR17-74" transform="translate(567.840082 0) scale(0.996264)"/>
      <use xlink:href="#CMR17-61" transform="translate(603.12085 0) scale(0.996264)"/>
      <use xlink:href="#CMR17-74" transform="translate(648.811327 0) scale(0.996264)"/>
      <use xlink:href="#CMR17-65" transform="translate(684.092095 0) scale(0.996264)"/>
     </g>
    </g>
   </g>
  </g>
 </g>
 <defs>
  <clipPath id="p80582f0e73">
   <rect x="38.900176" y="7.2" width="538.299344" height="106.232903"/>
  </clipPath>
 </defs>
</svg>
