<?xml version="1.0" encoding="utf-8" standalone="no"?>
<!DOCTYPE svg PUBLIC "-//W3C//DTD SVG 1.1//EN"
  "http://www.w3.org/Graphics/SVG/1.1/DTD/svg11.dtd">
<svg xmlns:xlink="http://www.w3.org/1999/xlink" width="584.39952pt" height="419.828091pt" viewBox="0 0 584.39952 419.828091" xmlns="http://www.w3.org/2000/svg" version="1.1">
 <metadata>
  <rdf:RDF xmlns:dc="http://purl.org/dc/elements/1.1/" xmlns:cc="http://creativecommons.org/ns#" xmlns:rdf="http://www.w3.org/1999/02/22-rdf-syntax-ns#">
   <cc:Work>
    <dc:type rdf:resource="http://purl.org/dc/dcmitype/StillImage"/>
    <dc:date>2025-01-15T19:27:24.031720</dc:date>
    <dc:format>image/svg+xml</dc:format>
    <dc:creator>
     <cc:Agent>
      <dc:title>Matplotlib v3.10.0, https://matplotlib.org/</dc:title>
     </cc:Agent>
    </dc:creator>
   </cc:Work>
  </rdf:RDF>
 </metadata>
 <defs>
  <style type="text/css">*{stroke-linejoin: round; stroke-linecap: butt}</style>
 </defs>
 <g id="figure_1">
  <g id="patch_1">
   <path d="M 0 419.828091 
L 584.39952 419.828091 
L 584.39952 0 
L 0 0 
z
" style="fill: #ffffff"/>
  </g>
  <g id="axes_1">
   <g id="patch_2">
    <path d="M 38.900176 382.145609 
L 577.19952 382.145609 
L 577.19952 7.2 
L 38.900176 7.2 
z
" style="fill: #ffffff"/>
   </g>
   <g id="FillBetweenPolyCollection_1">
    <defs>
     <path id="mba2286c221" d="M 63.368328 -54.725465 
L 63.368328 -54.740943 
L 71.805622 -58.70166 
L 80.242915 -62.662377 
L 88.680209 -66.623094 
L 97.117503 -70.58381 
L 105.554797 -74.544527 
L 113.992091 -78.505244 
L 122.429384 -82.465961 
L 130.866678 -86.426678 
L 139.303972 -90.387395 
L 147.741266 -94.348112 
L 156.17856 -98.308829 
L 164.615853 -102.269545 
L 173.053147 -106.230262 
L 181.490441 -110.190979 
L 189.927735 -114.151696 
L 198.365029 -118.112413 
L 206.802322 -122.07313 
L 215.239616 -126.033847 
L 223.67691 -129.994563 
L 232.114204 -133.95528 
L 240.551498 -137.915997 
L 248.988791 -141.876714 
L 257.426085 -145.837431 
L 265.863379 -149.798148 
L 274.300673 -153.758865 
L 282.737967 -157.719581 
L 291.17526 -161.680298 
L 299.612554 -165.641015 
L 308.049848 -169.601732 
L 316.487142 -173.562449 
L 324.924436 -177.523166 
L 333.361729 -181.483883 
L 341.799023 -185.4446 
L 350.236317 -189.405316 
L 358.673611 -193.366033 
L 367.110904 -197.32675 
L 375.548198 -201.287467 
L 383.985492 -205.248184 
L 392.422786 -209.208901 
L 400.86008 -213.169618 
L 409.297373 -217.130334 
L 417.734667 -221.091051 
L 426.171961 -225.051768 
L 434.609255 -229.012485 
L 443.046549 -232.973202 
L 451.483842 -236.933919 
L 459.921136 -240.894636 
L 468.35843 -244.855353 
L 476.795724 -248.816069 
L 485.233018 -252.776786 
L 493.670311 -256.737503 
L 502.107605 -260.69822 
L 510.544899 -264.658937 
L 518.982193 -268.619654 
L 527.419487 -272.580371 
L 535.85678 -276.541087 
L 544.294074 -280.501804 
L 552.731368 -284.462521 
L 552.731368 -283.998179 
L 552.731368 -283.998179 
L 544.294074 -280.045201 
L 535.85678 -276.092223 
L 527.419487 -272.139245 
L 518.982193 -268.186267 
L 510.544899 -264.23329 
L 502.107605 -260.280312 
L 493.670311 -256.327334 
L 485.233018 -252.374356 
L 476.795724 -248.421378 
L 468.35843 -244.4684 
L 459.921136 -240.515423 
L 451.483842 -236.562445 
L 443.046549 -232.609467 
L 434.609255 -228.656489 
L 426.171961 -224.703511 
L 417.734667 -220.750533 
L 409.297373 -216.797556 
L 400.86008 -212.844578 
L 392.422786 -208.8916 
L 383.985492 -204.938622 
L 375.548198 -200.985644 
L 367.110904 -197.032667 
L 358.673611 -193.079689 
L 350.236317 -189.126711 
L 341.799023 -185.173733 
L 333.361729 -181.220755 
L 324.924436 -177.267777 
L 316.487142 -173.3148 
L 308.049848 -169.361822 
L 299.612554 -165.408844 
L 291.17526 -161.455866 
L 282.737967 -157.502888 
L 274.300673 -153.54991 
L 265.863379 -149.596933 
L 257.426085 -145.643955 
L 248.988791 -141.690977 
L 240.551498 -137.737999 
L 232.114204 -133.785021 
L 223.67691 -129.832044 
L 215.239616 -125.879066 
L 206.802322 -121.926088 
L 198.365029 -117.97311 
L 189.927735 -114.020132 
L 181.490441 -110.067154 
L 173.053147 -106.114177 
L 164.615853 -102.161199 
L 156.17856 -98.208221 
L 147.741266 -94.255243 
L 139.303972 -90.302265 
L 130.866678 -86.349287 
L 122.429384 -82.39631 
L 113.992091 -78.443332 
L 105.554797 -74.490354 
L 97.117503 -70.537376 
L 88.680209 -66.584398 
L 80.242915 -62.631421 
L 71.805622 -58.678443 
L 63.368328 -54.725465 
z
" style="stroke: #1e90ff; stroke-opacity: 0.3"/>
    </defs>
    <g clip-path="url(#pd7a65823ba)">
     <use xlink:href="#mba2286c221" x="0" y="419.828091" style="fill: #1e90ff; fill-opacity: 0.3; stroke: #1e90ff; stroke-opacity: 0.3"/>
    </g>
   </g>
   <g id="PathCollection_1">
    <defs>
     <path id="m8e1cc6c8d2" d="M 0 -2.95804 
L -2.95804 2.95804 
L 2.95804 2.95804 
z
" style="stroke: #1e90ff"/>
    </defs>
    <g clip-path="url(#pd7a65823ba)">
     <use xlink:href="#m8e1cc6c8d2" x="63.368328" y="363.748448" style="fill: #1e90ff; stroke: #1e90ff"/>
     <use xlink:href="#m8e1cc6c8d2" x="71.805622" y="362.318213" style="fill: #1e90ff; stroke: #1e90ff"/>
     <use xlink:href="#m8e1cc6c8d2" x="80.242915" y="354.056562" style="fill: #1e90ff; stroke: #1e90ff"/>
     <use xlink:href="#m8e1cc6c8d2" x="88.680209" y="353.544123" style="fill: #1e90ff; stroke: #1e90ff"/>
     <use xlink:href="#m8e1cc6c8d2" x="97.117503" y="345.374313" style="fill: #1e90ff; stroke: #1e90ff"/>
     <use xlink:href="#m8e1cc6c8d2" x="105.554797" y="344.966635" style="fill: #1e90ff; stroke: #1e90ff"/>
     <use xlink:href="#m8e1cc6c8d2" x="113.992091" y="340.925781" style="fill: #1e90ff; stroke: #1e90ff"/>
     <use xlink:href="#m8e1cc6c8d2" x="122.429384" y="336.730578" style="fill: #1e90ff; stroke: #1e90ff"/>
     <use xlink:href="#m8e1cc6c8d2" x="130.866678" y="331.933926" style="fill: #1e90ff; stroke: #1e90ff"/>
     <use xlink:href="#m8e1cc6c8d2" x="139.303972" y="328.525511" style="fill: #1e90ff; stroke: #1e90ff"/>
     <use xlink:href="#m8e1cc6c8d2" x="147.741266" y="325.280523" style="fill: #1e90ff; stroke: #1e90ff"/>
     <use xlink:href="#m8e1cc6c8d2" x="156.17856" y="319.334495" style="fill: #1e90ff; stroke: #1e90ff"/>
     <use xlink:href="#m8e1cc6c8d2" x="164.615853" y="318.450405" style="fill: #1e90ff; stroke: #1e90ff"/>
     <use xlink:href="#m8e1cc6c8d2" x="173.053147" y="311.090768" style="fill: #1e90ff; stroke: #1e90ff"/>
     <use xlink:href="#m8e1cc6c8d2" x="181.490441" y="309.32288" style="fill: #1e90ff; stroke: #1e90ff"/>
     <use xlink:href="#m8e1cc6c8d2" x="189.927735" y="305.394981" style="fill: #1e90ff; stroke: #1e90ff"/>
     <use xlink:href="#m8e1cc6c8d2" x="198.365029" y="300.420124" style="fill: #1e90ff; stroke: #1e90ff"/>
     <use xlink:href="#m8e1cc6c8d2" x="206.802322" y="298.485198" style="fill: #1e90ff; stroke: #1e90ff"/>
     <use xlink:href="#m8e1cc6c8d2" x="215.239616" y="292.298819" style="fill: #1e90ff; stroke: #1e90ff"/>
     <use xlink:href="#m8e1cc6c8d2" x="223.67691" y="290.619746" style="fill: #1e90ff; stroke: #1e90ff"/>
     <use xlink:href="#m8e1cc6c8d2" x="232.114204" y="284.812986" style="fill: #1e90ff; stroke: #1e90ff"/>
     <use xlink:href="#m8e1cc6c8d2" x="240.551498" y="282.264351" style="fill: #1e90ff; stroke: #1e90ff"/>
     <use xlink:href="#m8e1cc6c8d2" x="248.988791" y="277.311721" style="fill: #1e90ff; stroke: #1e90ff"/>
     <use xlink:href="#m8e1cc6c8d2" x="257.426085" y="273.838947" style="fill: #1e90ff; stroke: #1e90ff"/>
     <use xlink:href="#m8e1cc6c8d2" x="265.863379" y="269.575442" style="fill: #1e90ff; stroke: #1e90ff"/>
     <use xlink:href="#m8e1cc6c8d2" x="274.300673" y="265.446484" style="fill: #1e90ff; stroke: #1e90ff"/>
     <use xlink:href="#m8e1cc6c8d2" x="282.737967" y="262.110714" style="fill: #1e90ff; stroke: #1e90ff"/>
     <use xlink:href="#m8e1cc6c8d2" x="291.17526" y="257.20488" style="fill: #1e90ff; stroke: #1e90ff"/>
     <use xlink:href="#m8e1cc6c8d2" x="299.612554" y="254.648714" style="fill: #1e90ff; stroke: #1e90ff"/>
     <use xlink:href="#m8e1cc6c8d2" x="308.049848" y="249.303718" style="fill: #1e90ff; stroke: #1e90ff"/>
     <use xlink:href="#m8e1cc6c8d2" x="316.487142" y="246.763608" style="fill: #1e90ff; stroke: #1e90ff"/>
     <use xlink:href="#m8e1cc6c8d2" x="324.924436" y="241.580437" style="fill: #1e90ff; stroke: #1e90ff"/>
     <use xlink:href="#m8e1cc6c8d2" x="333.361729" y="238.629268" style="fill: #1e90ff; stroke: #1e90ff"/>
     <use xlink:href="#m8e1cc6c8d2" x="341.799023" y="233.951801" style="fill: #1e90ff; stroke: #1e90ff"/>
     <use xlink:href="#m8e1cc6c8d2" x="350.236317" y="230.349922" style="fill: #1e90ff; stroke: #1e90ff"/>
     <use xlink:href="#m8e1cc6c8d2" x="358.673611" y="226.449323" style="fill: #1e90ff; stroke: #1e90ff"/>
     <use xlink:href="#m8e1cc6c8d2" x="367.110904" y="222.192444" style="fill: #1e90ff; stroke: #1e90ff"/>
     <use xlink:href="#m8e1cc6c8d2" x="375.548198" y="218.917285" style="fill: #1e90ff; stroke: #1e90ff"/>
     <use xlink:href="#m8e1cc6c8d2" x="383.985492" y="214.195281" style="fill: #1e90ff; stroke: #1e90ff"/>
     <use xlink:href="#m8e1cc6c8d2" x="392.422786" y="211.266664" style="fill: #1e90ff; stroke: #1e90ff"/>
     <use xlink:href="#m8e1cc6c8d2" x="400.86008" y="206.283701" style="fill: #1e90ff; stroke: #1e90ff"/>
     <use xlink:href="#m8e1cc6c8d2" x="409.297373" y="203.420567" style="fill: #1e90ff; stroke: #1e90ff"/>
     <use xlink:href="#m8e1cc6c8d2" x="417.734667" y="198.463278" style="fill: #1e90ff; stroke: #1e90ff"/>
     <use xlink:href="#m8e1cc6c8d2" x="426.171961" y="195.408618" style="fill: #1e90ff; stroke: #1e90ff"/>
     <use xlink:href="#m8e1cc6c8d2" x="434.609255" y="190.704871" style="fill: #1e90ff; stroke: #1e90ff"/>
     <use xlink:href="#m8e1cc6c8d2" x="443.046549" y="187.350179" style="fill: #1e90ff; stroke: #1e90ff"/>
     <use xlink:href="#m8e1cc6c8d2" x="451.483842" y="183.010923" style="fill: #1e90ff; stroke: #1e90ff"/>
     <use xlink:href="#m8e1cc6c8d2" x="459.921136" y="179.289252" style="fill: #1e90ff; stroke: #1e90ff"/>
     <use xlink:href="#m8e1cc6c8d2" x="468.35843" y="175.476207" style="fill: #1e90ff; stroke: #1e90ff"/>
     <use xlink:href="#m8e1cc6c8d2" x="476.795724" y="171.243512" style="fill: #1e90ff; stroke: #1e90ff"/>
     <use xlink:href="#m8e1cc6c8d2" x="485.233018" y="168.02453" style="fill: #1e90ff; stroke: #1e90ff"/>
     <use xlink:href="#m8e1cc6c8d2" x="493.670311" y="163.288918" style="fill: #1e90ff; stroke: #1e90ff"/>
     <use xlink:href="#m8e1cc6c8d2" x="502.107605" y="160.392364" style="fill: #1e90ff; stroke: #1e90ff"/>
     <use xlink:href="#m8e1cc6c8d2" x="510.544899" y="155.458265" style="fill: #1e90ff; stroke: #1e90ff"/>
     <use xlink:href="#m8e1cc6c8d2" x="518.982193" y="152.570884" style="fill: #1e90ff; stroke: #1e90ff"/>
     <use xlink:href="#m8e1cc6c8d2" x="527.419487" y="147.707723" style="fill: #1e90ff; stroke: #1e90ff"/>
     <use xlink:href="#m8e1cc6c8d2" x="535.85678" y="144.627297" style="fill: #1e90ff; stroke: #1e90ff"/>
     <use xlink:href="#m8e1cc6c8d2" x="544.294074" y="140.028473" style="fill: #1e90ff; stroke: #1e90ff"/>
     <use xlink:href="#m8e1cc6c8d2" x="552.731368" y="136.592707" style="fill: #1e90ff; stroke: #1e90ff"/>
    </g>
   </g>
   <g id="FillBetweenPolyCollection_2">
    <defs>
     <path id="mfff33f5bd1" d="M 63.368328 -58.425133 
L 63.368328 -58.445029 
L 71.805622 -64.257789 
L 80.242915 -70.070549 
L 88.680209 -75.883309 
L 97.117503 -81.696069 
L 105.554797 -87.508829 
L 113.992091 -93.321589 
L 122.429384 -99.134349 
L 130.866678 -104.947109 
L 139.303972 -110.759869 
L 147.741266 -116.572629 
L 156.17856 -122.385389 
L 164.615853 -128.198149 
L 173.053147 -134.010909 
L 181.490441 -139.823669 
L 189.927735 -145.636429 
L 198.365029 -151.449189 
L 206.802322 -157.261949 
L 215.239616 -163.074709 
L 223.67691 -168.887469 
L 232.114204 -174.700229 
L 240.551498 -180.512989 
L 248.988791 -186.325749 
L 257.426085 -192.138509 
L 265.863379 -197.951269 
L 274.300673 -203.764029 
L 282.737967 -209.576789 
L 291.17526 -215.389549 
L 299.612554 -221.202309 
L 308.049848 -227.015069 
L 316.487142 -232.827829 
L 324.924436 -238.640589 
L 333.361729 -244.453349 
L 341.799023 -250.266109 
L 350.236317 -256.078869 
L 358.673611 -261.891629 
L 367.110904 -267.704389 
L 375.548198 -273.517149 
L 383.985492 -279.329909 
L 392.422786 -285.142669 
L 400.86008 -290.955429 
L 409.297373 -296.768189 
L 417.734667 -302.580949 
L 426.171961 -308.393709 
L 434.609255 -314.206469 
L 443.046549 -320.019229 
L 451.483842 -325.831989 
L 459.921136 -331.644749 
L 468.35843 -337.457509 
L 476.795724 -343.270269 
L 485.233018 -349.083029 
L 493.670311 -354.895789 
L 502.107605 -360.708549 
L 510.544899 -366.521309 
L 518.982193 -372.334069 
L 527.419487 -378.146829 
L 535.85678 -383.959589 
L 544.294074 -389.772349 
L 552.731368 -395.585109 
L 552.731368 -394.988227 
L 552.731368 -394.988227 
L 544.294074 -389.185415 
L 535.85678 -383.382603 
L 527.419487 -377.579791 
L 518.982193 -371.776979 
L 510.544899 -365.974167 
L 502.107605 -360.171355 
L 493.670311 -354.368543 
L 485.233018 -348.565732 
L 476.795724 -342.76292 
L 468.35843 -336.960108 
L 459.921136 -331.157296 
L 451.483842 -325.354484 
L 443.046549 -319.551672 
L 434.609255 -313.74886 
L 426.171961 -307.946048 
L 417.734667 -302.143236 
L 409.297373 -296.340424 
L 400.86008 -290.537612 
L 392.422786 -284.7348 
L 383.985492 -278.931988 
L 375.548198 -273.129176 
L 367.110904 -267.326364 
L 358.673611 -261.523552 
L 350.236317 -255.72074 
L 341.799023 -249.917928 
L 333.361729 -244.115116 
L 324.924436 -238.312304 
L 316.487142 -232.509492 
L 308.049848 -226.70668 
L 299.612554 -220.903868 
L 291.17526 -215.101056 
L 282.737967 -209.298244 
L 274.300673 -203.495432 
L 265.863379 -197.69262 
L 257.426085 -191.889808 
L 248.988791 -186.086996 
L 240.551498 -180.284184 
L 232.114204 -174.481373 
L 223.67691 -168.678561 
L 215.239616 -162.875749 
L 206.802322 -157.072937 
L 198.365029 -151.270125 
L 189.927735 -145.467313 
L 181.490441 -139.664501 
L 173.053147 -133.861689 
L 164.615853 -128.058877 
L 156.17856 -122.256065 
L 147.741266 -116.453253 
L 139.303972 -110.650441 
L 130.866678 -104.847629 
L 122.429384 -99.044817 
L 113.992091 -93.242005 
L 105.554797 -87.439193 
L 97.117503 -81.636381 
L 88.680209 -75.833569 
L 80.242915 -70.030757 
L 71.805622 -64.227945 
L 63.368328 -58.425133 
z
" style="stroke: #32cd32; stroke-opacity: 0.3"/>
    </defs>
    <g clip-path="url(#pd7a65823ba)">
     <use xlink:href="#mfff33f5bd1" x="0" y="419.828091" style="fill: #32cd32; fill-opacity: 0.3; stroke: #32cd32; stroke-opacity: 0.3"/>
    </g>
   </g>
   <g id="PathCollection_2">
    <defs>
     <path id="m689b345c10" d="M 0 2.95804 
C 0.784481 2.95804 1.536938 2.646362 2.09165 2.09165 
C 2.646362 1.536938 2.95804 0.784481 2.95804 0 
C 2.95804 -0.784481 2.646362 -1.536938 2.09165 -2.09165 
C 1.536938 -2.646362 0.784481 -2.95804 0 -2.95804 
C -0.784481 -2.95804 -1.536938 -2.646362 -2.09165 -2.09165 
C -2.646362 -1.536938 -2.95804 -0.784481 -2.95804 0 
C -2.95804 0.784481 -2.646362 1.536938 -2.09165 2.09165 
C -1.536938 2.646362 -0.784481 2.95804 0 2.95804 
z
" style="stroke: #32cd32"/>
    </defs>
    <g clip-path="url(#pd7a65823ba)">
     <use xlink:href="#m689b345c10" x="63.368328" y="355.948521" style="fill: #32cd32; stroke: #32cd32"/>
     <use xlink:href="#m689b345c10" x="71.805622" y="352.070895" style="fill: #32cd32; stroke: #32cd32"/>
     <use xlink:href="#m689b345c10" x="80.242915" y="345.647506" style="fill: #32cd32; stroke: #32cd32"/>
     <use xlink:href="#m689b345c10" x="88.680209" y="340.971515" style="fill: #32cd32; stroke: #32cd32"/>
     <use xlink:href="#m689b345c10" x="97.117503" y="335.048587" style="fill: #32cd32; stroke: #32cd32"/>
     <use xlink:href="#m689b345c10" x="105.554797" y="329.936901" style="fill: #32cd32; stroke: #32cd32"/>
     <use xlink:href="#m689b345c10" x="113.992091" y="324.197975" style="fill: #32cd32; stroke: #32cd32"/>
     <use xlink:href="#m689b345c10" x="122.429384" y="318.83929" style="fill: #32cd32; stroke: #32cd32"/>
     <use xlink:href="#m689b345c10" x="130.866678" y="313.173757" style="fill: #32cd32; stroke: #32cd32"/>
     <use xlink:href="#m689b345c10" x="139.303972" y="307.658518" style="fill: #32cd32; stroke: #32cd32"/>
     <use xlink:href="#m689b345c10" x="147.741266" y="302.015433" style="fill: #32cd32; stroke: #32cd32"/>
     <use xlink:href="#m689b345c10" x="156.17856" y="296.395856" style="fill: #32cd32; stroke: #32cd32"/>
     <use xlink:href="#m689b345c10" x="164.615853" y="290.750999" style="fill: #32cd32; stroke: #32cd32"/>
     <use xlink:href="#m689b345c10" x="173.053147" y="285.059936" style="fill: #32cd32; stroke: #32cd32"/>
     <use xlink:href="#m689b345c10" x="181.490441" y="279.39725" style="fill: #32cd32; stroke: #32cd32"/>
     <use xlink:href="#m689b345c10" x="189.927735" y="273.660273" style="fill: #32cd32; stroke: #32cd32"/>
     <use xlink:href="#m689b345c10" x="198.365029" y="267.974572" style="fill: #32cd32; stroke: #32cd32"/>
     <use xlink:href="#m689b345c10" x="206.802322" y="262.205146" style="fill: #32cd32; stroke: #32cd32"/>
     <use xlink:href="#m689b345c10" x="215.239616" y="256.496091" style="fill: #32cd32; stroke: #32cd32"/>
     <use xlink:href="#m689b345c10" x="223.67691" y="250.711372" style="fill: #32cd32; stroke: #32cd32"/>
     <use xlink:href="#m689b345c10" x="232.114204" y="244.976932" style="fill: #32cd32; stroke: #32cd32"/>
     <use xlink:href="#m689b345c10" x="240.551498" y="239.182659" style="fill: #32cd32; stroke: #32cd32"/>
     <use xlink:href="#m689b345c10" x="248.988791" y="233.431252" style="fill: #32cd32; stroke: #32cd32"/>
     <use xlink:href="#m689b345c10" x="257.426085" y="227.635199" style="fill: #32cd32; stroke: #32cd32"/>
     <use xlink:href="#m689b345c10" x="265.863379" y="221.868181" style="fill: #32cd32; stroke: #32cd32"/>
     <use xlink:href="#m689b345c10" x="274.300673" y="216.073373" style="fill: #32cd32; stroke: #32cd32"/>
     <use xlink:href="#m689b345c10" x="282.737967" y="210.29716" style="fill: #32cd32; stroke: #32cd32"/>
     <use xlink:href="#m689b345c10" x="291.17526" y="204.49991" style="fill: #32cd32; stroke: #32cd32"/>
     <use xlink:href="#m689b345c10" x="299.612554" y="198.716677" style="fill: #32cd32; stroke: #32cd32"/>
     <use xlink:href="#m689b345c10" x="308.049848" y="192.924963" style="fill: #32cd32; stroke: #32cd32"/>
     <use xlink:href="#m689b345c10" x="316.487142" y="187.137407" style="fill: #32cd32; stroke: #32cd32"/>
     <use xlink:href="#m689b345c10" x="324.924436" y="181.345932" style="fill: #32cd32; stroke: #32cd32"/>
     <use xlink:href="#m689b345c10" x="333.361729" y="175.554707" style="fill: #32cd32; stroke: #32cd32"/>
     <use xlink:href="#m689b345c10" x="341.799023" y="169.768573" style="fill: #32cd32; stroke: #32cd32"/>
     <use xlink:href="#m689b345c10" x="350.236317" y="163.97338" style="fill: #32cd32; stroke: #32cd32"/>
     <use xlink:href="#m689b345c10" x="358.673611" y="158.184572" style="fill: #32cd32; stroke: #32cd32"/>
     <use xlink:href="#m689b345c10" x="367.110904" y="152.393116" style="fill: #32cd32; stroke: #32cd32"/>
     <use xlink:href="#m689b345c10" x="375.548198" y="146.600775" style="fill: #32cd32; stroke: #32cd32"/>
     <use xlink:href="#m689b345c10" x="383.985492" y="140.813439" style="fill: #32cd32; stroke: #32cd32"/>
     <use xlink:href="#m689b345c10" x="392.422786" y="135.02467" style="fill: #32cd32; stroke: #32cd32"/>
     <use xlink:href="#m689b345c10" x="400.86008" y="129.224071" style="fill: #32cd32; stroke: #32cd32"/>
     <use xlink:href="#m689b345c10" x="409.297373" y="123.436651" style="fill: #32cd32; stroke: #32cd32"/>
     <use xlink:href="#m689b345c10" x="417.734667" y="117.649413" style="fill: #32cd32; stroke: #32cd32"/>
     <use xlink:href="#m689b345c10" x="426.171961" y="111.856379" style="fill: #32cd32; stroke: #32cd32"/>
     <use xlink:href="#m689b345c10" x="434.609255" y="106.061247" style="fill: #32cd32; stroke: #32cd32"/>
     <use xlink:href="#m689b345c10" x="443.046549" y="100.271832" style="fill: #32cd32; stroke: #32cd32"/>
     <use xlink:href="#m689b345c10" x="451.483842" y="94.481118" style="fill: #32cd32; stroke: #32cd32"/>
     <use xlink:href="#m689b345c10" x="459.921136" y="88.681155" style="fill: #32cd32; stroke: #32cd32"/>
     <use xlink:href="#m689b345c10" x="468.35843" y="82.89404" style="fill: #32cd32; stroke: #32cd32"/>
     <use xlink:href="#m689b345c10" x="476.795724" y="77.096854" style="fill: #32cd32; stroke: #32cd32"/>
     <use xlink:href="#m689b345c10" x="485.233018" y="71.299298" style="fill: #32cd32; stroke: #32cd32"/>
     <use xlink:href="#m689b345c10" x="493.670311" y="65.505228" style="fill: #32cd32; stroke: #32cd32"/>
     <use xlink:href="#m689b345c10" x="502.107605" y="59.71049" style="fill: #32cd32; stroke: #32cd32"/>
     <use xlink:href="#m689b345c10" x="510.544899" y="53.918698" style="fill: #32cd32; stroke: #32cd32"/>
     <use xlink:href="#m689b345c10" x="518.982193" y="48.126814" style="fill: #32cd32; stroke: #32cd32"/>
     <use xlink:href="#m689b345c10" x="527.419487" y="42.324739" style="fill: #32cd32; stroke: #32cd32"/>
     <use xlink:href="#m689b345c10" x="535.85678" y="36.533898" style="fill: #32cd32; stroke: #32cd32"/>
     <use xlink:href="#m689b345c10" x="544.294074" y="30.750231" style="fill: #32cd32; stroke: #32cd32"/>
     <use xlink:href="#m689b345c10" x="552.731368" y="24.945972" style="fill: #32cd32; stroke: #32cd32"/>
    </g>
   </g>
   <g id="matplotlib.axis_1">
    <g id="xtick_1">
     <g id="line2d_1">
      <defs>
       <path id="m0fde36fa92" d="M 0 0 
L 0 3.5 
" style="stroke: #000000; stroke-width: 0.8"/>
      </defs>
      <g>
       <use xlink:href="#m0fde36fa92" x="46.49374" y="382.145609" style="stroke: #000000; stroke-width: 0.8"/>
      </g>
     </g>
     <g id="text_1">
      <!-- $\mathdefault{0}$ -->
      <g transform="translate(43.754007 396.755955) scale(0.11 -0.11)">
       <defs>
        <path id="CMR17-30" d="M 2688 2025 
C 2688 2416 2682 3080 2413 3591 
C 2176 4039 1798 4198 1466 4198 
C 1158 4198 768 4058 525 3597 
C 269 3118 243 2524 243 2025 
C 243 1661 250 1106 448 619 
C 723 -39 1216 -128 1466 -128 
C 1760 -128 2208 -7 2470 600 
C 2662 1042 2688 1559 2688 2025 
z
M 1466 -26 
C 1056 -26 813 325 723 812 
C 653 1188 653 1738 653 2096 
C 653 2588 653 2997 736 3387 
C 858 3929 1216 4096 1466 4096 
C 1728 4096 2067 3923 2189 3400 
C 2272 3036 2278 2607 2278 2096 
C 2278 1680 2278 1169 2202 792 
C 2067 95 1690 -26 1466 -26 
z
" transform="scale(0.015625)"/>
       </defs>
       <use xlink:href="#CMR17-30" transform="scale(0.996264)"/>
      </g>
     </g>
    </g>
    <g id="xtick_2">
     <g id="line2d_2">
      <g>
       <use xlink:href="#m0fde36fa92" x="130.866678" y="382.145609" style="stroke: #000000; stroke-width: 0.8"/>
      </g>
     </g>
     <g id="text_2">
      <!-- $\mathdefault{10}$ -->
      <g transform="translate(125.387211 396.755955) scale(0.11 -0.11)">
       <defs>
        <path id="CMR17-31" d="M 1702 4058 
C 1702 4192 1696 4192 1606 4192 
C 1357 3916 979 3827 621 3827 
C 602 3827 570 3827 563 3808 
C 557 3795 557 3782 557 3648 
C 755 3648 1088 3686 1344 3839 
L 1344 461 
C 1344 236 1331 160 781 160 
L 589 160 
L 589 0 
C 896 0 1216 0 1523 0 
C 1830 0 2150 0 2458 0 
L 2458 160 
L 2266 160 
C 1715 160 1702 230 1702 458 
L 1702 4058 
z
" transform="scale(0.015625)"/>
       </defs>
       <use xlink:href="#CMR17-31" transform="scale(0.996264)"/>
       <use xlink:href="#CMR17-30" transform="translate(45.690477 0) scale(0.996264)"/>
      </g>
     </g>
    </g>
    <g id="xtick_3">
     <g id="line2d_3">
      <g>
       <use xlink:href="#m0fde36fa92" x="215.239616" y="382.145609" style="stroke: #000000; stroke-width: 0.8"/>
      </g>
     </g>
     <g id="text_3">
      <!-- $\mathdefault{20}$ -->
      <g transform="translate(209.760149 396.755955) scale(0.11 -0.11)">
       <defs>
        <path id="CMR17-32" d="M 2669 989 
L 2554 989 
C 2490 536 2438 459 2413 420 
C 2381 369 1920 369 1830 369 
L 602 369 
C 832 619 1280 1072 1824 1597 
C 2214 1967 2669 2402 2669 3035 
C 2669 3790 2067 4224 1395 4224 
C 691 4224 262 3604 262 3030 
C 262 2780 448 2748 525 2748 
C 589 2748 781 2787 781 3010 
C 781 3207 614 3264 525 3264 
C 486 3264 448 3258 422 3245 
C 544 3790 915 4058 1306 4058 
C 1862 4058 2227 3617 2227 3035 
C 2227 2479 1901 2000 1536 1584 
L 262 146 
L 262 0 
L 2515 0 
L 2669 989 
z
" transform="scale(0.015625)"/>
       </defs>
       <use xlink:href="#CMR17-32" transform="scale(0.996264)"/>
       <use xlink:href="#CMR17-30" transform="translate(45.690477 0) scale(0.996264)"/>
      </g>
     </g>
    </g>
    <g id="xtick_4">
     <g id="line2d_4">
      <g>
       <use xlink:href="#m0fde36fa92" x="299.612554" y="382.145609" style="stroke: #000000; stroke-width: 0.8"/>
      </g>
     </g>
     <g id="text_4">
      <!-- $\mathdefault{30}$ -->
      <g transform="translate(294.133087 396.755955) scale(0.11 -0.11)">
       <defs>
        <path id="CMR17-33" d="M 1414 2157 
C 1984 2157 2234 1662 2234 1090 
C 2234 320 1824 25 1453 25 
C 1114 25 563 194 390 693 
C 422 680 454 680 486 680 
C 640 680 755 782 755 948 
C 755 1133 614 1216 486 1216 
C 378 1216 211 1165 211 926 
C 211 335 787 -128 1466 -128 
C 2176 -128 2720 430 2720 1085 
C 2720 1707 2208 2157 1600 2227 
C 2086 2328 2554 2756 2554 3329 
C 2554 3820 2048 4179 1472 4179 
C 890 4179 378 3829 378 3329 
C 378 3110 544 3072 627 3072 
C 762 3072 877 3155 877 3321 
C 877 3486 762 3569 627 3569 
C 602 3569 570 3569 544 3557 
C 730 3959 1235 4032 1459 4032 
C 1683 4032 2106 3925 2106 3320 
C 2106 3143 2080 2828 1862 2550 
C 1670 2304 1453 2304 1242 2284 
C 1210 2284 1062 2269 1037 2269 
C 992 2263 966 2257 966 2208 
C 966 2163 973 2157 1101 2157 
L 1414 2157 
z
" transform="scale(0.015625)"/>
       </defs>
       <use xlink:href="#CMR17-33" transform="scale(0.996264)"/>
       <use xlink:href="#CMR17-30" transform="translate(45.690477 0) scale(0.996264)"/>
      </g>
     </g>
    </g>
    <g id="xtick_5">
     <g id="line2d_5">
      <g>
       <use xlink:href="#m0fde36fa92" x="383.985492" y="382.145609" style="stroke: #000000; stroke-width: 0.8"/>
      </g>
     </g>
     <g id="text_5">
      <!-- $\mathdefault{40}$ -->
      <g transform="translate(378.506025 396.755955) scale(0.11 -0.11)">
       <defs>
        <path id="CMR17-34" d="M 2150 4122 
C 2150 4256 2144 4256 2029 4256 
L 128 1254 
L 128 1088 
L 1779 1088 
L 1779 457 
C 1779 224 1766 160 1318 160 
L 1197 160 
L 1197 0 
C 1402 0 1747 0 1965 0 
C 2182 0 2528 0 2733 0 
L 2733 160 
L 2611 160 
C 2163 160 2150 224 2150 457 
L 2150 1088 
L 2803 1088 
L 2803 1254 
L 2150 1254 
L 2150 4122 
z
M 1798 3703 
L 1798 1254 
L 256 1254 
L 1798 3703 
z
" transform="scale(0.015625)"/>
       </defs>
       <use xlink:href="#CMR17-34" transform="scale(0.996264)"/>
       <use xlink:href="#CMR17-30" transform="translate(45.690477 0) scale(0.996264)"/>
      </g>
     </g>
    </g>
    <g id="xtick_6">
     <g id="line2d_6">
      <g>
       <use xlink:href="#m0fde36fa92" x="468.35843" y="382.145609" style="stroke: #000000; stroke-width: 0.8"/>
      </g>
     </g>
     <g id="text_6">
      <!-- $\mathdefault{50}$ -->
      <g transform="translate(462.878963 396.755955) scale(0.11 -0.11)">
       <defs>
        <path id="CMR17-35" d="M 730 3692 
C 794 3666 1056 3584 1325 3584 
C 1920 3584 2246 3911 2432 4100 
C 2432 4157 2432 4192 2394 4192 
C 2387 4192 2374 4192 2323 4163 
C 2099 4058 1837 3973 1517 3973 
C 1325 3973 1037 3999 723 4139 
C 653 4171 640 4171 634 4171 
C 602 4171 595 4164 595 4037 
L 595 2203 
C 595 2089 595 2057 659 2057 
C 691 2057 704 2070 736 2114 
C 941 2401 1222 2522 1542 2522 
C 1766 2522 2246 2382 2246 1289 
C 2246 1085 2246 715 2054 421 
C 1894 159 1645 25 1370 25 
C 947 25 518 320 403 814 
C 429 807 480 795 506 795 
C 589 795 749 840 749 1038 
C 749 1210 627 1280 506 1280 
C 358 1280 262 1190 262 1011 
C 262 454 704 -128 1382 -128 
C 2042 -128 2669 440 2669 1264 
C 2669 2030 2170 2624 1549 2624 
C 1222 2624 947 2503 730 2274 
L 730 3692 
z
" transform="scale(0.015625)"/>
       </defs>
       <use xlink:href="#CMR17-35" transform="scale(0.996264)"/>
       <use xlink:href="#CMR17-30" transform="translate(45.690477 0) scale(0.996264)"/>
      </g>
     </g>
    </g>
    <g id="xtick_7">
     <g id="line2d_7">
      <g>
       <use xlink:href="#m0fde36fa92" x="552.731368" y="382.145609" style="stroke: #000000; stroke-width: 0.8"/>
      </g>
     </g>
     <g id="text_7">
      <!-- $\mathdefault{60}$ -->
      <g transform="translate(547.251901 396.755955) scale(0.11 -0.11)">
       <defs>
        <path id="CMR17-36" d="M 678 2176 
C 678 3690 1395 4032 1811 4032 
C 1946 4032 2272 4009 2400 3776 
C 2298 3776 2106 3776 2106 3553 
C 2106 3381 2246 3323 2336 3323 
C 2394 3323 2566 3348 2566 3560 
C 2566 3954 2246 4179 1805 4179 
C 1043 4179 243 3390 243 1984 
C 243 253 966 -128 1478 -128 
C 2099 -128 2688 427 2688 1283 
C 2688 2081 2170 2662 1517 2662 
C 1126 2662 838 2407 678 1960 
L 678 2176 
z
M 1478 25 
C 691 25 691 1200 691 1436 
C 691 1896 909 2560 1504 2560 
C 1613 2560 1926 2560 2138 2120 
C 2253 1870 2253 1609 2253 1289 
C 2253 944 2253 690 2118 434 
C 1978 171 1773 25 1478 25 
z
" transform="scale(0.015625)"/>
       </defs>
       <use xlink:href="#CMR17-36" transform="scale(0.996264)"/>
       <use xlink:href="#CMR17-30" transform="translate(45.690477 0) scale(0.996264)"/>
      </g>
     </g>
    </g>
    <g id="text_8">
     <!-- N -->
     <g transform="translate(303.940251 410.497197) scale(0.11 -0.11)">
      <defs>
       <path id="CMR17-4e" d="M 1312 4250 
C 1267 4320 1261 4320 1139 4320 
L 326 4320 
L 326 4160 
L 448 4160 
C 704 4160 819 4129 838 4122 
L 838 610 
C 838 451 838 153 326 153 
L 326 -13 
C 474 0 742 0 902 0 
C 1062 0 1331 0 1478 -13 
L 1478 153 
C 966 153 966 451 966 610 
L 966 4033 
C 1011 3995 1011 3982 1056 3919 
L 3430 76 
C 3475 0 3494 0 3526 0 
C 3590 0 3590 19 3590 139 
L 3590 3705 
C 3590 3863 3590 4160 4102 4160 
L 4102 4326 
C 3955 4320 3686 4320 3526 4320 
C 3366 4320 3098 4320 2950 4326 
L 2950 4160 
C 3462 4160 3462 3862 3462 3703 
L 3462 763 
L 1312 4250 
z
" transform="scale(0.015625)"/>
      </defs>
      <use xlink:href="#CMR17-4e" transform="scale(0.996264)"/>
     </g>
    </g>
   </g>
   <g id="matplotlib.axis_2">
    <g id="ytick_1">
     <g id="line2d_8">
      <defs>
       <path id="m2d05309673" d="M 0 0 
L -3.5 0 
" style="stroke: #000000; stroke-width: 0.8"/>
      </defs>
      <g>
       <use xlink:href="#m2d05309673" x="38.900176" y="373.008582" style="stroke: #000000; stroke-width: 0.8"/>
      </g>
     </g>
     <g id="text_9">
      <!-- $\mathdefault{0}$ -->
      <g transform="translate(26.420709 376.813756) scale(0.11 -0.11)">
       <use xlink:href="#CMR17-30" transform="scale(0.996264)"/>
      </g>
     </g>
    </g>
    <g id="ytick_2">
     <g id="line2d_9">
      <g>
       <use xlink:href="#m2d05309673" x="38.900176" y="318.568062" style="stroke: #000000; stroke-width: 0.8"/>
      </g>
     </g>
     <g id="text_10">
      <!-- $\mathdefault{10}$ -->
      <g transform="translate(20.941241 322.373235) scale(0.11 -0.11)">
       <use xlink:href="#CMR17-31" transform="scale(0.996264)"/>
       <use xlink:href="#CMR17-30" transform="translate(45.690477 0) scale(0.996264)"/>
      </g>
     </g>
    </g>
    <g id="ytick_3">
     <g id="line2d_10">
      <g>
       <use xlink:href="#m2d05309673" x="38.900176" y="264.127542" style="stroke: #000000; stroke-width: 0.8"/>
      </g>
     </g>
     <g id="text_11">
      <!-- $\mathdefault{20}$ -->
      <g transform="translate(20.941241 267.932715) scale(0.11 -0.11)">
       <use xlink:href="#CMR17-32" transform="scale(0.996264)"/>
       <use xlink:href="#CMR17-30" transform="translate(45.690477 0) scale(0.996264)"/>
      </g>
     </g>
    </g>
    <g id="ytick_4">
     <g id="line2d_11">
      <g>
       <use xlink:href="#m2d05309673" x="38.900176" y="209.687022" style="stroke: #000000; stroke-width: 0.8"/>
      </g>
     </g>
     <g id="text_12">
      <!-- $\mathdefault{30}$ -->
      <g transform="translate(20.941241 213.492195) scale(0.11 -0.11)">
       <use xlink:href="#CMR17-33" transform="scale(0.996264)"/>
       <use xlink:href="#CMR17-30" transform="translate(45.690477 0) scale(0.996264)"/>
      </g>
     </g>
    </g>
    <g id="ytick_5">
     <g id="line2d_12">
      <g>
       <use xlink:href="#m2d05309673" x="38.900176" y="155.246502" style="stroke: #000000; stroke-width: 0.8"/>
      </g>
     </g>
     <g id="text_13">
      <!-- $\mathdefault{40}$ -->
      <g transform="translate(20.941241 159.051675) scale(0.11 -0.11)">
       <use xlink:href="#CMR17-34" transform="scale(0.996264)"/>
       <use xlink:href="#CMR17-30" transform="translate(45.690477 0) scale(0.996264)"/>
      </g>
     </g>
    </g>
    <g id="ytick_6">
     <g id="line2d_13">
      <g>
       <use xlink:href="#m2d05309673" x="38.900176" y="100.805981" style="stroke: #000000; stroke-width: 0.8"/>
      </g>
     </g>
     <g id="text_14">
      <!-- $\mathdefault{50}$ -->
      <g transform="translate(20.941241 104.611155) scale(0.11 -0.11)">
       <use xlink:href="#CMR17-35" transform="scale(0.996264)"/>
       <use xlink:href="#CMR17-30" transform="translate(45.690477 0) scale(0.996264)"/>
      </g>
     </g>
    </g>
    <g id="ytick_7">
     <g id="line2d_14">
      <g>
       <use xlink:href="#m2d05309673" x="38.900176" y="46.365461" style="stroke: #000000; stroke-width: 0.8"/>
      </g>
     </g>
     <g id="text_15">
      <!-- $\mathdefault{60}$ -->
      <g transform="translate(20.941241 50.170635) scale(0.11 -0.11)">
       <use xlink:href="#CMR17-36" transform="scale(0.996264)"/>
       <use xlink:href="#CMR17-30" transform="translate(45.690477 0) scale(0.996264)"/>
      </g>
     </g>
    </g>
    <g id="text_16">
     <!-- Maximal photon expectation value during first bump -->
     <g transform="translate(14.810347 322.131259) rotate(-90) scale(0.11 -0.11)">
      <defs>
       <path id="CMR17-4d" d="M 1338 4224 
C 1299 4320 1293 4320 1158 4320 
L 339 4320 
L 339 4160 
C 781 4160 851 4160 851 3875 
L 851 610 
C 851 451 851 153 339 153 
L 339 -13 
C 486 0 755 0 915 0 
C 1075 0 1344 0 1491 -13 
L 1491 153 
C 979 153 979 451 979 610 
L 979 4135 
L 986 4135 
L 2490 89 
C 2515 25 2528 -13 2579 -13 
C 2630 -13 2643 25 2669 89 
L 4186 4166 
L 4192 4166 
L 4192 438 
C 4192 153 4122 153 3680 153 
L 3680 -13 
C 3853 0 4198 0 4384 0 
C 4570 0 4922 0 5094 -13 
L 5094 153 
C 4653 153 4582 153 4582 438 
L 4582 3875 
C 4582 4160 4653 4160 5094 4160 
L 5094 4320 
L 4282 4320 
C 4147 4320 4141 4314 4102 4218 
L 2720 502 
L 1338 4224 
z
" transform="scale(0.015625)"/>
       <path id="CMR17-61" d="M 2304 1653 
C 2304 2072 2304 2294 2035 2543 
C 1798 2752 1523 2816 1306 2816 
C 800 2816 435 2407 435 1971 
C 435 1728 627 1728 666 1728 
C 749 1728 896 1778 896 1954 
C 896 2112 774 2181 666 2181 
C 640 2181 608 2174 589 2168 
C 723 2592 1069 2714 1293 2714 
C 1613 2714 1965 2429 1965 1885 
L 1965 1600 
C 1587 1600 1133 1549 774 1357 
C 371 1133 256 813 256 570 
C 256 77 832 -64 1171 -64 
C 1523 -64 1850 139 1990 511 
C 2003 233 2182 -18 2464 -18 
C 2598 -18 2938 70 2938 567 
L 2938 920 
L 2822 920 
L 2822 562 
C 2822 178 2650 128 2566 128 
C 2304 128 2304 458 2304 738 
L 2304 1653 
z
M 1965 870 
C 1965 317 1568 38 1216 38 
C 896 38 646 275 646 570 
C 646 761 730 1100 1101 1305 
C 1408 1478 1760 1504 1965 1504 
L 1965 870 
z
" transform="scale(0.015625)"/>
       <path id="CMR17-78" d="M 1664 1477 
C 1856 1726 2074 2006 2253 2216 
C 2464 2458 2707 2560 2989 2560 
L 2989 2726 
C 2880 2726 2656 2726 2541 2726 
C 2368 2726 2170 2726 2022 2732 
L 2022 2566 
C 2112 2553 2163 2489 2163 2400 
C 2163 2285 2099 2215 2067 2171 
L 1594 1573 
L 1030 2306 
C 973 2376 973 2388 973 2420 
C 973 2497 1037 2560 1146 2560 
L 1146 2732 
C 992 2726 717 2726 557 2726 
C 384 2726 179 2726 38 2732 
L 38 2560 
C 384 2560 461 2534 614 2343 
L 1350 1395 
C 1363 1382 1395 1344 1395 1325 
C 1395 1299 838 619 768 530 
C 480 185 179 160 6 160 
L 6 0 
C 115 0 339 0 454 0 
C 582 0 864 0 979 -6 
L 979 160 
C 941 166 838 179 838 325 
C 838 440 890 510 947 586 
L 1478 1236 
L 2035 512 
C 2086 442 2163 346 2163 301 
C 2163 211 2086 160 1984 160 
L 1984 -6 
C 2138 0 2413 0 2573 0 
C 2746 0 2950 0 3091 -6 
L 3091 160 
C 2771 160 2675 172 2522 370 
L 1664 1477 
z
" transform="scale(0.015625)"/>
       <path id="CMR17-69" d="M 992 3909 
C 992 4049 877 4170 730 4170 
C 589 4170 467 4056 467 3909 
C 467 3769 582 3648 730 3648 
C 870 3648 992 3763 992 3909 
z
M 243 2706 
L 243 2541 
C 602 2541 653 2502 653 2197 
L 653 427 
C 653 184 627 153 218 153 
L 218 -13 
C 371 0 646 0 806 0 
C 960 0 1222 0 1370 -13 
L 1370 153 
C 992 153 979 191 979 420 
L 979 2776 
L 243 2706 
z
" transform="scale(0.015625)"/>
       <path id="CMR17-6d" d="M 4326 1933 
C 4326 2252 4269 2790 3507 2790 
C 3072 2790 2771 2496 2656 2151 
L 2650 2151 
C 2573 2676 2195 2790 1837 2790 
C 1331 2790 1069 2400 973 2144 
L 966 2144 
L 966 2790 
L 211 2720 
L 211 2554 
C 589 2554 646 2515 646 2208 
L 646 428 
C 646 184 621 153 211 153 
L 211 -13 
C 365 0 646 0 813 0 
C 979 0 1267 0 1421 -13 
L 1421 153 
C 1011 153 986 178 986 428 
L 986 1658 
C 986 2247 1344 2688 1792 2688 
C 2266 2688 2317 2266 2317 1958 
L 2317 428 
C 2317 184 2291 153 1882 153 
L 1882 -13 
C 2035 0 2317 0 2483 0 
C 2650 0 2938 0 3091 -13 
L 3091 153 
C 2682 153 2656 178 2656 428 
L 2656 1658 
C 2656 2247 3014 2688 3462 2688 
C 3936 2688 3987 2266 3987 1958 
L 3987 428 
C 3987 184 3962 153 3552 153 
L 3552 -13 
C 3706 0 3987 0 4154 0 
C 4320 0 4608 0 4762 -13 
L 4762 153 
C 4352 153 4326 178 4326 428 
L 4326 1933 
z
" transform="scale(0.015625)"/>
       <path id="CMR17-6c" d="M 979 4396 
L 218 4326 
L 218 4160 
C 595 4160 653 4122 653 3817 
L 653 426 
C 653 184 627 153 218 153 
L 218 -13 
C 371 0 653 0 813 0 
C 979 0 1261 0 1414 -13 
L 1414 153 
C 1005 153 979 178 979 426 
L 979 4396 
z
" transform="scale(0.015625)"/>
       <path id="CMR17-70" d="M 1408 -1063 
C 998 -1063 973 -1037 973 -789 
L 973 402 
C 1158 134 1427 -38 1766 -38 
C 2406 -38 3053 523 3053 1388 
C 3053 2191 2496 2802 1837 2802 
C 1453 2802 1139 2592 960 2338 
L 960 2802 
L 198 2732 
L 198 2567 
C 576 2567 634 2528 634 2223 
L 634 -789 
C 634 -1031 608 -1063 198 -1063 
L 198 -1228 
C 352 -1216 634 -1216 800 -1216 
C 966 -1216 1254 -1216 1408 -1228 
L 1408 -1063 
z
M 973 2012 
C 973 2102 973 2235 1222 2471 
C 1254 2497 1472 2688 1792 2688 
C 2259 2688 2643 2108 2643 1382 
C 2643 656 2234 64 1728 64 
C 1498 64 1248 172 1056 472 
C 973 612 973 650 973 752 
L 973 2012 
z
" transform="scale(0.015625)"/>
       <path id="CMR17-68" d="M 2656 1933 
C 2656 2259 2592 2790 1837 2790 
C 1312 2790 1056 2368 979 2157 
L 973 2157 
L 973 4396 
L 211 4326 
L 211 4160 
C 589 4160 646 4122 646 3817 
L 646 426 
C 646 184 621 153 211 153 
L 211 -13 
C 365 0 646 0 813 0 
C 979 0 1267 0 1421 -13 
L 1421 153 
C 1011 153 986 178 986 428 
L 986 1658 
C 986 2247 1344 2688 1792 2688 
C 2266 2688 2317 2266 2317 1958 
L 2317 428 
C 2317 184 2291 153 1882 153 
L 1882 -13 
C 2035 0 2317 0 2483 0 
C 2650 0 2938 0 3091 -13 
L 3091 153 
C 2682 153 2656 178 2656 428 
L 2656 1933 
z
" transform="scale(0.015625)"/>
       <path id="CMR17-6f" d="M 2758 1356 
C 2758 2176 2163 2816 1466 2816 
C 768 2816 173 2176 173 1356 
C 173 551 768 -64 1466 -64 
C 2163 -64 2758 551 2758 1356 
z
M 1466 51 
C 1165 51 909 230 762 480 
C 602 767 582 1126 582 1408 
C 582 1677 595 2010 762 2298 
C 890 2509 1139 2714 1466 2714 
C 1754 2714 1997 2554 2150 2330 
C 2349 2029 2349 1607 2349 1408 
C 2349 1158 2336 775 2163 467 
C 1984 173 1709 51 1466 51 
z
" transform="scale(0.015625)"/>
       <path id="CMR17-74" d="M 966 2560 
L 1862 2560 
L 1862 2725 
L 966 2725 
L 966 3904 
L 851 3904 
C 838 3245 614 2668 70 2668 
L 70 2560 
L 627 2560 
L 627 771 
C 627 650 627 -64 1370 -64 
C 1747 -64 1965 306 1965 777 
L 1965 1140 
L 1850 1140 
L 1850 783 
C 1850 344 1677 51 1408 51 
C 1222 51 966 178 966 758 
L 966 2560 
z
" transform="scale(0.015625)"/>
       <path id="CMR17-6e" d="M 2656 1933 
C 2656 2259 2592 2790 1837 2790 
C 1331 2790 1069 2400 973 2144 
L 966 2144 
L 966 2790 
L 211 2720 
L 211 2554 
C 589 2554 646 2515 646 2208 
L 646 428 
C 646 184 621 153 211 153 
L 211 -13 
C 365 0 646 0 813 0 
C 979 0 1267 0 1421 -13 
L 1421 153 
C 1011 153 986 178 986 428 
L 986 1658 
C 986 2247 1344 2688 1792 2688 
C 2266 2688 2317 2266 2317 1958 
L 2317 428 
C 2317 184 2291 153 1882 153 
L 1882 -13 
C 2035 0 2317 0 2483 0 
C 2650 0 2938 0 3091 -13 
L 3091 153 
C 2682 153 2656 178 2656 428 
L 2656 1933 
z
" transform="scale(0.015625)"/>
       <path id="CMR17-65" d="M 2438 1472 
C 2464 1498 2464 1511 2464 1576 
C 2464 2238 2118 2816 1389 2816 
C 710 2816 173 2169 173 1383 
C 173 551 781 -64 1459 -64 
C 2176 -64 2458 607 2458 740 
C 2458 784 2419 784 2406 784 
C 2362 784 2355 771 2330 696 
C 2189 265 1837 51 1504 51 
C 1229 51 954 203 781 480 
C 582 803 582 1176 582 1472 
L 2438 1472 
z
M 589 1568 
C 634 2505 1126 2714 1382 2714 
C 1818 2714 2112 2297 2118 1568 
L 589 1568 
z
" transform="scale(0.015625)"/>
       <path id="CMR17-63" d="M 2234 2240 
C 2112 2240 1933 2240 1933 2017 
C 1933 1838 2080 1787 2163 1787 
C 2208 1787 2394 1807 2394 2024 
C 2394 2467 1958 2803 1466 2803 
C 787 2803 211 2178 211 1363 
C 211 516 813 -64 1466 -64 
C 2259 -64 2458 677 2458 748 
C 2458 774 2451 793 2406 793 
C 2362 793 2355 787 2330 703 
C 2163 180 1798 51 1523 51 
C 1114 51 621 427 621 1369 
C 621 2338 1094 2688 1472 2688 
C 1722 2688 2093 2573 2234 2240 
z
" transform="scale(0.015625)"/>
       <path id="CMR17-76" d="M 2502 2163 
C 2560 2304 2662 2560 3034 2560 
L 3034 2726 
C 2912 2726 2752 2726 2630 2726 
C 2496 2726 2285 2726 2157 2732 
L 2157 2566 
C 2317 2553 2406 2477 2406 2311 
C 2406 2253 2406 2240 2368 2151 
L 1664 377 
L 902 2286 
C 864 2369 864 2381 864 2407 
C 864 2560 1075 2560 1171 2560 
L 1171 2732 
C 1018 2726 736 2726 576 2726 
C 403 2726 205 2726 64 2732 
L 64 2560 
C 307 2560 442 2560 518 2362 
L 1446 44 
C 1485 -51 1491 -64 1549 -64 
C 1606 -64 1613 -51 1651 44 
L 2502 2163 
z
" transform="scale(0.015625)"/>
       <path id="CMR17-75" d="M 1882 2693 
L 1882 2528 
C 2259 2528 2317 2489 2317 2186 
L 2317 1032 
C 2317 500 2029 38 1555 38 
C 1030 38 986 348 986 678 
L 986 2763 
L 211 2693 
L 211 2528 
C 467 2528 640 2528 646 2274 
L 646 1058 
C 646 633 646 361 813 183 
C 896 101 1056 -64 1517 -64 
C 2061 -64 2272 377 2323 506 
L 2330 506 
L 2330 -63 
L 3091 -63 
L 3091 128 
C 2714 128 2656 166 2656 473 
L 2656 2763 
L 1882 2693 
z
" transform="scale(0.015625)"/>
       <path id="CMR17-64" d="M 1869 4326 
L 1869 4160 
C 2246 4160 2304 4122 2304 3820 
L 2304 2345 
C 2278 2377 2016 2790 1498 2790 
C 845 2790 211 2208 211 1364 
C 211 525 806 -64 1434 -64 
C 1978 -64 2259 337 2291 380 
L 2291 -63 
L 3066 -63 
L 3066 128 
C 2688 128 2630 166 2630 473 
L 2630 4396 
L 1869 4326 
z
M 2291 755 
C 2291 563 2176 390 2029 262 
C 1811 70 1594 38 1472 38 
C 1286 38 621 134 621 1356 
C 621 2612 1363 2688 1530 2688 
C 1824 2688 2061 2522 2208 2291 
C 2291 2157 2291 2138 2291 2023 
L 2291 755 
z
" transform="scale(0.015625)"/>
       <path id="CMR17-72" d="M 960 1497 
C 960 2112 1222 2688 1702 2688 
C 1747 2688 1792 2682 1837 2662 
C 1837 2662 1696 2617 1696 2452 
C 1696 2298 1818 2234 1914 2234 
C 1990 2234 2131 2279 2131 2458 
C 2131 2663 1926 2790 1709 2790 
C 1222 2790 1011 2317 947 2093 
L 941 2093 
L 941 2790 
L 198 2720 
L 198 2554 
C 576 2554 634 2515 634 2208 
L 634 428 
C 634 184 608 153 198 153 
L 198 -13 
C 352 0 646 0 813 0 
C 998 0 1325 0 1498 -13 
L 1498 153 
C 1037 153 960 153 960 440 
L 960 1497 
z
" transform="scale(0.015625)"/>
       <path id="CMR17-67" d="M 710 1164 
C 832 1068 1043 960 1299 960 
C 1805 960 2240 1357 2240 1888 
C 2240 2054 2189 2310 1997 2509 
C 2176 2692 2438 2752 2586 2752 
C 2611 2752 2650 2752 2682 2734 
C 2656 2728 2598 2703 2598 2605 
C 2598 2527 2656 2471 2739 2471 
C 2835 2471 2886 2533 2886 2614 
C 2886 2731 2790 2854 2586 2854 
C 2330 2854 2106 2738 1926 2580 
C 1734 2753 1504 2816 1299 2816 
C 794 2816 358 2419 358 1888 
C 358 1522 570 1292 634 1228 
C 442 1004 442 743 442 711 
C 442 545 506 302 723 168 
C 390 85 128 -169 128 -486 
C 128 -943 736 -1280 1466 -1280 
C 2170 -1280 2803 -956 2803 -479 
C 2803 384 1856 384 1363 384 
C 1216 384 954 384 922 391 
C 723 423 589 602 589 826 
C 589 883 589 1024 710 1164 
z
M 1299 1068 
C 736 1068 736 1760 736 1889 
C 736 2016 736 2708 1299 2708 
C 1862 2708 1862 2016 1862 1889 
C 1862 1760 1862 1068 1299 1068 
z
M 1466 -1171 
C 826 -1171 384 -835 384 -486 
C 384 -289 493 -105 634 -4 
C 794 104 858 104 1293 104 
C 1818 104 2547 104 2547 -486 
C 2547 -835 2106 -1171 1466 -1171 
z
" transform="scale(0.015625)"/>
       <path id="CMR17-c" d="M 2554 2764 
C 2400 2764 1926 2764 1805 2739 
C 1766 2725 1754 2725 1677 2725 
L 947 2725 
L 947 3469 
C 947 4073 1434 4352 1818 4352 
C 1939 4352 2214 4320 2355 4101 
C 2291 4101 2086 4101 2086 3878 
C 2086 3725 2189 3648 2317 3648 
C 2432 3648 2547 3712 2547 3885 
C 2547 4205 2240 4454 1843 4454 
C 1338 4454 634 4168 634 3469 
L 634 2725 
L 122 2725 
L 122 2560 
L 634 2560 
L 634 427 
C 634 184 608 153 198 153 
L 198 -13 
C 352 0 634 0 794 0 
C 960 0 1242 0 1395 -13 
L 1395 153 
C 986 153 960 178 960 427 
L 960 2560 
L 1901 2560 
C 2176 2560 2227 2502 2227 2222 
L 2227 427 
C 2227 184 2202 153 1792 153 
L 1792 -13 
C 1946 0 2227 0 2387 0 
C 2554 0 2835 0 2989 -13 
L 2989 153 
C 2579 153 2554 178 2554 427 
L 2554 2764 
z
" transform="scale(0.015625)"/>
       <path id="CMR17-73" d="M 1978 2697 
C 1978 2813 1971 2819 1933 2819 
C 1907 2819 1901 2813 1824 2717 
C 1805 2691 1747 2626 1728 2601 
C 1523 2819 1235 2819 1126 2819 
C 416 2819 160 2447 160 2076 
C 160 1498 813 1365 998 1325 
C 1402 1243 1542 1217 1677 1101 
C 1760 1025 1901 884 1901 654 
C 1901 384 1747 38 1158 38 
C 602 38 403 460 288 1021 
C 269 1110 269 1117 218 1117 
C 166 1117 160 1110 160 983 
L 160 63 
C 160 -51 166 -58 205 -58 
C 237 -58 243 -51 275 0 
C 314 57 410 211 448 276 
C 576 103 800 -64 1158 -64 
C 1792 -64 2131 283 2131 784 
C 2131 1112 1958 1285 1875 1362 
C 1683 1561 1459 1606 1190 1657 
C 838 1735 390 1825 390 2217 
C 390 2383 480 2737 1126 2737 
C 1811 2737 1850 2094 1862 1888 
C 1869 1856 1901 1849 1920 1849 
C 1978 1849 1978 1869 1978 1978 
L 1978 2697 
z
" transform="scale(0.015625)"/>
       <path id="CMR17-62" d="M 960 4396 
L 198 4326 
L 198 4160 
C 576 4160 634 4122 634 3817 
L 634 -13 
L 749 -13 
L 934 441 
C 1120 141 1395 -64 1766 -64 
C 2406 -64 3053 500 3053 1370 
C 3053 2188 2477 2790 1830 2790 
C 1434 2790 1152 2579 960 2330 
L 960 4396 
z
M 973 2004 
C 973 2118 973 2138 1062 2272 
C 1312 2657 1670 2688 1792 2688 
C 1984 2688 2643 2585 2643 1376 
C 2643 108 1888 38 1734 38 
C 1536 38 1248 114 1043 486 
C 973 608 973 621 973 735 
L 973 2004 
z
" transform="scale(0.015625)"/>
      </defs>
      <use xlink:href="#CMR17-4d" transform="scale(0.996264)"/>
      <use xlink:href="#CMR17-61" transform="translate(84.686941 0) scale(0.996264)"/>
      <use xlink:href="#CMR17-78" transform="translate(130.377418 0) scale(0.996264)"/>
      <use xlink:href="#CMR17-69" transform="translate(178.670334 0) scale(0.996264)"/>
      <use xlink:href="#CMR17-6d" transform="translate(203.541392 0) scale(0.996264)"/>
      <use xlink:href="#CMR17-61" transform="translate(280.460982 0) scale(0.996264)"/>
      <use xlink:href="#CMR17-6c" transform="translate(326.151459 0) scale(0.996264)"/>
      <use xlink:href="#CMR17-70" transform="translate(381.098484 0) scale(0.996264)"/>
      <use xlink:href="#CMR17-68" transform="translate(431.993854 0) scale(0.996264)"/>
      <use xlink:href="#CMR17-6f" transform="translate(482.889223 0) scale(0.996264)"/>
      <use xlink:href="#CMR17-74" transform="translate(528.579701 0) scale(0.996264)"/>
      <use xlink:href="#CMR17-6f" transform="translate(563.860468 0) scale(0.996264)"/>
      <use xlink:href="#CMR17-6e" transform="translate(609.550945 0) scale(0.996264)"/>
      <use xlink:href="#CMR17-65" transform="translate(690.522282 0) scale(0.996264)"/>
      <use xlink:href="#CMR17-78" transform="translate(731.007942 0) scale(0.996264)"/>
      <use xlink:href="#CMR17-70" transform="translate(779.300858 0) scale(0.996264)"/>
      <use xlink:href="#CMR17-65" transform="translate(832.798666 0) scale(0.996264)"/>
      <use xlink:href="#CMR17-63" transform="translate(873.284327 0) scale(0.996264)"/>
      <use xlink:href="#CMR17-74" transform="translate(913.769987 0) scale(0.996264)"/>
      <use xlink:href="#CMR17-61" transform="translate(949.050755 0) scale(0.996264)"/>
      <use xlink:href="#CMR17-74" transform="translate(994.741232 0) scale(0.996264)"/>
      <use xlink:href="#CMR17-69" transform="translate(1030.022 0) scale(0.996264)"/>
      <use xlink:href="#CMR17-6f" transform="translate(1054.893059 0) scale(0.996264)"/>
      <use xlink:href="#CMR17-6e" transform="translate(1100.583536 0) scale(0.996264)"/>
      <use xlink:href="#CMR17-76" transform="translate(1181.554872 0) scale(0.996264)"/>
      <use xlink:href="#CMR17-61" transform="translate(1224.642971 0) scale(0.996264)"/>
      <use xlink:href="#CMR17-6c" transform="translate(1270.333448 0) scale(0.996264)"/>
      <use xlink:href="#CMR17-75" transform="translate(1295.204507 0) scale(0.996264)"/>
      <use xlink:href="#CMR17-65" transform="translate(1346.099876 0) scale(0.996264)"/>
      <use xlink:href="#CMR17-64" transform="translate(1416.661503 0) scale(0.996264)"/>
      <use xlink:href="#CMR17-75" transform="translate(1467.556873 0) scale(0.996264)"/>
      <use xlink:href="#CMR17-72" transform="translate(1518.452243 0) scale(0.996264)"/>
      <use xlink:href="#CMR17-69" transform="translate(1553.73301 0) scale(0.996264)"/>
      <use xlink:href="#CMR17-6e" transform="translate(1578.604069 0) scale(0.996264)"/>
      <use xlink:href="#CMR17-67" transform="translate(1629.499439 0) scale(0.996264)"/>
      <use xlink:href="#CMR17-c" transform="translate(1705.265882 0) scale(0.996264)"/>
      <use xlink:href="#CMR17-72" transform="translate(1755.008106 0) scale(0.996264)"/>
      <use xlink:href="#CMR17-73" transform="translate(1790.288873 0) scale(0.996264)"/>
      <use xlink:href="#CMR17-74" transform="translate(1826.090211 0) scale(0.996264)"/>
      <use xlink:href="#CMR17-62" transform="translate(1891.446945 0) scale(0.996264)"/>
      <use xlink:href="#CMR17-75" transform="translate(1942.342315 0) scale(0.996264)"/>
      <use xlink:href="#CMR17-6d" transform="translate(1993.237685 0) scale(0.996264)"/>
      <use xlink:href="#CMR17-70" transform="translate(2070.157275 0) scale(0.996264)"/>
     </g>
    </g>
   </g>
   <g id="line2d_15">
    <path d="M 63.368328 365.094887 
L 71.805622 361.13804 
L 80.242915 357.181193 
L 88.680209 353.224345 
L 97.117503 349.267498 
L 105.554797 345.310651 
L 113.992091 341.353803 
L 122.429384 337.396956 
L 130.866678 333.440109 
L 139.303972 329.483261 
L 147.741266 325.526414 
L 156.17856 321.569567 
L 164.615853 317.612719 
L 173.053147 313.655872 
L 181.490441 309.699025 
L 189.927735 305.742177 
L 198.365029 301.78533 
L 206.802322 297.828483 
L 215.239616 293.871635 
L 223.67691 289.914788 
L 232.114204 285.957941 
L 240.551498 282.001093 
L 248.988791 278.044246 
L 257.426085 274.087399 
L 265.863379 270.130551 
L 274.300673 266.173704 
L 282.737967 262.216857 
L 291.17526 258.260009 
L 299.612554 254.303162 
L 308.049848 250.346314 
L 316.487142 246.389467 
L 324.924436 242.43262 
L 333.361729 238.475772 
L 341.799023 234.518925 
L 350.236317 230.562078 
L 358.673611 226.60523 
L 367.110904 222.648383 
L 375.548198 218.691536 
L 383.985492 214.734688 
L 392.422786 210.777841 
L 400.86008 206.820994 
L 409.297373 202.864146 
L 417.734667 198.907299 
L 426.171961 194.950452 
L 434.609255 190.993604 
L 443.046549 187.036757 
L 451.483842 183.07991 
L 459.921136 179.123062 
L 468.35843 175.166215 
L 476.795724 171.209368 
L 485.233018 167.25252 
L 493.670311 163.295673 
L 502.107605 159.338826 
L 510.544899 155.381978 
L 518.982193 151.425131 
L 527.419487 147.468284 
L 535.85678 143.511436 
L 544.294074 139.554589 
L 552.731368 135.597741 
" clip-path="url(#pd7a65823ba)" style="fill: none; stroke: #1e90ff; stroke-opacity: 0.6; stroke-width: 3; stroke-linecap: square"/>
   </g>
   <g id="line2d_16">
    <path d="M 63.368328 361.39301 
L 71.805622 355.585224 
L 80.242915 349.777438 
L 88.680209 343.969652 
L 97.117503 338.161866 
L 105.554797 332.35408 
L 113.992091 326.546294 
L 122.429384 320.738508 
L 130.866678 314.930722 
L 139.303972 309.122936 
L 147.741266 303.31515 
L 156.17856 297.507364 
L 164.615853 291.699578 
L 173.053147 285.891792 
L 181.490441 280.084006 
L 189.927735 274.27622 
L 198.365029 268.468434 
L 206.802322 262.660649 
L 215.239616 256.852863 
L 223.67691 251.045077 
L 232.114204 245.237291 
L 240.551498 239.429505 
L 248.988791 233.621719 
L 257.426085 227.813933 
L 265.863379 222.006147 
L 274.300673 216.198361 
L 282.737967 210.390575 
L 291.17526 204.582789 
L 299.612554 198.775003 
L 308.049848 192.967217 
L 316.487142 187.159431 
L 324.924436 181.351645 
L 333.361729 175.543859 
L 341.799023 169.736073 
L 350.236317 163.928287 
L 358.673611 158.120501 
L 367.110904 152.312715 
L 375.548198 146.504929 
L 383.985492 140.697143 
L 392.422786 134.889357 
L 400.86008 129.081571 
L 409.297373 123.273785 
L 417.734667 117.465999 
L 426.171961 111.658213 
L 434.609255 105.850427 
L 443.046549 100.042641 
L 451.483842 94.234855 
L 459.921136 88.427069 
L 468.35843 82.619283 
L 476.795724 76.811497 
L 485.233018 71.003711 
L 493.670311 65.195925 
L 502.107605 59.388139 
L 510.544899 53.580353 
L 518.982193 47.772567 
L 527.419487 41.964781 
L 535.85678 36.156995 
L 544.294074 30.349209 
L 552.731368 24.541423 
" clip-path="url(#pd7a65823ba)" style="fill: none; stroke: #32cd32; stroke-opacity: 0.6; stroke-width: 3; stroke-linecap: square"/>
   </g>
   <g id="patch_3">
    <path d="M 38.900176 382.145609 
L 38.900176 7.2 
" style="fill: none; stroke: #000000; stroke-width: 0.8; stroke-linejoin: miter; stroke-linecap: square"/>
   </g>
   <g id="patch_4">
    <path d="M 577.19952 382.145609 
L 577.19952 7.2 
" style="fill: none; stroke: #000000; stroke-width: 0.8; stroke-linejoin: miter; stroke-linecap: square"/>
   </g>
   <g id="patch_5">
    <path d="M 38.900176 382.145609 
L 577.19952 382.145609 
" style="fill: none; stroke: #000000; stroke-width: 0.8; stroke-linejoin: miter; stroke-linecap: square"/>
   </g>
   <g id="patch_6">
    <path d="M 38.900176 7.2 
L 577.19952 7.2 
" style="fill: none; stroke: #000000; stroke-width: 0.8; stroke-linejoin: miter; stroke-linecap: square"/>
   </g>
   <g id="legend_1">
    <g id="patch_7">
     <path d="M 46.600176 77.323579 
L 169.04544 77.323579 
Q 171.24544 77.323579 171.24544 75.123579 
L 171.24544 14.9 
Q 171.24544 12.7 169.04544 12.7 
L 46.600176 12.7 
Q 44.400176 12.7 44.400176 14.9 
L 44.400176 75.123579 
Q 44.400176 77.323579 46.600176 77.323579 
z
" style="fill: #ffffff; opacity: 0.8; stroke: #cccccc; stroke-linejoin: miter"/>
    </g>
    <g id="line2d_17">
     <path d="M 48.800176 20.95 
L 59.800176 20.95 
L 70.800176 20.95 
" style="fill: none; stroke: #1e90ff; stroke-opacity: 0.6; stroke-width: 3; stroke-linecap: square"/>
    </g>
    <g id="text_17">
     <!-- linear fit -->
     <g transform="translate(79.600176 24.8) scale(0.11 -0.11)">
      <use xlink:href="#CMR17-6c" transform="scale(0.996264)"/>
      <use xlink:href="#CMR17-69" transform="translate(24.871058 0) scale(0.996264)"/>
      <use xlink:href="#CMR17-6e" transform="translate(49.742117 0) scale(0.996264)"/>
      <use xlink:href="#CMR17-65" transform="translate(100.637487 0) scale(0.996264)"/>
      <use xlink:href="#CMR17-61" transform="translate(141.123147 0) scale(0.996264)"/>
      <use xlink:href="#CMR17-72" transform="translate(186.813624 0) scale(0.996264)"/>
      <use xlink:href="#CMR17-c" transform="translate(252.170358 0) scale(0.996264)"/>
      <use xlink:href="#CMR17-74" transform="translate(301.912582 0) scale(0.996264)"/>
     </g>
    </g>
    <g id="PathCollection_3">
     <g>
      <use xlink:href="#m8e1cc6c8d2" x="59.800176" y="37.243395" style="fill: #1e90ff; stroke: #1e90ff"/>
     </g>
    </g>
    <g id="text_18">
     <!-- excited state -->
     <g transform="translate(79.600176 40.130895) scale(0.11 -0.11)">
      <use xlink:href="#CMR17-65" transform="scale(0.996264)"/>
      <use xlink:href="#CMR17-78" transform="translate(40.48566 0) scale(0.996264)"/>
      <use xlink:href="#CMR17-63" transform="translate(88.778576 0) scale(0.996264)"/>
      <use xlink:href="#CMR17-69" transform="translate(129.264237 0) scale(0.996264)"/>
      <use xlink:href="#CMR17-74" transform="translate(154.135295 0) scale(0.996264)"/>
      <use xlink:href="#CMR17-65" transform="translate(189.416063 0) scale(0.996264)"/>
      <use xlink:href="#CMR17-64" transform="translate(229.901724 0) scale(0.996264)"/>
      <use xlink:href="#CMR17-73" transform="translate(310.87306 0) scale(0.996264)"/>
      <use xlink:href="#CMR17-74" transform="translate(346.674397 0) scale(0.996264)"/>
      <use xlink:href="#CMR17-61" transform="translate(381.955165 0) scale(0.996264)"/>
      <use xlink:href="#CMR17-74" transform="translate(427.645642 0) scale(0.996264)"/>
      <use xlink:href="#CMR17-65" transform="translate(462.92641 0) scale(0.996264)"/>
     </g>
    </g>
    <g id="line2d_18">
     <path d="M 48.800176 51.611789 
L 59.800176 51.611789 
L 70.800176 51.611789 
" style="fill: none; stroke: #32cd32; stroke-opacity: 0.6; stroke-width: 3; stroke-linecap: square"/>
    </g>
    <g id="text_19">
     <!-- linear fit -->
     <g transform="translate(79.600176 55.461789) scale(0.11 -0.11)">
      <use xlink:href="#CMR17-6c" transform="scale(0.996264)"/>
      <use xlink:href="#CMR17-69" transform="translate(24.871058 0) scale(0.996264)"/>
      <use xlink:href="#CMR17-6e" transform="translate(49.742117 0) scale(0.996264)"/>
      <use xlink:href="#CMR17-65" transform="translate(100.637487 0) scale(0.996264)"/>
      <use xlink:href="#CMR17-61" transform="translate(141.123147 0) scale(0.996264)"/>
      <use xlink:href="#CMR17-72" transform="translate(186.813624 0) scale(0.996264)"/>
      <use xlink:href="#CMR17-c" transform="translate(252.170358 0) scale(0.996264)"/>
      <use xlink:href="#CMR17-74" transform="translate(301.912582 0) scale(0.996264)"/>
     </g>
    </g>
    <g id="PathCollection_4">
     <g>
      <use xlink:href="#m689b345c10" x="59.800176" y="67.905184" style="fill: #32cd32; stroke: #32cd32"/>
     </g>
    </g>
    <g id="text_20">
     <!-- superradiant state -->
     <g transform="translate(79.600176 70.792684) scale(0.11 -0.11)">
      <use xlink:href="#CMR17-73" transform="scale(0.996264)"/>
      <use xlink:href="#CMR17-75" transform="translate(35.801338 0) scale(0.996264)"/>
      <use xlink:href="#CMR17-70" transform="translate(86.696707 0) scale(0.996264)"/>
      <use xlink:href="#CMR17-65" transform="translate(140.194516 0) scale(0.996264)"/>
      <use xlink:href="#CMR17-72" transform="translate(180.680176 0) scale(0.996264)"/>
      <use xlink:href="#CMR17-72" transform="translate(215.960944 0) scale(0.996264)"/>
      <use xlink:href="#CMR17-61" transform="translate(251.241712 0) scale(0.996264)"/>
      <use xlink:href="#CMR17-64" transform="translate(296.932189 0) scale(0.996264)"/>
      <use xlink:href="#CMR17-69" transform="translate(347.827559 0) scale(0.996264)"/>
      <use xlink:href="#CMR17-61" transform="translate(372.698617 0) scale(0.996264)"/>
      <use xlink:href="#CMR17-6e" transform="translate(418.389094 0) scale(0.996264)"/>
      <use xlink:href="#CMR17-74" transform="translate(466.68201 0) scale(0.996264)"/>
      <use xlink:href="#CMR17-73" transform="translate(532.038744 0) scale(0.996264)"/>
      <use xlink:href="#CMR17-74" transform="translate(567.840082 0) scale(0.996264)"/>
      <use xlink:href="#CMR17-61" transform="translate(603.12085 0) scale(0.996264)"/>
      <use xlink:href="#CMR17-74" transform="translate(648.811327 0) scale(0.996264)"/>
      <use xlink:href="#CMR17-65" transform="translate(684.092095 0) scale(0.996264)"/>
     </g>
    </g>
   </g>
  </g>
 </g>
 <defs>
  <clipPath id="pd7a65823ba">
   <rect x="38.900176" y="7.2" width="538.299344" height="374.945609"/>
  </clipPath>
 </defs>
</svg>
